<svg width="295" height="253" viewBox="0 0 295 253" fill="none" xmlns="http://www.w3.org/2000/svg">
<path d="M28.1447 105.897C28.6426 105.897 29.1456 105.877 29.6358 105.835C30.1124 105.794 30.5431 105.539 30.8045 105.141C31.0675 104.742 31.1331 104.246 30.982 103.793C30.6586 102.82 30.3656 101.843 30.0747 100.87C29.4024 98.6245 28.7072 96.3044 27.6595 94.143C26.6388 92.033 25.2738 90.1233 23.9526 88.2741C23.3906 87.4868 22.8276 86.6991 22.2936 85.8996C22.2544 85.8406 22.2112 85.7841 22.1644 85.7313L16.5447 79.3848C16.5152 79.3507 16.4822 79.3177 16.4496 79.2866C12.4467 75.4942 7.67272 74.2523 1.7372 73.5551C1.67618 73.5474 1.61566 73.5444 1.55666 73.5444C1.17066 73.5444 0.795333 73.6878 0.507991 73.9507C0.174877 74.2543 -0.0102421 74.6881 0.000437882 75.1382C0.370677 90.374 14.573 105.897 28.1447 105.897Z" fill="#D7AF76"/>
<path d="M36.4432 3.54427C36.373 3.53461 36.3013 3.53003 36.2326 3.53003C35.8655 3.53003 35.5074 3.65921 35.2247 3.90078C29.1645 9.05006 25.1417 17.5132 24.4633 26.5378C23.883 34.2518 25.8843 41.356 29.9538 46.0298C30.2493 46.369 30.6775 46.5633 31.1271 46.5633C31.1302 46.5633 31.1347 46.5633 31.1378 46.5633C31.5924 46.5602 32.0217 46.3593 32.3141 46.0125C44.6596 31.4277 46.4122 17.3652 37.5198 4.21406C37.2742 3.84789 36.8821 3.60479 36.4432 3.54427Z" fill="#D7AF76"/>
<path d="M27.1928 79.3588C27.3378 79.4026 27.4873 79.4244 27.6363 79.4244C27.8977 79.4244 28.1591 79.3573 28.3925 79.2281C28.7582 79.0242 29.0277 78.6819 29.1381 78.2786C33.7244 61.5151 26.7992 44.8386 13.0281 39.4869C12.8461 39.4167 12.6548 39.3811 12.4646 39.3811C12.216 39.3811 11.9668 39.4401 11.7409 39.5601C11.3427 39.7686 11.0549 40.1409 10.9506 40.5778C6.86275 57.7619 14.2996 75.5227 27.1928 79.3588Z" fill="#D7AF76"/>
<path d="M28.7731 135.713C29.2741 135.713 29.7786 135.691 30.2704 135.649C30.7215 135.61 31.1324 135.377 31.3984 135.009C31.6633 134.642 31.7549 134.178 31.6506 133.738C30.0649 127.093 28.3978 121.173 24.1482 116.204C18.6841 106.625 9.2659 104.378 2.65348 103.521C2.58634 103.511 2.51972 103.508 2.45412 103.508C2.07269 103.508 1.70092 103.648 1.41307 103.907C1.07538 104.21 0.887212 104.646 0.897892 105.1C1.24677 120.264 15.3164 135.713 28.7731 135.713Z" fill="#D7AF76"/>
<path d="M103.109 219.469C103.064 219.015 102.82 218.602 102.444 218.342C96.0328 213.924 88.359 211.492 80.8377 211.492C72.1025 211.492 64.5691 214.775 60.1664 220.499C59.9116 220.832 59.8007 221.252 59.8597 221.668C59.9187 222.083 60.143 222.457 60.4822 222.704C66.3227 226.972 73.6105 229.321 81.0056 229.321C89.5012 229.321 97.4019 226.181 102.682 220.703C102.998 220.375 103.155 219.924 103.109 219.469Z" fill="#D7AF76"/>
<path d="M78.5643 203.252C78.5674 202.782 78.3573 202.333 77.9932 202.036C70.8762 196.223 62.434 193.022 54.2231 193.022C46.976 193.022 40.5629 195.458 35.6761 200.065C35.3557 200.367 35.1782 200.791 35.1873 201.232C35.1965 201.672 35.3928 202.088 35.7275 202.376C42.2544 208.002 50.3997 211.101 58.665 211.101C65.8348 211.101 72.5138 208.804 77.9779 204.458C78.3461 204.167 78.5612 203.723 78.5643 203.252Z" fill="#D7AF76"/>
<path d="M44.2722 164.74C44.6969 164.624 45.0554 164.335 45.2543 163.943C45.4536 163.551 45.4781 163.092 45.3209 162.68C42.5294 155.398 38.1124 150.231 31.8209 146.885L31.6109 146.747L28.4796 144.688C25.1042 142.17 21.2539 140.997 16.369 140.997C13.8577 140.997 11.293 141.299 8.66574 141.636C8.2004 141.695 7.78794 141.962 7.54078 142.36C7.29361 142.758 7.24072 143.247 7.39279 143.689C11.7222 156.168 24.7945 165.579 37.7997 165.579C40.0298 165.577 42.2069 165.295 44.2722 164.74Z" fill="#D7AF76"/>
<path d="M39.6252 47.4253C38.8283 48.8869 38.6045 50.5144 38.3878 52.0894C38.2958 52.7541 38.2103 53.3827 38.0827 53.9772C37.9957 54.3866 38.0781 54.8128 38.3085 55.1602C38.5389 55.5085 38.9015 55.7481 39.3109 55.8274C39.941 55.949 40.596 56.1356 41.2923 56.3334C42.5993 56.7052 43.9501 57.0897 45.3293 57.0897C45.729 57.0897 46.1166 57.0571 46.4843 56.99C55.755 55.331 63.4425 50.4305 69.3313 42.422C70.1699 41.2813 70.6759 39.9524 71.1642 38.6667C71.3854 38.0864 71.6137 37.4838 71.8741 36.8989C72.0486 36.5038 72.0516 36.0537 71.8818 35.657C71.7119 35.2603 71.3839 34.9521 70.9775 34.8056C68.7006 33.9889 66.2295 33.5734 63.6322 33.5734C53.9455 33.5734 44.0726 39.2689 39.6252 47.4253Z" fill="#D7AF76"/>
<path d="M53.8469 168.318C54.0554 168.318 54.2654 168.275 54.4663 168.188C62.8048 164.562 65.1793 157.106 66.2392 151.816C67.3769 146.14 67.1684 140.238 66.8149 135.215C66.6155 132.384 65.0095 130.481 62.817 130.481C61.8441 130.481 60.352 130.876 58.7724 132.756C58.3431 133.266 57.9042 133.779 57.4638 134.293C54.9195 137.26 52.2876 140.327 50.8936 143.95C48.3787 150.48 46.2997 159.079 52.5912 167.679C52.8913 168.092 53.3627 168.318 53.8469 168.318Z" fill="#D7AF76"/>
<path d="M37.2594 138.997C37.3372 139.404 37.5737 139.764 37.919 139.994C38.1773 140.169 38.4809 140.26 38.7886 140.26C38.8898 140.26 38.991 140.251 39.0922 140.23C39.6802 140.114 40.3154 140.042 40.9862 139.966C42.6141 139.782 44.2964 139.593 45.7484 138.713C54.4541 133.437 59.907 125.458 61.9581 114.996C62.1834 113.845 62.0186 112.707 61.8116 111.266C61.6997 110.494 61.5736 109.618 61.4739 108.55C61.4241 108.023 61.1113 107.557 60.6414 107.315C60.4176 107.198 60.1715 107.14 59.9253 107.14C59.6578 107.14 59.3898 107.209 59.1518 107.346L52.9452 110.903L48.5705 113.41C48.4276 113.446 48.2887 113.502 48.1565 113.579C41.7617 117.328 37.8295 123.313 36.1364 131.878C35.7891 133.632 36.2844 135.365 36.7635 137.043C36.9557 137.73 37.1409 138.377 37.2594 138.997Z" fill="#D7AF76"/>
<path d="M74.0488 190.069C76.2077 190.069 77.6841 188.146 78.7302 186.47C82.7423 180.039 83.8566 172.591 82.2348 163.029C81.8004 160.465 80.795 158.076 79.7326 155.547C79.2484 154.399 78.749 153.211 78.2928 151.976C78.1245 151.523 77.7558 151.173 77.2955 151.03C77.1445 150.983 76.9889 150.96 76.8332 150.96C76.5154 150.96 76.2016 151.056 75.9366 151.245C70.6765 154.953 66.8871 161.745 65.7993 169.412C64.8142 176.356 66.227 183.003 69.5795 187.191C70.6546 188.53 72.133 190.069 74.0488 190.069Z" fill="#D7AF76"/>
<path d="M92.6406 168.809C92.3527 168.569 91.9978 168.447 91.6433 168.447C91.3381 168.447 91.0315 168.535 90.767 168.717C86.4732 171.646 83.9023 177.204 83.526 184.368C83.081 192.838 85.9005 201.41 90.3825 205.215C91.7084 206.34 92.8603 206.865 94.0056 206.865C96.2418 206.865 97.5198 204.817 97.9399 204.142C101.564 198.33 101.297 191.9 100.78 187.567C100.012 181.141 98.688 173.863 92.6406 168.809Z" fill="#D7AF76"/>
<path d="M49.673 28.3473C50.8264 28.5573 52.0165 28.6651 53.2086 28.6651C67.4557 28.6651 81.3218 13.6506 82.2586 1.81409C82.3252 0.972407 81.7094 0.23142 80.8707 0.14242C79.9756 0.0488432 79.0673 0.0010376 78.1692 0.0010376C64.4602 0.0010376 51.956 11.1311 48.4341 26.4681C48.339 26.8821 48.4168 27.3179 48.6503 27.6729C48.8873 28.0269 49.256 28.271 49.673 28.3473Z" fill="#D7AF76"/>
<path d="M37.8696 111.145C38.1218 111.16 38.3756 111.166 38.6309 111.166C45.9559 111.166 53.8773 105.127 58.4804 99.1403C62.8068 93.5145 64.6072 87.73 63.4212 83.2729C63.2503 82.6286 62.6883 82.1663 62.0236 82.1195C61.4652 82.0803 60.9078 82.062 60.3662 82.062C55.1422 82.062 50.6896 83.8766 47.1261 87.4544C38.7815 92.3051 33.8234 102.845 36.5 110.127C36.7146 110.709 37.2517 111.108 37.8696 111.145Z" fill="#D7AF76"/>
<path d="M38.8426 83.992H38.9311C49.6736 83.992 63.6796 72.0635 65.6921 61.2014C65.8151 60.5352 65.4942 59.8675 64.8982 59.5471C63.2535 58.6632 61.3143 58.2146 59.1371 58.2146C49.2724 58.2146 35.0482 68.0732 33.4609 78.5452C33.2026 80.2444 33.4716 81.5316 34.2828 82.4811C35.4031 83.7942 37.2162 83.9808 38.8426 83.992Z" fill="#D7AF76"/>
<path d="M62.3237 185.266C62.7204 185.019 62.9849 184.605 63.0444 184.141C63.1034 183.677 62.9493 183.211 62.6273 182.873C55.1356 175.009 45.4997 170.499 36.1919 170.499C30.5071 170.499 25.2297 172.205 20.9317 175.43C20.5844 175.691 20.3637 176.084 20.3184 176.515C20.2736 176.946 20.4104 177.376 20.6968 177.703C27.2502 185.174 36.9578 189.634 46.6638 189.634C52.3268 189.631 57.742 188.122 62.3237 185.266Z" fill="#D7AF76"/>
<path d="M293.443 73.5449C293.383 73.5449 293.322 73.548 293.263 73.5556C287.327 74.2529 282.553 75.4933 278.55 79.2872C278.518 79.3182 278.485 79.3508 278.455 79.3854L278.239 79.6295L272.835 85.7318C272.789 85.7847 272.745 85.8406 272.706 85.9001C272.172 86.7017 271.609 87.4874 271.047 88.2747C269.727 90.1238 268.361 92.033 267.34 94.1436C266.294 96.305 265.599 98.6271 264.925 100.871C264.634 101.844 264.341 102.821 264.018 103.794C263.867 104.246 263.932 104.743 264.195 105.141C264.458 105.54 264.889 105.795 265.364 105.836C265.854 105.876 266.355 105.898 266.855 105.898C280.425 105.898 294.629 90.3746 294.999 75.1403C295.01 74.6887 294.825 74.2564 294.492 73.9528C294.203 73.6878 293.829 73.5449 293.443 73.5449Z" fill="#D7AF76"/>
<path d="M263.863 46.5632C263.866 46.5632 263.871 46.5632 263.874 46.5632C264.324 46.5632 264.751 46.369 265.047 46.0298C269.117 41.3565 271.117 34.2523 270.537 26.5378C269.859 17.5132 265.836 9.05207 259.777 3.90076C259.493 3.65969 259.135 3.53052 258.768 3.53052C258.698 3.53052 258.628 3.53509 258.558 3.54425C258.12 3.60477 257.727 3.84787 257.48 4.21505C248.59 17.3652 250.34 31.4287 262.685 46.0135C262.979 46.3593 263.41 46.5602 263.863 46.5632Z" fill="#D7AF76"/>
<path d="M265.861 78.2787C265.972 78.6835 266.241 79.0243 266.607 79.2282C266.84 79.3574 267.1 79.4245 267.363 79.4245C267.512 79.4245 267.662 79.4026 267.807 79.3589C280.7 75.5233 288.137 57.7619 284.049 40.5763C283.945 40.1394 283.657 39.7672 283.258 39.5587C283.033 39.4407 282.785 39.3796 282.534 39.3796C282.343 39.3796 282.153 39.4157 281.971 39.4854C268.2 44.8371 261.275 61.5152 265.861 78.2787Z" fill="#D7AF76"/>
<path d="M292.551 103.508C292.484 103.508 292.416 103.513 292.351 103.521C278.568 105.306 273.479 111.601 270.857 116.204C266.607 121.173 264.939 127.093 263.354 133.738C263.248 134.178 263.34 134.642 263.606 135.01C263.871 135.377 264.283 135.61 264.735 135.649C265.226 135.691 265.73 135.713 266.231 135.713C279.69 135.713 293.758 120.263 294.108 105.101C294.119 104.646 293.93 104.211 293.592 103.907C293.304 103.649 292.932 103.508 292.551 103.508Z" fill="#D7AF76"/>
<path d="M214.163 211.492C206.64 211.492 198.967 213.926 192.556 218.343C192.179 218.603 191.936 219.013 191.891 219.47C191.844 219.924 192.001 220.377 192.319 220.705C197.599 226.182 205.5 229.324 213.995 229.324C221.391 229.324 228.678 226.974 234.519 222.706C234.858 222.459 235.082 222.085 235.141 221.67C235.2 221.255 235.09 220.833 234.835 220.501C230.432 214.776 222.898 211.492 214.163 211.492Z" fill="#D7AF76"/>
<path d="M240.784 193.024C232.57 193.024 224.127 196.226 217.013 202.038C216.648 202.335 216.438 202.784 216.441 203.253C216.444 203.723 216.661 204.169 217.028 204.461C222.492 208.808 229.171 211.104 236.341 211.104C244.606 211.104 252.751 208.006 259.278 202.379C259.611 202.091 259.807 201.675 259.818 201.235C259.83 200.794 259.651 200.37 259.33 200.068C254.512 195.525 247.927 193.024 240.784 193.024Z" fill="#D7AF76"/>
<path d="M286.335 141.635C283.708 141.299 281.144 140.995 278.633 140.995C273.749 140.995 269.898 142.168 266.523 144.686L263.392 146.746L263.182 146.884C256.891 150.23 252.475 155.396 249.681 162.678C249.524 163.089 249.548 163.548 249.749 163.941C249.949 164.335 250.305 164.623 250.731 164.738C252.796 165.294 254.973 165.575 257.202 165.575C270.207 165.575 283.279 156.165 287.609 143.686C287.763 143.242 287.708 142.755 287.461 142.357C287.212 141.959 286.8 141.695 286.335 141.635Z" fill="#D7AF76"/>
<path d="M223.84 38.6682C224.329 39.9538 224.835 41.2812 225.673 42.4235C231.564 50.4319 239.25 55.334 248.522 56.9915C248.889 57.0566 249.276 57.0911 249.677 57.0911C251.056 57.0911 252.407 56.7067 253.714 56.3349C254.408 56.1371 255.065 55.9504 255.696 55.8289C256.106 55.7495 256.468 55.5085 256.698 55.1616C256.928 54.8127 257.009 54.3866 256.923 53.9787C256.797 53.3842 256.71 52.7556 256.618 52.0909C256.401 50.5158 256.178 48.8869 255.381 47.4268C250.933 39.2703 241.062 33.5748 231.374 33.5748C228.775 33.5748 226.304 33.9888 224.029 34.8071C223.623 34.9536 223.295 35.2618 223.125 35.6584C222.955 36.0551 222.957 36.5052 223.133 36.9004C223.391 37.4852 223.619 38.0879 223.84 38.6682Z" fill="#D7AF76"/>
<path d="M240.538 168.188C240.739 168.275 240.951 168.318 241.158 168.318C241.643 168.318 242.115 168.09 242.415 167.679C248.707 159.078 246.628 150.48 244.113 143.95C242.719 140.327 240.087 137.26 237.543 134.294C237.102 133.779 236.663 133.268 236.234 132.756C234.655 130.877 233.164 130.481 232.19 130.481C229.998 130.481 228.391 132.384 228.192 135.215C227.839 140.239 227.63 146.139 228.768 151.816C229.825 157.108 232.2 164.563 240.538 168.188Z" fill="#D7AF76"/>
<path d="M254.015 139.966C254.685 140.042 255.318 140.112 255.909 140.231C256.01 140.251 256.111 140.261 256.212 140.261C256.52 140.261 256.822 140.169 257.082 139.995C257.426 139.763 257.664 139.403 257.742 138.997C257.86 138.379 258.046 137.732 258.241 137.046C258.721 135.368 259.216 133.635 258.868 131.881C257.175 123.315 253.244 117.328 246.848 113.581C246.716 113.503 246.576 113.447 246.434 113.413L242.059 110.906L235.853 107.348C235.614 107.211 235.348 107.143 235.08 107.143C234.834 107.143 234.588 107.2 234.364 107.317C233.894 107.56 233.579 108.027 233.531 108.553C233.432 109.622 233.304 110.497 233.193 111.269C232.985 112.709 232.822 113.847 233.047 114.999C235.096 125.461 240.551 133.44 249.255 138.715C250.704 139.593 252.387 139.783 254.015 139.966Z" fill="#D7AF76"/>
<path d="M220.945 190.069C222.863 190.069 224.339 188.53 225.413 187.19C228.765 183.003 230.178 176.357 229.193 169.412C228.105 161.744 224.316 154.953 219.055 151.244C218.789 151.058 218.477 150.959 218.159 150.959C218.005 150.959 217.85 150.983 217.697 151.029C217.236 151.172 216.868 151.523 216.699 151.975C216.242 153.211 215.742 154.399 215.26 155.547C214.197 158.076 213.192 160.463 212.757 163.029C211.137 172.589 212.252 180.037 216.262 186.469C217.31 188.146 218.786 190.069 220.945 190.069Z" fill="#D7AF76"/>
<path d="M204.234 168.717C203.969 168.537 203.663 168.447 203.358 168.447C203.002 168.447 202.647 168.568 202.361 168.809C196.313 173.863 194.989 181.141 194.223 187.568C193.706 191.901 193.439 198.331 197.065 204.143C197.485 204.817 198.763 206.866 200.999 206.866C202.144 206.866 203.296 206.341 204.622 205.216C209.104 201.412 211.924 192.839 211.478 184.369C211.099 177.204 208.528 171.646 204.234 168.717Z" fill="#D7AF76"/>
<path d="M245.326 28.3472C245.744 28.2709 246.114 28.0268 246.347 27.6719C246.581 27.3169 246.658 26.881 246.564 26.467C243.043 11.1321 230.538 0 216.83 0C215.931 0 215.022 0.0483142 214.129 0.141383C213.29 0.230383 212.674 0.970861 212.741 1.81305C213.679 13.648 227.543 28.6641 241.79 28.6641C242.982 28.6651 244.173 28.5573 245.326 28.3472Z" fill="#D7AF76"/>
<path d="M247.873 87.4544C244.305 83.8751 239.853 82.062 234.632 82.062C234.092 82.062 233.534 82.0824 232.975 82.1195C232.31 82.1647 231.748 82.628 231.577 83.2729C230.391 87.7316 232.194 93.5145 236.518 99.1403C241.122 105.127 249.043 111.166 256.368 111.166C256.623 111.166 256.877 111.159 257.129 111.145C257.747 111.108 258.284 110.709 258.497 110.129C261.175 102.847 256.217 92.3051 247.873 87.4544Z" fill="#D7AF76"/>
<path d="M261.543 78.5436C259.956 68.0717 245.734 58.213 235.869 58.213H235.868C233.69 58.213 231.751 58.6611 230.107 59.5455C229.511 59.8659 229.19 60.5336 229.313 61.1993C231.325 72.0619 245.329 83.9904 256.073 83.9904H256.162C257.786 83.9808 259.6 83.7926 260.723 82.4774C261.533 81.5315 261.8 80.2443 261.543 78.5436Z" fill="#D7AF76"/>
<path d="M258.808 170.497C249.499 170.497 239.863 175.007 232.371 182.871C232.049 183.211 231.895 183.675 231.954 184.139C232.014 184.603 232.278 185.017 232.675 185.265C237.255 188.122 242.671 189.631 248.336 189.631C258.042 189.631 267.75 185.171 274.303 177.7C274.589 177.374 274.726 176.943 274.681 176.512C274.636 176.081 274.413 175.689 274.068 175.427C269.769 172.204 264.492 170.497 258.808 170.497Z" fill="#D7AF76"/>
<path d="M199.001 240.329C185.073 236.186 171.152 232.012 157.231 227.849C156.407 227.604 155.729 227.095 155.716 226.715C155.704 226.335 156.329 225.739 157.11 225.382C158.458 224.764 159.804 224.141 161.167 223.563C166.692 221.214 172.124 218.575 177.797 216.665C181.742 215.338 183.789 213.414 183.087 209.375C182.94 208.528 182.091 208.15 181.308 208.504C174.722 211.494 168.169 214.554 161.52 217.394C157.437 219.138 153.442 222.179 148.581 219.213C148.322 219.055 147.921 219.009 147.504 219.018C147.087 219.008 146.685 219.055 146.427 219.213C141.565 222.179 137.57 219.138 133.486 217.394C126.838 214.553 120.285 211.494 113.699 208.504C112.916 208.15 112.067 208.528 111.92 209.375C111.218 213.414 113.265 215.34 117.21 216.665C122.884 218.575 128.315 221.213 133.839 223.563C135.203 224.143 136.549 224.764 137.897 225.382C138.678 225.739 139.303 226.335 139.291 226.715C139.279 227.095 138.6 227.602 137.777 227.849C123.853 232.013 109.934 236.186 96.0064 240.329C91.1694 241.766 87.1609 246.255 86.0044 251.593C85.8223 252.433 86.3421 252.928 87.0673 252.679C87.5153 252.525 87.9481 252.372 88.3743 252.206C104.156 246.04 119.945 239.894 135.707 233.676C138.997 232.377 142.045 230.677 145.676 233.091C145.922 233.254 146.227 233.322 146.571 233.335C147.089 233.353 147.919 233.353 148.435 233.335C148.778 233.322 149.084 233.254 149.33 233.091C152.962 230.677 156.01 232.378 159.3 233.676C175.06 239.894 190.851 246.04 206.633 252.206C207.059 252.372 207.491 252.525 207.94 252.679C208.665 252.928 209.184 252.433 209.003 251.593C207.847 246.255 203.838 241.768 199.001 240.329Z" fill="#D7AF76"/>
<path d="M159.262 76.3418V171.213H144.901V90.7022H144.345L121.646 105.526V91.814L145.318 76.3418H159.262Z" fill="#D7AF76"/>
</svg>
