<svg width="4" height="14" viewBox="0 0 4 14" fill="none" xmlns="http://www.w3.org/2000/svg">
<path d="M2 0.750031C2.69036 0.750031 3.25 1.30967 3.25 2.00003C3.25 2.69039 2.69036 3.25003 2 3.25003C1.30964 3.25003 0.75 2.69039 0.75 2.00003C0.75 1.30967 1.30964 0.75003 2 0.750031Z" fill="#D9D9D9"/>
<path d="M2 5.75003C2.69036 5.75003 3.25 6.30967 3.25 7.00003C3.25 7.69039 2.69036 8.25003 2 8.25003C1.30964 8.25003 0.75 7.69039 0.75 7.00003C0.75 6.30967 1.30964 5.75003 2 5.75003Z" fill="#D9D9D9"/>
<path d="M2 10.75C2.69036 10.75 3.25 11.3097 3.25 12C3.25 12.6904 2.69036 13.25 2 13.25C1.30964 13.25 0.75 12.6904 0.75 12C0.75 11.3097 1.30964 10.75 2 10.75Z" fill="#D9D9D9"/>
</svg>
