<svg width="200" height="200" viewBox="0 0 200 200" fill="none" xmlns="http://www.w3.org/2000/svg">
<path d="M141.962 51.0034C133.063 52.7726 124.023 53.7425 114.951 53.9016C114.488 55.4086 114.053 56.7997 113.618 58.3647C128.573 57.2054 135.876 54.6551 139.412 52.5684L141.962 51.0034Z" fill="url(#paint0_linear_1181_12128)"/>
<path d="M139.412 148.526C135.876 146.41 128.573 143.889 113.618 142.729C114.053 144.208 114.488 145.628 114.951 147.193C124.023 147.352 133.063 148.322 141.962 150.091L139.412 148.526Z" fill="url(#paint1_linear_1181_12128)"/>
<path d="M121.704 177.044C121.795 177.164 121.852 177.307 121.867 177.457C121.882 177.607 121.854 177.758 121.788 177.893C121.722 178.029 121.619 178.143 121.492 178.223C121.364 178.304 121.217 178.347 121.066 178.348H120.835C112.14 175.885 106.344 171.972 103.243 166.756L99.5042 160.235L95.7656 166.698C92.6936 171.972 86.7814 175.885 78.1739 178.29C78.0163 178.324 77.8524 178.315 77.6994 178.264C77.5465 178.213 77.41 178.122 77.3045 178C77.2281 177.868 77.188 177.718 77.188 177.566C77.188 177.413 77.2281 177.263 77.3045 177.131C83.8454 164.434 88.8649 151.01 92.2589 137.137C91.1286 136.905 89.9693 136.615 88.868 136.296C84.5498 152.468 77.7682 172.552 68.5811 183.855C83.9412 181.768 94.0847 176.609 98.8087 168.466C98.8808 168.345 98.9827 168.246 99.1046 168.177C99.2265 168.108 99.3642 168.072 99.5042 168.072C99.6442 168.072 99.7819 168.108 99.9038 168.177C100.026 168.246 100.128 168.345 100.2 168.466C104.895 176.609 115.067 181.768 130.427 183.855C121.182 172.552 114.401 152.468 110.14 136.296C109.026 136.637 107.894 136.918 106.75 137.137C110.13 150.986 115.15 164.383 121.704 177.044Z" fill="url(#paint2_linear_1181_12128)"/>
<path d="M56.5831 144.237C56.3689 144.229 56.1641 144.147 56.0035 144.006C55.9038 143.861 55.8504 143.689 55.8504 143.513C55.8504 143.337 55.9038 143.165 56.0035 143.02C59.4812 137.224 61.7997 127.109 62.6402 113.111L59.0175 114.126C57.8583 129.805 55.192 137.485 52.9894 141.223L48.7871 148.324C48.7129 148.441 48.6101 148.537 48.4883 148.603C48.3666 148.669 48.23 148.702 48.0915 148.7C47.9969 148.728 47.8964 148.728 47.8017 148.7C47.6246 148.629 47.4796 148.495 47.3942 148.325C47.3088 148.154 47.2888 147.958 47.338 147.773C49.7893 137.507 51.0822 126.998 51.1926 116.444L47.6568 117.632C47.1062 135.021 44.1501 149.744 38.9624 161.105C50.3521 155.772 65.0457 152.816 82.4345 152.41C82.8402 151.222 83.217 150.034 83.5938 148.874C73.1151 148.997 62.6837 150.3 52.4967 152.758H52.2938C52.1258 152.747 51.9653 152.683 51.8349 152.577C51.7044 152.47 51.6103 152.326 51.5657 152.163C51.5211 152.001 51.5282 151.828 51.586 151.67C51.6437 151.512 51.7493 151.375 51.8881 151.28L58.8436 147.164C62.5533 144.962 70.2623 142.296 85.9413 141.136C86.289 139.919 86.6368 138.702 86.9556 137.514C72.9576 138.441 62.93 140.673 57.0468 144.15C56.9019 144.218 56.7425 144.248 56.5831 144.237Z" fill="url(#paint3_linear_1181_12128)"/>
<path d="M64.2045 112.647C63.393 125.515 61.4802 135.194 58.4082 141.628C64.7261 138.73 74.4059 136.788 87.3896 135.832C82.0215 133.976 77.1453 130.924 73.1289 126.908C69.1125 122.891 66.0609 118.015 64.2045 112.647Z" fill="url(#paint4_linear_1181_12128)"/>
<path d="M142.976 144.004C142.837 144.106 142.67 144.16 142.498 144.16C142.326 144.16 142.159 144.106 142.02 144.004C136.223 140.527 126.08 138.208 112.111 137.368C112.43 138.556 112.777 139.773 113.125 140.99C128.804 142.15 136.513 144.816 140.223 147.018L147.323 151.221C147.418 151.261 147.505 151.319 147.577 151.392C147.65 151.466 147.707 151.553 147.746 151.648C147.785 151.744 147.805 151.846 147.805 151.949C147.804 152.052 147.783 152.154 147.743 152.25C147.704 152.345 147.645 152.431 147.572 152.504C147.499 152.576 147.412 152.634 147.316 152.673C147.221 152.712 147.118 152.732 147.015 152.731C146.912 152.731 146.81 152.71 146.715 152.67C136.47 150.209 125.979 148.915 115.444 148.815C115.82 149.975 116.197 151.163 116.632 152.351C134.021 152.902 148.772 155.858 160.104 161.045C154.771 149.627 151.815 134.962 151.41 117.573L147.816 116.443C147.939 126.922 149.241 137.353 151.699 147.54C151.756 147.725 151.739 147.924 151.652 148.096C151.566 148.269 151.417 148.402 151.236 148.468C151.141 148.495 151.041 148.495 150.946 148.468C150.822 148.502 150.692 148.508 150.566 148.482C150.44 148.457 150.322 148.402 150.221 148.323L146.106 141.367C143.903 137.628 141.237 129.948 140.078 114.269L136.455 113.255C137.383 127.224 139.614 137.281 143.092 143.164C143.149 143.302 143.168 143.452 143.148 143.6C143.127 143.748 143.068 143.887 142.976 144.004Z" fill="url(#paint5_linear_1181_12128)"/>
<path d="M149.004 142.961C147.246 134.06 146.276 125.022 146.106 115.951L141.643 114.588C142.773 129.572 145.352 136.875 147.439 140.411L149.004 142.961Z" fill="url(#paint6_linear_1181_12128)"/>
<path d="M94.3744 165.886L98.8086 158.235C98.8856 158.121 98.9893 158.028 99.1105 157.964C99.2318 157.9 99.3669 157.866 99.5041 157.866C99.6414 157.866 99.7765 157.9 99.8978 157.964C100.019 158.028 100.123 158.121 100.2 158.235L104.605 165.886C108.088 171.052 113.366 174.739 119.414 176.232C113.253 163.853 108.453 150.841 105.098 137.426C101.388 137.967 97.62 137.967 93.9107 137.426C90.5532 150.845 85.7428 163.857 79.5649 176.232C86.7813 173.914 91.7661 170.436 94.3744 165.886Z" fill="url(#paint7_linear_1181_12128)"/>
<path d="M59.5972 52.4817C63.133 54.5684 70.4363 57.1188 85.4197 58.278C84.956 56.8 84.5212 55.3799 84.0575 53.8149C74.9846 53.6724 65.9435 52.7023 57.0469 50.9167L59.5972 52.4817Z" fill="url(#paint8_linear_1181_12128)"/>
<path d="M50.0024 58.0469C51.7603 66.9478 52.7301 75.9863 52.9006 85.0575L57.3637 86.4197C56.2334 71.4363 53.6541 64.133 51.5674 60.5972L50.0024 58.0469Z" fill="url(#paint9_linear_1181_12128)"/>
<path d="M56.0036 57.0027C56.1486 56.903 56.3204 56.8497 56.4963 56.8497C56.6723 56.8497 56.844 56.903 56.989 57.0027C62.7853 60.4805 72.8998 62.799 86.8978 63.6395C86.579 62.4512 86.2312 61.234 85.8835 60.0168C70.2045 58.8575 62.4955 56.1913 58.7859 53.9887L51.8303 49.7864C51.7352 49.7464 51.6488 49.6881 51.5762 49.6148C51.5036 49.5414 51.4461 49.4545 51.4071 49.359C51.3681 49.2634 51.3483 49.1612 51.3488 49.058C51.3493 48.9548 51.3701 48.8527 51.4101 48.7575C51.45 48.6624 51.5084 48.576 51.5817 48.5034C51.655 48.4308 51.7419 48.3734 51.8375 48.3343C51.933 48.2953 52.0353 48.2755 52.1385 48.276C52.2417 48.2765 52.3438 48.2973 52.4389 48.3373C62.6404 50.7698 73.0786 52.0721 83.5649 52.2208C83.1882 51.0326 82.8114 49.8153 82.4057 48.6561C64.8719 48.1054 50.2363 45.1493 38.9336 39.9617C44.2662 51.3514 47.2223 66.0449 47.628 83.4338L51.1637 84.593C51.0267 74.1154 49.7241 63.6855 47.2802 53.496C47.231 53.3114 47.251 53.1153 47.3364 52.9445C47.4218 52.7736 47.5668 52.6399 47.7439 52.5686C47.9196 52.4986 48.1142 52.4921 48.2941 52.5503C48.474 52.6086 48.6279 52.7278 48.7293 52.8874L52.8447 59.8429C55.0472 63.5525 57.7135 71.2616 58.8728 86.9405L62.4955 87.9549C61.5681 73.9569 59.3365 63.9293 55.8587 58.0461C55.7654 57.8803 55.729 57.6884 55.7552 57.5C55.7814 57.3115 55.8686 57.1368 56.0036 57.0027Z" fill="url(#paint10_linear_1181_12128)"/>
<path d="M104.605 35.1222L100.2 42.7733C100.123 42.8869 100.019 42.9799 99.8978 43.0441C99.7765 43.1084 99.6414 43.142 99.5041 43.142C99.3669 43.142 99.2318 43.1084 99.1105 43.0441C98.9893 42.9799 98.8856 42.8869 98.8086 42.7733L94.3744 35.1222C91.7661 30.5722 86.7813 27.0944 79.5649 24.7759C85.7428 37.1515 90.5532 50.1637 93.9107 63.582C97.62 63.0409 101.388 63.0409 105.098 63.582C108.458 50.1687 113.258 37.1578 119.414 24.7759C113.366 26.2694 108.088 29.9567 104.605 35.1222Z" fill="url(#paint11_linear_1181_12128)"/>
<path opacity="0.3" d="M85.0134 29.4998C91.0995 33.992 96.7509 43.3819 99.649 50.2215C103.663 40.0526 110.513 31.2507 119.385 24.8628C113.337 26.3564 108.059 30.0437 104.576 35.2092L100.2 42.7733C100.123 42.8869 100.019 42.9799 99.8978 43.0441C99.7765 43.1084 99.6414 43.142 99.5041 43.142C99.3669 43.142 99.2318 43.1084 99.1105 43.0441C98.9893 42.9799 98.8856 42.8869 98.8086 42.7733L94.3744 35.1222C91.7661 30.5722 86.7813 27.0944 79.5649 24.7759C85.7428 37.1515 90.5532 50.1637 93.9107 63.582L95.5047 63.3791C94.6467 51.4319 91.0574 39.8411 85.0134 29.4998Z" fill="#330000"/>
<path d="M77.2465 23.7036C77.1702 23.5714 77.13 23.4215 77.13 23.2689C77.13 23.1163 77.1702 22.9663 77.2465 22.8342C77.3463 22.7057 77.4837 22.6115 77.6395 22.5648C77.7954 22.518 77.9619 22.521 78.1159 22.5733C86.8104 24.9788 92.6066 28.9203 95.7076 34.1659L99.5042 40.7737L103.243 34.3108C106.315 29.0362 112.227 25.1237 120.835 22.7182C120.989 22.6659 121.155 22.663 121.311 22.7097C121.467 22.7564 121.604 22.8506 121.704 22.9791C121.78 23.1112 121.82 23.2612 121.82 23.4138C121.82 23.5664 121.78 23.7163 121.704 23.8485C115.161 36.5544 110.141 49.9885 106.75 63.8718C107.894 64.0904 109.026 64.371 110.14 64.7123C114.401 48.5117 121.24 28.4566 130.427 17.1538C115.067 19.2405 104.895 24.3992 100.2 32.5429C100.123 32.6565 100.019 32.7495 99.8978 32.8137C99.7766 32.878 99.6414 32.9116 99.5042 32.9116C99.367 32.9116 99.2318 32.878 99.1106 32.8137C98.9893 32.7495 98.8857 32.6565 98.8087 32.5429C94.0847 24.3992 83.9412 19.2405 68.5811 17.1538C77.8261 28.4566 84.6078 48.5117 88.868 64.7123C89.9832 64.3743 91.1149 64.0938 92.2589 63.8718C88.8595 49.9363 83.8202 36.4528 77.2465 23.7036Z" fill="url(#paint12_linear_1181_12128)"/>
<path d="M22.8488 122.762C22.715 122.789 22.577 122.789 22.4431 122.762C22.2638 122.762 22.0899 122.7 21.9504 122.588C21.8243 122.493 21.7314 122.36 21.6846 122.21C21.6377 122.059 21.6395 121.897 21.6896 121.747C24.124 113.053 28.0365 107.257 33.2821 104.156L39.774 100.504L33.3111 96.7654C28.0365 93.6933 24.124 87.7811 21.7186 79.1737C21.6704 79.0192 21.6696 78.854 21.716 78.699C21.7625 78.5441 21.8542 78.4066 21.9794 78.3042C22.116 78.2254 22.2709 78.1838 22.4286 78.1838C22.5863 78.1838 22.7412 78.2254 22.8778 78.3042C35.5715 84.8519 48.9966 89.8717 62.8721 93.2586C63.0907 92.114 63.3713 90.982 63.7126 89.8678C47.512 85.5496 27.4569 78.7679 16.1831 69.5808C18.2408 84.941 23.3995 95.1134 31.5432 99.8084C31.6633 99.8805 31.7626 99.9825 31.8316 100.104C31.9005 100.226 31.9368 100.364 31.9368 100.504C31.9368 100.644 31.9005 100.782 31.8316 100.904C31.7626 101.025 31.6633 101.127 31.5432 101.2C23.3995 105.895 18.2408 116.067 16.1831 131.427C27.4569 122.182 47.512 115.4 63.7126 111.14C63.3746 110.025 63.0941 108.893 62.8721 107.749C48.9841 111.153 35.5491 116.192 22.8488 122.762Z" fill="url(#paint13_linear_1181_12128)"/>
<path d="M57.0469 150.033C65.9435 148.247 74.9846 147.277 84.0575 147.135C84.5212 145.627 84.956 144.236 85.4197 142.671C70.4363 143.831 63.133 146.352 59.5972 148.468L57.0469 150.033Z" fill="url(#paint14_linear_1181_12128)"/>
<path d="M51.481 140.411C53.5677 136.875 56.147 129.572 57.2773 114.588L52.8142 115.951C52.6437 125.022 51.6739 134.06 49.916 142.961L51.481 140.411Z" fill="url(#paint15_linear_1181_12128)"/>
<path d="M34.1227 95.3749L41.7738 99.8091C41.8938 99.8812 41.9932 99.9832 42.0621 100.105C42.1311 100.227 42.1673 100.365 42.1673 100.505C42.1673 100.645 42.1311 100.782 42.0621 100.904C41.9932 101.026 41.8938 101.128 41.7738 101.2L34.1227 105.605C28.9572 109.088 25.2699 114.366 23.7764 120.415C36.1583 114.259 49.1692 109.459 62.5825 106.098C62.0413 102.389 62.0413 98.6205 62.5825 94.9112C49.1627 91.5585 36.15 86.748 23.7764 80.5654C26.0949 87.7818 29.5726 92.7666 34.1227 95.3749Z" fill="url(#paint16_linear_1181_12128)"/>
<path opacity="0.4" d="M34.1227 95.3749L41.7738 99.8091C41.8938 99.8812 41.9932 99.9832 42.0621 100.105C42.1311 100.227 42.1673 100.365 42.1673 100.505C42.1673 100.645 42.1311 100.782 42.0621 100.904C41.9932 101.026 41.8938 101.128 41.7738 101.2L34.1227 105.605C29.7259 108.46 26.4261 112.72 24.7617 117.691C26.3826 115.736 28.1665 113.923 30.0943 112.271C32.9925 109.924 35.8906 107.837 38.7887 105.721C41.1589 103.855 43.8228 102.396 46.6717 101.403C42.0502 98.2304 37.8187 94.5242 34.0648 90.3611C33.746 90.0423 34.0648 89.3468 34.4995 89.5207C43.4724 93.0717 52.8141 95.6089 62.3506 97.0848C62.3506 96.3893 62.4955 95.6937 62.5825 95.0271C49.1581 91.6373 36.1452 86.7879 23.7764 80.5654C26.0949 87.7818 29.5726 92.7666 34.1227 95.3749Z" fill="#330000"/>
<path d="M87.3325 65.2038C74.4647 64.3633 64.7849 62.4795 58.3511 59.4075C61.2492 65.7254 63.2199 75.4052 64.1474 88.3889C66.0038 83.0208 69.0554 78.1446 73.0718 74.1282C77.0882 70.1118 81.9644 67.0602 87.3325 65.2038Z" fill="url(#paint17_linear_1181_12128)"/>
<path d="M111.647 135.804C124.515 136.644 134.195 138.528 140.629 141.6C137.731 135.282 135.789 125.602 134.833 112.619C132.978 117.988 129.927 122.865 125.91 126.882C121.894 130.898 117.017 133.949 111.647 135.804Z" fill="url(#paint18_linear_1181_12128)"/>
<path d="M34.0066 33.441C33.4727 33.4766 32.9591 33.6593 32.5226 33.9689C32.0862 34.2785 31.744 34.7029 31.5339 35.195C31.3239 35.6872 31.2542 36.2279 31.3325 36.7572C31.4109 37.2865 31.6343 37.7838 31.9779 38.194C32.5197 38.725 33.248 39.0224 34.0066 39.0224C34.7652 39.0224 35.4936 38.725 36.0353 38.194C36.5577 37.6536 36.8497 36.9314 36.8497 36.1798C36.8497 35.4282 36.5577 34.706 36.0353 34.1656C35.4773 33.6724 34.7508 33.4129 34.0066 33.441Z" fill="url(#paint19_linear_1181_12128)"/>
<path d="M99.5036 64.7693C92.4361 64.7693 85.5273 66.8651 79.6508 70.7916C73.7744 74.7181 69.1943 80.299 66.4896 86.8285C63.785 93.3581 63.0774 100.543 64.4562 107.475C65.835 114.406 69.2383 120.774 74.2358 125.771C79.2333 130.769 85.6005 134.172 92.5322 135.551C99.464 136.93 106.649 136.222 113.178 133.517C119.708 130.813 125.289 126.233 129.215 120.356C133.142 114.48 135.238 107.571 135.238 100.503C135.23 91.0284 131.463 81.9438 124.763 75.244C118.063 68.5443 108.979 64.777 99.5036 64.7693ZM99.5036 126.876C94.2875 126.876 89.1885 125.33 84.8515 122.432C80.5145 119.534 77.1342 115.415 75.1381 110.596C73.142 105.777 72.6197 100.474 73.6373 95.3582C74.6549 90.2423 77.1667 85.5431 80.855 81.8548C84.5434 78.1664 89.2426 75.6546 94.3585 74.637C99.4744 73.6194 104.777 74.1417 109.596 76.1378C114.415 78.1339 118.534 81.5142 121.432 85.8513C124.33 90.1883 125.877 95.2872 125.877 100.503C125.869 107.496 123.088 114.199 118.144 119.143C113.199 124.088 106.496 126.869 99.5036 126.876Z" fill="url(#paint20_linear_1181_12128)"/>
<path style="mix-blend-mode:screen" opacity="0.8" d="M99.5036 64.7693C92.4361 64.7693 85.5273 66.8651 79.6508 70.7916C73.7744 74.7181 69.1943 80.299 66.4896 86.8285C63.785 93.3581 63.0774 100.543 64.4562 107.475C65.835 114.406 69.2383 120.774 74.2358 125.771C79.2333 130.769 85.6005 134.172 92.5322 135.551C99.464 136.93 106.649 136.222 113.178 133.517C119.708 130.813 125.289 126.233 129.215 120.356C133.142 114.48 135.238 107.571 135.238 100.503C135.23 91.0284 131.463 81.9438 124.763 75.244C118.063 68.5443 108.979 64.777 99.5036 64.7693ZM99.5036 126.876C94.2875 126.876 89.1885 125.33 84.8515 122.432C80.5145 119.534 77.1342 115.415 75.1381 110.596C73.142 105.777 72.6197 100.474 73.6373 95.3582C74.6549 90.2423 77.1667 85.5431 80.855 81.8548C84.5434 78.1664 89.2426 75.6546 94.3585 74.637C99.4744 73.6194 104.777 74.1417 109.596 76.1378C114.415 78.1339 118.534 81.5142 121.432 85.8513C124.33 90.1883 125.877 95.2872 125.877 100.503C125.869 107.496 123.088 114.199 118.144 119.143C113.199 124.088 106.496 126.869 99.5036 126.876Z" fill="url(#paint21_linear_1181_12128)"/>
<path d="M99.5037 75.8696C94.6029 75.8696 89.8121 77.3229 85.7372 80.0457C81.6623 82.7684 78.4863 86.6384 76.6108 91.1662C74.7353 95.694 74.2446 100.676 75.2007 105.483C76.1569 110.29 78.5168 114.705 81.9822 118.17C85.4477 121.636 89.8629 123.996 94.6696 124.952C99.4762 125.908 104.458 125.417 108.986 123.542C113.514 121.666 117.384 118.49 120.107 114.415C122.83 110.34 124.283 105.55 124.283 100.649C124.268 94.0816 121.652 87.7878 117.008 83.1442C112.365 78.5005 106.071 75.8849 99.5037 75.8696Z" fill="url(#paint22_linear_1181_12128)"/>
<path opacity="0.4" d="M87.9682 120.501C85.6568 118.218 83.8509 115.475 82.6677 112.449C81.4844 109.424 80.9502 106.183 81.0996 102.938C81.4112 96.1697 84.2204 89.7574 88.9844 84.9399C93.7484 80.1224 100.129 77.2417 106.893 76.8546C103.741 75.88 100.425 75.545 97.1414 75.8691C93.8576 76.1931 90.6716 77.1698 87.7704 78.7418C84.8692 80.3137 82.3112 82.4493 80.2464 85.0232C78.1817 87.5971 76.6518 90.5575 75.7466 93.7306C74.8413 96.9037 74.579 100.226 74.9749 103.502C75.3708 106.777 76.4171 109.941 78.0522 112.807C79.6873 115.673 81.8784 118.184 84.497 120.192C87.1155 122.2 90.1086 123.664 93.3008 124.5C91.3578 123.403 89.5653 122.059 87.9682 120.501Z" fill="#330000"/>
<path d="M176.305 78.2462C176.437 78.1699 176.587 78.1298 176.74 78.1298C176.892 78.1298 177.042 78.1699 177.175 78.2462C177.3 78.3487 177.391 78.4862 177.438 78.6411C177.484 78.796 177.483 78.9613 177.435 79.1157C175.03 87.8101 171.088 93.6064 165.843 96.7074L159.235 100.504L165.698 104.243C170.972 107.286 174.914 113.227 177.29 121.834C177.341 121.984 177.342 122.146 177.295 122.297C177.249 122.447 177.156 122.58 177.03 122.675C176.89 122.787 176.716 122.849 176.537 122.849C176.413 122.878 176.284 122.878 176.16 122.849C163.461 116.256 150.026 111.187 136.137 107.749C135.915 108.893 135.634 110.025 135.296 111.14C151.497 115.458 171.552 122.24 182.855 131.427C180.768 116.067 175.61 105.895 167.466 101.2C167.346 101.127 167.246 101.025 167.177 100.904C167.108 100.782 167.072 100.644 167.072 100.504C167.072 100.364 167.108 100.226 167.177 100.104C167.246 99.9825 167.346 99.8805 167.466 99.8084C175.61 95.1134 180.768 84.941 182.855 69.5808C171.552 78.8259 151.497 85.6075 135.296 89.8678C135.638 90.982 135.918 92.114 136.137 93.2586C150.072 89.8593 163.556 84.82 176.305 78.2462Z" fill="url(#paint23_linear_1181_12128)"/>
<path style="mix-blend-mode:screen" opacity="0.8" d="M121.704 177.044C121.795 177.164 121.852 177.307 121.867 177.457C121.882 177.607 121.854 177.758 121.788 177.893C121.722 178.029 121.619 178.143 121.492 178.223C121.364 178.304 121.217 178.347 121.066 178.348H120.835C112.14 175.885 106.344 171.972 103.243 166.756L99.5042 160.235L95.7656 166.698C92.6936 171.972 86.7814 175.885 78.1739 178.29C78.0163 178.324 77.8524 178.315 77.6994 178.264C77.5465 178.213 77.41 178.122 77.3045 178C77.2281 177.868 77.188 177.718 77.188 177.566C77.188 177.413 77.2281 177.263 77.3045 177.131C83.8454 164.434 88.8649 151.01 92.2589 137.137C91.1286 136.905 89.9693 136.615 88.868 136.296C84.5498 152.468 77.7682 172.552 68.5811 183.855C83.9412 181.768 94.0847 176.609 98.8087 168.466C98.8808 168.345 98.9827 168.246 99.1046 168.177C99.2265 168.108 99.3642 168.072 99.5042 168.072C99.6442 168.072 99.7819 168.108 99.9038 168.177C100.026 168.246 100.128 168.345 100.2 168.466C104.895 176.609 115.067 181.768 130.427 183.855C121.182 172.552 114.401 152.468 110.14 136.296C109.026 136.637 107.894 136.918 106.75 137.137C110.13 150.986 115.15 164.383 121.704 177.044Z" fill="url(#paint24_linear_1181_12128)"/>
<path style="mix-blend-mode:screen" opacity="0.8" d="M77.2465 23.7036C77.1702 23.5714 77.13 23.4215 77.13 23.2689C77.13 23.1163 77.1702 22.9663 77.2465 22.8342C77.3463 22.7057 77.4837 22.6115 77.6395 22.5648C77.7954 22.518 77.9619 22.521 78.1159 22.5733C86.8104 24.9788 92.6066 28.9203 95.7076 34.1659L99.5042 40.7737L103.243 34.3108C106.315 29.0362 112.227 25.1237 120.835 22.7182C120.989 22.6659 121.155 22.663 121.311 22.7097C121.467 22.7564 121.604 22.8506 121.704 22.9791C121.78 23.1112 121.82 23.2612 121.82 23.4138C121.82 23.5664 121.78 23.7163 121.704 23.8485C115.161 36.5544 110.141 49.9885 106.75 63.8718C107.894 64.0904 109.026 64.371 110.14 64.7123C114.401 48.5117 121.24 28.4566 130.427 17.1538C115.067 19.2405 104.895 24.3992 100.2 32.5429C100.123 32.6565 100.019 32.7495 99.8978 32.8137C99.7766 32.878 99.6414 32.9116 99.5042 32.9116C99.367 32.9116 99.2318 32.878 99.1106 32.8137C98.9893 32.7495 98.8857 32.6565 98.8087 32.5429C94.0847 24.3992 83.9412 19.2405 68.5811 17.1538C77.8261 28.4566 84.6078 48.5117 88.868 64.7123C89.9832 64.3743 91.1149 64.0938 92.2589 63.8718C88.8595 49.9363 83.8202 36.4528 77.2465 23.7036Z" fill="url(#paint25_linear_1181_12128)"/>
<path style="mix-blend-mode:screen" opacity="0.8" d="M22.8488 122.762C22.715 122.789 22.577 122.789 22.4431 122.762C22.2638 122.762 22.0899 122.7 21.9504 122.588C21.8243 122.493 21.7314 122.36 21.6846 122.21C21.6377 122.059 21.6395 121.897 21.6896 121.747C24.124 113.053 28.0365 107.257 33.2821 104.156L39.774 100.504L33.3111 96.7654C28.0365 93.6933 24.124 87.7811 21.7186 79.1737C21.6704 79.0192 21.6696 78.854 21.716 78.699C21.7625 78.5441 21.8542 78.4066 21.9794 78.3042C22.116 78.2254 22.2709 78.1838 22.4286 78.1838C22.5863 78.1838 22.7412 78.2254 22.8778 78.3042C35.5715 84.8519 48.9966 89.8717 62.8721 93.2586C63.0907 92.114 63.3713 90.982 63.7126 89.8678C47.512 85.5496 27.4569 78.7679 16.1831 69.5808C18.2408 84.941 23.3995 95.1134 31.5432 99.8084C31.6633 99.8805 31.7626 99.9825 31.8316 100.104C31.9005 100.226 31.9368 100.364 31.9368 100.504C31.9368 100.644 31.9005 100.782 31.8316 100.904C31.7626 101.025 31.6633 101.127 31.5432 101.2C23.3995 105.895 18.2408 116.067 16.1831 131.427C27.4569 122.182 47.512 115.4 63.7126 111.14C63.3746 110.025 63.0941 108.893 62.8721 107.749C48.9841 111.153 35.5491 116.192 22.8488 122.762Z" fill="url(#paint26_linear_1181_12128)"/>
<path style="mix-blend-mode:screen" opacity="0.8" d="M176.305 78.2462C176.437 78.1699 176.587 78.1298 176.74 78.1298C176.892 78.1298 177.042 78.1699 177.175 78.2462C177.3 78.3487 177.391 78.4862 177.438 78.6411C177.484 78.796 177.483 78.9613 177.435 79.1157C175.03 87.8101 171.088 93.6064 165.843 96.7074L159.235 100.504L165.698 104.243C170.972 107.286 174.914 113.227 177.29 121.834C177.341 121.984 177.342 122.146 177.295 122.297C177.249 122.447 177.156 122.58 177.03 122.675C176.89 122.787 176.716 122.849 176.537 122.849C176.413 122.878 176.284 122.878 176.16 122.849C163.461 116.256 150.026 111.187 136.137 107.749C135.915 108.893 135.634 110.025 135.296 111.14C151.497 115.458 171.552 122.24 182.855 131.427C180.768 116.067 175.61 105.895 167.466 101.2C167.346 101.127 167.246 101.025 167.177 100.904C167.108 100.782 167.072 100.644 167.072 100.504C167.072 100.364 167.108 100.226 167.177 100.104C167.246 99.9825 167.346 99.8805 167.466 99.8084C175.61 95.1134 180.768 84.941 182.855 69.5808C171.552 78.8259 151.497 85.6075 135.296 89.8678C135.638 90.982 135.918 92.114 136.137 93.2586C150.072 89.8593 163.556 84.82 176.305 78.2462Z" fill="url(#paint27_linear_1181_12128)"/>
<path d="M165.727 38.1943C166.249 37.6538 166.541 36.9316 166.541 36.18C166.541 35.4284 166.249 34.7062 165.727 34.1658C165.187 33.6304 164.459 33.3286 163.698 33.3254C163.325 33.3211 162.955 33.3934 162.611 33.538C162.267 33.6826 161.956 33.8963 161.698 34.1658C161.191 34.7211 160.92 35.4518 160.942 36.2035C160.963 36.9552 161.276 37.669 161.814 38.1943C162.349 38.683 163.047 38.9541 163.771 38.9541C164.495 38.9541 165.193 38.683 165.727 38.1943Z" fill="url(#paint28_linear_1181_12128)"/>
<path d="M116.66 48.6558C116.225 49.844 115.849 51.0322 115.472 52.2205C125.95 52.0602 136.378 50.7481 146.569 48.308C146.666 48.2585 146.772 48.2286 146.88 48.2201C146.989 48.2115 147.098 48.2244 147.202 48.258C147.305 48.2917 147.401 48.3454 147.484 48.4161C147.567 48.4869 147.635 48.5732 147.685 48.6703C147.734 48.7673 147.764 48.8732 147.773 48.9818C147.781 49.0904 147.768 49.1996 147.735 49.3032C147.701 49.4068 147.647 49.5028 147.577 49.5856C147.506 49.6685 147.419 49.7366 147.322 49.786L140.367 53.9014C136.657 56.104 128.948 58.7703 113.269 59.9295C112.921 61.1468 112.574 62.364 112.255 63.5522C126.224 62.6248 136.28 60.3932 142.164 56.9155C142.303 56.8142 142.47 56.7596 142.642 56.7596C142.814 56.7596 142.981 56.8142 143.12 56.9155C143.224 57.0588 143.28 57.2312 143.28 57.4082C143.28 57.5851 143.224 57.7575 143.12 57.9008C139.642 63.6971 137.324 73.8116 136.483 87.8096L140.106 86.7953C141.265 71.1164 143.932 63.4073 146.134 59.6977L150.221 52.8291C150.318 52.665 150.471 52.5421 150.653 52.4834C150.834 52.4247 151.031 52.4342 151.206 52.5103C151.387 52.5762 151.536 52.709 151.623 52.8816C151.709 53.0541 151.726 53.2531 151.67 53.4377C149.219 63.6352 147.926 74.0765 147.815 84.5637L151.351 83.4045C151.901 65.8707 154.858 51.2351 160.045 39.9324C148.8 45.149 134.165 48.1051 116.66 48.6558Z" fill="url(#paint29_linear_1181_12128)"/>
<path d="M147.527 60.5972C145.44 64.133 142.861 71.4363 141.73 86.4197L146.194 85.0575C146.364 75.9863 147.334 66.9478 149.092 58.0469L147.527 60.5972Z" fill="url(#paint30_linear_1181_12128)"/>
<path opacity="0.5" d="M141.962 51.0034C133.063 52.7726 124.023 53.7425 114.951 53.9016C114.488 55.4086 114.053 56.7997 113.618 58.3647C128.573 57.2054 135.876 54.6551 139.412 52.5684L141.962 51.0034Z" fill="#330000"/>
<path opacity="0.5" d="M139.412 148.526C135.876 146.41 128.573 143.889 113.618 142.729C114.053 144.208 114.488 145.628 114.951 147.193C124.023 147.352 133.063 148.322 141.962 150.091L139.412 148.526Z" fill="#330000"/>
<path opacity="0.5" d="M149.004 142.961C147.246 134.06 146.276 125.022 146.106 115.951L141.643 114.588C142.773 129.572 145.352 136.875 147.439 140.411L149.004 142.961Z" fill="#330000"/>
<path opacity="0.5" d="M59.5972 52.4817C63.133 54.5684 70.4363 57.1188 85.4197 58.278C84.956 56.8 84.5212 55.3799 84.0575 53.8149C74.9846 53.6724 65.9435 52.7023 57.0469 50.9167L59.5972 52.4817Z" fill="#330000"/>
<path opacity="0.5" d="M50.0024 58.0469C51.7603 66.9478 52.7301 75.9863 52.9006 85.0575L57.3637 86.4197C56.2334 71.4363 53.6541 64.133 51.5674 60.5972L50.0024 58.0469Z" fill="#330000"/>
<path opacity="0.5" d="M57.0469 150.033C65.9435 148.247 74.9846 147.277 84.0575 147.135C84.5212 145.627 84.956 144.236 85.4197 142.671C70.4363 143.831 63.133 146.352 59.5972 148.468L57.0469 150.033Z" fill="#330000"/>
<path opacity="0.5" d="M51.481 140.411C53.5677 136.875 56.147 129.572 57.2773 114.588L52.8142 115.951C52.6437 125.022 51.6739 134.06 49.916 142.961L51.481 140.411Z" fill="#330000"/>
<path opacity="0.5" d="M147.527 60.5972C145.44 64.133 142.861 71.4363 141.73 86.4197L146.194 85.0575C146.364 75.9863 147.334 66.9478 149.092 58.0469L147.527 60.5972Z" fill="#330000"/>
<path d="M111.676 65.1464C117.045 67.0009 121.922 70.0519 125.939 74.0685C129.955 78.0852 133.006 82.9624 134.861 88.3315C135.701 75.4638 137.585 65.784 140.657 59.3501C134.223 62.4221 124.544 64.2769 111.676 65.1464Z" fill="url(#paint31_linear_1181_12128)"/>
<path opacity="0.5" d="M64.2045 112.647C63.393 125.515 61.4802 135.194 58.4082 141.628C64.7261 138.73 74.4059 136.788 87.3896 135.832C82.0215 133.976 77.1453 130.924 73.1289 126.908C69.1125 122.891 66.0609 118.015 64.2045 112.647Z" fill="#330000"/>
<path opacity="0.5" d="M87.3325 65.2038C74.4647 64.3633 64.7849 62.4795 58.3511 59.4075C61.2492 65.7254 63.2199 75.4052 64.1474 88.3889C66.0038 83.0208 69.0554 78.1446 73.0718 74.1282C77.0882 70.1118 81.9644 67.0602 87.3325 65.2038Z" fill="#330000"/>
<path opacity="0.5" d="M111.647 135.804C124.515 136.644 134.195 138.528 140.629 141.6C137.731 135.282 135.789 125.602 134.833 112.619C132.978 117.988 129.927 122.865 125.91 126.882C121.894 130.898 117.017 133.949 111.647 135.804Z" fill="#330000"/>
<path opacity="0.5" d="M111.676 65.1464C117.045 67.0009 121.922 70.0519 125.939 74.0685C129.955 78.0852 133.006 82.9624 134.861 88.3315C135.701 75.4638 137.585 65.784 140.657 59.3501C134.223 62.4221 124.544 64.2769 111.676 65.1464Z" fill="#330000"/>
<path d="M34.0058 163.133C33.2455 163.136 32.5169 163.438 31.9771 163.973C31.4522 164.518 31.161 165.246 31.1656 166.002C31.1838 166.558 31.3614 167.097 31.6774 167.554C31.9933 168.012 32.4342 168.369 32.9475 168.583C33.4608 168.796 34.0247 168.858 34.572 168.76C35.1194 168.662 35.627 168.409 36.0345 168.031C36.5699 167.491 36.8717 166.762 36.8749 166.002C36.8749 165.234 36.5696 164.496 36.0261 163.953C35.4826 163.409 34.7454 163.104 33.9768 163.104L34.0058 163.133Z" fill="url(#paint32_linear_1181_12128)"/>
<path d="M165.726 168.03C166.257 167.488 166.554 166.76 166.554 166.001C166.554 165.243 166.257 164.514 165.726 163.972C165.186 163.437 164.457 163.135 163.697 163.132C163.324 163.128 162.954 163.2 162.61 163.345C162.266 163.489 161.955 163.703 161.697 163.972C161.162 164.512 160.86 165.241 160.857 166.001C160.86 166.761 161.162 167.49 161.697 168.03C162.238 168.552 162.96 168.844 163.712 168.844C164.463 168.844 165.185 168.552 165.726 168.03Z" fill="url(#paint33_linear_1181_12128)"/>
<path d="M164.887 105.634L157.236 101.2C157.122 101.123 157.029 101.019 156.965 100.898C156.901 100.777 156.867 100.642 156.867 100.505C156.867 100.367 156.901 100.232 156.965 100.111C157.029 99.9898 157.122 99.8861 157.236 99.8091L164.887 95.3749C169.437 92.7666 172.915 87.7818 175.233 80.5654C162.86 86.748 149.847 91.5585 136.427 94.9112C136.968 98.6205 136.968 102.389 136.427 106.098C149.842 109.454 162.854 114.254 175.233 120.415C172.915 113.227 169.437 108.243 164.887 105.634Z" fill="url(#paint34_linear_1181_12128)"/>
<path opacity="0.4" d="M137.73 106.446C138.744 104.678 140.454 97.7514 141.063 96.3023C152.887 93.6071 167.957 87.6079 174.826 80.9422C174.869 80.8935 174.923 80.8552 174.983 80.8301C175.044 80.805 175.109 80.7938 175.174 80.7973C175.187 80.7205 175.187 80.6422 175.174 80.5654C162.8 86.748 149.787 91.5585 136.368 94.9112C136.909 98.6205 136.909 102.389 136.368 106.098L137.73 106.446Z" fill="#330000"/>
<path d="M184.999 68.798C184.999 68.3633 184.999 68.0155 184.999 67.7837C185.033 67.559 184.997 67.3292 184.896 67.1257C184.795 66.9223 184.633 66.7551 184.433 66.6472C184.233 66.5392 184.005 66.4958 183.779 66.5229C183.554 66.5499 183.342 66.6461 183.173 66.7983C177.145 72.2758 167.088 77.5214 153.293 82.3903C153.35 68.0624 156.246 53.8879 161.814 40.686C162.533 40.9876 163.316 41.1062 164.093 41.0314C164.869 40.9565 165.615 40.6905 166.264 40.2571C166.913 39.8237 167.444 39.2364 167.81 38.5476C168.177 37.8588 168.367 37.09 168.363 36.3099C168.363 35.6857 168.241 35.0676 168.002 34.491C167.763 33.9143 167.413 33.3904 166.971 32.949C166.53 32.5077 166.006 32.1576 165.429 31.9187C164.853 31.6798 164.235 31.5569 163.611 31.5569C162.827 31.5619 162.056 31.7619 161.369 32.139C160.681 32.516 160.099 33.0582 159.673 33.7166C159.248 34.3751 158.993 35.1291 158.931 35.9106C158.87 36.6922 159.004 37.4768 159.321 38.1936C146.132 43.8213 131.957 46.7764 117.617 46.8881C122.486 32.919 127.732 22.8625 133.209 16.8343C133.335 16.6509 133.402 16.4337 133.402 16.2112C133.402 15.9888 133.335 15.7716 133.209 15.5881C133.1 15.3894 132.935 15.2279 132.733 15.1245C132.531 15.0212 132.304 14.9808 132.079 15.0085L131.064 15.1534C115.501 17.0952 104.981 22.109 99.3587 30.1078C94.0262 22.109 83.361 17.0952 67.798 15.1534H66.7836C66.5589 15.1257 66.3309 15.1661 66.1294 15.2694C65.9278 15.3728 65.762 15.5343 65.6534 15.7331C65.5554 15.9328 65.517 16.1565 65.5427 16.3775C65.5684 16.5984 65.6571 16.8073 65.7983 16.9793C71.2758 23.0074 76.5214 33.0639 81.3903 46.8591C64.0014 46.2215 49.5107 43.1495 38.5558 37.7299C38.6915 37.3186 38.76 36.888 38.7586 36.4548C38.7586 35.8306 38.6357 35.2125 38.3968 34.6359C38.158 34.0592 37.8079 33.5353 37.3665 33.0939C36.9252 32.6526 36.4012 32.3025 35.8246 32.0636C35.2479 31.8247 34.6299 31.7018 34.0057 31.7018C33.3815 31.7018 32.7635 31.8247 32.1868 32.0636C31.6102 32.3025 31.0862 32.6526 30.6448 33.0939C30.2035 33.5353 29.8534 34.0592 29.6145 34.6359C29.3757 35.2125 29.2527 35.8306 29.2527 36.4548C29.2603 37.0713 29.3892 37.6804 29.6322 38.2471C29.8752 38.8138 30.2274 39.3271 30.6687 39.7577C31.1101 40.1883 31.632 40.5278 32.2045 40.7567C32.7771 40.9856 33.3891 41.0994 34.0057 41.0918C35.0466 41.1043 36.0636 40.7789 36.9038 40.1644C42.1495 51.1483 45.1345 65.3782 45.7721 82.4482C31.919 77.5214 21.8625 72.2758 15.8343 66.7983C15.6642 66.6537 15.455 66.5628 15.2332 66.5371C15.0114 66.5113 14.787 66.5517 14.5881 66.6534C14.3894 66.762 14.2279 66.9279 14.1245 67.1294C14.0212 67.3309 13.9808 67.5589 14.0085 67.7837C14.0085 68.0155 14.0085 68.3053 14.1534 68.7111C16.0952 84.2741 21.109 94.9392 29.1078 100.417C21.109 105.981 16.0952 116.617 14.1534 132.209C14.1534 132.644 14.1534 132.992 14.1534 133.224C14.1257 133.448 14.1661 133.676 14.2694 133.878C14.3728 134.079 14.5343 134.245 14.7331 134.354C14.9179 134.476 15.1346 134.541 15.3562 134.541C15.5777 134.541 15.7944 134.476 15.9793 134.354C22.0074 128.876 32.0639 123.631 45.8591 118.762C45.2215 136.354 42.0625 150.902 36.5271 162.031C35.8079 161.606 34.9861 161.385 34.1506 161.394C33.1988 161.365 32.2604 161.623 31.4569 162.134C30.6535 162.645 30.0221 163.386 29.6445 164.26C29.2669 165.134 29.1606 166.101 29.3394 167.037C29.5181 167.972 29.9737 168.832 30.647 169.505C31.3203 170.179 32.1803 170.634 33.1156 170.813C34.0509 170.992 35.0183 170.885 35.8925 170.508C36.7666 170.13 37.5072 169.499 38.0182 168.695C38.5293 167.892 38.7872 166.953 38.7586 166.002C38.7531 165.168 38.5335 164.35 38.121 163.625C49.2499 158.09 63.7986 154.931 81.3903 154.293C76.5214 168.088 71.2758 178.145 65.7983 184.173C65.6571 184.345 65.5684 184.554 65.5427 184.775C65.517 184.996 65.5554 185.219 65.6534 185.419C65.7465 185.592 65.8843 185.737 66.0525 185.839C66.2207 185.941 66.4131 185.996 66.6098 185.999H66.7836H67.798C83.361 184.057 94.0262 179.043 99.5036 171.044C104.981 179.043 115.646 184.057 131.209 185.999H132.224H132.427C132.714 185.991 132.986 185.872 133.187 185.666C133.387 185.46 133.499 185.185 133.499 184.898C133.505 184.742 133.473 184.588 133.408 184.447C133.342 184.306 133.244 184.182 133.122 184.086C127.674 178.058 122.457 168.03 117.617 154.293C134.687 154.902 148.917 157.887 159.901 163.161C159.286 164.002 158.961 165.019 158.973 166.06C158.966 166.682 159.083 167.3 159.317 167.877C159.551 168.455 159.897 168.979 160.336 169.421C160.777 169.863 161.301 170.213 161.878 170.451C162.455 170.69 163.073 170.813 163.697 170.813C164.322 170.813 164.94 170.69 165.516 170.451C166.093 170.212 166.617 169.862 167.058 169.42C167.5 168.979 167.85 168.455 168.089 167.878C168.327 167.302 168.45 166.684 168.45 166.06C168.45 165.435 168.327 164.817 168.089 164.241C167.85 163.664 167.5 163.14 167.058 162.699C166.617 162.257 166.093 161.907 165.516 161.668C164.94 161.43 164.322 161.307 163.697 161.307C163.264 161.305 162.834 161.374 162.422 161.51C157.003 150.41 153.931 136.035 153.293 118.675C167.088 123.544 177.145 128.79 183.173 134.267C183.342 134.419 183.554 134.515 183.779 134.542C184.005 134.569 184.233 134.526 184.433 134.418C184.633 134.31 184.795 134.143 184.896 133.94C184.997 133.736 185.033 133.506 184.999 133.282C184.999 133.05 184.999 132.702 184.999 132.267C183.057 116.675 178.043 106.184 170.044 100.562C177.898 95.0262 182.912 84.361 184.999 68.798ZM32.2088 167.798C31.9571 167.571 31.7551 167.294 31.6155 166.985C31.4759 166.676 31.4016 166.341 31.3974 166.002C31.3952 165.662 31.4608 165.326 31.5902 165.013C31.7196 164.699 31.9102 164.415 32.1509 164.176C32.6329 163.71 33.2774 163.45 33.9477 163.451C34.6269 163.449 35.2809 163.708 35.7736 164.176C36.2492 164.666 36.5189 165.319 36.5271 166.002C36.5174 166.675 36.2474 167.319 35.7736 167.798C35.2812 168.232 34.6475 168.472 33.9912 168.472C33.3349 168.472 32.7011 168.232 32.2088 167.798ZM34.0057 38.8312C33.6788 38.8497 33.3516 38.8028 33.0431 38.6933C32.7346 38.5838 32.451 38.414 32.2088 38.1936C31.9696 37.9565 31.7797 37.6744 31.6502 37.3635C31.5206 37.0526 31.4539 36.7191 31.4539 36.3823C31.4539 36.0455 31.5206 35.712 31.6502 35.4011C31.7797 35.0902 31.9696 34.8081 32.2088 34.571C32.4414 34.3298 32.7206 34.1386 33.0296 34.009C33.3385 33.8794 33.6707 33.8143 34.0057 33.8174C34.3448 33.8153 34.681 33.8809 34.9945 34.0103C35.308 34.1397 35.5926 34.3303 35.8315 34.571C36.0707 34.8081 36.2606 35.0902 36.3902 35.4011C36.5198 35.712 36.5865 36.0455 36.5865 36.3823C36.5865 36.7191 36.5198 37.0526 36.3902 37.3635C36.2606 37.6744 36.0707 37.9565 35.8315 38.1936C35.3286 38.6349 34.674 38.8635 34.0057 38.8312ZM161.147 166.002C161.145 165.662 161.211 165.326 161.34 165.013C161.469 164.699 161.66 164.415 161.901 164.176C162.39 163.713 163.038 163.455 163.712 163.455C164.386 163.455 165.034 163.713 165.523 164.176C165.999 164.658 166.266 165.309 166.266 165.987C166.266 166.665 165.999 167.316 165.523 167.798C165.027 168.249 164.382 168.498 163.712 168.498C163.042 168.498 162.397 168.249 161.901 167.798C161.659 167.566 161.468 167.287 161.339 166.978C161.209 166.669 161.144 166.337 161.147 166.002ZM137.122 100.504C137.126 98.7001 137 96.8985 136.745 95.1131C149.863 91.8549 162.592 87.1908 174.71 81.202C173.177 86.9069 169.624 91.8606 164.712 95.1421L157.061 99.5473C156.891 99.6418 156.75 99.7807 156.653 99.9492C156.556 100.118 156.507 100.309 156.51 100.504C156.512 100.697 156.564 100.886 156.661 101.054C156.757 101.221 156.895 101.361 157.061 101.46L164.712 105.894C169.619 109.162 173.164 114.109 174.681 119.805C162.563 113.816 149.834 109.152 136.716 105.894C136.981 104.109 137.116 102.308 137.122 100.504ZM136.368 108.039C150.148 111.417 163.47 116.448 176.044 123.022C176.221 123.136 176.427 123.196 176.638 123.196C176.848 123.196 177.054 123.136 177.232 123.022C177.401 122.886 177.529 122.706 177.601 122.501C177.673 122.296 177.685 122.075 177.637 121.863C175.174 113.169 171.204 107.169 165.842 104.068L159.814 100.591L165.842 97.1128C171.204 94.0118 175.174 88.0127 177.609 79.3183C177.671 79.1096 177.668 78.887 177.601 78.6799C177.534 78.4728 177.405 78.2911 177.232 78.159C177.054 78.0454 176.848 77.985 176.638 77.985C176.427 77.985 176.221 78.0454 176.044 78.159C163.462 84.6731 150.141 89.6455 136.368 92.9685C136.165 92.0121 135.933 91.0557 135.672 90.0704C150.743 86.0419 170.856 79.3762 182.448 70.2181C180.333 85.0566 175.232 94.9102 167.291 99.4893C167.131 99.5919 166.999 99.7333 166.907 99.9005C166.816 100.068 166.769 100.255 166.769 100.446C166.771 100.636 166.82 100.822 166.911 100.989C167.002 101.156 167.132 101.298 167.291 101.402C175.232 105.981 180.333 115.893 182.448 130.673C170.856 121.515 150.743 114.849 135.672 110.821C135.933 109.952 136.165 108.995 136.368 108.039ZM147.787 140.266C145.816 136.962 143.237 129.862 141.99 115.023L145.845 116.183C145.985 124.612 146.818 133.016 148.337 141.309L147.787 140.266ZM50.612 141.309C52.1322 133.017 52.9658 124.613 53.1044 116.183L56.959 115.023C55.7707 129.891 53.1914 136.962 51.1627 140.266L50.612 141.309ZM51.2206 60.7412C53.1914 64.074 55.7707 71.1165 57.0169 85.984L53.1624 84.8247C53.0238 76.3948 52.1901 67.9907 50.67 59.6978L51.2206 60.7412ZM148.395 59.6978C146.875 67.9907 146.041 76.3948 145.903 84.8247L142.048 85.984C143.237 71.1165 145.816 64.074 147.845 60.7412L148.395 59.6978ZM134.948 100.504C134.948 107.514 132.869 114.367 128.974 120.195C125.08 126.024 119.544 130.567 113.068 133.25C106.591 135.933 99.4643 136.634 92.5888 135.267C85.7133 133.899 79.3977 130.524 74.4408 125.567C69.4838 120.61 66.1081 114.294 64.7404 107.418C63.3728 100.543 64.0747 93.4163 66.7574 86.9397C69.4401 80.4631 73.9831 74.9275 79.8119 71.0328C85.6406 67.1382 92.4934 65.0594 99.5036 65.0594C108.899 65.0747 117.906 68.8139 124.55 75.4577C131.193 82.1015 134.933 91.108 134.948 100.504ZM134.658 87.0853C132.741 82.1525 129.819 77.6726 126.077 73.9305C122.335 70.1884 117.855 67.266 112.922 65.3492C122.151 65.0561 131.272 63.275 139.933 60.0746C136.732 68.7356 134.951 77.8565 134.658 87.0853ZM113.994 58.1039C114.371 56.8287 114.777 55.5535 115.183 54.2493C123.612 54.1095 132.016 53.2759 140.309 51.7569L139.266 52.3656C135.933 54.1914 128.862 56.7707 113.994 57.959V58.1039ZM151.062 83.2887L148.163 84.2741C148.344 73.9524 149.646 63.6809 152.047 53.6407C152.115 53.387 152.088 53.1169 151.971 52.8818C151.853 52.6468 151.653 52.463 151.409 52.3656C151.164 52.2667 150.892 52.2591 150.642 52.3442C150.392 52.4293 150.181 52.6015 150.047 52.8293L145.874 59.6109C143.758 63.2046 141.005 70.8267 139.817 86.6506L136.919 87.491C137.846 73.7828 140.049 63.9001 143.439 58.1328C143.565 57.9257 143.62 57.6827 143.593 57.4417C143.567 57.2006 143.462 56.975 143.295 56.7997C143.085 56.5963 142.804 56.482 142.512 56.4809C142.331 56.4378 142.142 56.4378 141.961 56.4809C136.165 59.9007 126.311 62.1033 112.603 63.0307C112.864 62.0453 113.154 61.06 113.444 60.1326C129.268 58.9443 136.89 56.1911 140.483 54.0465L147.323 50.0181C147.546 49.8802 147.715 49.6689 147.8 49.4203C147.884 49.1718 147.88 48.9015 147.787 48.6559C147.689 48.4118 147.505 48.2121 147.27 48.0945C147.035 47.977 146.765 47.9499 146.511 48.0183C136.471 50.4177 126.2 51.7198 115.878 51.9018C116.197 50.9165 116.516 49.9311 116.864 49.0037C131.525 48.9419 146.034 46.0282 159.582 40.4252C153.999 53.9776 151.105 68.4865 151.062 83.1438V83.2887ZM94.1131 35.2955L98.5473 42.9466C98.6498 43.1071 98.7913 43.2391 98.9585 43.3303C99.1257 43.4215 99.3132 43.4689 99.5036 43.4683C99.6951 43.4747 99.8848 43.4297 100.053 43.3379C100.221 43.2462 100.362 43.1111 100.46 42.9466L104.865 35.2955C108.152 30.3943 113.105 26.852 118.805 25.3259C112.816 37.444 108.152 50.1729 104.894 63.2915C101.319 62.7698 97.6879 62.7698 94.1131 63.2915C90.8548 50.1729 86.1908 37.444 80.202 25.3259C85.8952 26.851 90.8394 30.3944 94.1131 35.2955ZM109.879 64.2769C108.952 64.0161 107.995 63.7842 106.981 63.5814C110.376 49.8258 115.427 36.5326 122.022 23.9928C122.135 23.8098 122.195 23.5991 122.195 23.3841C122.195 23.1692 122.135 22.9585 122.022 22.7755C121.885 22.6085 121.703 22.4843 121.498 22.4175C121.292 22.3507 121.072 22.3442 120.863 22.3988C112.169 24.8332 106.169 28.8037 103.068 34.1652L99.5036 40.1934L96.0259 34.1652C92.9249 28.8037 86.9257 24.8332 78.2313 22.3988C78.0223 22.3442 77.802 22.3507 77.5965 22.4175C77.3911 22.4843 77.2091 22.6085 77.072 22.7755C76.9592 22.9585 76.8994 23.1692 76.8994 23.3841C76.8994 23.5991 76.9592 23.8098 77.072 23.9928C83.6579 36.5477 88.6801 49.8625 92.0264 63.6393C91.099 63.8422 90.1427 64.074 89.1283 64.3349C85.0999 49.2645 78.4342 29.1514 69.276 17.5589C84.1145 19.6745 93.9682 24.7753 98.5473 32.6872C98.6498 32.8477 98.7913 32.9796 98.9585 33.0708C99.1257 33.162 99.3132 33.2095 99.5036 33.2088C99.6951 33.2153 99.8848 33.1702 100.053 33.0785C100.221 32.9868 100.362 32.8516 100.46 32.6872C105.039 24.7753 114.951 19.6745 129.731 17.5589C120.573 29.1514 113.907 49.2645 109.879 64.2769ZM86.0853 65.2913C81.1497 67.2034 76.6674 70.1241 72.9247 73.8668C69.182 77.6095 66.2613 82.0918 64.3492 87.0273C64.0561 77.7986 62.275 68.6777 59.0746 60.0166C67.7323 63.2368 76.8533 65.0375 86.0853 65.3492V65.2913ZM47.6559 52.2206C47.4134 52.3286 47.2167 52.5184 47.1001 52.7568C46.9835 52.9953 46.9546 53.2672 47.0183 53.5248C49.4204 63.555 50.7225 73.817 50.9018 84.1292L48.0037 83.1438C47.9419 68.4827 45.0282 53.9736 39.4252 40.4252C52.9776 46.0084 67.4865 48.9023 82.1438 48.9457C82.4916 49.9311 82.8104 50.9165 83.1292 51.8439C72.8075 51.6637 62.536 50.3615 52.4958 47.9604C52.2421 47.8919 51.972 47.919 51.7369 48.0366C51.5018 48.1541 51.3181 48.3539 51.2206 48.598C51.1277 48.8435 51.1231 49.1138 51.2077 49.3623C51.2924 49.6109 51.4609 49.8223 51.6843 49.9601L58.6109 54.0465C62.2046 56.1911 69.8267 58.9443 85.6505 60.1326C85.9404 61.1469 86.2302 62.1323 86.491 63.0307C72.7828 62.1033 62.9001 59.9007 57.1328 56.4809C56.9226 56.3577 56.6775 56.3076 56.4358 56.3386C56.1941 56.3697 55.9695 56.4799 55.7972 56.6523C55.6248 56.8246 55.5145 57.0492 55.4835 57.2909C55.4525 57.5326 55.5026 57.7777 55.6258 57.9879C59.0456 63.7842 61.2482 73.6379 62.1756 87.3461L59.2775 86.5056C58.0892 70.6818 55.336 63.0597 53.2204 59.466L49.018 52.6843C48.8843 52.4566 48.6732 52.2844 48.4232 52.1993C48.1731 52.1142 47.9008 52.1217 47.6559 52.2206ZM59.7412 52.2206L58.6978 51.612C66.9909 53.131 75.3949 53.9646 83.8247 54.1044C84.2305 55.3796 84.6072 56.6838 84.984 57.959C70.1455 56.7707 63.045 54.1914 59.7412 52.2206ZM64.3492 113.922C66.266 118.855 69.1884 123.335 72.9305 127.077C76.6725 130.819 81.1525 133.741 86.0853 135.658C76.8531 135.944 67.7295 137.736 59.0746 140.962C62.2717 132.29 64.0527 123.16 64.3492 113.922ZM84.984 142.903C84.6362 144.179 84.2305 145.454 83.8247 146.758C75.3949 146.898 66.9909 147.731 58.6978 149.25L59.7412 148.642C63.045 146.816 70.1455 144.237 84.984 143.048V142.903ZM47.0183 147.367C46.9499 147.62 46.977 147.89 47.0945 148.126C47.2121 148.361 47.4118 148.544 47.6559 148.642C47.9008 148.741 48.1731 148.748 48.4232 148.663C48.6732 148.578 48.8843 148.406 49.018 148.178L53.1334 141.252C55.2491 137.658 58.0023 130.036 59.1905 114.212L62.0887 113.371C61.1613 127.08 58.9587 136.962 55.5389 142.73C55.4156 142.94 55.3656 143.185 55.3966 143.427C55.4276 143.668 55.5379 143.893 55.7102 144.065C55.8825 144.238 56.1071 144.348 56.3488 144.379C56.5905 144.41 56.8357 144.36 57.0459 144.237C62.8422 140.817 72.6959 138.614 86.4041 137.687C86.1432 138.672 85.8534 139.658 85.5636 140.585C69.7397 141.773 62.1176 144.526 58.5239 146.671L51.6843 150.989C51.4609 151.127 51.2924 151.338 51.2077 151.587C51.1231 151.836 51.1277 152.106 51.2206 152.351C51.3181 152.595 51.5018 152.795 51.7369 152.913C51.972 153.03 52.2421 153.057 52.4958 152.989C62.536 150.588 72.8075 149.286 83.1292 149.105C82.8104 150.091 82.4916 151.076 82.1438 152.004C67.4842 152.081 52.9781 154.994 39.4252 160.582C45.0084 147.03 47.9023 132.521 47.9457 117.864L50.8439 116.878C50.6827 127.198 49.4 137.469 47.0183 147.512V147.367ZM104.981 165.596L100.576 157.945C100.48 157.776 100.34 157.636 100.173 157.538C100.005 157.441 99.8138 157.39 99.6196 157.39C99.4254 157.39 99.2346 157.441 99.0666 157.538C98.8987 157.636 98.7595 157.776 98.6632 157.945L94.1131 165.712C90.8452 170.619 85.8986 174.164 80.202 175.681C86.1908 163.563 90.8548 150.834 94.1131 137.716C97.6879 138.237 101.319 138.237 104.894 137.716C108.152 150.834 112.816 163.563 118.805 175.681C113.105 174.155 108.152 170.613 104.865 165.712L104.981 165.596ZM89.1283 136.73C90.0557 136.991 91.0121 137.223 92.0264 137.426C88.6693 151.209 83.6476 164.532 77.072 177.102C76.9584 177.279 76.898 177.485 76.898 177.696C76.898 177.906 76.9584 178.112 77.072 178.29C77.2042 178.463 77.3859 178.592 77.5929 178.659C77.8 178.726 78.0227 178.729 78.2313 178.667C86.9257 176.232 92.9249 172.262 96.0259 166.9L99.5036 160.872L102.981 166.9C106.082 172.262 112.053 176.232 120.776 178.667H121.066C121.358 178.667 121.638 178.55 121.845 178.344C122.051 178.137 122.167 177.857 122.167 177.565C122.171 177.327 122.1 177.094 121.964 176.899C115.415 164.371 110.403 151.098 107.039 137.368C107.995 137.165 108.923 136.933 109.937 136.672C113.965 151.743 120.631 171.856 129.789 183.448C114.951 181.333 105.097 176.232 100.518 168.32C100.422 168.151 100.283 168.011 100.115 167.914C99.9466 167.816 99.7558 167.765 99.5616 167.765C99.3674 167.765 99.1766 167.816 99.0087 167.914C98.8407 168.011 98.7015 168.151 98.6052 168.32C94.0262 176.232 84.1145 181.333 69.334 183.448C78.4342 171.856 85.0999 151.743 89.1283 136.73ZM112.922 135.716C117.853 133.796 122.331 130.873 126.073 127.131C129.815 123.389 132.738 118.911 134.658 113.98C134.955 123.218 136.736 132.348 139.933 141.02C131.281 137.774 122.157 135.963 112.922 135.658V135.716ZM151.351 148.845C151.595 148.747 151.795 148.563 151.913 148.328C152.03 148.093 152.057 147.823 151.989 147.569C149.588 137.529 148.286 127.258 148.105 116.936L151.004 117.921C151.047 132.579 153.941 147.088 159.524 160.64C145.967 155.072 131.461 152.178 116.806 152.12C116.458 151.134 116.139 150.149 115.82 149.221C126.142 149.403 136.413 150.706 146.454 153.105C146.707 153.173 146.977 153.146 147.212 153.029C147.447 152.911 147.631 152.711 147.729 152.467C147.828 152.222 147.835 151.95 147.75 151.7C147.665 151.45 147.493 151.239 147.265 151.105L140.338 147.019C136.745 144.874 129.123 142.121 113.299 140.933C113.009 139.918 112.719 138.933 112.458 138.035C126.167 138.962 136.049 141.165 141.816 144.584C142.028 144.702 142.272 144.749 142.512 144.717C142.752 144.686 142.975 144.578 143.15 144.41C143.317 144.235 143.422 144.01 143.448 143.769C143.475 143.527 143.421 143.285 143.295 143.077C139.904 137.281 137.701 127.427 136.774 113.719L139.672 114.56C140.86 130.383 143.613 138.006 145.729 141.599L149.989 148.323C150.123 148.551 150.334 148.723 150.584 148.808C150.834 148.893 151.106 148.886 151.351 148.787V148.845ZM139.266 148.845L140.309 149.453C132.016 147.934 123.612 147.101 115.183 146.961C114.777 145.657 114.371 144.382 113.994 143.106C128.862 144.237 135.962 146.816 139.266 148.787V148.845ZM31.6872 101.46C31.853 101.361 31.9908 101.221 32.0872 101.054C32.1836 100.886 32.2354 100.697 32.2378 100.504C32.2413 100.309 32.192 100.118 32.095 99.9492C31.998 99.7807 31.857 99.6418 31.6872 99.5473C23.7752 94.9682 18.6745 85.0566 16.5589 70.2761C28.1514 79.4342 48.2645 86.0999 63.3349 90.1283C63.074 91.0557 62.8422 92.0121 62.6393 93.0265C48.8548 89.6346 35.5325 84.5839 22.9638 77.9851C22.7864 77.8715 22.5803 77.8111 22.3697 77.8111C22.159 77.8111 21.9529 77.8715 21.7755 77.9851C21.6025 78.1172 21.4737 78.2989 21.4064 78.506C21.3391 78.7131 21.3365 78.9357 21.3988 79.1444C23.8332 87.8388 27.8037 93.8379 33.1652 96.9389L39.1934 100.417L33.1652 103.981C27.8037 107.082 23.8332 113.053 21.3988 121.776C21.3365 121.985 21.3391 122.207 21.4064 122.414C21.4737 122.621 21.6025 122.803 21.7755 122.935C21.9529 123.049 22.159 123.109 22.3697 123.109C22.5803 123.109 22.7864 123.049 22.9638 122.935C35.5392 116.386 48.8613 111.385 62.6393 108.039C62.8422 108.995 63.074 109.952 63.3349 110.937C48.2645 114.907 28.1514 121.573 16.5589 130.731C18.6745 115.893 23.7752 106.039 31.6872 101.46ZM61.8858 100.504C61.8814 102.307 62.0073 104.109 62.2625 105.894C49.1399 109.139 36.4097 113.804 24.2969 119.805C25.822 114.104 29.3779 109.157 34.2955 105.894L41.9466 101.46C42.1125 101.361 42.2502 101.221 42.3466 101.054C42.443 100.886 42.4948 100.697 42.4972 100.504C42.5008 100.309 42.4514 100.118 42.3544 99.9492C42.2574 99.7807 42.1164 99.6418 41.9466 99.5473L34.2955 95.1421C29.3943 91.8555 25.852 86.9024 24.3259 81.202C36.4386 87.2034 49.1689 91.8679 62.2915 95.1131C62.0266 96.8978 61.891 98.6994 61.8858 100.504ZM163.697 33.8464C164.202 33.8433 164.697 33.9901 165.118 34.2683C165.54 34.5465 165.869 34.9436 166.065 35.4092C166.26 35.8748 166.313 36.3879 166.217 36.8836C166.12 37.3793 165.879 37.8353 165.523 38.1936C165.034 38.6665 164.378 38.9269 163.697 38.9182C163.35 38.9337 163.004 38.8773 162.68 38.7526C162.356 38.6279 162.061 38.4376 161.814 38.1936C161.338 37.711 161.071 37.0603 161.071 36.3823C161.071 35.7043 161.338 35.0536 161.814 34.571C162.051 34.306 162.341 34.0941 162.666 33.9493C162.99 33.8044 163.342 33.7299 163.697 33.7305V33.8464Z" fill="url(#paint35_linear_1181_12128)"/>
<path d="M99.5032 73.8398C94.2298 73.8398 89.0748 75.4036 84.6901 78.3334C80.3054 81.2631 76.888 85.4273 74.8699 90.2993C72.8519 95.1713 72.3239 100.532 73.3527 105.704C74.3815 110.877 76.9208 115.627 80.6497 119.356C84.3786 123.085 89.1295 125.625 94.3016 126.653C99.4737 127.682 104.835 127.154 109.707 125.136C114.579 123.118 118.743 119.701 121.673 115.316C124.602 110.931 126.166 105.776 126.166 100.503C126.158 93.4337 123.347 86.6563 118.348 81.6577C113.35 76.6591 106.572 73.8475 99.5032 73.8398ZM99.5032 125.137C94.6722 125.108 89.9575 123.651 85.9526 120.949C81.9476 118.248 78.8313 114.421 76.9957 109.953C75.1602 105.484 74.6874 100.572 75.637 95.8348C76.5865 91.0979 78.9159 86.7477 82.332 83.3315C85.7482 79.9154 90.0984 77.586 94.8353 76.6365C99.5722 75.6869 104.484 76.1597 108.953 77.9952C113.422 79.8308 117.248 82.9471 119.95 86.9521C122.652 90.957 124.109 95.6717 124.137 100.503C124.153 103.742 123.526 106.952 122.294 109.948C121.061 112.944 119.247 115.665 116.956 117.956C114.666 120.247 111.944 122.06 108.948 123.293C105.953 124.526 102.743 125.152 99.5032 125.137Z" fill="url(#paint36_linear_1181_12128)"/>
<path opacity="0.4" d="M139.353 114.184L134.861 112.677C133.113 118.103 130.098 123.036 126.067 127.068C122.035 131.099 117.102 134.114 111.676 135.862L117.472 154.294L122.37 154.642C122.37 154.642 119.472 144.266 117.298 138.441C122.442 136.128 127.055 132.78 130.849 128.607C134.644 124.434 137.538 119.524 139.353 114.184Z" fill="#330000"/>
<path opacity="0.4" d="M117.356 62.2483L122.37 46.4824L117.617 46.7143L111.56 65.0305H111.704L114.197 65.813C119.039 67.8003 123.391 70.8181 126.949 74.6568C130.508 78.4954 133.188 83.0629 134.803 88.0418C137.527 87.0274 136.339 87.5781 138.976 86.5057C137.251 81.1844 134.438 76.28 130.716 72.104C126.994 67.928 122.444 64.5717 117.356 62.2483Z" fill="#330000"/>
<path style="mix-blend-mode:screen" d="M88.8095 66.0444C83.0132 64.8561 76.3765 70.5945 72.7538 74.5359C66.5274 80.735 62.9527 89.1104 62.7842 97.8949C62.7842 98.0688 62.9871 98.1268 63.074 97.8949C64.2972 94.3358 65.7295 90.852 67.3632 87.4616C69.0958 84.3356 71.1138 81.3766 73.3914 78.6223C77.2911 73.1474 82.6264 68.8551 88.8095 66.2183C88.8095 66.2183 88.8385 66.0444 88.8095 66.0444Z" fill="url(#paint37_linear_1181_12128)"/>
<path style="mix-blend-mode:screen" opacity="0.8" d="M124.66 95.1135C125.316 101.872 123.617 108.65 119.849 114.299C115.915 119.885 110.204 123.971 103.648 125.892C103.358 125.892 103.503 126.413 103.648 126.442C120.023 128.616 131.094 108.996 124.66 95.1135Z" fill="url(#paint38_linear_1181_12128)"/>
<path style="mix-blend-mode:screen" opacity="0.5" d="M134.195 90.1584C134.658 101.751 133.702 113.344 126.428 122.994C122.928 127.507 118.299 131.015 113.009 133.167C108.314 135.138 98.7505 137.572 98.9534 137.572C104.562 137.96 110.178 136.947 115.298 134.625C120.418 132.303 124.88 128.744 128.283 124.27C135.934 114.822 136.977 101.577 134.195 90.1584Z" fill="url(#paint39_linear_1181_12128)"/>
<path style="mix-blend-mode:screen" opacity="0.5" d="M92.7508 74.5365C89.1653 75.2504 85.7872 76.7645 82.8685 78.9659C79.9498 81.1673 77.5657 83.9993 75.8941 87.2506C74.2224 90.5019 73.3064 94.0887 73.2143 97.7434C73.1221 101.398 73.8563 105.026 75.3619 108.358C75.3619 108.561 75.7677 108.358 75.7387 108.358C74.6664 100.533 74.4925 93.8671 78.8687 87.1434C82.2885 81.6659 87.9109 78.5649 92.8377 74.7104C92.9247 74.6235 92.8667 74.5075 92.7508 74.5365Z" fill="url(#paint40_linear_1181_12128)"/>
<path style="mix-blend-mode:screen" opacity="0.5" d="M154.801 136.441C153.989 131.254 154.134 124.443 151.526 119.806C151.371 125.528 151.652 131.254 152.366 136.934C153.511 143.974 155.678 150.808 158.8 157.221C158.8 157.221 159.119 157.221 159.061 157.221C157.583 150.265 156.018 143.455 154.801 136.441Z" fill="url(#paint41_linear_1181_12128)"/>
<path style="mix-blend-mode:screen" opacity="0.5" d="M158.915 43.7288C156.648 49.6293 154.798 55.682 153.38 61.8421C152.702 64.5491 152.208 67.299 151.902 70.0729C151.808 74.0356 152.118 77.9976 152.829 81.8973C152.829 81.8973 154.394 66.2763 155.293 62.3928C156.713 56.3936 158.915 43.5839 158.915 43.7288Z" fill="url(#paint42_linear_1181_12128)"/>
<path style="mix-blend-mode:screen" opacity="0.5" d="M126.37 23.0075C121.849 27.9923 119.559 35.2956 116.951 41.3817C113.73 48.2129 111.701 55.5446 110.952 63.0597C110.952 63.1212 110.976 63.1802 111.02 63.2237C111.063 63.2672 111.122 63.2916 111.184 63.2916C111.245 63.2916 111.304 63.2672 111.347 63.2237C111.391 63.1802 111.415 63.1212 111.415 63.0597C115.697 49.4415 120.728 36.0703 126.486 23.0075C126.486 23.0075 126.428 22.9495 126.37 23.0075Z" fill="url(#paint43_linear_1181_12128)"/>
<path style="mix-blend-mode:screen" opacity="0.5" d="M127.877 178.319C121.325 165.446 115.886 152.037 111.619 138.238C111.619 138.238 111.619 138.238 111.619 138.238C114.082 151.917 118.197 167.857 127.616 178.493C127.645 178.509 127.677 178.518 127.71 178.517C127.742 178.516 127.774 178.506 127.801 178.488C127.829 178.47 127.85 178.444 127.864 178.414C127.877 178.384 127.882 178.351 127.877 178.319Z" fill="url(#paint44_linear_1181_12128)"/>
<path style="mix-blend-mode:screen" opacity="0.8" d="M84.868 148.324C82.7524 152.526 81.1005 156.844 79.3036 161.191C77.5068 165.539 75.0433 170.147 73.5073 174.929C73.5073 175.276 73.8551 175.624 74.1159 175.334C77.0915 171.727 79.4335 167.64 81.0425 163.249C83.2756 158.563 84.6124 153.501 84.984 148.324C84.984 148.324 84.897 148.324 84.868 148.324Z" fill="url(#paint45_linear_1181_12128)"/>
<path style="mix-blend-mode:screen" d="M79.9996 34.9187C77.542 29.1306 74.1656 23.7774 70.001 19.0659C70.001 19.0659 70.001 19.0659 70.001 19.0659C72.8991 24.1666 74.8409 29.2964 77.1014 34.6289C79.7387 40.686 82.8977 46.6852 85.2452 52.8293H85.4481C84.5665 46.6138 82.7286 40.5722 79.9996 34.9187Z" fill="url(#paint46_linear_1181_12128)"/>
<path style="mix-blend-mode:screen" d="M30.1517 99.9825C24.0656 90.8244 17.4289 81.8691 15.661 70.6533C15.4609 76.8084 16.8906 82.9071 19.8054 88.332C22.0949 92.7951 24.9641 98.2726 29.8619 100.272C29.9004 100.311 29.9525 100.332 30.0068 100.332C30.0612 100.332 30.1133 100.311 30.1517 100.272C30.1902 100.234 30.2118 100.182 30.2118 100.127C30.2118 100.073 30.1902 100.021 30.1517 99.9825Z" fill="url(#paint47_linear_1181_12128)"/>
<path style="mix-blend-mode:screen" d="M30.7888 33.9625C29.4556 35.8463 29.6005 39.0632 32.3827 39.2371C32.4066 39.2212 32.4263 39.1997 32.4398 39.1744C32.4534 39.1491 32.4605 39.1209 32.4605 39.0922C32.4605 39.0635 32.4534 39.0353 32.4398 39.01C32.4263 38.9847 32.4066 38.9632 32.3827 38.9473C31.9513 38.4063 31.6838 37.7531 31.6119 37.0649C31.54 36.3767 31.6667 35.6823 31.977 35.0638C32.1024 34.7435 32.2994 34.456 32.5527 34.2233C32.8061 33.9906 33.1092 33.8188 33.439 33.721C33.7688 33.6231 34.1166 33.6019 34.4559 33.6588C34.7952 33.7157 35.117 33.8493 35.3968 34.0494C34.7592 31.3831 32.0929 32.1656 30.7888 33.9625Z" fill="url(#paint48_linear_1181_12128)"/>
<path style="mix-blend-mode:screen" d="M160.451 33.701C159.118 35.5848 159.234 38.7728 162.045 38.9756C162.08 38.9788 162.115 38.9715 162.146 38.9544C162.176 38.9374 162.201 38.9116 162.217 38.8802C162.232 38.8489 162.238 38.8136 162.233 38.7789C162.229 38.7442 162.214 38.7118 162.19 38.6858C161.76 38.1435 161.496 37.4886 161.429 36.7996C161.362 36.1107 161.495 35.4172 161.813 34.8023C161.939 34.482 162.136 34.1945 162.389 33.9618C162.642 33.7291 162.946 33.5573 163.275 33.4595C163.605 33.3617 163.953 33.3404 164.292 33.3973C164.631 33.4542 164.953 33.5878 165.233 33.788C164.422 31.1217 161.813 31.8752 160.451 33.701Z" fill="url(#paint49_linear_1181_12128)"/>
<path style="mix-blend-mode:screen" d="M160.19 163.625C158.915 165.509 158.915 168.61 161.813 168.899C161.837 168.884 161.857 168.862 161.87 168.837C161.884 168.811 161.891 168.783 161.891 168.755C161.891 168.726 161.884 168.698 161.87 168.672C161.857 168.647 161.837 168.625 161.813 168.61C161.374 168.073 161.099 167.421 161.022 166.732C160.945 166.043 161.069 165.346 161.378 164.726C161.507 164.405 161.707 164.117 161.964 163.885C162.22 163.652 162.525 163.481 162.857 163.383C163.189 163.285 163.539 163.264 163.88 163.321C164.221 163.378 164.545 163.512 164.827 163.712C164.161 161.045 161.494 161.799 160.19 163.625Z" fill="url(#paint50_linear_1181_12128)"/>
<path style="mix-blend-mode:screen" d="M30.5283 163.51C29.1952 165.364 29.3111 168.581 32.1223 168.755C32.1462 168.739 32.1658 168.718 32.1794 168.693C32.193 168.667 32.2001 168.639 32.2001 168.61C32.2001 168.582 32.193 168.553 32.1794 168.528C32.1658 168.503 32.1462 168.481 32.1223 168.465C31.6867 167.932 31.4163 167.283 31.3442 166.599C31.2722 165.914 31.4016 165.223 31.7166 164.611C31.8435 164.292 32.0406 164.006 32.2931 163.773C32.5457 163.54 32.8474 163.368 33.1758 163.268C33.5042 163.167 33.8509 163.142 34.1903 163.194C34.5296 163.246 34.853 163.374 35.1364 163.568C34.4988 160.901 31.8325 161.684 30.5283 163.51Z" fill="url(#paint51_linear_1181_12128)"/>
<path style="mix-blend-mode:screen" opacity="0.5" d="M181.463 77.7833C178.742 85.5401 174.745 92.7884 169.638 99.2295C169.638 99.2295 169.638 99.5193 169.812 99.4324C177.84 95.4619 181.115 86.2458 181.665 77.8123C181.665 77.6963 181.521 77.6673 181.463 77.7833Z" fill="url(#paint52_linear_1181_12128)"/>
<path style="mix-blend-mode:screen" opacity="0.8" d="M174.508 83.0276C172.451 86.1576 170.596 89.3456 168.219 92.3017C165.843 95.2578 161.959 97.0546 159.235 99.9238C159.201 99.9619 159.179 100.009 159.171 100.06C159.164 100.11 159.171 100.162 159.193 100.208C159.215 100.254 159.249 100.293 159.293 100.32C159.336 100.347 159.387 100.36 159.438 100.359C167.582 99.2572 173.726 90.9396 174.827 83.1436C174.832 83.1044 174.823 83.0648 174.803 83.0311C174.782 82.9974 174.751 82.9717 174.714 82.9582C174.677 82.9447 174.636 82.9443 174.599 82.9569C174.562 82.9695 174.53 82.9945 174.508 83.0276Z" fill="url(#paint53_linear_1181_12128)"/>
<path style="mix-blend-mode:screen" opacity="0.5" d="M40.0923 99.8664C34.6438 94.4759 29.3402 94.0702 23.9497 82.3037C24.5293 91.4908 32.4702 98.2145 40.0054 100.098C40.0923 100.156 40.0923 99.9824 40.0923 99.8664Z" fill="url(#paint54_linear_1181_12128)"/>
<path style="mix-blend-mode:color-dodge" opacity="0.6" d="M94.8088 76.7105C94.803 80.8019 93.5846 84.7997 91.3073 88.1988C89.0301 91.5979 85.7964 94.2456 82.0147 95.8074C78.2331 97.3691 74.0734 97.7748 70.0614 96.9731C66.0493 96.1714 62.3649 94.1983 59.4739 91.3032C56.5828 88.4081 54.6149 84.721 53.8188 80.7078C53.0228 76.6946 53.4342 72.5355 55.0013 68.756C56.5683 64.9766 59.2205 61.7466 62.6228 59.4741C66.0251 57.2017 70.0247 55.9888 74.1161 55.9888C76.8359 55.9888 79.5291 56.525 82.0415 57.5667C84.554 58.6084 86.8364 60.1352 88.7583 62.0598C90.6801 63.9843 92.2038 66.2689 93.242 68.7828C94.2802 71.2967 94.8126 73.9906 94.8088 76.7105Z" fill="url(#paint55_radial_1181_12128)"/>
<path style="mix-blend-mode:color-dodge" opacity="0.6" d="M140.223 137.6C140.228 141.7 139.018 145.709 136.745 149.121C134.471 152.532 131.237 155.193 127.451 156.765C123.665 158.338 119.498 158.753 115.476 157.956C111.455 157.16 107.76 155.189 104.859 152.292C101.958 149.395 99.9815 145.703 99.1796 141.683C98.3777 137.662 98.7864 133.494 100.354 129.706C101.921 125.918 104.577 122.68 107.986 120.402C111.394 118.124 115.401 116.908 119.501 116.908C124.992 116.908 130.258 119.087 134.143 122.967C138.028 126.847 140.215 132.11 140.223 137.6Z" fill="url(#paint56_radial_1181_12128)"/>
<defs>
<linearGradient id="paint0_linear_1181_12128" x1="120.95" y1="47.8155" x2="133.065" y2="59.9007" gradientUnits="userSpaceOnUse">
<stop stop-color="#B08E37"/>
<stop offset="0.49" stop-color="#FFDA7D"/>
<stop offset="0.61" stop-color="#E4C065"/>
<stop offset="0.77" stop-color="#C7A44C"/>
<stop offset="0.9" stop-color="#B6943C"/>
<stop offset="1" stop-color="#B08E37"/>
</linearGradient>
<linearGradient id="paint1_linear_1181_12128" x1="118.081" y1="138.237" x2="135.905" y2="156.061" gradientUnits="userSpaceOnUse">
<stop stop-color="#B08E37"/>
<stop offset="0.49" stop-color="#FFDA7D"/>
<stop offset="0.61" stop-color="#E4C065"/>
<stop offset="0.77" stop-color="#C7A44C"/>
<stop offset="0.9" stop-color="#B6943C"/>
<stop offset="1" stop-color="#B08E37"/>
</linearGradient>
<linearGradient id="paint2_linear_1181_12128" x1="77.2465" y1="147.976" x2="121.762" y2="192.52" gradientUnits="userSpaceOnUse">
<stop stop-color="#B08E37"/>
<stop offset="0.49" stop-color="#FFDA7D"/>
<stop offset="0.61" stop-color="#E4C065"/>
<stop offset="0.77" stop-color="#C7A44C"/>
<stop offset="0.9" stop-color="#B6943C"/>
<stop offset="1" stop-color="#B08E37"/>
</linearGradient>
<linearGradient id="paint3_linear_1181_12128" x1="39.3971" y1="125.892" x2="74.1168" y2="160.612" gradientUnits="userSpaceOnUse">
<stop stop-color="#B08E37"/>
<stop offset="0.49" stop-color="#FFDA7D"/>
<stop offset="0.61" stop-color="#E4C065"/>
<stop offset="0.77" stop-color="#C7A44C"/>
<stop offset="0.9" stop-color="#B6943C"/>
<stop offset="1" stop-color="#B08E37"/>
</linearGradient>
<linearGradient id="paint4_linear_1181_12128" x1="55.539" y1="121.283" x2="78.7242" y2="144.469" gradientUnits="userSpaceOnUse">
<stop stop-color="#B08E37"/>
<stop offset="0.49" stop-color="#FFDA7D"/>
<stop offset="0.61" stop-color="#E4C065"/>
<stop offset="0.77" stop-color="#C7A44C"/>
<stop offset="0.9" stop-color="#B6943C"/>
<stop offset="1" stop-color="#B08E37"/>
</linearGradient>
<linearGradient id="paint5_linear_1181_12128" x1="124.312" y1="125.311" x2="160.191" y2="161.19" gradientUnits="userSpaceOnUse">
<stop stop-color="#B08E37"/>
<stop offset="0.49" stop-color="#FFDA7D"/>
<stop offset="0.61" stop-color="#E4C065"/>
<stop offset="0.77" stop-color="#C7A44C"/>
<stop offset="0.9" stop-color="#B6943C"/>
<stop offset="1" stop-color="#B08E37"/>
</linearGradient>
<linearGradient id="paint6_linear_1181_12128" x1="137.237" y1="119.08" x2="155.061" y2="136.904" gradientUnits="userSpaceOnUse">
<stop stop-color="#B08E37"/>
<stop offset="0.49" stop-color="#FFDA7D"/>
<stop offset="0.61" stop-color="#E4C065"/>
<stop offset="0.77" stop-color="#C7A44C"/>
<stop offset="0.9" stop-color="#B6943C"/>
<stop offset="1" stop-color="#B08E37"/>
</linearGradient>
<linearGradient id="paint7_linear_1181_12128" x1="83.4195" y1="147.889" x2="115.589" y2="180.087" gradientUnits="userSpaceOnUse">
<stop stop-color="#B08E37"/>
<stop offset="0.49" stop-color="#FFDA7D"/>
<stop offset="0.61" stop-color="#E4C065"/>
<stop offset="0.77" stop-color="#C7A44C"/>
<stop offset="0.9" stop-color="#B6943C"/>
<stop offset="1" stop-color="#B08E37"/>
</linearGradient>
<linearGradient id="paint8_linear_1181_12128" x1="63.104" y1="44.9466" x2="80.9276" y2="62.7701" gradientUnits="userSpaceOnUse">
<stop stop-color="#B08E37"/>
<stop offset="0.49" stop-color="#FFDA7D"/>
<stop offset="0.61" stop-color="#E4C065"/>
<stop offset="0.77" stop-color="#C7A44C"/>
<stop offset="0.9" stop-color="#B6943C"/>
<stop offset="1" stop-color="#B08E37"/>
</linearGradient>
<linearGradient id="paint9_linear_1181_12128" x1="43.9453" y1="64.104" x2="61.7689" y2="81.9276" gradientUnits="userSpaceOnUse">
<stop stop-color="#B08E37"/>
<stop offset="0.49" stop-color="#FFDA7D"/>
<stop offset="0.61" stop-color="#E4C065"/>
<stop offset="0.77" stop-color="#C7A44C"/>
<stop offset="0.9" stop-color="#B6943C"/>
<stop offset="1" stop-color="#B08E37"/>
</linearGradient>
<linearGradient id="paint10_linear_1181_12128" x1="38.8177" y1="39.8168" x2="74.6966" y2="75.6957" gradientUnits="userSpaceOnUse">
<stop stop-color="#B08E37"/>
<stop offset="0.49" stop-color="#FFDA7D"/>
<stop offset="0.61" stop-color="#E4C065"/>
<stop offset="0.77" stop-color="#C7A44C"/>
<stop offset="0.9" stop-color="#B6943C"/>
<stop offset="1" stop-color="#B08E37"/>
</linearGradient>
<linearGradient id="paint11_linear_1181_12128" x1="83.4195" y1="20.9214" x2="115.589" y2="53.1197" gradientUnits="userSpaceOnUse">
<stop stop-color="#B08E37"/>
<stop offset="0.49" stop-color="#FFDA7D"/>
<stop offset="0.61" stop-color="#E4C065"/>
<stop offset="0.77" stop-color="#C7A44C"/>
<stop offset="0.9" stop-color="#B6943C"/>
<stop offset="1" stop-color="#B08E37"/>
</linearGradient>
<linearGradient id="paint12_linear_1181_12128" x1="77.2465" y1="8.48837" x2="121.762" y2="53.0328" gradientUnits="userSpaceOnUse">
<stop stop-color="#B08E37"/>
<stop offset="0.49" stop-color="#FFDA7D"/>
<stop offset="0.61" stop-color="#E4C065"/>
<stop offset="0.77" stop-color="#C7A44C"/>
<stop offset="0.9" stop-color="#B6943C"/>
<stop offset="1" stop-color="#B08E37"/>
</linearGradient>
<linearGradient id="paint13_linear_1181_12128" x1="7.51767" y1="78.2462" x2="52.0331" y2="122.762" gradientUnits="userSpaceOnUse">
<stop stop-color="#B08E37"/>
<stop offset="0.49" stop-color="#FFDA7D"/>
<stop offset="0.61" stop-color="#E4C065"/>
<stop offset="0.77" stop-color="#C7A44C"/>
<stop offset="0.9" stop-color="#B6943C"/>
<stop offset="1" stop-color="#B08E37"/>
</linearGradient>
<linearGradient id="paint14_linear_1181_12128" x1="65.9731" y1="141.106" x2="78.0584" y2="153.192" gradientUnits="userSpaceOnUse">
<stop stop-color="#B08E37"/>
<stop offset="0.49" stop-color="#FFDA7D"/>
<stop offset="0.61" stop-color="#E4C065"/>
<stop offset="0.77" stop-color="#C7A44C"/>
<stop offset="0.9" stop-color="#B6943C"/>
<stop offset="1" stop-color="#B08E37"/>
</linearGradient>
<linearGradient id="paint15_linear_1181_12128" x1="46.815" y1="121.95" x2="58.9003" y2="134.035" gradientUnits="userSpaceOnUse">
<stop stop-color="#B08E37"/>
<stop offset="0.49" stop-color="#FFDA7D"/>
<stop offset="0.61" stop-color="#E4C065"/>
<stop offset="0.77" stop-color="#C7A44C"/>
<stop offset="0.9" stop-color="#B6943C"/>
<stop offset="1" stop-color="#B08E37"/>
</linearGradient>
<linearGradient id="paint16_linear_1181_12128" x1="19.9218" y1="84.42" x2="52.0912" y2="116.589" gradientUnits="userSpaceOnUse">
<stop stop-color="#B08E37"/>
<stop offset="0.49" stop-color="#FFDA7D"/>
<stop offset="0.61" stop-color="#E4C065"/>
<stop offset="0.77" stop-color="#C7A44C"/>
<stop offset="0.9" stop-color="#B6943C"/>
<stop offset="1" stop-color="#B08E37"/>
</linearGradient>
<linearGradient id="paint17_linear_1181_12128" x1="58.467" y1="59.4654" x2="75.7689" y2="76.7673" gradientUnits="userSpaceOnUse">
<stop stop-color="#B08E37"/>
<stop offset="0.49" stop-color="#FFDA7D"/>
<stop offset="0.61" stop-color="#E4C065"/>
<stop offset="0.77" stop-color="#C7A44C"/>
<stop offset="0.9" stop-color="#B6943C"/>
<stop offset="1" stop-color="#B08E37"/>
</linearGradient>
<linearGradient id="paint18_linear_1181_12128" x1="123.24" y1="124.24" x2="140.542" y2="141.542" gradientUnits="userSpaceOnUse">
<stop stop-color="#B08E37"/>
<stop offset="0.49" stop-color="#FFDA7D"/>
<stop offset="0.61" stop-color="#E4C065"/>
<stop offset="0.77" stop-color="#C7A44C"/>
<stop offset="0.9" stop-color="#B6943C"/>
<stop offset="1" stop-color="#B08E37"/>
</linearGradient>
<linearGradient id="paint19_linear_1181_12128" x1="31.9779" y1="34.2815" x2="36.0353" y2="38.3099" gradientUnits="userSpaceOnUse">
<stop stop-color="#B08E37"/>
<stop offset="0.49" stop-color="#FFDA7D"/>
<stop offset="0.61" stop-color="#E4C065"/>
<stop offset="0.77" stop-color="#C7A44C"/>
<stop offset="0.9" stop-color="#B6943C"/>
<stop offset="1" stop-color="#B08E37"/>
</linearGradient>
<linearGradient id="paint20_linear_1181_12128" x1="74.2318" y1="75.2316" x2="124.775" y2="125.775" gradientUnits="userSpaceOnUse">
<stop stop-color="#B08E37"/>
<stop offset="0.49" stop-color="#FFDA7D"/>
<stop offset="0.61" stop-color="#E4C065"/>
<stop offset="0.77" stop-color="#C7A44C"/>
<stop offset="0.9" stop-color="#B6943C"/>
<stop offset="1" stop-color="#B08E37"/>
</linearGradient>
<linearGradient id="paint21_linear_1181_12128" x1="74.2318" y1="125.775" x2="124.775" y2="75.2316" gradientUnits="userSpaceOnUse">
<stop/>
<stop offset="0.04" stop-color="#080808"/>
<stop offset="0.11" stop-color="#1F1F1F"/>
<stop offset="0.19" stop-color="#454545"/>
<stop offset="0.29" stop-color="#797979"/>
<stop offset="0.39" stop-color="#BABABA"/>
<stop offset="0.49" stop-color="white"/>
<stop offset="0.55" stop-color="#CCCCCC"/>
<stop offset="0.62" stop-color="#8F8F8F"/>
<stop offset="0.69" stop-color="#5C5C5C"/>
<stop offset="0.76" stop-color="#343434"/>
<stop offset="0.82" stop-color="#171717"/>
<stop offset="0.88" stop-color="#060606"/>
<stop offset="0.91"/>
</linearGradient>
<linearGradient id="paint22_linear_1181_12128" x1="81.999" y1="82.9991" x2="117.008" y2="118.009" gradientUnits="userSpaceOnUse">
<stop stop-color="#B08E37"/>
<stop offset="0.49" stop-color="#FFDA7D"/>
<stop offset="0.61" stop-color="#E4C065"/>
<stop offset="0.77" stop-color="#C7A44C"/>
<stop offset="0.9" stop-color="#B6943C"/>
<stop offset="1" stop-color="#B08E37"/>
</linearGradient>
<linearGradient id="paint23_linear_1181_12128" x1="146.976" y1="78.2462" x2="191.491" y2="122.762" gradientUnits="userSpaceOnUse">
<stop stop-color="#B08E37"/>
<stop offset="0.49" stop-color="#FFDA7D"/>
<stop offset="0.61" stop-color="#E4C065"/>
<stop offset="0.77" stop-color="#C7A44C"/>
<stop offset="0.9" stop-color="#B6943C"/>
<stop offset="1" stop-color="#B08E37"/>
</linearGradient>
<linearGradient id="paint24_linear_1181_12128" x1="77.2465" y1="192.52" x2="121.762" y2="147.976" gradientUnits="userSpaceOnUse">
<stop/>
<stop offset="0.04" stop-color="#080808"/>
<stop offset="0.11" stop-color="#1F1F1F"/>
<stop offset="0.19" stop-color="#454545"/>
<stop offset="0.29" stop-color="#797979"/>
<stop offset="0.39" stop-color="#BABABA"/>
<stop offset="0.49" stop-color="white"/>
<stop offset="0.55" stop-color="#CCCCCC"/>
<stop offset="0.62" stop-color="#8F8F8F"/>
<stop offset="0.69" stop-color="#5C5C5C"/>
<stop offset="0.76" stop-color="#343434"/>
<stop offset="0.82" stop-color="#171717"/>
<stop offset="0.88" stop-color="#060606"/>
<stop offset="0.91"/>
</linearGradient>
<linearGradient id="paint25_linear_1181_12128" x1="77.2465" y1="53.0328" x2="121.762" y2="8.48838" gradientUnits="userSpaceOnUse">
<stop/>
<stop offset="0.04" stop-color="#080808"/>
<stop offset="0.11" stop-color="#1F1F1F"/>
<stop offset="0.19" stop-color="#454545"/>
<stop offset="0.29" stop-color="#797979"/>
<stop offset="0.39" stop-color="#BABABA"/>
<stop offset="0.49" stop-color="white"/>
<stop offset="0.55" stop-color="#CCCCCC"/>
<stop offset="0.62" stop-color="#8F8F8F"/>
<stop offset="0.69" stop-color="#5C5C5C"/>
<stop offset="0.76" stop-color="#343434"/>
<stop offset="0.82" stop-color="#171717"/>
<stop offset="0.88" stop-color="#060606"/>
<stop offset="0.91"/>
</linearGradient>
<linearGradient id="paint26_linear_1181_12128" x1="7.51767" y1="122.762" x2="52.0331" y2="78.2462" gradientUnits="userSpaceOnUse">
<stop/>
<stop offset="0.04" stop-color="#080808"/>
<stop offset="0.11" stop-color="#1F1F1F"/>
<stop offset="0.19" stop-color="#454545"/>
<stop offset="0.29" stop-color="#797979"/>
<stop offset="0.39" stop-color="#BABABA"/>
<stop offset="0.49" stop-color="white"/>
<stop offset="0.55" stop-color="#CCCCCC"/>
<stop offset="0.62" stop-color="#8F8F8F"/>
<stop offset="0.69" stop-color="#5C5C5C"/>
<stop offset="0.76" stop-color="#343434"/>
<stop offset="0.82" stop-color="#171717"/>
<stop offset="0.88" stop-color="#060606"/>
<stop offset="0.91"/>
</linearGradient>
<linearGradient id="paint27_linear_1181_12128" x1="146.976" y1="122.762" x2="191.491" y2="78.2462" gradientUnits="userSpaceOnUse">
<stop/>
<stop offset="0.04" stop-color="#080808"/>
<stop offset="0.11" stop-color="#1F1F1F"/>
<stop offset="0.19" stop-color="#454545"/>
<stop offset="0.29" stop-color="#797979"/>
<stop offset="0.39" stop-color="#BABABA"/>
<stop offset="0.49" stop-color="white"/>
<stop offset="0.55" stop-color="#CCCCCC"/>
<stop offset="0.62" stop-color="#8F8F8F"/>
<stop offset="0.69" stop-color="#5C5C5C"/>
<stop offset="0.76" stop-color="#343434"/>
<stop offset="0.82" stop-color="#171717"/>
<stop offset="0.88" stop-color="#060606"/>
<stop offset="0.91"/>
</linearGradient>
<linearGradient id="paint28_linear_1181_12128" x1="161.698" y1="34.2818" x2="165.727" y2="38.3102" gradientUnits="userSpaceOnUse">
<stop stop-color="#B08E37"/>
<stop offset="0.49" stop-color="#FFDA7D"/>
<stop offset="0.61" stop-color="#E4C065"/>
<stop offset="0.77" stop-color="#C7A44C"/>
<stop offset="0.9" stop-color="#B6943C"/>
<stop offset="1" stop-color="#B08E37"/>
</linearGradient>
<linearGradient id="paint29_linear_1181_12128" x1="124.891" y1="40.3961" x2="159.61" y2="75.1158" gradientUnits="userSpaceOnUse">
<stop stop-color="#B08E37"/>
<stop offset="0.49" stop-color="#FFDA7D"/>
<stop offset="0.61" stop-color="#E4C065"/>
<stop offset="0.77" stop-color="#C7A44C"/>
<stop offset="0.9" stop-color="#B6943C"/>
<stop offset="1" stop-color="#B08E37"/>
</linearGradient>
<linearGradient id="paint30_linear_1181_12128" x1="140.108" y1="66.9731" x2="152.193" y2="79.0584" gradientUnits="userSpaceOnUse">
<stop stop-color="#B08E37"/>
<stop offset="0.49" stop-color="#FFDA7D"/>
<stop offset="0.61" stop-color="#E4C065"/>
<stop offset="0.77" stop-color="#C7A44C"/>
<stop offset="0.9" stop-color="#B6943C"/>
<stop offset="1" stop-color="#B08E37"/>
</linearGradient>
<linearGradient id="paint31_linear_1181_12128" x1="120.283" y1="56.5389" x2="143.468" y2="79.724" gradientUnits="userSpaceOnUse">
<stop stop-color="#B08E37"/>
<stop offset="0.49" stop-color="#FFDA7D"/>
<stop offset="0.61" stop-color="#E4C065"/>
<stop offset="0.77" stop-color="#C7A44C"/>
<stop offset="0.9" stop-color="#B6943C"/>
<stop offset="1" stop-color="#B08E37"/>
</linearGradient>
<linearGradient id="paint32_linear_1181_12128" x1="31.9771" y1="163.973" x2="36.0345" y2="168.031" gradientUnits="userSpaceOnUse">
<stop stop-color="#B08E37"/>
<stop offset="0.49" stop-color="#FFDA7D"/>
<stop offset="0.61" stop-color="#E4C065"/>
<stop offset="0.77" stop-color="#C7A44C"/>
<stop offset="0.9" stop-color="#B6943C"/>
<stop offset="1" stop-color="#B08E37"/>
</linearGradient>
<linearGradient id="paint33_linear_1181_12128" x1="161.697" y1="163.972" x2="165.726" y2="168.03" gradientUnits="userSpaceOnUse">
<stop stop-color="#B08E37"/>
<stop offset="0.49" stop-color="#FFDA7D"/>
<stop offset="0.61" stop-color="#E4C065"/>
<stop offset="0.77" stop-color="#C7A44C"/>
<stop offset="0.9" stop-color="#B6943C"/>
<stop offset="1" stop-color="#B08E37"/>
</linearGradient>
<linearGradient id="paint34_linear_1181_12128" x1="146.919" y1="84.42" x2="179.088" y2="116.589" gradientUnits="userSpaceOnUse">
<stop stop-color="#B08E37"/>
<stop offset="0.49" stop-color="#FFDA7D"/>
<stop offset="0.61" stop-color="#E4C065"/>
<stop offset="0.77" stop-color="#C7A44C"/>
<stop offset="0.9" stop-color="#B6943C"/>
<stop offset="1" stop-color="#B08E37"/>
</linearGradient>
<linearGradient id="paint35_linear_1181_12128" x1="14.0085" y1="100.504" x2="184.999" y2="100.504" gradientUnits="userSpaceOnUse">
<stop stop-color="#993300"/>
<stop offset="0.26" stop-color="#7B2803"/>
<stop offset="0.53" stop-color="#642004"/>
<stop offset="0.78" stop-color="#571B06"/>
<stop offset="1" stop-color="#521906"/>
</linearGradient>
<linearGradient id="paint36_linear_1181_12128" x1="72.8403" y1="100.503" x2="126.166" y2="100.503" gradientUnits="userSpaceOnUse">
<stop stop-color="#993300"/>
<stop offset="0.26" stop-color="#7B2803"/>
<stop offset="0.53" stop-color="#642004"/>
<stop offset="0.78" stop-color="#571B06"/>
<stop offset="1" stop-color="#521906"/>
</linearGradient>
<linearGradient id="paint37_linear_1181_12128" x1="84.5202" y1="65.2039" x2="62.6393" y2="94.0694" gradientUnits="userSpaceOnUse">
<stop/>
<stop offset="0.04" stop-color="#080808"/>
<stop offset="0.11" stop-color="#1F1F1F"/>
<stop offset="0.19" stop-color="#454545"/>
<stop offset="0.29" stop-color="#797979"/>
<stop offset="0.39" stop-color="#BABABA"/>
<stop offset="0.49" stop-color="white"/>
<stop offset="0.55" stop-color="#CCCCCC"/>
<stop offset="0.62" stop-color="#8F8F8F"/>
<stop offset="0.69" stop-color="#5C5C5C"/>
<stop offset="0.76" stop-color="#343434"/>
<stop offset="0.82" stop-color="#171717"/>
<stop offset="0.88" stop-color="#060606"/>
<stop offset="0.91"/>
</linearGradient>
<linearGradient id="paint38_linear_1181_12128" x1="127.5" y1="99.4318" x2="107.416" y2="130.094" gradientUnits="userSpaceOnUse">
<stop/>
<stop offset="0.04" stop-color="#080808"/>
<stop offset="0.11" stop-color="#1F1F1F"/>
<stop offset="0.19" stop-color="#454545"/>
<stop offset="0.29" stop-color="#797979"/>
<stop offset="0.39" stop-color="#BABABA"/>
<stop offset="0.49" stop-color="white"/>
<stop offset="0.55" stop-color="#CCCCCC"/>
<stop offset="0.62" stop-color="#8F8F8F"/>
<stop offset="0.69" stop-color="#5C5C5C"/>
<stop offset="0.76" stop-color="#343434"/>
<stop offset="0.82" stop-color="#171717"/>
<stop offset="0.88" stop-color="#060606"/>
<stop offset="0.91"/>
</linearGradient>
<linearGradient id="paint39_linear_1181_12128" x1="135.905" y1="97.7226" x2="105.271" y2="143.484" gradientUnits="userSpaceOnUse">
<stop/>
<stop offset="0.13" stop-color="#003E3E"/>
<stop offset="0.44" stop-color="#00D8D8"/>
<stop offset="0.52" stop-color="#00FFFF"/>
<stop offset="0.61" stop-color="#00D6D6"/>
<stop offset="0.8" stop-color="#006E6E"/>
<stop offset="1"/>
</linearGradient>
<linearGradient id="paint40_linear_1181_12128" x1="88.2587" y1="75.377" x2="71.5364" y2="105.257" gradientUnits="userSpaceOnUse">
<stop/>
<stop offset="0.13" stop-color="#003E3E"/>
<stop offset="0.44" stop-color="#00D8D8"/>
<stop offset="0.52" stop-color="#00FFFF"/>
<stop offset="0.61" stop-color="#00D6D6"/>
<stop offset="0.8" stop-color="#006E6E"/>
<stop offset="1"/>
</linearGradient>
<linearGradient id="paint41_linear_1181_12128" x1="151.671" y1="124.733" x2="156.453" y2="150.816" gradientUnits="userSpaceOnUse">
<stop/>
<stop offset="0.13" stop-color="#003E3E"/>
<stop offset="0.44" stop-color="#00D8D8"/>
<stop offset="0.52" stop-color="#00FFFF"/>
<stop offset="0.61" stop-color="#00D6D6"/>
<stop offset="0.8" stop-color="#006E6E"/>
<stop offset="1"/>
</linearGradient>
<linearGradient id="paint42_linear_1181_12128" x1="151.815" y1="62.8565" x2="158.944" y2="62.8565" gradientUnits="userSpaceOnUse">
<stop/>
<stop offset="0.13" stop-color="#003E3E"/>
<stop offset="0.44" stop-color="#00D8D8"/>
<stop offset="0.52" stop-color="#00FFFF"/>
<stop offset="0.61" stop-color="#00D6D6"/>
<stop offset="0.8" stop-color="#006E6E"/>
<stop offset="1"/>
</linearGradient>
<linearGradient id="paint43_linear_1181_12128" x1="124.747" y1="26.5142" x2="111.705" y2="58.2778" gradientUnits="userSpaceOnUse">
<stop/>
<stop offset="0.13" stop-color="#003E3E"/>
<stop offset="0.44" stop-color="#00D8D8"/>
<stop offset="0.52" stop-color="#00FFFF"/>
<stop offset="0.61" stop-color="#00D6D6"/>
<stop offset="0.8" stop-color="#006E6E"/>
<stop offset="1"/>
</linearGradient>
<linearGradient id="paint44_linear_1181_12128" x1="113.196" y1="143.756" x2="124.431" y2="174.449" gradientUnits="userSpaceOnUse">
<stop/>
<stop offset="0.13" stop-color="#003E3E"/>
<stop offset="0.44" stop-color="#00D8D8"/>
<stop offset="0.52" stop-color="#00FFFF"/>
<stop offset="0.61" stop-color="#00D6D6"/>
<stop offset="0.8" stop-color="#006E6E"/>
<stop offset="1"/>
</linearGradient>
<linearGradient id="paint45_linear_1181_12128" x1="84.955" y1="150.294" x2="74.3188" y2="176.088" gradientUnits="userSpaceOnUse">
<stop/>
<stop offset="0.04" stop-color="#080808"/>
<stop offset="0.11" stop-color="#1F1F1F"/>
<stop offset="0.19" stop-color="#454545"/>
<stop offset="0.29" stop-color="#797979"/>
<stop offset="0.39" stop-color="#BABABA"/>
<stop offset="0.49" stop-color="white"/>
<stop offset="0.55" stop-color="#CCCCCC"/>
<stop offset="0.62" stop-color="#8F8F8F"/>
<stop offset="0.69" stop-color="#5C5C5C"/>
<stop offset="0.76" stop-color="#343434"/>
<stop offset="0.82" stop-color="#171717"/>
<stop offset="0.88" stop-color="#060606"/>
<stop offset="0.91"/>
</linearGradient>
<linearGradient id="paint46_linear_1181_12128" x1="72.1166" y1="20.428" x2="85.0713" y2="50.1919" gradientUnits="userSpaceOnUse">
<stop/>
<stop offset="0.04" stop-color="#080808"/>
<stop offset="0.11" stop-color="#1F1F1F"/>
<stop offset="0.19" stop-color="#454545"/>
<stop offset="0.29" stop-color="#797979"/>
<stop offset="0.39" stop-color="#BABABA"/>
<stop offset="0.49" stop-color="white"/>
<stop offset="0.55" stop-color="#CCCCCC"/>
<stop offset="0.62" stop-color="#8F8F8F"/>
<stop offset="0.69" stop-color="#5C5C5C"/>
<stop offset="0.76" stop-color="#343434"/>
<stop offset="0.82" stop-color="#171717"/>
<stop offset="0.88" stop-color="#060606"/>
<stop offset="0.91"/>
</linearGradient>
<linearGradient id="paint47_linear_1181_12128" x1="15.3133" y1="74.5948" x2="27.3985" y2="98.5044" gradientUnits="userSpaceOnUse">
<stop/>
<stop offset="0.04" stop-color="#080808"/>
<stop offset="0.11" stop-color="#1F1F1F"/>
<stop offset="0.19" stop-color="#454545"/>
<stop offset="0.29" stop-color="#797979"/>
<stop offset="0.39" stop-color="#BABABA"/>
<stop offset="0.49" stop-color="white"/>
<stop offset="0.55" stop-color="#CCCCCC"/>
<stop offset="0.62" stop-color="#8F8F8F"/>
<stop offset="0.69" stop-color="#5C5C5C"/>
<stop offset="0.76" stop-color="#343434"/>
<stop offset="0.82" stop-color="#171717"/>
<stop offset="0.88" stop-color="#060606"/>
<stop offset="0.91"/>
</linearGradient>
<linearGradient id="paint48_linear_1181_12128" x1="34.0637" y1="32.6293" x2="30.354" y2="38.7154" gradientUnits="userSpaceOnUse">
<stop/>
<stop offset="0.04" stop-color="#080808"/>
<stop offset="0.11" stop-color="#1F1F1F"/>
<stop offset="0.19" stop-color="#454545"/>
<stop offset="0.29" stop-color="#797979"/>
<stop offset="0.39" stop-color="#BABABA"/>
<stop offset="0.49" stop-color="white"/>
<stop offset="0.55" stop-color="#CCCCCC"/>
<stop offset="0.62" stop-color="#8F8F8F"/>
<stop offset="0.69" stop-color="#5C5C5C"/>
<stop offset="0.76" stop-color="#343434"/>
<stop offset="0.82" stop-color="#171717"/>
<stop offset="0.88" stop-color="#060606"/>
<stop offset="0.91"/>
</linearGradient>
<linearGradient id="paint49_linear_1181_12128" x1="163.726" y1="32.3679" x2="160.016" y2="38.454" gradientUnits="userSpaceOnUse">
<stop/>
<stop offset="0.04" stop-color="#080808"/>
<stop offset="0.11" stop-color="#1F1F1F"/>
<stop offset="0.19" stop-color="#454545"/>
<stop offset="0.29" stop-color="#797979"/>
<stop offset="0.39" stop-color="#BABABA"/>
<stop offset="0.49" stop-color="white"/>
<stop offset="0.55" stop-color="#CCCCCC"/>
<stop offset="0.62" stop-color="#8F8F8F"/>
<stop offset="0.69" stop-color="#5C5C5C"/>
<stop offset="0.76" stop-color="#343434"/>
<stop offset="0.82" stop-color="#171717"/>
<stop offset="0.88" stop-color="#060606"/>
<stop offset="0.91"/>
</linearGradient>
<linearGradient id="paint50_linear_1181_12128" x1="163.465" y1="162.292" x2="159.727" y2="168.378" gradientUnits="userSpaceOnUse">
<stop/>
<stop offset="0.04" stop-color="#080808"/>
<stop offset="0.11" stop-color="#1F1F1F"/>
<stop offset="0.19" stop-color="#454545"/>
<stop offset="0.29" stop-color="#797979"/>
<stop offset="0.39" stop-color="#BABABA"/>
<stop offset="0.49" stop-color="white"/>
<stop offset="0.55" stop-color="#CCCCCC"/>
<stop offset="0.62" stop-color="#8F8F8F"/>
<stop offset="0.69" stop-color="#5C5C5C"/>
<stop offset="0.76" stop-color="#343434"/>
<stop offset="0.82" stop-color="#171717"/>
<stop offset="0.88" stop-color="#060606"/>
<stop offset="0.91"/>
</linearGradient>
<linearGradient id="paint51_linear_1181_12128" x1="33.8032" y1="162.148" x2="30.0936" y2="168.234" gradientUnits="userSpaceOnUse">
<stop/>
<stop offset="0.04" stop-color="#080808"/>
<stop offset="0.11" stop-color="#1F1F1F"/>
<stop offset="0.19" stop-color="#454545"/>
<stop offset="0.29" stop-color="#797979"/>
<stop offset="0.39" stop-color="#BABABA"/>
<stop offset="0.49" stop-color="white"/>
<stop offset="0.55" stop-color="#CCCCCC"/>
<stop offset="0.62" stop-color="#8F8F8F"/>
<stop offset="0.69" stop-color="#5C5C5C"/>
<stop offset="0.76" stop-color="#343434"/>
<stop offset="0.82" stop-color="#171717"/>
<stop offset="0.88" stop-color="#060606"/>
<stop offset="0.91"/>
</linearGradient>
<linearGradient id="paint52_linear_1181_12128" x1="181.723" y1="81.1741" x2="170.595" y2="100.012" gradientUnits="userSpaceOnUse">
<stop/>
<stop offset="0.13" stop-color="#003E3E"/>
<stop offset="0.44" stop-color="#00D8D8"/>
<stop offset="0.52" stop-color="#00FFFF"/>
<stop offset="0.61" stop-color="#00D6D6"/>
<stop offset="0.8" stop-color="#006E6E"/>
<stop offset="1"/>
</linearGradient>
<linearGradient id="paint53_linear_1181_12128" x1="175.088" y1="85.3462" x2="160.742" y2="101.257" gradientUnits="userSpaceOnUse">
<stop/>
<stop offset="0.04" stop-color="#080808"/>
<stop offset="0.11" stop-color="#1F1F1F"/>
<stop offset="0.19" stop-color="#454545"/>
<stop offset="0.29" stop-color="#797979"/>
<stop offset="0.39" stop-color="#BABABA"/>
<stop offset="0.49" stop-color="white"/>
<stop offset="0.55" stop-color="#CCCCCC"/>
<stop offset="0.62" stop-color="#8F8F8F"/>
<stop offset="0.69" stop-color="#5C5C5C"/>
<stop offset="0.76" stop-color="#343434"/>
<stop offset="0.82" stop-color="#171717"/>
<stop offset="0.88" stop-color="#060606"/>
<stop offset="0.91"/>
</linearGradient>
<linearGradient id="paint54_linear_1181_12128" x1="24.7612" y1="86.2452" x2="36.9624" y2="98.5913" gradientUnits="userSpaceOnUse">
<stop/>
<stop offset="0.13" stop-color="#003E3E"/>
<stop offset="0.44" stop-color="#00D8D8"/>
<stop offset="0.52" stop-color="#00FFFF"/>
<stop offset="0.61" stop-color="#00D6D6"/>
<stop offset="0.8" stop-color="#006E6E"/>
<stop offset="1"/>
</linearGradient>
<radialGradient id="paint55_radial_1181_12128" cx="0" cy="0" r="1" gradientUnits="userSpaceOnUse" gradientTransform="translate(74.1161 76.7105) scale(20.6927)">
<stop stop-color="white"/>
<stop offset="0.2" stop-color="#BABABA"/>
<stop offset="0.42" stop-color="#797979"/>
<stop offset="0.61" stop-color="#454545"/>
<stop offset="0.78" stop-color="#1F1F1F"/>
<stop offset="0.91" stop-color="#080808"/>
<stop offset="1"/>
</radialGradient>
<radialGradient id="paint56_radial_1181_12128" cx="0" cy="0" r="1" gradientUnits="userSpaceOnUse" gradientTransform="translate(119.501 137.6) scale(20.6927 20.6927)">
<stop stop-color="white"/>
<stop offset="0.2" stop-color="#BABABA"/>
<stop offset="0.42" stop-color="#797979"/>
<stop offset="0.61" stop-color="#454545"/>
<stop offset="0.78" stop-color="#1F1F1F"/>
<stop offset="0.91" stop-color="#080808"/>
<stop offset="1"/>
</radialGradient>
</defs>
</svg>
