<svg width="72" height="69" viewBox="0 0 72 69" fill="none" xmlns="http://www.w3.org/2000/svg">
<g clip-path="url(#clip0_897_7286)">
<path d="M34.3385 65.6613C34.3385 63.8174 35.8263 62.3226 37.6616 62.3226H64.2462C64.8579 62.3226 65.3539 61.8243 65.3539 61.2097V7.79033C65.3539 7.17569 64.8579 6.67742 64.2462 6.67742L37.6615 6.67742C35.8263 6.67742 34.3385 5.18263 34.3385 3.33871C34.3385 1.4948 35.8263 0 37.6615 0H64.2462C68.5285 0 72 3.48785 72 7.79033V61.2097C72 65.5121 68.5285 69 64.2462 69H37.6616C35.8263 69 34.3385 67.5052 34.3385 65.6613Z" fill="#409CFF"/>
<path d="M53.6637 39.4645C53.6637 41.9231 51.68 43.9161 49.233 43.9161H27.7172C27.6156 45.4983 27.4884 47.0793 27.3357 48.6584L27.2042 50.017C26.9905 52.2261 24.6557 53.5491 22.6636 52.5899C14.5645 48.6902 7.23253 43.3537 1.02033 36.8371L0.887591 36.6979C-0.295864 35.4564 -0.295864 33.4987 0.887592 32.2572L1.02033 32.118C7.23253 25.6014 14.5645 20.2649 22.6636 16.3652C24.6557 15.406 26.9905 16.729 27.2042 18.9381L27.3357 20.2967C27.4884 21.8758 27.6156 23.4568 27.7172 25.039L49.233 25.039C51.68 25.039 53.6637 27.0321 53.6637 29.4906V39.4645Z" fill="#409CFF"/>
</g>
<defs>
<clipPath id="clip0_897_7286">
<rect width="72" height="69" fill="white"/>
</clipPath>
</defs>
</svg>
