<svg width="20" height="20" viewBox="0 0 20 20" fill="none" xmlns="http://www.w3.org/2000/svg">
<path d="M4.10993 9.99999C4.10993 9.51211 4.50608 9.11661 4.99475 9.11661H9.1152V5.0028C9.1152 4.51492 9.51135 4.11941 10 4.11941C10.4887 4.11941 10.8848 4.51492 10.8848 5.0028V9.11661H15.0053C15.494 9.11661 15.8902 9.51211 15.8902 9.99999C15.8902 10.4879 15.494 10.8834 15.0053 10.8834H10.8848V14.9972C10.8848 15.4851 10.4887 15.8806 10 15.8806C9.51135 15.8806 9.1152 15.4851 9.1152 14.9972V10.8834H4.99475C4.50608 10.8834 4.10993 10.4879 4.10993 9.99999Z" fill="#758293"/>
<path fill-rule="evenodd" clip-rule="evenodd" d="M4.47489 0.304838C8.11746 -0.101613 11.8825 -0.101613 15.5251 0.304838C17.6798 0.545267 19.4198 2.23977 19.6733 4.40343C20.1089 8.12181 20.1089 11.8782 19.6733 15.5966C19.4198 17.7602 17.6798 19.4547 15.5251 19.6952C11.8825 20.1016 8.11746 20.1016 4.47489 19.6952C2.3202 19.4547 0.580173 17.7602 0.326703 15.5966C-0.108901 11.8782 -0.108901 8.12181 0.326703 4.40343C0.580173 2.23977 2.3202 0.545267 4.47489 0.304838ZM15.3286 2.06068C11.8166 1.6688 8.18339 1.6688 4.67145 2.06068C3.3213 2.21133 2.24057 3.27522 2.08436 4.60867C1.66473 8.19068 1.66473 11.8093 2.08436 15.3913C2.24057 16.7248 3.32129 17.7887 4.67145 17.9393C8.18339 18.3312 11.8166 18.3312 15.3286 17.9393C16.6787 17.7887 17.7594 16.7248 17.9156 15.3913C18.3353 11.8093 18.3353 8.19069 17.9156 4.60867C17.7594 3.27522 16.6787 2.21133 15.3286 2.06068Z" fill="#758293"/>
</svg>
