<svg width="19" height="19" viewBox="0 0 19 19" fill="none" xmlns="http://www.w3.org/2000/svg">
<path d="M8.42166 3.48804C6.85642 3.48804 5.58753 4.71911 5.58753 6.2377C5.58753 7.7563 6.85642 8.98737 8.42166 8.98737C9.98691 8.98737 11.2558 7.7563 11.2558 6.2377C11.2558 4.71911 9.98691 3.48804 8.42166 3.48804Z" fill="#409CFF"/>
<path d="M5.39859 10.4539C3.83334 10.4539 2.56445 11.6849 2.56445 13.2035V14.0748C2.56445 14.6271 2.97702 15.098 3.53885 15.187C6.77265 15.6993 10.0707 15.6993 13.3045 15.187C13.8663 15.098 14.2789 14.6271 14.2789 14.0748V13.2035C14.2789 11.6849 13.01 10.4539 11.4447 10.4539H11.1871C11.0477 10.4539 10.9091 10.4753 10.7766 10.5172L10.1225 10.7245C9.01731 11.0746 7.82602 11.0746 6.72087 10.7245L6.06674 10.5172C5.9342 10.4753 5.79564 10.4539 5.65621 10.4539H5.39859Z" fill="#409CFF"/>
<path d="M14.8457 5.32115C15.1588 5.32115 15.4125 5.56736 15.4125 5.87108V7.15426H16.7351C17.0482 7.15426 17.302 7.40047 17.302 7.70419C17.302 8.00791 17.0482 8.25413 16.7351 8.25413H15.4125V9.53731C15.4125 9.84103 15.1588 10.0872 14.8457 10.0872C14.5327 10.0872 14.2789 9.84103 14.2789 9.53731V8.25413H12.9563C12.6432 8.25413 12.3895 8.00791 12.3895 7.70419C12.3895 7.40047 12.6432 7.15426 12.9563 7.15426H14.2789V5.87108C14.2789 5.56736 14.5327 5.32115 14.8457 5.32115Z" fill="#409CFF"/>
</svg>
