<svg width="6" height="7" viewBox="0 0 6 7" fill="none" xmlns="http://www.w3.org/2000/svg">
<path d="M5.84622 0.930741C6.05125 0.717821 6.05125 0.37261 5.84622 0.15969C5.64119 -0.0532299 5.30876 -0.0532299 5.10373 0.15969L3 2.34433L0.896274 0.15969C0.691241 -0.0532295 0.358815 -0.0532297 0.153782 0.15969C-0.0512519 0.37261 -0.0512517 0.717821 0.153782 0.930741L2.25751 3.11538L0.153775 5.30003C-0.0512583 5.51295 -0.0512585 5.85816 0.153775 6.07108C0.358809 6.284 0.691234 6.284 0.896268 6.07108L3 3.88643L5.10373 6.07108C5.30877 6.284 5.64119 6.284 5.84623 6.07108C6.05126 5.85816 6.05126 5.51295 5.84623 5.30003L3.74249 3.11538L5.84622 0.930741Z" fill="white"/>
</svg>
