<svg width="33" height="30" viewBox="0 0 33 30" fill="none" xmlns="http://www.w3.org/2000/svg">
<path fill-rule="evenodd" clip-rule="evenodd" d="M16.1417 2.95605C16.698 2.95605 17.1489 3.36641 17.1489 3.87261V5.99523C19.0712 6.01925 20.9926 6.11202 22.9089 6.27355L23.3542 6.31109C26.3955 6.56746 28.7375 8.86576 28.7892 11.6449L28.8055 12.5168C28.8686 15.9078 28.5682 19.2964 27.9086 22.6344C27.6084 24.1535 26.1558 25.2589 24.4597 25.2589H24.1628C22.6366 25.2589 21.2538 24.4404 20.635 23.1708L19.2107 20.2485C18.0302 17.8265 14.2532 17.8265 13.0727 20.2485L11.6484 23.1708C11.0297 24.4404 9.64681 25.2589 8.1206 25.2589H7.82375C6.12765 25.2589 4.67501 24.1535 4.37481 22.6344C3.71517 19.2964 3.4148 15.9078 3.47796 12.5168L3.4942 11.6449C3.54596 8.86576 5.88788 6.56746 8.92922 6.31109L9.37453 6.27355C11.2908 6.11202 13.2123 6.01925 15.1345 5.99523V3.87261C15.1345 3.36641 15.5855 2.95605 16.1417 2.95605ZM22.8563 9.98298C22.8563 9.30805 22.255 8.76091 21.5134 8.76091C20.7717 8.76091 20.1705 9.30805 20.1705 9.98298V10.2885C20.1705 10.9634 20.7717 11.5106 21.5134 11.5106C22.255 11.5106 22.8563 10.9634 22.8563 10.2885V9.98298ZM10.77 9.06643C11.3263 9.06643 11.7772 9.47678 11.7772 9.98298V11.5106H13.4559C14.0121 11.5106 14.4631 11.9209 14.4631 12.4271C14.4631 12.9333 14.0121 13.3437 13.4559 13.3437H11.7772V14.8713C11.7772 15.3775 11.3263 15.7878 10.77 15.7878C10.2138 15.7878 9.76286 15.3775 9.76286 14.8713V13.3437H8.08422C7.52796 13.3437 7.07703 12.9333 7.07703 12.4271C7.07703 11.9209 7.52796 11.5106 8.08422 11.5106L9.76286 11.5106V9.98298C9.76286 9.47678 10.2138 9.06643 10.77 9.06643ZM21.5134 13.3437C22.255 13.3437 22.8563 13.8908 22.8563 14.5658V14.8713C22.8563 15.5462 22.255 16.0934 21.5134 16.0934C20.7717 16.0934 20.1705 15.5462 20.1705 14.8713V14.5658C20.1705 13.8908 20.7717 13.3437 21.5134 13.3437ZM24.1992 13.6492C24.9409 13.6492 25.5421 13.1021 25.5421 12.4271C25.5421 11.7522 24.9409 11.2051 24.1992 11.2051H23.8635C23.1218 11.2051 22.5206 11.7522 22.5206 12.4271C22.5206 13.1021 23.1218 13.6492 23.8635 13.6492H24.1992ZM20.5062 12.4271C20.5062 13.1021 19.9049 13.6492 19.1633 13.6492H18.8275C18.0859 13.6492 17.4846 13.1021 17.4846 12.4271C17.4846 11.7522 18.0859 11.2051 18.8275 11.2051H19.1633C19.9049 11.2051 20.5062 11.7522 20.5062 12.4271Z" fill="#D9D9D9"/>
</svg>
