<svg width="31" height="28" viewBox="0 0 31 28" fill="none" xmlns="http://www.w3.org/2000/svg">
	<path d="M30.4046 14.7285C30.6692 14.5816 30.8333 14.3027 30.8333 14.0001C30.8333 13.6974 30.6692 13.4186 30.4046 13.2716L26.6007 11.1584C19.1065 6.9949 11.2064 3.60822 3.0236 1.05108L1.91515 0.704688C1.66212 0.625616 1.38656 0.671651 1.17297 0.828679C0.959385 0.985707 0.833252 1.23499 0.833252 1.50009V11.0834C0.833252 11.5266 1.18018 11.8923 1.62279 11.9156L3.30552 12.0042C7.40821 12.2201 11.4859 12.7766 15.4964 13.6678L15.8936 13.756C15.9819 13.7757 16.0202 13.8118 16.0415 13.8405C16.0684 13.8767 16.0893 13.9324 16.0893 14.0001C16.0893 14.0678 16.0684 14.1235 16.0415 14.1597C16.0202 14.1884 15.9819 14.2245 15.8936 14.2441L15.4964 14.3324C11.4859 15.2236 7.40819 15.7801 3.30548 15.996L1.62279 16.0846C1.18018 16.1079 0.833252 16.4735 0.833252 16.9168V26.5001C0.833252 26.7652 0.959384 27.0145 1.17297 27.1715C1.38656 27.3285 1.66211 27.3746 1.91515 27.2955L3.02362 26.9491C11.2064 24.392 19.1065 21.0053 26.6007 16.8418L30.4046 14.7285Z" fill="#409CFF" />
</svg>
