<svg width="4" height="19" viewBox="0 0 4 19" fill="none" xmlns="http://www.w3.org/2000/svg">
<path d="M2 0C3.10457 4.58681e-08 4 0.850659 4 1.9C4 2.94934 3.10457 3.8 2 3.8C0.895431 3.8 6.511e-07 2.94934 6.99382e-07 1.9C7.47664e-07 0.850659 0.895431 -4.58682e-08 2 0Z" fill="#D9D9D9"/>
<path d="M2 7.6C3.10457 7.6 4 8.45066 4 9.5C4 10.5493 3.10457 11.4 2 11.4C0.895431 11.4 3.01409e-07 10.5493 3.49691e-07 9.5C3.97973e-07 8.45066 0.895431 7.6 2 7.6Z" fill="#D9D9D9"/>
<path d="M2 15.2C3.10457 15.2 4 16.0507 4 17.1C4 18.1493 3.10457 19 2 19C0.89543 19 -4.82823e-08 18.1493 0 17.1C4.82822e-08 16.0507 0.895431 15.2 2 15.2Z" fill="#D9D9D9"/>
</svg>
