<svg width="72" height="60" viewBox="0 0 72 60" fill="none" xmlns="http://www.w3.org/2000/svg">
<path d="M19.8562 21.2974C16.9703 21.2974 14.6309 23.639 14.6309 26.5275C14.6309 29.416 16.9703 31.7576 19.8562 31.7576C22.742 31.7576 25.0815 29.416 25.0815 26.5275C25.0815 23.639 22.742 21.2974 19.8562 21.2974Z" fill="#48484A"/>
<path d="M36.5771 21.2974C33.6913 21.2974 31.3518 23.639 31.3518 26.5275C31.3518 29.416 33.6913 31.7576 36.5771 31.7576C39.463 31.7576 41.8024 29.416 41.8024 26.5275C41.8024 23.639 39.463 21.2974 36.5771 21.2974Z" fill="#48484A"/>
<path d="M48.0728 26.5275C48.0728 23.639 50.4122 21.2974 53.2981 21.2974C56.184 21.2974 58.5234 23.639 58.5234 26.5275C58.5234 29.416 56.184 31.7576 53.2981 31.7576C50.4122 31.7576 48.0728 29.416 48.0728 26.5275Z" fill="#48484A"/>
<path fill-rule="evenodd" clip-rule="evenodd" d="M53.7192 0.765336C42.4568 -0.195992 31.1356 -0.251782 19.8643 0.598505L19.0565 0.659441C8.30784 1.4703 0 10.436 0 21.2251V56.8619C0 57.966 0.579657 58.9888 1.52641 59.5554C2.47316 60.1219 3.6477 60.1488 4.61933 59.6261L20.9674 50.8324C21.7278 50.4234 22.5777 50.2093 23.441 50.2093H60.9645C65.6969 50.2093 69.7526 46.8227 70.6009 42.1627C72.3201 32.7183 72.4559 23.0533 71.0027 13.5642L70.5745 10.7679C69.7949 5.67693 65.6339 1.78235 60.5068 1.34471L53.7192 0.765336ZM20.3355 6.85685C31.2725 6.03178 42.258 6.08591 53.1864 7.01873L59.974 7.59811C62.216 7.78948 64.0356 9.49256 64.3765 11.7188L64.8048 14.5151C66.1525 23.3154 66.0265 32.2789 64.4321 41.0377C64.1268 42.7146 62.6674 43.9332 60.9645 43.9332H23.441C21.5417 43.9332 19.6721 44.4042 17.9991 45.3041L6.27036 51.613V21.2251C6.27036 13.7193 12.05 7.48189 19.5278 6.91778L20.3355 6.85685Z" fill="#48484A"/>
</svg>
