<svg width="72" height="62" viewBox="0 0 72 62" fill="none" xmlns="http://www.w3.org/2000/svg">
<path fill-rule="evenodd" clip-rule="evenodd" d="M35.9997 31.6296C33.7309 31.6296 31.8916 33.3938 31.8916 35.5699C31.8916 37.7461 33.7309 39.5103 35.9997 39.5103C38.2686 39.5103 40.1079 37.7461 40.1079 35.5699C40.1079 33.3938 38.2686 31.6296 35.9997 31.6296ZM26.9618 35.5699C26.9618 30.7823 31.0082 26.9012 35.9997 26.9012C40.9913 26.9012 45.0377 30.7823 45.0377 35.5699C45.0377 40.3575 40.9913 44.2387 35.9997 44.2387C31.0082 44.2387 26.9618 40.3575 26.9618 35.5699Z" fill="#48484A"/>
<path fill-rule="evenodd" clip-rule="evenodd" d="M35.9998 19.0206C32.5872 19.0206 29.2512 19.9912 26.4138 21.8096C23.5763 23.6281 21.3648 26.2128 20.0588 29.2368C18.7529 32.2608 18.4112 35.5883 19.0769 38.7986C19.7427 42.0088 21.386 44.9576 23.7991 47.2721C24.7617 48.1954 24.7617 49.6923 23.7991 50.6156C22.8365 51.5389 21.2758 51.5389 20.3132 50.6156C17.2107 47.6398 15.0978 43.8485 14.2419 39.721C13.3859 35.5935 13.8252 31.3153 15.5043 27.4273C17.1833 23.5393 20.0267 20.2162 23.6749 17.8781C27.3231 15.5401 31.6121 14.2922 35.9998 14.2922C40.3874 14.2922 44.6764 15.5401 48.3246 17.8781C51.9728 20.2162 54.8162 23.5393 56.4952 27.4273C58.1743 31.3153 58.6136 35.5935 57.7576 39.721C56.9017 43.8485 54.7888 47.6398 51.6863 50.6156C50.7237 51.5389 49.163 51.5389 48.2004 50.6156C47.2378 49.6923 47.2378 48.1954 48.2004 47.2721C50.6135 44.9576 52.2568 42.0088 52.9226 38.7986C53.5883 35.5883 53.2466 32.2608 51.9407 29.2368C50.6347 26.2128 48.4232 23.6281 45.5858 21.8096C42.7483 19.9912 39.4123 19.0206 35.9998 19.0206Z" fill="#48484A"/>
<path fill-rule="evenodd" clip-rule="evenodd" d="M36 6.72839C30.0527 6.72839 24.2389 8.41992 19.2939 11.5891C14.3489 14.7582 10.4947 19.2627 8.21878 24.5328C5.94284 29.8029 5.34736 35.602 6.50762 41.1967C7.66788 46.7914 10.5318 51.9305 14.7372 55.9641C15.6998 56.8873 15.6998 58.3843 14.7372 59.3075C13.7746 60.2308 12.2139 60.2308 11.2513 59.3075C6.35644 54.6127 3.02301 48.6311 1.67253 42.1192C0.322051 35.6072 1.01516 28.8574 3.66423 22.7233C6.31329 16.5892 10.7993 11.3463 16.555 7.65756C22.3108 3.96884 29.0777 2 36 2C42.9223 2 49.6892 3.96885 55.445 7.65756C61.2007 11.3463 65.6867 16.5892 68.3358 22.7233C70.9848 28.8574 71.678 35.6072 70.3275 42.1192C68.977 48.6311 65.6436 54.6127 60.7487 59.3075C59.7861 60.2308 58.2254 60.2308 57.2628 59.3075C56.3002 58.3843 56.3002 56.8873 57.2628 55.9641C61.4682 51.9305 64.3321 46.7914 65.4924 41.1967C66.6526 35.602 66.0572 29.8029 63.7812 24.5328C61.5053 19.2627 57.6511 14.7582 52.7061 11.5891C47.7611 8.41992 41.9473 6.72839 36 6.72839Z" fill="#48484A"/>
<path fill-rule="evenodd" clip-rule="evenodd" d="M35.9997 31.6296C33.7309 31.6296 31.8916 33.3938 31.8916 35.5699C31.8916 37.7461 33.7309 39.5103 35.9997 39.5103C38.2686 39.5103 40.1079 37.7461 40.1079 35.5699C40.1079 33.3938 38.2686 31.6296 35.9997 31.6296ZM26.9618 35.5699C26.9618 30.7823 31.0082 26.9012 35.9997 26.9012C40.9913 26.9012 45.0377 30.7823 45.0377 35.5699C45.0377 40.3575 40.9913 44.2387 35.9997 44.2387C31.0082 44.2387 26.9618 40.3575 26.9618 35.5699Z" stroke="#48484A" stroke-width="0.5" stroke-linecap="round"/>
<path fill-rule="evenodd" clip-rule="evenodd" d="M35.9998 19.0206C32.5872 19.0206 29.2512 19.9912 26.4138 21.8096C23.5763 23.6281 21.3648 26.2128 20.0588 29.2368C18.7529 32.2608 18.4112 35.5883 19.0769 38.7986C19.7427 42.0088 21.386 44.9576 23.7991 47.2721C24.7617 48.1954 24.7617 49.6923 23.7991 50.6156C22.8365 51.5389 21.2758 51.5389 20.3132 50.6156C17.2107 47.6398 15.0978 43.8485 14.2419 39.721C13.3859 35.5935 13.8252 31.3153 15.5043 27.4273C17.1833 23.5393 20.0267 20.2162 23.6749 17.8781C27.3231 15.5401 31.6121 14.2922 35.9998 14.2922C40.3874 14.2922 44.6764 15.5401 48.3246 17.8781C51.9728 20.2162 54.8162 23.5393 56.4952 27.4273C58.1743 31.3153 58.6136 35.5935 57.7576 39.721C56.9017 43.8485 54.7888 47.6398 51.6863 50.6156C50.7237 51.5389 49.163 51.5389 48.2004 50.6156C47.2378 49.6923 47.2378 48.1954 48.2004 47.2721C50.6135 44.9576 52.2568 42.0088 52.9226 38.7986C53.5883 35.5883 53.2466 32.2608 51.9407 29.2368C50.6347 26.2128 48.4232 23.6281 45.5858 21.8096C42.7483 19.9912 39.4123 19.0206 35.9998 19.0206Z" stroke="#48484A" stroke-width="0.5" stroke-linecap="round"/>
<path fill-rule="evenodd" clip-rule="evenodd" d="M36 6.72839C30.0527 6.72839 24.2389 8.41992 19.2939 11.5891C14.3489 14.7582 10.4947 19.2627 8.21878 24.5328C5.94284 29.8029 5.34736 35.602 6.50762 41.1967C7.66788 46.7914 10.5318 51.9305 14.7372 55.9641C15.6998 56.8873 15.6998 58.3843 14.7372 59.3075C13.7746 60.2308 12.2139 60.2308 11.2513 59.3075C6.35644 54.6127 3.02301 48.6311 1.67253 42.1192C0.322051 35.6072 1.01516 28.8574 3.66423 22.7233C6.31329 16.5892 10.7993 11.3463 16.555 7.65756C22.3108 3.96884 29.0777 2 36 2C42.9223 2 49.6892 3.96885 55.445 7.65756C61.2007 11.3463 65.6867 16.5892 68.3358 22.7233C70.9848 28.8574 71.678 35.6072 70.3275 42.1192C68.977 48.6311 65.6436 54.6127 60.7487 59.3075C59.7861 60.2308 58.2254 60.2308 57.2628 59.3075C56.3002 58.3843 56.3002 56.8873 57.2628 55.9641C61.4682 51.9305 64.3321 46.7914 65.4924 41.1967C66.6526 35.602 66.0572 29.8029 63.7812 24.5328C61.5053 19.2627 57.6511 14.7582 52.7061 11.5891C47.7611 8.41992 41.9473 6.72839 36 6.72839Z" stroke="#48484A" stroke-width="0.5" stroke-linecap="round"/>
</svg>
