<svg width="24" height="22" viewBox="0 0 24 22" fill="none" xmlns="http://www.w3.org/2000/svg">
<path d="M13 19.8542C12.4132 19.8542 11.9375 20.3299 11.9375 20.9167C11.9375 21.5035 12.4132 21.9792 13 21.9792H21.5C22.8692 21.9792 23.9791 20.8692 23.9791 19.5V2.50001C23.9791 1.13081 22.8692 0.0208435 21.5 0.0208435H13C12.4132 0.0208435 11.9375 0.496543 11.9375 1.08334C11.9375 1.67015 12.4132 2.14584 13 2.14584L21.5 2.14584C21.6956 2.14584 21.8541 2.30441 21.8541 2.50001L21.8541 19.5C21.8541 19.6956 21.6956 19.8542 21.5 19.8542H13Z" fill="#48484A"/>
<path fill-rule="evenodd" clip-rule="evenodd" d="M16.546 14.3507C17.524 14.3507 18.3168 13.5579 18.3168 12.5799V9.40584C18.3168 8.42784 17.524 7.63501 16.546 7.63501L10.0115 7.63501C10.0022 7.53099 9.99256 7.42699 9.98245 7.32303L9.90591 6.53553C9.78914 5.33404 8.51329 4.6145 7.42469 5.1362C5.10953 6.24573 3.01366 7.76404 1.23788 9.61811L1.09735 9.76484C0.439719 10.4515 0.439719 11.5343 1.09735 12.2209L1.23788 12.3676C3.01366 14.2217 5.10953 15.74 7.42469 16.8495C8.51328 17.3712 9.78914 16.6517 9.90591 15.4502L9.98245 14.6627C9.99256 14.5587 10.0022 14.4548 10.0115 14.3507H16.546ZM9.02636 12.2257C8.64901 12.2257 8.31541 12.4231 8.12674 12.7226C8.03486 12.8685 7.97736 13.0387 7.96592 13.2221C7.94022 13.6342 7.90739 14.0459 7.86742 14.4571L7.8452 14.6857C6.37747 13.9293 5.01444 12.9873 3.78933 11.8839C3.47149 11.5976 3.16294 11.3005 2.86424 10.9929C4.31426 9.49962 5.99669 8.25266 7.8452 7.30002L7.86742 7.52859C7.90739 7.93982 7.94022 8.35157 7.96592 8.76365C8.00085 9.32368 8.46524 9.76001 9.02636 9.76001H16.1918V12.2257H9.02636Z" fill="#48484A"/>
</svg>
