<svg width="22" height="24" viewBox="0 0 22 24" fill="none" xmlns="http://www.w3.org/2000/svg">
<path d="M11 0.3125C8.06603 0.3125 5.68754 2.69099 5.68754 5.625C5.68754 8.55901 8.06603 10.9375 11 10.9375C13.9341 10.9375 16.3125 8.55901 16.3125 5.625C16.3125 2.69099 13.9341 0.3125 11 0.3125Z" fill="#48484A"/>
<path d="M5.33337 13.7708C2.39936 13.7708 0.020874 16.1493 0.020874 19.0833V20.7667C0.020874 21.8338 0.794209 22.7436 1.84734 22.9156C7.90901 23.9052 14.0911 23.9052 20.1527 22.9156C21.2059 22.7436 21.9792 21.8338 21.9792 20.7667V19.0833C21.9792 16.1493 19.6007 13.7708 16.6667 13.7708H16.1838C15.9224 13.7708 15.6627 13.8122 15.4143 13.8933L14.1881 14.2937C12.1166 14.9701 9.88352 14.9701 7.81195 14.2937L6.58581 13.8933C6.33736 13.8122 6.07764 13.7708 5.81627 13.7708H5.33337Z" fill="#48484A"/>
</svg>
