<svg width="80" height="80" viewBox="0 0 80 80" fill="none" xmlns="http://www.w3.org/2000/svg">
<path fill-rule="evenodd" clip-rule="evenodd" d="M39.9997 40.7164C37.4715 40.7164 35.422 42.7239 35.422 45.2003C35.422 47.6766 37.4715 49.6841 39.9997 49.6841C42.5279 49.6841 44.5774 47.6766 44.5774 45.2003C44.5774 42.7239 42.5279 40.7164 39.9997 40.7164ZM29.9288 45.2003C29.9288 39.7523 34.4377 35.3359 39.9997 35.3359C45.5617 35.3359 50.0706 39.7523 50.0706 45.2003C50.0706 50.6482 45.5617 55.0647 39.9997 55.0647C34.4377 55.0647 29.9288 50.6482 29.9288 45.2003Z" fill="#D9D9D9"/>
<path fill-rule="evenodd" clip-rule="evenodd" d="M39.9997 26.3682C36.1971 26.3682 32.4799 27.4727 29.3182 29.542C26.1564 31.6113 23.6922 34.5525 22.237 37.9936C20.7818 41.4347 20.401 45.2212 21.1429 48.8742C21.8847 52.5273 23.7159 55.8828 26.4047 58.5165C27.4773 59.5672 27.4773 61.2706 26.4047 62.3212C25.3321 63.3718 23.593 63.3718 22.5204 62.3212C19.0633 58.935 16.709 54.6207 15.7552 49.9239C14.8014 45.2271 15.2909 40.3588 17.1619 35.9345C19.0329 31.5102 22.2012 27.7287 26.2663 25.0682C30.3314 22.4077 35.1107 20.9876 39.9997 20.9876C44.8888 20.9876 49.668 22.4077 53.7331 25.0682C57.7982 27.7287 60.9666 31.5102 62.8376 35.9345C64.7085 40.3588 65.198 45.2271 64.2442 49.9239C63.2904 54.6207 60.9361 58.935 57.479 62.3212C56.4064 63.3718 54.6674 63.3718 53.5947 62.3212C52.5221 61.2706 52.5221 59.5672 53.5947 58.5165C56.2836 55.8828 58.1147 52.5273 58.8566 48.8742C59.5984 45.2212 59.2177 41.4347 57.7625 37.9936C56.3073 34.5525 53.843 31.6113 50.6813 29.542C47.5195 27.4727 43.8023 26.3682 39.9997 26.3682Z" fill="#D9D9D9"/>
<path fill-rule="evenodd" clip-rule="evenodd" d="M40 12.3806C33.373 12.3806 26.8948 14.3054 21.3846 17.9117C15.8745 21.518 11.5798 26.6437 9.04378 32.6407C6.50774 38.6378 5.8442 45.2367 7.13706 51.6031C8.42992 57.9695 11.6211 63.8175 16.3071 68.4074C17.3798 69.458 17.3798 71.1614 16.3071 72.212C15.2345 73.2627 13.4955 73.2627 12.4228 72.212C6.9686 66.8696 3.25421 60.063 1.74939 52.6528C0.244571 45.2427 1.0169 37.5619 3.96871 30.5817C6.92053 23.6015 11.9193 17.6354 18.3328 13.4379C24.7463 9.24041 32.2865 7 40 7C47.7135 7 55.2537 9.24041 61.6672 13.4379C68.0808 17.6354 73.0795 23.6015 76.0313 30.5817C78.9831 37.5619 79.7554 45.2427 78.2506 52.6528C76.7458 60.063 73.0314 66.8696 67.5772 72.212C66.5045 73.2627 64.7655 73.2627 63.6929 72.212C62.6202 71.1614 62.6202 69.458 63.6929 68.4074C68.3789 63.8175 71.5701 57.9695 72.8629 51.6031C74.1558 45.2367 73.4923 38.6378 70.9562 32.6408C68.4202 26.6437 64.1255 21.518 58.6154 17.9117C53.1052 14.3054 46.627 12.3806 40 12.3806Z" fill="#D9D9D9"/>
<path fill-rule="evenodd" clip-rule="evenodd" d="M39.9997 40.7164C37.4715 40.7164 35.422 42.7239 35.422 45.2003C35.422 47.6766 37.4715 49.6841 39.9997 49.6841C42.5279 49.6841 44.5774 47.6766 44.5774 45.2003C44.5774 42.7239 42.5279 40.7164 39.9997 40.7164ZM29.9288 45.2003C29.9288 39.7523 34.4377 35.3359 39.9997 35.3359C45.5617 35.3359 50.0706 39.7523 50.0706 45.2003C50.0706 50.6482 45.5617 55.0647 39.9997 55.0647C34.4377 55.0647 29.9288 50.6482 29.9288 45.2003Z" stroke="#D9D9D9" stroke-linecap="round"/>
<path fill-rule="evenodd" clip-rule="evenodd" d="M39.9997 26.3682C36.1971 26.3682 32.4799 27.4727 29.3182 29.542C26.1564 31.6113 23.6922 34.5525 22.237 37.9936C20.7818 41.4347 20.401 45.2212 21.1429 48.8742C21.8847 52.5273 23.7159 55.8828 26.4047 58.5165C27.4773 59.5672 27.4773 61.2706 26.4047 62.3212C25.3321 63.3718 23.593 63.3718 22.5204 62.3212C19.0633 58.935 16.709 54.6207 15.7552 49.9239C14.8014 45.2271 15.2909 40.3588 17.1619 35.9345C19.0329 31.5102 22.2012 27.7287 26.2663 25.0682C30.3314 22.4077 35.1107 20.9876 39.9997 20.9876C44.8888 20.9876 49.668 22.4077 53.7331 25.0682C57.7982 27.7287 60.9666 31.5102 62.8376 35.9345C64.7085 40.3588 65.198 45.2271 64.2442 49.9239C63.2904 54.6207 60.9361 58.935 57.479 62.3212C56.4064 63.3718 54.6674 63.3718 53.5947 62.3212C52.5221 61.2706 52.5221 59.5672 53.5947 58.5165C56.2836 55.8828 58.1147 52.5273 58.8566 48.8742C59.5984 45.2212 59.2177 41.4347 57.7625 37.9936C56.3073 34.5525 53.843 31.6113 50.6813 29.542C47.5195 27.4727 43.8023 26.3682 39.9997 26.3682Z" stroke="#D9D9D9" stroke-linecap="round"/>
<path fill-rule="evenodd" clip-rule="evenodd" d="M40 12.3806C33.373 12.3806 26.8948 14.3054 21.3846 17.9117C15.8745 21.518 11.5798 26.6437 9.04378 32.6407C6.50774 38.6378 5.8442 45.2367 7.13706 51.6031C8.42992 57.9695 11.6211 63.8175 16.3071 68.4074C17.3798 69.458 17.3798 71.1614 16.3071 72.212C15.2345 73.2627 13.4955 73.2627 12.4228 72.212C6.9686 66.8696 3.25421 60.063 1.74939 52.6528C0.244571 45.2427 1.0169 37.5619 3.96871 30.5817C6.92053 23.6015 11.9193 17.6354 18.3328 13.4379C24.7463 9.24041 32.2865 7 40 7C47.7135 7 55.2537 9.24041 61.6672 13.4379C68.0808 17.6354 73.0795 23.6015 76.0313 30.5817C78.9831 37.5619 79.7554 45.2427 78.2506 52.6528C76.7458 60.063 73.0314 66.8696 67.5772 72.212C66.5045 73.2627 64.7655 73.2627 63.6929 72.212C62.6202 71.1614 62.6202 69.458 63.6929 68.4074C68.3789 63.8175 71.5701 57.9695 72.8629 51.6031C74.1558 45.2367 73.4923 38.6378 70.9562 32.6408C68.4202 26.6437 64.1255 21.518 58.6154 17.9117C53.1052 14.3054 46.627 12.3806 40 12.3806Z" stroke="#D9D9D9" stroke-linecap="round"/>
</svg>
