<svg width="30" height="30" viewBox="0 0 30 30" fill="none" xmlns="http://www.w3.org/2000/svg">
<path d="M15 5.625C16.0355 5.625 16.875 6.46447 16.875 7.5C16.875 8.53553 16.0355 9.375 15 9.375C13.9645 9.375 13.125 8.53553 13.125 7.5C13.125 6.46447 13.9645 5.625 15 5.625Z" fill="#D9D9D9"/>
<path d="M15 13.125C16.0355 13.125 16.875 13.9645 16.875 15C16.875 16.0355 16.0355 16.875 15 16.875C13.9645 16.875 13.125 16.0355 13.125 15C13.125 13.9645 13.9645 13.125 15 13.125Z" fill="#D9D9D9"/>
<path d="M15 20.625C16.0355 20.625 16.875 21.4645 16.875 22.5C16.875 23.5355 16.0355 24.375 15 24.375C13.9645 24.375 13.125 23.5355 13.125 22.5C13.125 21.4645 13.9645 20.625 15 20.625Z" fill="#D9D9D9"/>
</svg>
