<svg width="18" height="18" viewBox="0 0 18 18" fill="none" xmlns="http://www.w3.org/2000/svg">
<path d="M8.8125 3C7.2592 3 6 4.2592 6 5.8125C6 7.3658 7.2592 8.625 8.8125 8.625C10.3658 8.625 11.625 7.3658 11.625 5.8125C11.625 4.2592 10.3658 3 8.8125 3Z" fill="#C6E1FF"/>
<path d="M5.8125 10.125C4.2592 10.125 3 11.3842 3 12.9375V13.8287C3 14.3936 3.40941 14.8753 3.96695 14.9663C7.17607 15.4903 10.4489 15.4903 13.658 14.9663C14.2156 14.8753 14.625 14.3936 14.625 13.8287V12.9375C14.625 11.3842 13.3658 10.125 11.8125 10.125H11.5568C11.4185 10.125 11.281 10.1469 11.1494 10.1898L10.5003 10.4018C9.4036 10.7599 8.2214 10.7599 7.12469 10.4018L6.47555 10.1898C6.34402 10.1469 6.20652 10.125 6.06815 10.125H5.8125Z" fill="#C6E1FF"/>
<path d="M15.7999 8.49514C15.8223 8.54167 15.8143 8.59802 15.7798 8.63557C15.7453 8.67311 15.692 8.68363 15.6469 8.66177L15.0638 8.37904C14.5736 8.14143 14.0388 8.03272 13.5048 8.05829C13.4985 8.2384 13.4891 8.41842 13.4766 8.59826L13.4606 8.8284C13.4509 8.96802 13.3027 9.04606 13.1904 8.97069C12.703 8.64353 12.2793 8.22198 11.9418 7.72851L11.8344 7.5715C11.8052 7.52877 11.8052 7.47123 11.8344 7.4285L11.9418 7.27149C12.2793 6.77802 12.703 6.35647 13.1904 6.02931C13.3027 5.95394 13.4509 6.03198 13.4606 6.1716L13.4766 6.40174C13.4873 6.55611 13.4958 6.71061 13.5019 6.86519H13.652C14.4875 6.86519 15.2521 7.35872 15.6296 8.14174L15.7999 8.49514Z" fill="#C6E1FF"/>
</svg>
