<svg width="30" height="30" viewBox="0 0 30 30" fill="none" xmlns="http://www.w3.org/2000/svg">
<circle cx="15" cy="15" r="15" fill="#3A3A3C"/>
<path fill-rule="evenodd" clip-rule="evenodd" d="M11.668 8.7941C13.9149 8.62475 16.1718 8.63586 18.4169 8.82733L19.7701 8.94272C20.7922 9.02988 21.6216 9.80556 21.7771 10.8195L21.8624 11.3765C22.1521 13.2664 22.1251 15.1914 21.7823 17.0724C21.6132 18.0005 20.8047 18.675 19.8613 18.675H12.381C12.2089 18.675 12.0395 18.7176 11.8879 18.7991L8.62887 20.5505C8.43518 20.6546 8.20103 20.6493 8.0123 20.5364C7.82356 20.4236 7.70801 20.2199 7.70801 20V12.9023C7.70801 10.7534 9.36418 8.96773 11.5069 8.80624L11.668 8.7941ZM11.6663 12.9167C11.091 12.9167 10.6247 13.383 10.6247 13.9583C10.6247 14.5336 11.091 15 11.6663 15C12.2416 15 12.708 14.5336 12.708 13.9583C12.708 13.383 12.2416 12.9167 11.6663 12.9167ZM14.9997 12.9167C14.4244 12.9167 13.958 13.383 13.958 13.9583C13.958 14.5336 14.4244 15 14.9997 15C15.575 15 16.0413 14.5336 16.0413 13.9583C16.0413 13.383 15.575 12.9167 14.9997 12.9167ZM17.2913 13.9583C17.2913 13.383 17.7577 12.9167 18.333 12.9167C18.9083 12.9167 19.3747 13.383 19.3747 13.9583C19.3747 14.5336 18.9083 15 18.333 15C17.7577 15 17.2913 14.5336 17.2913 13.9583Z" fill="#D9D9D9"/>
</svg>
