<svg width="72" height="72" viewBox="0 0 72 72" fill="none" xmlns="http://www.w3.org/2000/svg">
<rect width="72" height="72" fill="#409CFF" fill-opacity="0.5"/>
<path d="M26.9677 35.5385C27.5022 35.5385 27.9355 35.9517 27.9355 36.4615L27.9355 43.8462C27.9355 44.0161 28.0799 44.1538 28.2581 44.1538L43.7419 44.1538C43.9201 44.1538 44.0645 44.0161 44.0645 43.8462L44.0645 36.4615C44.0645 35.9517 44.4978 35.5385 45.0323 35.5385C45.5667 35.5385 46 35.9517 46 36.4615L46 43.8462C46 45.0357 44.989 46 43.7419 46L28.2581 46C27.011 46 26 45.0357 26 43.8462L26 36.4615C26 35.9517 26.4333 35.5385 26.9677 35.5385Z" fill="white"/>
<path d="M34.561 40.9066C33.8484 40.9066 33.2707 40.3556 33.2707 39.6758L33.2707 33.6992C32.8121 33.671 32.3538 33.6357 31.8961 33.5932L31.5023 33.5567C30.862 33.4974 30.4785 32.8488 30.7566 32.2954C31.8869 30.0457 33.4337 28.009 35.3226 26.2834L35.3629 26.2466C35.7228 25.9178 36.2902 25.9178 36.6501 26.2466L36.6904 26.2834C38.5793 28.009 40.1261 30.0457 41.2565 32.2954C41.5345 32.8488 41.151 33.4974 40.5107 33.5567L40.1169 33.5932C39.6592 33.6357 39.2009 33.671 38.7423 33.6992L38.7423 39.6758C38.7423 40.3556 38.1646 40.9066 37.452 40.9066L34.561 40.9066Z" fill="white"/>
</svg>
