<svg width="295" height="253" viewBox="0 0 295 253" fill="none" xmlns="http://www.w3.org/2000/svg">
<path d="M28.1447 105.897C28.6426 105.897 29.1456 105.877 29.6358 105.835C30.1124 105.794 30.5431 105.539 30.8045 105.141C31.0675 104.742 31.1331 104.246 30.982 103.793C30.6586 102.82 30.3656 101.843 30.0747 100.87C29.4024 98.6246 28.7072 96.3045 27.6595 94.1431C26.6388 92.033 25.2738 90.1233 23.9526 88.2742C23.3906 87.4869 22.8276 86.6991 22.2936 85.8996C22.2544 85.8407 22.2112 85.7842 22.1644 85.7313L16.5447 79.3849C16.5152 79.3508 16.4822 79.3177 16.4496 79.2867C12.4467 75.4943 7.67272 74.2524 1.7372 73.5551C1.67618 73.5475 1.61566 73.5444 1.55666 73.5444C1.17066 73.5444 0.795333 73.6878 0.507991 73.9508C0.174877 74.2544 -0.0102421 74.6882 0.000437882 75.1383C0.370677 90.3741 14.573 105.897 28.1447 105.897Z" fill="#C59877"/>
<path d="M36.4437 3.54421C36.3735 3.53455 36.3018 3.52997 36.2331 3.52997C35.8659 3.52997 35.5079 3.65915 35.2251 3.90072C29.165 9.05 25.1422 17.5131 24.4638 26.5377C23.8835 34.2517 25.8847 41.3559 29.9543 46.0297C30.2498 46.3689 30.678 46.5632 31.1276 46.5632C31.1306 46.5632 31.1352 46.5632 31.1383 46.5632C31.5929 46.5601 32.0222 46.3593 32.3146 46.0124C44.6601 31.4276 46.4127 17.3651 37.5203 4.214C37.2747 3.84783 36.8826 3.60473 36.4437 3.54421Z" fill="#C59877"/>
<path d="M27.1928 79.3589C27.3378 79.4026 27.4873 79.4245 27.6363 79.4245C27.8977 79.4245 28.1591 79.3574 28.3925 79.2282C28.7582 79.0243 29.0277 78.682 29.1381 78.2787C33.7244 61.5152 26.7992 44.8386 13.0281 39.4869C12.8461 39.4168 12.6548 39.3812 12.4646 39.3812C12.216 39.3812 11.9668 39.4402 11.7409 39.5602C11.3427 39.7687 11.0549 40.141 10.9506 40.5778C6.86275 57.7619 14.2996 75.5228 27.1928 79.3589Z" fill="#C59877"/>
<path d="M28.7731 135.713C29.2741 135.713 29.7786 135.691 30.2704 135.649C30.7215 135.61 31.1324 135.377 31.3984 135.009C31.6633 134.642 31.7549 134.178 31.6506 133.738C30.0649 127.093 28.3978 121.173 24.1482 116.204C18.6841 106.625 9.2659 104.378 2.65348 103.521C2.58634 103.511 2.51972 103.508 2.45412 103.508C2.07269 103.508 1.70092 103.648 1.41307 103.907C1.07538 104.21 0.887212 104.646 0.897892 105.1C1.24677 120.264 15.3164 135.713 28.7731 135.713Z" fill="#C59877"/>
<path d="M103.111 219.469C103.066 219.015 102.822 218.602 102.446 218.342C96.0347 213.924 88.3609 211.492 80.8397 211.492C72.1045 211.492 64.5711 214.775 60.1684 220.499C59.9136 220.832 59.8027 221.252 59.8617 221.668C59.9207 222.083 60.145 222.457 60.4842 222.704C66.3246 226.972 73.6124 229.321 81.0075 229.321C89.5032 229.321 97.4038 226.181 102.684 220.703C103 220.375 103.157 219.924 103.111 219.469Z" fill="#C59877"/>
<path d="M78.5643 203.252C78.5674 202.782 78.3573 202.333 77.9932 202.036C70.8762 196.223 62.434 193.022 54.2231 193.022C46.976 193.022 40.5629 195.458 35.6761 200.065C35.3557 200.367 35.1782 200.791 35.1873 201.232C35.1965 201.672 35.3928 202.088 35.7275 202.376C42.2544 208.002 50.3997 211.101 58.665 211.101C65.8348 211.101 72.5138 208.804 77.9779 204.458C78.3461 204.167 78.5612 203.723 78.5643 203.252Z" fill="#C59877"/>
<path d="M44.2713 164.74C44.6959 164.624 45.0545 164.335 45.2533 163.943C45.4527 163.551 45.4771 163.092 45.3199 162.68C42.5284 155.398 38.1115 150.231 31.8199 146.885L31.6099 146.747L28.4786 144.688C25.1033 142.17 21.2529 140.997 16.3681 140.997C13.8568 140.997 11.292 141.299 8.66476 141.636C8.19942 141.695 7.78697 141.962 7.5398 142.36C7.29264 142.758 7.23975 143.247 7.39181 143.689C11.7213 156.168 24.7935 165.579 37.7987 165.579C40.0288 165.577 42.206 165.295 44.2713 164.74Z" fill="#C59877"/>
<path d="M39.6247 47.4253C38.8278 48.8869 38.604 50.5143 38.3873 52.0894C38.2953 52.7541 38.2099 53.3826 38.0822 53.9772C37.9952 54.3866 38.0776 54.8128 38.308 55.1601C38.5384 55.5085 38.901 55.748 39.3104 55.8273C39.9405 55.9489 40.5956 56.1355 41.2918 56.3334C42.5988 56.7051 43.9496 57.0896 45.3288 57.0896C45.7286 57.0896 46.1161 57.0571 46.4838 56.9899C55.7545 55.331 63.442 50.4304 69.3308 42.4219C70.1694 41.2812 70.6754 39.9523 71.1637 38.6666C71.3849 38.0864 71.6132 37.4837 71.8736 36.8988C72.0481 36.5037 72.0511 36.0536 71.8813 35.6569C71.7114 35.2602 71.3834 34.952 70.977 34.8056C68.7002 33.9888 66.229 33.5733 63.6317 33.5733C53.945 33.5733 44.0721 39.2688 39.6247 47.4253Z" fill="#C59877"/>
<path d="M53.8469 168.318C54.0554 168.318 54.2654 168.275 54.4663 168.188C62.8048 164.562 65.1793 157.106 66.2392 151.815C67.3769 146.14 67.1684 140.238 66.8149 135.215C66.6155 132.384 65.0095 130.48 62.817 130.48C61.8441 130.48 60.352 130.876 58.7724 132.756C58.3431 133.266 57.9042 133.778 57.4638 134.293C54.9195 137.26 52.2876 140.327 50.8936 143.949C48.3787 150.479 46.2997 159.079 52.5912 167.679C52.8913 168.092 53.3627 168.318 53.8469 168.318Z" fill="#C59877"/>
<path d="M37.2594 138.996C37.3372 139.404 37.5737 139.764 37.919 139.994C38.1773 140.169 38.4809 140.26 38.7886 140.26C38.8898 140.26 38.991 140.251 39.0922 140.23C39.6802 140.114 40.3154 140.042 40.9862 139.966C42.6141 139.782 44.2964 139.592 45.7484 138.713C54.4541 133.437 59.907 125.458 61.9581 114.996C62.1834 113.845 62.0186 112.707 61.8116 111.266C61.6997 110.494 61.5736 109.618 61.4739 108.55C61.4241 108.022 61.1113 107.557 60.6414 107.315C60.4176 107.198 60.1715 107.14 59.9253 107.14C59.6578 107.14 59.3898 107.209 59.1518 107.346L52.9452 110.903L48.5705 113.41C48.4276 113.446 48.2887 113.502 48.1565 113.579C41.7617 117.328 37.8295 123.313 36.1364 131.878C35.7891 133.632 36.2844 135.365 36.7635 137.043C36.9557 137.73 37.1409 138.377 37.2594 138.996Z" fill="#C59877"/>
<path d="M74.0498 190.069C76.2087 190.069 77.6851 188.146 78.7312 186.469C82.7433 180.039 83.8576 172.591 82.2357 163.029C81.8014 160.465 80.796 158.076 79.7336 155.547C79.2494 154.398 78.75 153.211 78.2938 151.976C78.1255 151.522 77.7568 151.173 77.2965 151.03C77.1455 150.983 76.9898 150.959 76.8342 150.959C76.5164 150.959 76.2026 151.056 75.9376 151.245C70.6775 154.953 66.8881 161.745 65.8003 169.412C64.8152 176.356 66.228 183.003 69.5805 187.191C70.6556 188.53 72.134 190.069 74.0498 190.069Z" fill="#C59877"/>
<path d="M92.6396 168.81C92.3518 168.569 91.9968 168.447 91.6423 168.447C91.3372 168.447 91.0305 168.535 90.766 168.717C86.4722 171.646 83.9014 177.204 83.525 184.368C83.08 192.838 85.8995 201.41 90.3816 205.215C91.7074 206.341 92.8593 206.865 94.0046 206.865C96.2408 206.865 97.5188 204.817 97.9389 204.142C101.563 198.33 101.296 191.9 100.779 187.567C100.011 181.141 98.687 173.863 92.6396 168.81Z" fill="#C59877"/>
<path d="M49.673 28.3473C50.8264 28.5573 52.0165 28.6651 53.2086 28.6651C67.4557 28.6651 81.3218 13.6506 82.2586 1.81409C82.3252 0.972407 81.7094 0.23142 80.8707 0.14242C79.9756 0.0488432 79.0673 0.0010376 78.1692 0.0010376C64.4602 0.0010376 51.956 11.1311 48.4341 26.4681C48.339 26.8821 48.4168 27.3179 48.6503 27.6729C48.8873 28.0269 49.256 28.271 49.673 28.3473Z" fill="#C59877"/>
<path d="M37.8686 111.145C38.1209 111.16 38.3746 111.166 38.6299 111.166C45.9549 111.166 53.8764 105.127 58.4794 99.1403C62.8058 93.5145 64.6062 87.73 63.4202 83.2729C63.2493 82.6285 62.6873 82.1662 62.0226 82.1194C61.4642 82.0803 60.9068 82.062 60.3652 82.062C55.1412 82.062 50.6886 83.8765 47.1251 87.4543C38.7805 92.3051 33.8224 102.845 36.499 110.127C36.7136 110.709 37.2507 111.107 37.8686 111.145Z" fill="#C59877"/>
<path d="M38.8426 83.992H38.9311C49.6736 83.992 63.6796 72.0634 65.6921 61.2014C65.8151 60.5351 65.4942 59.8674 64.8982 59.547C63.2535 58.6631 61.3143 58.2145 59.1371 58.2145C49.2724 58.2145 35.0482 68.0732 33.4609 78.5452C33.2026 80.2443 33.4716 81.5315 34.2828 82.481C35.4031 83.7941 37.2162 83.9808 38.8426 83.992Z" fill="#C59877"/>
<path d="M62.3228 185.266C62.7194 185.019 62.9839 184.605 63.0434 184.141C63.1024 183.677 62.9483 183.211 62.6264 182.873C55.1346 175.009 45.4988 170.499 36.1909 170.499C30.5061 170.499 25.2287 172.205 20.9308 175.43C20.5834 175.691 20.3627 176.085 20.3174 176.515C20.2727 176.947 20.4095 177.376 20.6958 177.703C27.2492 185.174 36.9568 189.634 46.6629 189.634C52.3258 189.631 57.741 188.122 62.3228 185.266Z" fill="#C59877"/>
<path d="M293.443 73.5449C293.383 73.5449 293.322 73.548 293.263 73.5556C287.327 74.2529 282.553 75.4933 278.55 79.2872C278.518 79.3182 278.485 79.3508 278.455 79.3854L278.239 79.6295L272.835 85.7318C272.789 85.7847 272.745 85.8406 272.706 85.9001C272.172 86.7017 271.609 87.4874 271.047 88.2747C269.727 90.1238 268.361 92.033 267.34 94.1436C266.294 96.305 265.599 98.6271 264.925 100.871C264.634 101.844 264.341 102.821 264.018 103.794C263.867 104.246 263.932 104.743 264.195 105.141C264.458 105.54 264.889 105.795 265.364 105.836C265.854 105.876 266.355 105.898 266.855 105.898C280.425 105.898 294.629 90.3746 294.999 75.1403C295.01 74.6887 294.825 74.2564 294.492 73.9528C294.203 73.6878 293.829 73.5449 293.443 73.5449Z" fill="#C59877"/>
<path d="M263.863 46.5632C263.866 46.5632 263.871 46.5632 263.874 46.5632C264.324 46.5632 264.751 46.369 265.047 46.0298C269.117 41.3565 271.117 34.2523 270.537 26.5378C269.859 17.5132 265.836 9.05207 259.777 3.90076C259.493 3.65969 259.135 3.53052 258.768 3.53052C258.698 3.53052 258.628 3.53509 258.558 3.54425C258.12 3.60477 257.727 3.84787 257.48 4.21505C248.59 17.3652 250.34 31.4287 262.685 46.0135C262.979 46.3593 263.41 46.5602 263.863 46.5632Z" fill="#C59877"/>
<path d="M265.861 78.2786C265.972 78.6835 266.241 79.0242 266.607 79.2281C266.84 79.3573 267.1 79.4245 267.363 79.4245C267.512 79.4245 267.662 79.4026 267.807 79.3588C280.7 75.5232 288.137 57.7619 284.049 40.5762C283.945 40.1394 283.657 39.7671 283.258 39.5586C283.033 39.4406 282.785 39.3796 282.534 39.3796C282.343 39.3796 282.153 39.4157 281.971 39.4854C268.2 44.8371 261.275 61.5151 265.861 78.2786Z" fill="#C59877"/>
<path d="M292.551 103.508C292.484 103.508 292.416 103.513 292.351 103.521C278.568 105.306 273.479 111.601 270.857 116.204C266.607 121.173 264.939 127.093 263.354 133.738C263.248 134.178 263.34 134.642 263.606 135.01C263.871 135.377 264.283 135.61 264.735 135.649C265.226 135.691 265.73 135.713 266.231 135.713C279.69 135.713 293.758 120.263 294.108 105.101C294.119 104.646 293.93 104.211 293.592 103.907C293.304 103.649 292.932 103.508 292.551 103.508Z" fill="#C59877"/>
<path d="M214.162 211.492C206.64 211.492 198.966 213.926 192.555 218.343C192.178 218.603 191.935 219.013 191.89 219.47C191.843 219.924 192 220.376 192.318 220.705C197.598 226.182 205.499 229.324 213.994 229.324C221.39 229.324 228.677 226.974 234.518 222.706C234.857 222.459 235.081 222.085 235.14 221.67C235.199 221.255 235.089 220.833 234.834 220.501C230.431 214.776 222.897 211.492 214.162 211.492Z" fill="#C59877"/>
<path d="M240.784 193.024C232.57 193.024 224.127 196.226 217.013 202.038C216.648 202.335 216.438 202.784 216.441 203.253C216.444 203.723 216.661 204.169 217.028 204.461C222.492 208.808 229.171 211.104 236.341 211.104C244.606 211.104 252.751 208.006 259.278 202.379C259.611 202.091 259.807 201.675 259.818 201.235C259.83 200.794 259.651 200.37 259.33 200.068C254.512 195.525 247.927 193.024 240.784 193.024Z" fill="#C59877"/>
<path d="M286.335 141.635C283.708 141.299 281.144 140.995 278.633 140.995C273.749 140.995 269.898 142.168 266.523 144.686L263.392 146.746L263.182 146.884C256.891 150.23 252.475 155.396 249.681 162.678C249.524 163.089 249.548 163.548 249.749 163.941C249.949 164.335 250.305 164.623 250.731 164.738C252.796 165.294 254.973 165.575 257.202 165.575C270.207 165.575 283.279 156.165 287.609 143.686C287.763 143.242 287.708 142.755 287.461 142.357C287.212 141.959 286.8 141.695 286.335 141.635Z" fill="#C59877"/>
<path d="M223.84 38.6682C224.329 39.9538 224.835 41.2812 225.673 42.4235C231.564 50.4319 239.25 55.334 248.522 56.9915C248.889 57.0566 249.276 57.0911 249.677 57.0911C251.056 57.0911 252.407 56.7067 253.714 56.3349C254.408 56.1371 255.065 55.9504 255.696 55.8289C256.106 55.7495 256.468 55.5085 256.698 55.1616C256.928 54.8127 257.009 54.3866 256.923 53.9787C256.797 53.3842 256.71 52.7556 256.618 52.0909C256.401 50.5158 256.178 48.8869 255.381 47.4268C250.933 39.2703 241.062 33.5748 231.374 33.5748C228.775 33.5748 226.304 33.9888 224.029 34.8071C223.623 34.9536 223.295 35.2618 223.125 35.6584C222.955 36.0551 222.957 36.5052 223.133 36.9004C223.391 37.4852 223.619 38.0879 223.84 38.6682Z" fill="#C59877"/>
<path d="M240.538 168.188C240.739 168.275 240.951 168.318 241.158 168.318C241.643 168.318 242.115 168.09 242.415 167.679C248.707 159.078 246.628 150.48 244.113 143.95C242.719 140.327 240.087 137.26 237.543 134.294C237.102 133.778 236.663 133.268 236.234 132.756C234.655 130.877 233.164 130.481 232.19 130.481C229.998 130.481 228.391 132.384 228.192 135.215C227.839 140.239 227.63 146.139 228.768 151.816C229.825 157.108 232.2 164.563 240.538 168.188Z" fill="#C59877"/>
<path d="M254.015 139.966C254.685 140.042 255.318 140.112 255.909 140.231C256.01 140.251 256.111 140.261 256.212 140.261C256.52 140.261 256.822 140.169 257.082 139.995C257.426 139.763 257.664 139.403 257.742 138.997C257.86 138.379 258.046 137.732 258.241 137.046C258.721 135.368 259.216 133.635 258.868 131.881C257.175 123.315 253.244 117.328 246.848 113.581C246.716 113.503 246.576 113.447 246.434 113.413L242.059 110.906L235.853 107.348C235.614 107.211 235.348 107.143 235.08 107.143C234.834 107.143 234.588 107.2 234.364 107.317C233.894 107.56 233.579 108.027 233.531 108.553C233.432 109.622 233.304 110.497 233.193 111.269C232.985 112.71 232.822 113.847 233.047 114.999C235.096 125.461 240.551 133.44 249.255 138.715C250.704 139.593 252.387 139.783 254.015 139.966Z" fill="#C59877"/>
<path d="M220.945 190.069C222.863 190.069 224.339 188.53 225.413 187.19C228.766 183.003 230.178 176.357 229.193 169.411C228.105 161.744 224.316 154.953 219.056 151.244C218.79 151.058 218.477 150.959 218.159 150.959C218.005 150.959 217.85 150.982 217.698 151.029C217.237 151.172 216.868 151.522 216.7 151.975C216.243 153.211 215.743 154.398 215.26 155.547C214.198 158.075 213.192 160.463 212.758 163.029C211.137 172.589 212.252 180.037 216.263 186.469C217.311 188.146 218.787 190.069 220.945 190.069Z" fill="#C59877"/>
<path d="M204.234 168.717C203.969 168.537 203.663 168.447 203.358 168.447C203.002 168.447 202.647 168.568 202.361 168.81C196.313 173.863 194.989 181.141 194.223 187.568C193.706 191.901 193.439 198.331 197.065 204.143C197.485 204.817 198.763 206.866 200.999 206.866C202.144 206.866 203.296 206.342 204.622 205.216C209.104 201.412 211.924 192.839 211.478 184.369C211.099 177.204 208.528 171.646 204.234 168.717Z" fill="#C59877"/>
<path d="M245.325 28.3472C245.744 28.2709 246.113 28.0268 246.346 27.6719C246.58 27.3169 246.657 26.881 246.563 26.467C243.043 11.1321 230.537 0 216.829 0C215.93 0 215.021 0.0483142 214.128 0.141383C213.289 0.230383 212.673 0.970861 212.74 1.81305C213.678 13.648 227.542 28.6641 241.789 28.6641C242.981 28.6651 244.172 28.5573 245.325 28.3472Z" fill="#C59877"/>
<path d="M247.873 87.4543C244.305 83.875 239.853 82.062 234.632 82.062C234.092 82.062 233.534 82.0823 232.975 82.1194C232.31 82.1647 231.748 82.628 231.577 83.2729C230.391 87.7315 232.194 93.5145 236.518 99.1403C241.122 105.127 249.043 111.166 256.368 111.166C256.623 111.166 256.877 111.159 257.129 111.145C257.747 111.107 258.284 110.709 258.497 110.128C261.175 102.847 256.217 92.3051 247.873 87.4543Z" fill="#C59877"/>
<path d="M261.544 78.5436C259.957 68.0716 245.735 58.213 235.87 58.213H235.869C233.691 58.213 231.752 58.661 230.108 59.5454C229.511 59.8658 229.191 60.5336 229.314 61.1993C231.326 72.0618 245.33 83.9904 256.074 83.9904H256.163C257.787 83.9807 259.601 83.7925 260.724 82.4774C261.534 81.5314 261.801 80.2442 261.544 78.5436Z" fill="#C59877"/>
<path d="M258.808 170.497C249.499 170.497 239.862 175.007 232.371 182.871C232.049 183.211 231.894 183.675 231.954 184.139C232.013 184.603 232.278 185.017 232.675 185.265C237.255 188.122 242.67 189.631 248.335 189.631C258.041 189.631 267.749 185.171 274.303 177.7C274.588 177.374 274.726 176.944 274.68 176.512C274.635 176.081 274.413 175.689 274.067 175.427C269.769 172.204 264.491 170.497 258.808 170.497Z" fill="#C59877"/>
<path d="M199 240.329C185.072 236.186 171.151 232.012 157.23 227.849C156.406 227.604 155.728 227.095 155.715 226.715C155.703 226.335 156.328 225.739 157.109 225.382C158.457 224.764 159.803 224.141 161.166 223.563C166.691 221.214 172.123 218.575 177.796 216.665C181.741 215.338 183.788 213.414 183.086 209.374C182.939 208.528 182.09 208.15 181.307 208.504C174.721 211.494 168.168 214.554 161.519 217.394C157.436 219.138 153.441 222.179 148.58 219.213C148.321 219.055 147.92 219.009 147.503 219.018C147.086 219.008 146.684 219.055 146.426 219.213C141.564 222.179 137.569 219.138 133.486 217.394C126.837 214.553 120.284 211.494 113.698 208.504C112.915 208.15 112.066 208.528 111.919 209.374C111.217 213.414 113.264 215.34 117.209 216.665C122.883 218.575 128.314 221.212 133.838 223.563C135.202 224.143 136.548 224.764 137.896 225.382C138.677 225.739 139.303 226.335 139.29 226.715C139.278 227.095 138.599 227.602 137.776 227.849C123.852 232.013 109.933 236.186 96.0054 240.329C91.1684 241.766 87.1599 246.255 86.0034 251.592C85.8213 252.433 86.3411 252.928 87.0663 252.679C87.5143 252.525 87.9471 252.372 88.3733 252.206C104.155 246.04 119.944 239.894 135.706 233.676C138.996 232.377 142.044 230.677 145.675 233.091C145.921 233.254 146.226 233.322 146.57 233.335C147.088 233.353 147.918 233.353 148.434 233.335C148.777 233.322 149.083 233.254 149.33 233.091C152.961 230.677 156.009 232.378 159.299 233.676C175.059 239.894 190.85 246.04 206.632 252.206C207.058 252.372 207.49 252.525 207.939 252.679C208.664 252.928 209.183 252.433 209.002 251.592C207.846 246.255 203.837 241.768 199 240.329Z" fill="#C59877"/>
<path d="M148.144 172.51C141.782 172.51 136.099 171.414 131.096 169.221C126.124 167.029 122.187 163.987 119.284 160.096C116.412 156.173 114.868 151.634 114.651 146.476H129.197C129.382 149.287 130.324 151.726 132.023 153.796C133.752 155.834 136.007 157.409 138.786 158.521C141.566 159.632 144.654 160.188 148.051 160.188C151.788 160.188 155.092 159.54 157.964 158.243C160.867 156.946 163.137 155.139 164.774 152.823C166.411 150.476 167.229 147.773 167.229 144.716C167.229 141.535 166.411 138.74 164.774 136.331C163.168 133.892 160.805 131.977 157.686 130.587C154.598 129.198 150.861 128.503 146.476 128.503H138.462V116.829H146.476C149.997 116.829 153.085 116.196 155.741 114.93C158.428 113.664 160.528 111.903 162.041 109.649C163.554 107.363 164.311 104.692 164.311 101.635C164.311 98.7009 163.647 96.1531 162.319 93.9913C161.022 91.7986 159.169 90.0846 156.76 88.8493C154.382 87.614 151.572 86.9964 148.329 86.9964C145.241 86.9964 142.353 87.5677 139.666 88.7104C137.01 89.8221 134.849 91.428 133.181 93.5281C131.513 95.5972 130.618 98.0832 130.494 100.986H116.643C116.798 95.8597 118.311 91.3508 121.183 87.4596C124.086 83.5684 127.915 80.5265 132.671 78.3338C137.427 76.1411 142.708 75.0448 148.514 75.0448C154.598 75.0448 159.848 76.2338 164.264 78.6117C168.711 80.9588 172.139 84.0934 174.548 88.0155C176.988 91.9376 178.192 96.2303 178.162 100.894C178.192 106.205 176.71 110.714 173.714 114.42C170.75 118.126 166.797 120.612 161.855 121.878V122.619C168.156 123.577 173.035 126.078 176.494 130.124C179.984 134.17 181.713 139.188 181.682 145.179C181.713 150.398 180.262 155.077 177.328 159.215C174.425 163.354 170.456 166.612 165.422 168.99C160.389 171.337 154.629 172.51 148.144 172.51Z" fill="#C59877"/>
</svg>
