<svg width="600" height="600" viewBox="0 0 600 600" fill="none" xmlns="http://www.w3.org/2000/svg">
<g clip-path="url(#clip0_458_4152)">
<path d="M362.075 304.163L555.71 404.839L517.194 471.552L333.187 354.197L362.075 304.163Z" fill="url(#paint0_linear_458_4152)"/>
<path d="M329.903 358.069L339.532 576.101H262.498L272.128 358.069H329.903Z" fill="url(#paint1_linear_458_4152)"/>
<path d="M270.629 242.032L261 24L338.033 24L328.404 242.032H270.629Z" fill="url(#paint2_linear_458_4152)"/>
<path d="M267.523 354.889L83.5166 472.244L44.9999 405.531L238.636 304.854L267.523 354.889Z" fill="url(#paint3_linear_458_4152)"/>
<path d="M362.075 296.081L555.71 195.405L517.194 128.692L333.187 246.047L362.075 296.081Z" fill="url(#paint4_linear_458_4152)"/>
<path d="M267.523 245.355L83.5166 128L44.9999 194.713L238.636 295.39L267.523 245.355Z" fill="url(#paint5_linear_458_4152)"/>
<g opacity="0.3" filter="url(#filter0_f_458_4152)">
<circle cx="227.615" cy="140.615" r="7.61466" fill="#FFEBC4"/>
</g>
<g filter="url(#filter1_f_458_4152)">
<circle cx="195.538" cy="416.538" r="2.53822" fill="#FFEBC4"/>
</g>
<g opacity="0.3" filter="url(#filter2_f_458_4152)">
<circle cx="216.538" cy="184.538" r="2.53822" fill="#FFEBC4"/>
</g>
<g filter="url(#filter3_f_458_4152)">
<circle cx="430.538" cy="333.538" r="2.53822" fill="#FFEBC4"/>
</g>
<g filter="url(#filter4_f_458_4152)">
<circle cx="124.461" cy="311.134" r="8.46073" fill="#FFDDAA"/>
</g>
<g opacity="0.6" filter="url(#filter5_f_458_4152)">
<circle cx="510.769" cy="274.769" r="6.76858" fill="#FFDDAA"/>
</g>
<g opacity="0.8" filter="url(#filter6_f_458_4152)">
<circle cx="230.769" cy="495.769" r="6.76858" fill="#FFDDAA"/>
</g>
<g filter="url(#filter7_dd_458_4152)">
<path d="M196.445 253.738L204.357 213.209L89.0342 190.695C84.089 216.026 99.0295 234.72 113.579 237.561L196.445 253.738Z" fill="url(#paint6_linear_458_4152)"/>
<path d="M195.272 254.528L203.184 213.999L90.8057 192.06C85.8606 217.391 100.801 236.085 115.351 238.925L195.272 254.528Z" stroke="url(#paint7_linear_458_4152)" stroke-width="2.29412"/>
<path d="M197.208 291.585L205.12 251.056L109.426 232.375C104.481 257.705 119.422 276.4 133.971 279.24L197.208 291.585Z" fill="url(#paint8_linear_458_4152)"/>
<path d="M197.208 291.585L205.12 251.056L109.426 232.375C104.481 257.705 119.422 276.4 133.971 279.24L197.208 291.585Z" stroke="url(#paint9_linear_458_4152)" stroke-width="2.29412"/>
<path d="M223.949 334.205L231.861 293.676L136.168 274.994C131.222 300.325 146.163 319.019 160.713 321.86L223.949 334.205Z" fill="url(#paint10_linear_458_4152)"/>
<path d="M223.949 334.205L231.861 293.676L136.168 274.994C131.222 300.325 146.163 319.019 160.713 321.86L223.949 334.205Z" stroke="url(#paint11_linear_458_4152)" stroke-width="2.29412"/>
<g filter="url(#filter8_d_458_4152)">
<path d="M202.172 435.716V347H253.672V465.5L203.739 438.352C202.774 437.827 202.172 436.816 202.172 435.716Z" fill="#ECD8BA"/>
<path d="M202.172 435.716V347H253.672V465.5L203.739 438.352C202.774 437.827 202.172 436.816 202.172 435.716Z" stroke="url(#paint12_linear_458_4152)"/>
</g>
<path fill-rule="evenodd" clip-rule="evenodd" d="M207.841 433.139V392H207.172V433.697L207.452 433.743C208.377 433.897 209.405 434.444 210.245 435.244C211.084 436.043 211.705 437.066 211.859 438.144L211.885 438.323L238.952 451V405.726H238.283V449.948L212.492 437.868C212.272 436.676 211.58 435.592 210.706 434.76C209.869 433.962 208.839 433.372 207.841 433.139Z" fill="url(#paint13_linear_458_4152)"/>
<path fill-rule="evenodd" clip-rule="evenodd" d="M238.246 447.5C238.967 446.28 239.008 444.55 238.952 443.432L238.284 443.466C238.34 444.578 238.281 446.126 237.67 447.159C237.374 447.66 236.954 448.028 236.351 448.18C235.737 448.334 234.889 448.274 233.722 447.82L233.479 448.444C234.721 448.927 235.718 449.029 236.514 448.829C237.321 448.626 237.876 448.125 238.246 447.5Z" fill="#D4B195"/>
<g filter="url(#filter9_d_458_4152)">
<path d="M396.672 435.716V347H345.172V465.5L395.105 438.352C396.071 437.827 396.672 436.816 396.672 435.716Z" fill="#ECD8BA"/>
<path d="M396.672 435.716V347H345.172V465.5L395.105 438.352C396.071 437.827 396.672 436.816 396.672 435.716Z" stroke="url(#paint14_linear_458_4152)"/>
</g>
<path fill-rule="evenodd" clip-rule="evenodd" d="M391.004 433.139V392H391.673V433.697L391.393 433.743C390.468 433.897 389.44 434.444 388.6 435.244C387.761 436.043 387.14 437.066 386.986 438.144L386.96 438.323L359.893 451V405.726H360.562V449.948L386.353 437.868C386.573 436.676 387.265 435.592 388.138 434.76C388.976 433.962 390.006 433.372 391.004 433.139Z" fill="url(#paint15_linear_458_4152)"/>
<path fill-rule="evenodd" clip-rule="evenodd" d="M360.599 447.5C359.878 446.28 359.836 444.55 359.892 443.432L360.561 443.466C360.505 444.578 360.564 446.126 361.175 447.159C361.471 447.66 361.89 448.028 362.494 448.18C363.108 448.334 363.956 448.274 365.123 447.82L365.365 448.444C364.124 448.927 363.127 449.029 362.331 448.829C361.524 448.626 360.969 448.125 360.599 447.5Z" fill="#D4B195"/>
<path d="M401.711 255.043L393.799 214.514L509.122 192C514.067 217.331 499.127 236.025 484.577 238.865L401.711 255.043Z" fill="url(#paint16_linear_458_4152)"/>
<path d="M402.884 255.833L394.972 215.304L507.351 193.365C512.296 218.695 497.355 237.39 482.805 240.23L402.884 255.833Z" stroke="url(#paint17_linear_458_4152)" stroke-width="2.29412"/>
<path d="M400.949 292.89L393.036 252.361L488.73 233.679C493.675 259.01 478.735 277.704 464.185 280.545L400.949 292.89Z" fill="url(#paint18_linear_458_4152)"/>
<path d="M400.949 292.89L393.036 252.361L488.73 233.679C493.675 259.01 478.735 277.704 464.185 280.545L400.949 292.89Z" stroke="url(#paint19_linear_458_4152)" stroke-width="2.29412"/>
<path d="M374.208 335.51L366.295 294.981L461.989 276.299C466.934 301.629 451.993 320.324 437.444 323.164L374.208 335.51Z" fill="url(#paint20_linear_458_4152)"/>
<path d="M374.208 335.51L366.295 294.981L461.989 276.299C466.934 301.629 451.993 320.324 437.444 323.164L374.208 335.51Z" stroke="url(#paint21_linear_458_4152)" stroke-width="2.29412"/>
<g filter="url(#filter10_d_458_4152)">
<path d="M244.172 342H354.172V481.686L299.784 509.333C298.96 509.752 297.986 509.75 297.163 509.329L244.172 482.166V342Z" fill="url(#paint22_linear_458_4152)"/>
<path d="M244.172 342H354.172V481.686L299.784 509.333C298.96 509.752 297.986 509.75 297.163 509.329L244.172 482.166V342Z" stroke="url(#paint23_linear_458_4152)" stroke-width="2"/>
</g>
<path fill-rule="evenodd" clip-rule="evenodd" d="M315.172 500.511L299.784 508.333C298.96 508.752 297.986 508.75 297.163 508.329L281.172 500.132V398H315.172V500.511Z" fill="url(#paint24_linear_458_4152)"/>
<path fill-rule="evenodd" clip-rule="evenodd" d="M250.172 417H251.766V479.52L298.777 503.821L346.579 479.517V417H348.172V480.084L298.771 505L250.172 480.081V417Z" fill="url(#paint25_linear_458_4152)"/>
<path fill-rule="evenodd" clip-rule="evenodd" d="M299.105 482V500.143H298.235V482H299.105Z" fill="url(#paint26_linear_458_4152)"/>
<path fill-rule="evenodd" clip-rule="evenodd" d="M296.065 493.704C294.335 495.7 292.227 496.144 290.776 495.902L290.919 495.044C292.075 495.237 293.879 494.899 295.408 493.135C296.944 491.364 298.236 488.114 298.236 482.434H299.105C299.105 488.229 297.789 491.716 296.065 493.704Z" fill="url(#paint27_linear_458_4152)"/>
<path fill-rule="evenodd" clip-rule="evenodd" d="M301.276 493.704C303.006 495.7 305.114 496.144 306.565 495.902L306.422 495.044C305.266 495.237 303.462 494.899 301.932 493.135C300.397 491.364 299.105 488.114 299.105 482.434H298.236C298.236 488.229 299.552 491.716 301.276 493.704Z" fill="url(#paint28_linear_458_4152)"/>
<path fill-rule="evenodd" clip-rule="evenodd" d="M298.487 500.538L288.672 495.039L290.845 495.039L298.669 499.666L306.492 495H308.41L298.848 500.539C298.734 500.591 298.602 500.591 298.487 500.538Z" fill="url(#paint29_linear_458_4152)"/>
<g filter="url(#filter11_d_458_4152)">
<path d="M291.049 159.419L183.049 218.17C177.578 221.146 174.172 226.875 174.172 233.103L174.172 367.402C174.172 373.63 177.578 379.359 183.049 382.335L291.049 441.086C296.114 443.841 302.231 443.841 307.296 441.086L415.296 382.335C420.767 379.359 424.172 373.629 424.172 367.402L424.172 233.103C424.172 226.875 420.767 221.146 415.296 218.17L307.296 159.419C302.231 156.664 296.114 156.664 291.049 159.419Z" fill="url(#paint30_linear_458_4152)"/>
<path d="M290.929 181.403L202.015 229.771C196.565 232.736 193.172 238.444 193.172 244.648L193.172 355.352C193.172 361.556 196.565 367.264 202.015 370.229L290.929 418.597C295.976 421.343 302.069 421.343 307.116 418.597L396.03 370.229C401.48 367.264 404.873 361.556 404.873 355.352L404.873 244.648C404.873 238.444 401.48 232.736 396.03 229.771L307.116 181.403C302.069 178.657 295.976 178.657 290.929 181.403Z" fill="url(#paint31_linear_458_4152)"/>
<g filter="url(#filter12_f_458_4152)">
<path d="M290.929 181.403L202.015 229.771C196.565 232.736 193.172 238.444 193.172 244.648L193.172 355.352C193.172 361.556 196.565 367.264 202.015 370.229L290.929 418.597C295.976 421.343 302.069 421.343 307.116 418.597L396.03 370.229C401.48 367.264 404.873 361.556 404.873 355.352L404.873 244.648C404.873 238.444 401.48 232.736 396.03 229.771L307.116 181.403C302.069 178.657 295.976 178.657 290.929 181.403Z" stroke="url(#paint32_linear_458_4152)"/>
</g>
<g opacity="0.5">
<mask id="mask0_458_4152" style="mask-type:alpha" maskUnits="userSpaceOnUse" x="202" y="189" width="196" height="223">
<path d="M291.979 191.181L210.589 235.417C205.402 238.236 202.172 243.667 202.172 249.571L202.172 350.819C202.172 356.723 205.402 362.154 210.589 364.974L291.979 409.209C296.777 411.816 302.568 411.816 307.365 409.209L388.755 364.974C393.943 362.154 397.172 356.723 397.172 350.819L397.172 249.571C397.172 243.667 393.943 238.236 388.755 235.417L307.365 191.181C302.568 188.574 296.777 188.574 291.979 191.181Z" fill="#A6D3DE"/>
</mask>
<g mask="url(#mask0_458_4152)">
<path d="M291.979 191.181L210.589 235.417C205.402 238.236 202.172 243.667 202.172 249.571L202.172 350.819C202.172 356.723 205.402 362.154 210.589 364.974L291.979 409.209C296.777 411.816 302.568 411.816 307.365 409.209L388.755 364.974C393.943 362.154 397.172 356.723 397.172 350.819L397.172 249.571C397.172 243.667 393.943 238.236 388.755 235.417L307.365 191.181C302.568 188.574 296.777 188.574 291.979 191.181Z" fill="url(#paint33_radial_458_4152)"/>
<path opacity="0.5" d="M283.373 417.862L279.5 182.517H319.845L315.972 417.862H283.373Z" fill="url(#paint34_linear_458_4152)"/>
<path opacity="0.5" d="M282.854 415.775L161.828 213.896L196.767 193.724L311.085 399.475L282.854 415.775Z" fill="url(#paint35_linear_458_4152)"/>
<path opacity="0.5" d="M279.492 399.475L393.811 193.724L428.75 213.896L307.724 415.774L279.492 399.475Z" fill="url(#paint36_linear_458_4152)"/>
<rect x="202.172" y="286.741" width="195" height="126.638" fill="url(#paint37_linear_458_4152)"/>
<g filter="url(#filter13_i_458_4152)">
<path d="M291.979 191.181L210.589 235.417C205.402 238.236 202.172 243.667 202.172 249.571L202.172 350.819C202.172 356.723 205.402 362.154 210.589 364.974L291.979 409.209C296.777 411.816 302.568 411.816 307.365 409.209L388.755 364.974C393.943 362.154 397.172 356.723 397.172 350.819L397.172 249.571C397.172 243.667 393.943 238.236 388.755 235.417L307.365 191.181C302.568 188.574 296.777 188.574 291.979 191.181Z" fill="#6052B4" fill-opacity="0.01"/>
</g>
</g>
</g>
</g>
</g>
<g filter="url(#filter14_d_458_4152)">
<g filter="url(#filter15_d_458_4152)">
<path fill-rule="evenodd" clip-rule="evenodd" d="M298.151 201.233C300.643 199.541 307.766 207.329 311.553 216.116C309.79 218.848 307.757 222.01 305.454 225.601C307.342 223.033 309.892 220.847 313.105 219.043C311.765 222.402 316.298 230.822 316.227 232.871C316.179 234.237 313.657 237.791 308.661 243.534C310.314 242.001 312.58 239.796 315.458 236.921L316.108 236.271C319.411 253.527 321.064 281.434 319.449 287.414C317.834 293.393 314.101 294.17 310.044 306.69C311.948 303.698 314.543 300.244 317.828 296.328C317.349 302.749 315.446 308.756 312.119 314.35C307.29 322.472 302.781 327.314 302.217 335.647C302.217 335.647 301.517 349.025 301.517 355.715C301.517 360.096 301.706 380 301.706 380L297.83 379.719C297.83 379.719 298.017 359.719 298.017 355.301C298.017 348.227 297.317 334.079 297.317 334.079C297.118 333.324 296.906 332.603 296.684 331.917C294.191 324.236 285.901 317.805 283.301 309.64C281.568 304.197 279.761 298.065 277.88 291.244C280.809 292.038 283.727 293.876 286.636 296.76C284.712 291.157 279.829 284.34 277 277.179C279.633 263.588 278.262 241.038 283.787 230.187C285.834 215.801 295.66 202.924 298.151 201.233Z" fill="url(#paint38_linear_458_4152)"/>
<mask id="mask1_458_4152" style="mask-type:alpha" maskUnits="userSpaceOnUse" x="277" y="201" width="44" height="179">
<path fill-rule="evenodd" clip-rule="evenodd" d="M298.151 201.233C300.643 199.541 307.766 207.329 311.553 216.116C309.79 218.848 307.757 222.01 305.454 225.601C307.342 223.033 309.892 220.847 313.105 219.043C311.765 222.402 316.298 230.822 316.227 232.871C316.179 234.237 313.657 237.791 308.661 243.534C310.314 242.001 312.58 239.796 315.458 236.921L316.108 236.271C319.411 253.527 321.064 281.434 319.449 287.414C317.834 293.393 314.101 294.17 310.044 306.69C311.948 303.698 314.543 300.244 317.828 296.328C317.349 302.749 315.446 308.756 312.119 314.35C307.29 322.472 302.781 327.314 302.217 335.647C302.217 335.647 301.517 349.025 301.517 355.715C301.517 360.096 301.706 380 301.706 380L297.83 379.719C297.83 379.719 298.017 359.719 298.017 355.301C298.017 348.227 297.317 334.079 297.317 334.079C297.118 333.324 296.906 332.603 296.684 331.917C294.191 324.236 285.901 317.805 283.301 309.64C281.568 304.197 279.761 298.065 277.88 291.244C280.809 292.038 283.727 293.876 286.636 296.76C284.712 291.157 279.829 284.34 277 277.179C279.633 263.588 278.262 241.038 283.787 230.187C285.834 215.801 295.66 202.924 298.151 201.233Z" fill="white"/>
</mask>
<g mask="url(#mask1_458_4152)">
<path fill-rule="evenodd" clip-rule="evenodd" d="M320.075 276.023C320.075 286.369 310.857 297.528 310.044 306.69C316.227 296.655 318.067 292.937 321 291.357C323.933 289.776 320.075 265.678 320.075 276.023Z" fill="url(#paint39_linear_458_4152)"/>
<path fill-rule="evenodd" clip-rule="evenodd" d="M286.636 296.76L289.03 299.83C289.03 299.83 287.269 293.391 285.197 290.5C283.125 287.609 278.02 279.286 277 277.179C275.98 275.071 275.856 280.974 275.856 280.974L286.636 296.76Z" fill="url(#paint40_linear_458_4152)"/>
<path fill-rule="evenodd" clip-rule="evenodd" d="M315.587 229.965C316.21 231.685 314.876 234.479 312.352 238.156C309.827 241.834 306.193 246.028 306.193 246.028L308.661 243.534L317.346 234.275L319.029 230.648C319.029 230.648 314.965 228.244 315.587 229.965Z" fill="url(#paint41_linear_458_4152)"/>
<path fill-rule="evenodd" clip-rule="evenodd" d="M306.194 224.703L303.521 227.957C303.521 227.957 308.251 220.509 309.032 218.115C309.814 215.721 311.171 214.133 310.102 210.788C309.032 207.443 314.729 215.984 314.729 215.984L308.551 221.73L306.194 224.703Z" fill="url(#paint42_linear_458_4152)"/>
<path fill-rule="evenodd" clip-rule="evenodd" d="M297 386.302C297 386.302 297.839 365.049 298 355.592C298.234 341.847 299 209.031 299 209.031C299 209.031 301.533 328.092 301.533 356.472C301.533 384.852 307.817 390.628 307.817 390.628L297 388.47L297 386.302Z" fill="#EAC893"/>
</g>
</g>
<g filter="url(#filter16_d_458_4152)">
<path fill-rule="evenodd" clip-rule="evenodd" d="M299.413 380.252C298.804 380.061 298.177 379.864 297.641 381.566C297.641 392.692 296 397.2 296 397.2C296 397.2 300.069 403.307 300.069 406.911C300.069 403.416 304.138 397.2 304.138 397.2C304.138 397.2 302.497 391.681 302.497 381.566C301.9 379.671 301.308 379.915 300.669 380.179C300.474 380.26 300.274 380.342 300.069 380.366C299.856 380.39 299.636 380.321 299.413 380.252ZM301.031 389.692C301.031 390.251 300.579 390.704 300.02 390.704C299.461 390.704 299.008 390.251 299.008 389.692C299.008 389.134 299.461 388.681 300.02 388.681C300.579 388.681 301.031 389.134 301.031 389.692Z" fill="url(#paint43_linear_458_4152)"/>
<mask id="mask2_458_4152" style="mask-type:alpha" maskUnits="userSpaceOnUse" x="296" y="380" width="9" height="27">
<path fill-rule="evenodd" clip-rule="evenodd" d="M299.413 380.252C298.804 380.061 298.177 379.864 297.641 381.566C297.641 392.692 296 397.2 296 397.2C296 397.2 300.069 403.307 300.069 406.911C300.069 403.416 304.138 397.2 304.138 397.2C304.138 397.2 302.497 391.681 302.497 381.566C301.9 379.671 301.308 379.915 300.669 380.179C300.474 380.26 300.274 380.342 300.069 380.366C299.856 380.39 299.636 380.321 299.413 380.252ZM301.031 389.692C301.031 390.251 300.579 390.704 300.02 390.704C299.461 390.704 299.008 390.251 299.008 389.692C299.008 389.134 299.461 388.681 300.02 388.681C300.579 388.681 301.031 389.134 301.031 389.692Z" fill="white"/>
</mask>
<g mask="url(#mask2_458_4152)">
<path fill-rule="evenodd" clip-rule="evenodd" d="M300.069 381.566H311.398V406.911H300.069V381.566Z" fill="url(#paint44_linear_458_4152)"/>
<rect opacity="0.6" x="294" y="379.543" width="12.138" height="4.046" fill="url(#paint45_linear_458_4152)"/>
</g>
<path fill-rule="evenodd" clip-rule="evenodd" d="M300.069 403.631C300.832 400.491 304.138 397.2 304.138 397.2C304.138 397.2 300.069 403.416 300.069 406.911C300.069 403.307 296 397.2 296 397.2C296 397.2 299.183 400.526 300.069 403.631Z" fill="url(#paint46_linear_458_4152)"/>
<mask id="mask3_458_4152" style="mask-type:alpha" maskUnits="userSpaceOnUse" x="296" y="397" width="9" height="10">
<path fill-rule="evenodd" clip-rule="evenodd" d="M300.069 403.631C300.832 400.491 304.138 397.2 304.138 397.2C304.138 397.2 300.069 403.416 300.069 406.911C300.069 403.307 296 397.2 296 397.2C296 397.2 299.183 400.526 300.069 403.631Z" fill="white"/>
</mask>
<g mask="url(#mask3_458_4152)">
</g>
</g>
<g filter="url(#filter17_d_458_4152)">
<rect x="295.917" y="378.133" width="7.7" height="4" rx="1.4" fill="url(#paint47_linear_458_4152)"/>
</g>
<path fill-rule="evenodd" clip-rule="evenodd" d="M296.16 379.175C296.16 378.72 296.529 378.351 296.985 378.351H302.419C302.874 378.351 303.244 378.72 303.244 379.175C303.244 379.631 302.874 380 302.419 380H296.985C296.529 380 296.16 379.631 296.16 379.175Z" fill="white"/>
</g>
</g>
<defs>
<filter id="filter0_f_458_4152" x="199.694" y="112.694" width="55.841" height="55.8408" filterUnits="userSpaceOnUse" color-interpolation-filters="sRGB">
<feFlood flood-opacity="0" result="BackgroundImageFix"/>
<feBlend mode="normal" in="SourceGraphic" in2="BackgroundImageFix" result="shape"/>
<feGaussianBlur stdDeviation="10.1529" result="effect1_foregroundBlur_458_4152"/>
</filter>
<filter id="filter1_f_458_4152" x="191.308" y="412.308" width="8.46095" height="8.46071" filterUnits="userSpaceOnUse" color-interpolation-filters="sRGB">
<feFlood flood-opacity="0" result="BackgroundImageFix"/>
<feBlend mode="normal" in="SourceGraphic" in2="BackgroundImageFix" result="shape"/>
<feGaussianBlur stdDeviation="0.846073" result="effect1_foregroundBlur_458_4152"/>
</filter>
<filter id="filter2_f_458_4152" x="206" y="174" width="21.0767" height="21.0764" filterUnits="userSpaceOnUse" color-interpolation-filters="sRGB">
<feFlood flood-opacity="0" result="BackgroundImageFix"/>
<feBlend mode="normal" in="SourceGraphic" in2="BackgroundImageFix" result="shape"/>
<feGaussianBlur stdDeviation="4" result="effect1_foregroundBlur_458_4152"/>
</filter>
<filter id="filter3_f_458_4152" x="422" y="325" width="17.0767" height="17.0764" filterUnits="userSpaceOnUse" color-interpolation-filters="sRGB">
<feFlood flood-opacity="0" result="BackgroundImageFix"/>
<feBlend mode="normal" in="SourceGraphic" in2="BackgroundImageFix" result="shape"/>
<feGaussianBlur stdDeviation="3" result="effect1_foregroundBlur_458_4152"/>
</filter>
<filter id="filter4_f_458_4152" x="96" y="282.673" width="56.9214" height="56.9215" filterUnits="userSpaceOnUse" color-interpolation-filters="sRGB">
<feFlood flood-opacity="0" result="BackgroundImageFix"/>
<feBlend mode="normal" in="SourceGraphic" in2="BackgroundImageFix" result="shape"/>
<feGaussianBlur stdDeviation="10" result="effect1_foregroundBlur_458_4152"/>
</filter>
<filter id="filter5_f_458_4152" x="487.079" y="251.079" width="47.38" height="47.38" filterUnits="userSpaceOnUse" color-interpolation-filters="sRGB">
<feFlood flood-opacity="0" result="BackgroundImageFix"/>
<feBlend mode="normal" in="SourceGraphic" in2="BackgroundImageFix" result="shape"/>
<feGaussianBlur stdDeviation="8.46073" result="effect1_foregroundBlur_458_4152"/>
</filter>
<filter id="filter6_f_458_4152" x="207.079" y="472.079" width="47.38" height="47.38" filterUnits="userSpaceOnUse" color-interpolation-filters="sRGB">
<feFlood flood-opacity="0" result="BackgroundImageFix"/>
<feBlend mode="normal" in="SourceGraphic" in2="BackgroundImageFix" result="shape"/>
<feGaussianBlur stdDeviation="8.46073" result="effect1_foregroundBlur_458_4152"/>
</filter>
<filter id="filter7_dd_458_4152" x="-3.76735" y="71.6388" width="605.691" height="536.966" filterUnits="userSpaceOnUse" color-interpolation-filters="sRGB">
<feFlood flood-opacity="0" result="BackgroundImageFix"/>
<feColorMatrix in="SourceAlpha" type="matrix" values="0 0 0 0 0 0 0 0 0 0 0 0 0 0 0 0 0 0 127 0" result="hardAlpha"/>
<feOffset/>
<feGaussianBlur stdDeviation="15.306"/>
<feColorMatrix type="matrix" values="0 0 0 0 0.991667 0 0 0 0 0.801597 0 0 0 0 0.516493 0 0 0 1 0"/>
<feBlend mode="normal" in2="BackgroundImageFix" result="effect1_dropShadow_458_4152"/>
<feColorMatrix in="SourceAlpha" type="matrix" values="0 0 0 0 0 0 0 0 0 0 0 0 0 0 0 0 0 0 127 0" result="hardAlpha"/>
<feOffset dy="6.12241"/>
<feGaussianBlur stdDeviation="45.9181"/>
<feColorMatrix type="matrix" values="0 0 0 0 1 0 0 0 0 0.722667 0 0 0 0 0.466667 0 0 0 0.6 0"/>
<feBlend mode="normal" in2="effect1_dropShadow_458_4152" result="effect2_dropShadow_458_4152"/>
<feBlend mode="normal" in="SourceGraphic" in2="effect2_dropShadow_458_4152" result="shape"/>
</filter>
<filter id="filter8_d_458_4152" x="193.672" y="338.5" width="68.5" height="135.841" filterUnits="userSpaceOnUse" color-interpolation-filters="sRGB">
<feFlood flood-opacity="0" result="BackgroundImageFix"/>
<feColorMatrix in="SourceAlpha" type="matrix" values="0 0 0 0 0 0 0 0 0 0 0 0 0 0 0 0 0 0 127 0" result="hardAlpha"/>
<feOffset/>
<feGaussianBlur stdDeviation="4"/>
<feColorMatrix type="matrix" values="0 0 0 0 0.7 0 0 0 0 0.561568 0 0 0 0 0.32375 0 0 0 0.78 0"/>
<feBlend mode="normal" in2="BackgroundImageFix" result="effect1_dropShadow_458_4152"/>
<feBlend mode="normal" in="SourceGraphic" in2="effect1_dropShadow_458_4152" result="shape"/>
</filter>
<filter id="filter9_d_458_4152" x="336.672" y="338.5" width="68.5" height="135.841" filterUnits="userSpaceOnUse" color-interpolation-filters="sRGB">
<feFlood flood-opacity="0" result="BackgroundImageFix"/>
<feColorMatrix in="SourceAlpha" type="matrix" values="0 0 0 0 0 0 0 0 0 0 0 0 0 0 0 0 0 0 127 0" result="hardAlpha"/>
<feOffset/>
<feGaussianBlur stdDeviation="4"/>
<feColorMatrix type="matrix" values="0 0 0 0 0.7 0 0 0 0 0.561568 0 0 0 0 0.32375 0 0 0 0.78 0"/>
<feBlend mode="normal" in2="BackgroundImageFix" result="effect1_dropShadow_458_4152"/>
<feBlend mode="normal" in="SourceGraphic" in2="effect1_dropShadow_458_4152" result="shape"/>
</filter>
<filter id="filter10_d_458_4152" x="235.172" y="333" width="128" height="185.646" filterUnits="userSpaceOnUse" color-interpolation-filters="sRGB">
<feFlood flood-opacity="0" result="BackgroundImageFix"/>
<feColorMatrix in="SourceAlpha" type="matrix" values="0 0 0 0 0 0 0 0 0 0 0 0 0 0 0 0 0 0 127 0" result="hardAlpha"/>
<feOffset/>
<feGaussianBlur stdDeviation="4"/>
<feColorMatrix type="matrix" values="0 0 0 0 0.7 0 0 0 0 0.561568 0 0 0 0 0.32375 0 0 0 0.78 0"/>
<feBlend mode="normal" in2="BackgroundImageFix" result="effect1_dropShadow_458_4152"/>
<feBlend mode="normal" in="SourceGraphic" in2="effect1_dropShadow_458_4152" result="shape"/>
</filter>
<filter id="filter11_d_458_4152" x="168.172" y="157.353" width="262" height="299.8" filterUnits="userSpaceOnUse" color-interpolation-filters="sRGB">
<feFlood flood-opacity="0" result="BackgroundImageFix"/>
<feColorMatrix in="SourceAlpha" type="matrix" values="0 0 0 0 0 0 0 0 0 0 0 0 0 0 0 0 0 0 127 0" result="hardAlpha"/>
<feOffset dy="8"/>
<feGaussianBlur stdDeviation="3"/>
<feColorMatrix type="matrix" values="0 0 0 0 0.4375 0 0 0 0 0.287401 0 0 0 0 0.111198 0 0 0 0.6 0"/>
<feBlend mode="normal" in2="BackgroundImageFix" result="effect1_dropShadow_458_4152"/>
<feBlend mode="normal" in="SourceGraphic" in2="effect1_dropShadow_458_4152" result="shape"/>
</filter>
<filter id="filter12_f_458_4152" x="192.372" y="178.544" width="213.3" height="242.913" filterUnits="userSpaceOnUse" color-interpolation-filters="sRGB">
<feFlood flood-opacity="0" result="BackgroundImageFix"/>
<feBlend mode="normal" in="SourceGraphic" in2="BackgroundImageFix" result="shape"/>
<feGaussianBlur stdDeviation="0.15" result="effect1_foregroundBlur_458_4152"/>
</filter>
<filter id="filter13_i_458_4152" x="202.172" y="189.226" width="195" height="221.939" filterUnits="userSpaceOnUse" color-interpolation-filters="sRGB">
<feFlood flood-opacity="0" result="BackgroundImageFix"/>
<feBlend mode="normal" in="SourceGraphic" in2="BackgroundImageFix" result="shape"/>
<feColorMatrix in="SourceAlpha" type="matrix" values="0 0 0 0 0 0 0 0 0 0 0 0 0 0 0 0 0 0 127 0" result="hardAlpha"/>
<feOffset/>
<feGaussianBlur stdDeviation="6.72414"/>
<feComposite in2="hardAlpha" operator="arithmetic" k2="-1" k3="1"/>
<feColorMatrix type="matrix" values="0 0 0 0 0.458333 0 0 0 0 0.256743 0 0 0 0 0.0706597 0 0 0 1 0"/>
<feBlend mode="normal" in2="shape" result="effect1_innerShadow_458_4152"/>
</filter>
<filter id="filter14_d_458_4152" x="273" y="201" width="51.0747" height="213.911" filterUnits="userSpaceOnUse" color-interpolation-filters="sRGB">
<feFlood flood-opacity="0" result="BackgroundImageFix"/>
<feColorMatrix in="SourceAlpha" type="matrix" values="0 0 0 0 0 0 0 0 0 0 0 0 0 0 0 0 0 0 127 0" result="hardAlpha"/>
<feOffset dy="4"/>
<feGaussianBlur stdDeviation="2"/>
<feColorMatrix type="matrix" values="0 0 0 0 0.795833 0 0 0 0 0.632621 0 0 0 0 0.441024 0 0 0 0.47 0"/>
<feBlend mode="normal" in2="BackgroundImageFix" result="effect1_dropShadow_458_4152"/>
<feBlend mode="normal" in="SourceGraphic" in2="effect1_dropShadow_458_4152" result="shape"/>
</filter>
<filter id="filter15_d_458_4152" x="270.129" y="197.384" width="57.5405" height="193.466" filterUnits="userSpaceOnUse" color-interpolation-filters="sRGB">
<feFlood flood-opacity="0" result="BackgroundImageFix"/>
<feColorMatrix in="SourceAlpha" type="matrix" values="0 0 0 0 0 0 0 0 0 0 0 0 0 0 0 0 0 0 127 0" result="hardAlpha"/>
<feOffset dx="0.361644" dy="3.61644"/>
<feGaussianBlur stdDeviation="3.61644"/>
<feColorMatrix type="matrix" values="0 0 0 0 0.795833 0 0 0 0 0.519745 0 0 0 0 0.195642 0 0 0 0.42 0"/>
<feBlend mode="normal" in2="BackgroundImageFix" result="effect1_dropShadow_458_4152"/>
<feBlend mode="normal" in="SourceGraphic" in2="effect1_dropShadow_458_4152" result="shape"/>
</filter>
<filter id="filter16_d_458_4152" x="289.129" y="376.384" width="22.6039" height="41.3765" filterUnits="userSpaceOnUse" color-interpolation-filters="sRGB">
<feFlood flood-opacity="0" result="BackgroundImageFix"/>
<feColorMatrix in="SourceAlpha" type="matrix" values="0 0 0 0 0 0 0 0 0 0 0 0 0 0 0 0 0 0 127 0" result="hardAlpha"/>
<feOffset dx="0.361644" dy="3.61644"/>
<feGaussianBlur stdDeviation="3.61644"/>
<feColorMatrix type="matrix" values="0 0 0 0 0.795833 0 0 0 0 0.519745 0 0 0 0 0.195642 0 0 0 0.42 0"/>
<feBlend mode="normal" in2="BackgroundImageFix" result="effect1_dropShadow_458_4152"/>
<feBlend mode="normal" in="SourceGraphic" in2="effect1_dropShadow_458_4152" result="shape"/>
</filter>
<filter id="filter17_d_458_4152" x="289.046" y="374.516" width="22.1659" height="18.4658" filterUnits="userSpaceOnUse" color-interpolation-filters="sRGB">
<feFlood flood-opacity="0" result="BackgroundImageFix"/>
<feColorMatrix in="SourceAlpha" type="matrix" values="0 0 0 0 0 0 0 0 0 0 0 0 0 0 0 0 0 0 127 0" result="hardAlpha"/>
<feOffset dx="0.361644" dy="3.61644"/>
<feGaussianBlur stdDeviation="3.61644"/>
<feColorMatrix type="matrix" values="0 0 0 0 0.795833 0 0 0 0 0.519745 0 0 0 0 0.195642 0 0 0 0.42 0"/>
<feBlend mode="normal" in2="BackgroundImageFix" result="effect1_dropShadow_458_4152"/>
<feBlend mode="normal" in="SourceGraphic" in2="effect1_dropShadow_458_4152" result="shape"/>
</filter>
<linearGradient id="paint0_linear_458_4152" x1="536.452" y1="438.196" x2="347.631" y2="329.18" gradientUnits="userSpaceOnUse">
<stop stop-color="#FFF6D6" stop-opacity="0"/>
<stop offset="1" stop-color="#FFEFC5" stop-opacity="0.4"/>
</linearGradient>
<linearGradient id="paint1_linear_458_4152" x1="301.015" y1="576.101" x2="301.015" y2="358.069" gradientUnits="userSpaceOnUse">
<stop stop-color="#FFF6D6" stop-opacity="0"/>
<stop offset="1" stop-color="#FFEFC5" stop-opacity="0.4"/>
</linearGradient>
<linearGradient id="paint2_linear_458_4152" x1="299.517" y1="24" x2="299.517" y2="242.032" gradientUnits="userSpaceOnUse">
<stop stop-color="#FFF6D6" stop-opacity="0"/>
<stop offset="1" stop-color="#FFEFC5" stop-opacity="0.4"/>
</linearGradient>
<linearGradient id="paint3_linear_458_4152" x1="64.2583" y1="438.887" x2="253.079" y2="329.872" gradientUnits="userSpaceOnUse">
<stop stop-color="#FFF6D6" stop-opacity="0"/>
<stop offset="1" stop-color="#FFEFC5" stop-opacity="0.4"/>
</linearGradient>
<linearGradient id="paint4_linear_458_4152" x1="536.452" y1="162.048" x2="347.631" y2="271.064" gradientUnits="userSpaceOnUse">
<stop stop-color="#FFF6D6" stop-opacity="0"/>
<stop offset="1" stop-color="#FFEFC5" stop-opacity="0.4"/>
</linearGradient>
<linearGradient id="paint5_linear_458_4152" x1="64.2583" y1="161.356" x2="253.079" y2="270.372" gradientUnits="userSpaceOnUse">
<stop stop-color="#FFF6D6" stop-opacity="0"/>
<stop offset="1" stop-color="#FFEFC5" stop-opacity="0.4"/>
</linearGradient>
<linearGradient id="paint6_linear_458_4152" x1="139.664" y1="242.653" x2="112.03" y2="201.613" gradientUnits="userSpaceOnUse">
<stop stop-color="#D2A86B"/>
<stop offset="0.875" stop-color="#FFF5DE"/>
</linearGradient>
<linearGradient id="paint7_linear_458_4152" x1="96.4347" y1="193.159" x2="121.171" y2="240.062" gradientUnits="userSpaceOnUse">
<stop stop-color="#FFF5DE"/>
<stop offset="0.378992" stop-color="#F5E3C4"/>
<stop offset="0.480868" stop-color="#E6CA9E"/>
<stop offset="0.729174" stop-color="#D2A86B"/>
</linearGradient>
<linearGradient id="paint8_linear_458_4152" x1="160.056" y1="284.333" x2="132.422" y2="243.292" gradientUnits="userSpaceOnUse">
<stop stop-color="#E0C08E"/>
<stop offset="0.875" stop-color="#FFF5DE"/>
</linearGradient>
<linearGradient id="paint9_linear_458_4152" x1="115.055" y1="233.474" x2="170.672" y2="299.5" gradientUnits="userSpaceOnUse">
<stop stop-color="#FFF5DE"/>
<stop offset="0.378992" stop-color="#FFF5DE"/>
<stop offset="0.480868" stop-color="#EAD2A9"/>
<stop offset="0.729174" stop-color="#D2A86B"/>
</linearGradient>
<linearGradient id="paint10_linear_458_4152" x1="186.797" y1="326.952" x2="159.164" y2="285.911" gradientUnits="userSpaceOnUse">
<stop stop-color="#E0C08E"/>
<stop offset="0.875" stop-color="#FFF5DE"/>
</linearGradient>
<linearGradient id="paint11_linear_458_4152" x1="141.797" y1="276.093" x2="197.414" y2="342.119" gradientUnits="userSpaceOnUse">
<stop stop-color="#FFF5DE"/>
<stop offset="0.378992" stop-color="#FFF5DE"/>
<stop offset="0.480868" stop-color="#EAD2A9"/>
<stop offset="0.729174" stop-color="#D2A86B"/>
</linearGradient>
<linearGradient id="paint12_linear_458_4152" x1="202.172" y1="427.763" x2="255.046" y2="439.71" gradientUnits="userSpaceOnUse">
<stop stop-color="#8D664F"/>
<stop offset="0.208702" stop-color="#C49F7D"/>
<stop offset="0.648432" stop-color="#FFF1DC"/>
<stop offset="0.827985" stop-color="#B38368"/>
<stop offset="0.971703" stop-color="#8C5F4C"/>
</linearGradient>
<linearGradient id="paint13_linear_458_4152" x1="208.672" y1="426" x2="227.798" y2="420.298" gradientUnits="userSpaceOnUse">
<stop stop-color="#C7A383"/>
<stop offset="0.309893" stop-color="#D5B198"/>
<stop offset="0.523799" stop-color="#CBA68C"/>
<stop offset="0.77229" stop-color="#BB9478"/>
<stop offset="1" stop-color="#D7B49B"/>
</linearGradient>
<linearGradient id="paint14_linear_458_4152" x1="396.672" y1="427.763" x2="343.799" y2="439.71" gradientUnits="userSpaceOnUse">
<stop stop-color="#8D664F"/>
<stop offset="0.208702" stop-color="#C49F7D"/>
<stop offset="0.648432" stop-color="#FFF1DC"/>
<stop offset="0.827985" stop-color="#B38368"/>
<stop offset="0.971703" stop-color="#8C5F4C"/>
</linearGradient>
<linearGradient id="paint15_linear_458_4152" x1="390.173" y1="426" x2="371.047" y2="420.298" gradientUnits="userSpaceOnUse">
<stop stop-color="#C7A383"/>
<stop offset="0.309893" stop-color="#D5B198"/>
<stop offset="0.523799" stop-color="#CBA68C"/>
<stop offset="0.77229" stop-color="#BB9478"/>
<stop offset="1" stop-color="#D7B49B"/>
</linearGradient>
<linearGradient id="paint16_linear_458_4152" x1="458.492" y1="243.958" x2="486.126" y2="202.917" gradientUnits="userSpaceOnUse">
<stop stop-color="#D2A86B"/>
<stop offset="0.875" stop-color="#FFF5DE"/>
</linearGradient>
<linearGradient id="paint17_linear_458_4152" x1="501.722" y1="194.464" x2="476.985" y2="241.366" gradientUnits="userSpaceOnUse">
<stop stop-color="#FFF5DE"/>
<stop offset="0.378992" stop-color="#F5E3C4"/>
<stop offset="0.480868" stop-color="#E6CA9E"/>
<stop offset="0.729174" stop-color="#D2A86B"/>
</linearGradient>
<linearGradient id="paint18_linear_458_4152" x1="438.1" y1="285.637" x2="465.734" y2="244.597" gradientUnits="userSpaceOnUse">
<stop stop-color="#E0C08E"/>
<stop offset="0.875" stop-color="#FFF5DE"/>
</linearGradient>
<linearGradient id="paint19_linear_458_4152" x1="483.101" y1="234.778" x2="427.484" y2="300.804" gradientUnits="userSpaceOnUse">
<stop stop-color="#FFF5DE"/>
<stop offset="0.378992" stop-color="#FFF5DE"/>
<stop offset="0.480868" stop-color="#EAD2A9"/>
<stop offset="0.729174" stop-color="#D2A86B"/>
</linearGradient>
<linearGradient id="paint20_linear_458_4152" x1="411.359" y1="328.257" x2="438.993" y2="287.216" gradientUnits="userSpaceOnUse">
<stop stop-color="#E0C08E"/>
<stop offset="0.875" stop-color="#FFF5DE"/>
</linearGradient>
<linearGradient id="paint21_linear_458_4152" x1="456.36" y1="277.398" x2="400.743" y2="343.424" gradientUnits="userSpaceOnUse">
<stop stop-color="#FFF5DE"/>
<stop offset="0.378992" stop-color="#FFF5DE"/>
<stop offset="0.480868" stop-color="#EAD2A9"/>
<stop offset="0.729174" stop-color="#D2A86B"/>
</linearGradient>
<linearGradient id="paint22_linear_458_4152" x1="299.172" y1="416" x2="299.172" y2="510" gradientUnits="userSpaceOnUse">
<stop stop-color="#B58D70"/>
<stop offset="0.2286" stop-color="#B58D70"/>
<stop offset="0.47675" stop-color="#D8B59B"/>
<stop offset="0.88344" stop-color="#B58D70"/>
<stop offset="1" stop-color="#B58D70"/>
</linearGradient>
<linearGradient id="paint23_linear_458_4152" x1="244.172" y1="456.5" x2="350.545" y2="492.71" gradientUnits="userSpaceOnUse">
<stop stop-color="#8D664F"/>
<stop offset="0.208702" stop-color="#FFF5E6"/>
<stop offset="0.648432" stop-color="#ECD8BA"/>
<stop offset="0.780206" stop-color="#D0A568"/>
<stop offset="0.971703" stop-color="#8C5F4C"/>
</linearGradient>
<linearGradient id="paint24_linear_458_4152" x1="298.172" y1="398" x2="298.172" y2="508.646" gradientUnits="userSpaceOnUse">
<stop stop-color="#DDBFA9"/>
<stop offset="0.22229" stop-color="#DDBFA9"/>
<stop offset="0.669825" stop-color="#EBD4C4"/>
<stop offset="0.898796" stop-color="#DDBFA9"/>
<stop offset="1" stop-color="#DDBFA9"/>
</linearGradient>
<linearGradient id="paint25_linear_458_4152" x1="343.548" y1="469.339" x2="303.42" y2="438.246" gradientUnits="userSpaceOnUse">
<stop stop-color="#ECD8BA"/>
<stop offset="0.309893" stop-color="#EBD3AE"/>
<stop offset="0.523799" stop-color="#E2C69C"/>
<stop offset="0.77229" stop-color="#E3C8A0"/>
<stop offset="1" stop-color="#ECD8BA"/>
</linearGradient>
<linearGradient id="paint26_linear_458_4152" x1="298.67" y1="482" x2="298.67" y2="498.95" gradientUnits="userSpaceOnUse">
<stop stop-color="#FAECD8"/>
<stop offset="0.491891" stop-color="#F9EBD7"/>
<stop offset="1" stop-color="#ECD5B4"/>
</linearGradient>
<linearGradient id="paint27_linear_458_4152" x1="294.941" y1="482.434" x2="294.941" y2="495.962" gradientUnits="userSpaceOnUse">
<stop stop-color="#F9EBD7"/>
<stop offset="0.479167" stop-color="#FAEDD9"/>
<stop offset="1" stop-color="#F8E9D4"/>
</linearGradient>
<linearGradient id="paint28_linear_458_4152" x1="302.4" y1="482.434" x2="302.4" y2="495.962" gradientUnits="userSpaceOnUse">
<stop stop-color="#FAEDD8"/>
<stop offset="0.479167" stop-color="#FAECD8"/>
<stop offset="1" stop-color="#EAD4B2"/>
</linearGradient>
<linearGradient id="paint29_linear_458_4152" x1="297.617" y1="496.907" x2="286.341" y2="498.242" gradientUnits="userSpaceOnUse">
<stop stop-color="#E5CBA6"/>
<stop offset="0.309893" stop-color="#FAEDDA"/>
<stop offset="0.523799" stop-color="#F3E2C9"/>
<stop offset="0.613641" stop-color="#EFDCC0"/>
<stop offset="1" stop-color="#EFDCC0"/>
</linearGradient>
<linearGradient id="paint30_linear_458_4152" x1="246.672" y1="190" x2="359.172" y2="413.5" gradientUnits="userSpaceOnUse">
<stop stop-color="#FFF5DE"/>
<stop offset="1" stop-color="#CFA365"/>
</linearGradient>
<linearGradient id="paint31_linear_458_4152" x1="245.672" y1="208.5" x2="342.672" y2="387.5" gradientUnits="userSpaceOnUse">
<stop stop-color="#D2A86C"/>
<stop offset="1" stop-color="#F8E6C0"/>
</linearGradient>
<linearGradient id="paint32_linear_458_4152" x1="256.172" y1="202" x2="360.672" y2="390" gradientUnits="userSpaceOnUse">
<stop stop-color="#FFF6E7"/>
<stop offset="1" stop-color="#FFF8EC"/>
</linearGradient>
<radialGradient id="paint33_radial_458_4152" cx="0" cy="0" r="1" gradientUnits="userSpaceOnUse" gradientTransform="translate(299.672 300.195) rotate(90) scale(113.195 97.5)">
<stop stop-color="#FFE4BA"/>
<stop offset="1" stop-color="#DEA44D"/>
</radialGradient>
<linearGradient id="paint34_linear_458_4152" x1="299.672" y1="182.517" x2="299.672" y2="417.862" gradientUnits="userSpaceOnUse">
<stop stop-color="white"/>
<stop offset="1" stop-color="#F2EDED" stop-opacity="0"/>
</linearGradient>
<linearGradient id="paint35_linear_458_4152" x1="179.297" y1="203.81" x2="296.97" y2="407.625" gradientUnits="userSpaceOnUse">
<stop stop-color="white"/>
<stop offset="1" stop-color="#F2EDED" stop-opacity="0"/>
</linearGradient>
<linearGradient id="paint36_linear_458_4152" x1="411.28" y1="203.81" x2="293.608" y2="407.625" gradientUnits="userSpaceOnUse">
<stop stop-color="white"/>
<stop offset="1" stop-color="#F2EDED" stop-opacity="0"/>
</linearGradient>
<linearGradient id="paint37_linear_458_4152" x1="299.672" y1="341.655" x2="299.084" y2="405.533" gradientUnits="userSpaceOnUse">
<stop stop-color="white" stop-opacity="0"/>
<stop offset="1" stop-color="#FFF1E3"/>
</linearGradient>
<linearGradient id="paint38_linear_458_4152" x1="295.126" y1="156.13" x2="327.203" y2="158.476" gradientUnits="userSpaceOnUse">
<stop offset="0.168737" stop-color="#FDF2D9"/>
<stop offset="0.304755" stop-color="#FFF7E3"/>
<stop offset="0.451944" stop-color="#FFFCF4"/>
<stop offset="0.581036" stop-color="#FFF1D9"/>
<stop offset="0.705947" stop-color="#F3E0BF"/>
<stop offset="0.940592" stop-color="#FFF5DE"/>
</linearGradient>
<linearGradient id="paint39_linear_458_4152" x1="315.118" y1="265.12" x2="324.035" y2="266.103" gradientUnits="userSpaceOnUse">
<stop offset="0.168737" stop-color="#FDF2D9"/>
<stop offset="0.304755" stop-color="#FFF7E3"/>
<stop offset="0.451944" stop-color="#FFFCF4"/>
<stop offset="0.581036" stop-color="#FFF1D9"/>
<stop offset="0.705947" stop-color="#F3E0BF"/>
<stop offset="0.940592" stop-color="#FFF5DE"/>
</linearGradient>
<linearGradient id="paint40_linear_458_4152" x1="281.4" y1="270.807" x2="290.977" y2="272.46" gradientUnits="userSpaceOnUse">
<stop offset="0.168737" stop-color="#FDF2D9"/>
<stop offset="0.304755" stop-color="#FFF7E3"/>
<stop offset="0.451944" stop-color="#FFFCF4"/>
<stop offset="0.581036" stop-color="#FFF1D9"/>
<stop offset="0.705947" stop-color="#F3E0BF"/>
<stop offset="0.940592" stop-color="#FFF5DE"/>
</linearGradient>
<linearGradient id="paint41_linear_458_4152" x1="311.595" y1="225.041" x2="320.711" y2="227.16" gradientUnits="userSpaceOnUse">
<stop offset="0.168737" stop-color="#FDF2D9"/>
<stop offset="0.304755" stop-color="#FFF7E3"/>
<stop offset="0.451944" stop-color="#FFFCF4"/>
<stop offset="0.581036" stop-color="#FFF1D9"/>
<stop offset="0.705947" stop-color="#F3E0BF"/>
<stop offset="0.940592" stop-color="#FFF5DE"/>
</linearGradient>
<linearGradient id="paint42_linear_458_4152" x1="308.238" y1="205.307" x2="316.342" y2="206.831" gradientUnits="userSpaceOnUse">
<stop offset="0.168737" stop-color="#FDF2D9"/>
<stop offset="0.304755" stop-color="#FFF7E3"/>
<stop offset="0.451944" stop-color="#FFFCF4"/>
<stop offset="0.581036" stop-color="#FFF1D9"/>
<stop offset="0.705947" stop-color="#F3E0BF"/>
<stop offset="0.940592" stop-color="#FFF5DE"/>
</linearGradient>
<linearGradient id="paint43_linear_458_4152" x1="299.424" y1="373.254" x2="305.466" y2="373.81" gradientUnits="userSpaceOnUse">
<stop offset="0.168737" stop-color="#FDF2D9"/>
<stop offset="0.304755" stop-color="#FFF7E3"/>
<stop offset="0.451944" stop-color="#FFFCF4"/>
<stop offset="0.581036" stop-color="#FFF1D9"/>
<stop offset="0.705947" stop-color="#F3E0BF"/>
<stop offset="0.940592" stop-color="#FFF5DE"/>
</linearGradient>
<linearGradient id="paint44_linear_458_4152" x1="304.836" y1="375.212" x2="313.164" y2="376.344" gradientUnits="userSpaceOnUse">
<stop offset="0.168737" stop-color="#FDF2D9"/>
<stop offset="0.304755" stop-color="#FFF7E3"/>
<stop offset="0.451944" stop-color="#FFFCF4"/>
<stop offset="0.581036" stop-color="#FFF1D9"/>
<stop offset="0.705947" stop-color="#F3E0BF"/>
<stop offset="0.940592" stop-color="#FFF5DE"/>
</linearGradient>
<linearGradient id="paint45_linear_458_4152" x1="299.108" y1="378.529" x2="304.07" y2="383.053" gradientUnits="userSpaceOnUse">
<stop offset="0.168737" stop-color="#FDF2D9"/>
<stop offset="0.304755" stop-color="#FFF7E3"/>
<stop offset="0.451944" stop-color="#FFFCF4"/>
<stop offset="0.581036" stop-color="#FFF1D9"/>
<stop offset="0.705947" stop-color="#F3E0BF"/>
<stop offset="0.940592" stop-color="#FFF5DE"/>
</linearGradient>
<linearGradient id="paint46_linear_458_4152" x1="299.424" y1="394.766" x2="305.146" y2="396.224" gradientUnits="userSpaceOnUse">
<stop offset="0.168737" stop-color="#FDF2D9"/>
<stop offset="0.304755" stop-color="#FFF7E3"/>
<stop offset="0.451944" stop-color="#FFFCF4"/>
<stop offset="0.581036" stop-color="#FFF1D9"/>
<stop offset="0.705947" stop-color="#F3E0BF"/>
<stop offset="0.940592" stop-color="#FFF5DE"/>
</linearGradient>
<linearGradient id="paint47_linear_458_4152" x1="299.158" y1="377.13" x2="303.452" y2="379.643" gradientUnits="userSpaceOnUse">
<stop offset="0.168737" stop-color="#FDF2D9"/>
<stop offset="0.304755" stop-color="#FFF7E3"/>
<stop offset="0.451944" stop-color="#FFFCF4"/>
<stop offset="0.581036" stop-color="#FFF1D9"/>
<stop offset="0.705947" stop-color="#F3E0BF"/>
<stop offset="0.940592" stop-color="#FFF5DE"/>
</linearGradient>
<clipPath id="clip0_458_4152">
<rect width="600" height="600" fill="white"/>
</clipPath>
</defs>
</svg>
