<svg width="600" height="576" viewBox="0 0 600 576" fill="none" xmlns="http://www.w3.org/2000/svg">
<path d="M362.075 280.163L555.71 380.839L517.194 447.552L333.187 330.197L362.075 280.163Z" fill="url(#paint0_linear_458_4153)"/>
<path d="M329.903 334.069L339.532 552.101H262.498L272.128 334.069H329.903Z" fill="url(#paint1_linear_458_4153)"/>
<path d="M270.629 218.032L261 0L338.033 0L328.404 218.032H270.629Z" fill="url(#paint2_linear_458_4153)"/>
<path d="M267.523 330.889L83.5166 448.244L44.9999 381.531L238.636 280.854L267.523 330.889Z" fill="url(#paint3_linear_458_4153)"/>
<path d="M362.075 272.081L555.71 171.405L517.194 104.692L333.187 222.047L362.075 272.081Z" fill="url(#paint4_linear_458_4153)"/>
<path d="M267.523 221.355L83.5166 104L44.9999 170.713L238.636 271.39L267.523 221.355Z" fill="url(#paint5_linear_458_4153)"/>
<g opacity="0.3" filter="url(#filter0_f_458_4153)">
<circle cx="227.615" cy="116.615" r="7.61466" fill="#FFEBC4"/>
</g>
<g filter="url(#filter1_f_458_4153)">
<circle cx="195.538" cy="392.538" r="2.53822" fill="#FFEBC4"/>
</g>
<g opacity="0.3" filter="url(#filter2_f_458_4153)">
<circle cx="216.538" cy="160.538" r="2.53822" fill="#FFEBC4"/>
</g>
<g filter="url(#filter3_f_458_4153)">
<circle cx="430.538" cy="309.538" r="2.53822" fill="#FFEBC4"/>
</g>
<g filter="url(#filter4_f_458_4153)">
<circle cx="124.461" cy="287.134" r="8.46073" fill="#FFDDAA"/>
</g>
<g opacity="0.6" filter="url(#filter5_f_458_4153)">
<circle cx="510.769" cy="250.769" r="6.76858" fill="#FFDDAA"/>
</g>
<g opacity="0.8" filter="url(#filter6_f_458_4153)">
<circle cx="230.769" cy="471.769" r="6.76858" fill="#FFDDAA"/>
</g>
<g filter="url(#filter7_dd_458_4153)">
<path d="M196.445 229.738L204.357 189.209L89.0342 166.695C84.089 192.026 99.0295 210.72 113.579 213.561L196.445 229.738Z" fill="url(#paint6_linear_458_4153)"/>
<path d="M195.272 230.528L203.184 189.999L90.8057 168.06C85.8606 193.391 100.801 212.085 115.351 214.925L195.272 230.528Z" stroke="url(#paint7_linear_458_4153)" stroke-width="2.29412"/>
<path d="M197.208 267.585L205.12 227.056L109.426 208.375C104.481 233.705 119.422 252.4 133.971 255.24L197.208 267.585Z" fill="url(#paint8_linear_458_4153)"/>
<path d="M197.208 267.585L205.12 227.056L109.426 208.375C104.481 233.705 119.422 252.4 133.971 255.24L197.208 267.585Z" stroke="url(#paint9_linear_458_4153)" stroke-width="2.29412"/>
<path d="M223.949 310.205L231.861 269.676L136.168 250.994C131.222 276.325 146.163 295.019 160.713 297.86L223.949 310.205Z" fill="url(#paint10_linear_458_4153)"/>
<path d="M223.949 310.205L231.861 269.676L136.168 250.994C131.222 276.325 146.163 295.019 160.713 297.86L223.949 310.205Z" stroke="url(#paint11_linear_458_4153)" stroke-width="2.29412"/>
<g filter="url(#filter8_d_458_4153)">
<path d="M202.172 411.716V323H253.672V441.5L203.739 414.352C202.774 413.827 202.172 412.816 202.172 411.716Z" fill="#ECD8BA"/>
<path d="M202.172 411.716V323H253.672V441.5L203.739 414.352C202.774 413.827 202.172 412.816 202.172 411.716Z" stroke="url(#paint12_linear_458_4153)"/>
</g>
<path fill-rule="evenodd" clip-rule="evenodd" d="M207.841 409.139V368H207.172V409.697L207.452 409.743C208.377 409.897 209.405 410.444 210.245 411.244C211.084 412.043 211.705 413.066 211.859 414.144L211.885 414.323L238.952 427V381.726H238.283V425.948L212.492 413.868C212.272 412.676 211.58 411.592 210.706 410.76C209.869 409.962 208.839 409.372 207.841 409.139Z" fill="url(#paint13_linear_458_4153)"/>
<path fill-rule="evenodd" clip-rule="evenodd" d="M238.246 423.5C238.967 422.28 239.008 420.55 238.952 419.432L238.284 419.466C238.34 420.578 238.281 422.126 237.67 423.159C237.374 423.66 236.954 424.028 236.351 424.18C235.737 424.334 234.889 424.274 233.722 423.82L233.479 424.444C234.721 424.927 235.718 425.029 236.514 424.829C237.321 424.626 237.876 424.125 238.246 423.5Z" fill="#D4B195"/>
<g filter="url(#filter9_d_458_4153)">
<path d="M396.672 411.716V323H345.172V441.5L395.105 414.352C396.071 413.827 396.672 412.816 396.672 411.716Z" fill="#ECD8BA"/>
<path d="M396.672 411.716V323H345.172V441.5L395.105 414.352C396.071 413.827 396.672 412.816 396.672 411.716Z" stroke="url(#paint14_linear_458_4153)"/>
</g>
<path fill-rule="evenodd" clip-rule="evenodd" d="M391.004 409.139V368H391.673V409.697L391.393 409.743C390.468 409.897 389.44 410.444 388.6 411.244C387.761 412.043 387.14 413.066 386.986 414.144L386.96 414.323L359.893 427V381.726H360.562V425.948L386.353 413.868C386.573 412.676 387.265 411.592 388.138 410.76C388.976 409.962 390.006 409.372 391.004 409.139Z" fill="url(#paint15_linear_458_4153)"/>
<path fill-rule="evenodd" clip-rule="evenodd" d="M360.599 423.5C359.878 422.28 359.836 420.55 359.892 419.432L360.561 419.466C360.505 420.578 360.564 422.126 361.175 423.159C361.471 423.66 361.89 424.028 362.494 424.18C363.108 424.334 363.956 424.274 365.123 423.82L365.365 424.444C364.124 424.927 363.127 425.029 362.331 424.829C361.524 424.626 360.969 424.125 360.599 423.5Z" fill="#D4B195"/>
<path d="M401.711 231.043L393.799 190.514L509.122 168C514.067 193.331 499.127 212.025 484.577 214.865L401.711 231.043Z" fill="url(#paint16_linear_458_4153)"/>
<path d="M402.884 231.833L394.972 191.304L507.351 169.365C512.296 194.695 497.355 213.39 482.805 216.23L402.884 231.833Z" stroke="url(#paint17_linear_458_4153)" stroke-width="2.29412"/>
<path d="M400.949 268.89L393.036 228.361L488.73 209.679C493.675 235.01 478.735 253.704 464.185 256.545L400.949 268.89Z" fill="url(#paint18_linear_458_4153)"/>
<path d="M400.949 268.89L393.036 228.361L488.73 209.679C493.675 235.01 478.735 253.704 464.185 256.545L400.949 268.89Z" stroke="url(#paint19_linear_458_4153)" stroke-width="2.29412"/>
<path d="M374.208 311.51L366.295 270.981L461.989 252.299C466.934 277.629 451.993 296.324 437.444 299.164L374.208 311.51Z" fill="url(#paint20_linear_458_4153)"/>
<path d="M374.208 311.51L366.295 270.981L461.989 252.299C466.934 277.629 451.993 296.324 437.444 299.164L374.208 311.51Z" stroke="url(#paint21_linear_458_4153)" stroke-width="2.29412"/>
<g filter="url(#filter10_d_458_4153)">
<path d="M244.172 318H354.172V457.686L299.784 485.333C298.96 485.752 297.986 485.75 297.163 485.329L244.172 458.166V318Z" fill="url(#paint22_linear_458_4153)"/>
<path d="M244.172 318H354.172V457.686L299.784 485.333C298.96 485.752 297.986 485.75 297.163 485.329L244.172 458.166V318Z" stroke="url(#paint23_linear_458_4153)" stroke-width="2"/>
</g>
<path fill-rule="evenodd" clip-rule="evenodd" d="M315.172 476.511L299.784 484.333C298.96 484.752 297.986 484.75 297.163 484.329L281.172 476.132V374H315.172V476.511Z" fill="url(#paint24_linear_458_4153)"/>
<path fill-rule="evenodd" clip-rule="evenodd" d="M250.172 393H251.766V455.52L298.777 479.821L346.579 455.517V393H348.172V456.084L298.771 481L250.172 456.081V393Z" fill="url(#paint25_linear_458_4153)"/>
<path fill-rule="evenodd" clip-rule="evenodd" d="M299.105 458V476.143H298.235V458H299.105Z" fill="url(#paint26_linear_458_4153)"/>
<path fill-rule="evenodd" clip-rule="evenodd" d="M296.065 469.704C294.335 471.7 292.227 472.144 290.776 471.902L290.919 471.044C292.075 471.237 293.879 470.899 295.408 469.135C296.944 467.364 298.236 464.114 298.236 458.434H299.105C299.105 464.229 297.789 467.716 296.065 469.704Z" fill="url(#paint27_linear_458_4153)"/>
<path fill-rule="evenodd" clip-rule="evenodd" d="M301.276 469.704C303.006 471.7 305.114 472.144 306.565 471.902L306.422 471.044C305.266 471.237 303.462 470.899 301.932 469.135C300.397 467.364 299.105 464.114 299.105 458.434H298.236C298.236 464.229 299.552 467.716 301.276 469.704Z" fill="url(#paint28_linear_458_4153)"/>
<path fill-rule="evenodd" clip-rule="evenodd" d="M298.487 476.538L288.672 471.039L290.845 471.039L298.669 475.666L306.492 471H308.41L298.848 476.539C298.734 476.591 298.602 476.591 298.487 476.538Z" fill="url(#paint29_linear_458_4153)"/>
<g filter="url(#filter11_d_458_4153)">
<path d="M291.049 135.419L183.049 194.17C177.578 197.146 174.172 202.875 174.172 209.103L174.172 343.402C174.172 349.63 177.578 355.359 183.049 358.335L291.049 417.086C296.114 419.841 302.231 419.841 307.296 417.086L415.296 358.335C420.767 355.359 424.172 349.629 424.172 343.402L424.172 209.103C424.172 202.875 420.767 197.146 415.296 194.17L307.296 135.419C302.231 132.664 296.114 132.664 291.049 135.419Z" fill="url(#paint30_linear_458_4153)"/>
<path d="M290.929 157.403L202.015 205.771C196.565 208.736 193.172 214.444 193.172 220.648L193.172 331.352C193.172 337.556 196.565 343.264 202.015 346.229L290.929 394.597C295.976 397.343 302.069 397.343 307.116 394.597L396.03 346.229C401.48 343.264 404.873 337.556 404.873 331.352L404.873 220.648C404.873 214.444 401.48 208.736 396.03 205.771L307.116 157.403C302.069 154.657 295.976 154.657 290.929 157.403Z" fill="url(#paint31_linear_458_4153)"/>
<g filter="url(#filter12_f_458_4153)">
<path d="M290.929 157.403L202.015 205.771C196.565 208.736 193.172 214.444 193.172 220.648L193.172 331.352C193.172 337.556 196.565 343.264 202.015 346.229L290.929 394.597C295.976 397.343 302.069 397.343 307.116 394.597L396.03 346.229C401.48 343.264 404.873 337.556 404.873 331.352L404.873 220.648C404.873 214.444 401.48 208.736 396.03 205.771L307.116 157.403C302.069 154.657 295.976 154.657 290.929 157.403Z" stroke="url(#paint32_linear_458_4153)"/>
</g>
<g opacity="0.5">
<mask id="mask0_458_4153" style="mask-type:alpha" maskUnits="userSpaceOnUse" x="202" y="165" width="196" height="223">
<path d="M291.979 167.181L210.589 211.417C205.402 214.236 202.172 219.667 202.172 225.571L202.172 326.819C202.172 332.723 205.402 338.154 210.589 340.974L291.979 385.209C296.777 387.816 302.568 387.816 307.365 385.209L388.755 340.974C393.943 338.154 397.172 332.723 397.172 326.819L397.172 225.571C397.172 219.667 393.943 214.236 388.755 211.417L307.365 167.181C302.568 164.574 296.777 164.574 291.979 167.181Z" fill="#A6D3DE"/>
</mask>
<g mask="url(#mask0_458_4153)">
<path d="M291.979 167.181L210.589 211.417C205.402 214.236 202.172 219.667 202.172 225.571L202.172 326.819C202.172 332.723 205.402 338.154 210.589 340.974L291.979 385.209C296.777 387.816 302.568 387.816 307.365 385.209L388.755 340.974C393.943 338.154 397.172 332.723 397.172 326.819L397.172 225.571C397.172 219.667 393.943 214.236 388.755 211.417L307.365 167.181C302.568 164.574 296.777 164.574 291.979 167.181Z" fill="url(#paint33_radial_458_4153)"/>
<path opacity="0.5" d="M283.373 393.862L279.5 158.517H319.845L315.972 393.862H283.373Z" fill="url(#paint34_linear_458_4153)"/>
<path opacity="0.5" d="M282.854 391.775L161.828 189.896L196.767 169.724L311.085 375.475L282.854 391.775Z" fill="url(#paint35_linear_458_4153)"/>
<path opacity="0.5" d="M279.492 375.475L393.811 169.724L428.75 189.896L307.724 391.774L279.492 375.475Z" fill="url(#paint36_linear_458_4153)"/>
<rect x="202.172" y="262.741" width="195" height="126.638" fill="url(#paint37_linear_458_4153)"/>
<g filter="url(#filter13_i_458_4153)">
<path d="M291.979 167.181L210.589 211.417C205.402 214.236 202.172 219.667 202.172 225.571L202.172 326.819C202.172 332.723 205.402 338.154 210.589 340.974L291.979 385.209C296.777 387.816 302.568 387.816 307.365 385.209L388.755 340.974C393.943 338.154 397.172 332.723 397.172 326.819L397.172 225.571C397.172 219.667 393.943 214.236 388.755 211.417L307.365 167.181C302.568 164.574 296.777 164.574 291.979 167.181Z" fill="#6052B4" fill-opacity="0.01"/>
</g>
</g>
</g>
</g>
</g>
<g filter="url(#filter14_d_458_4153)">
<g filter="url(#filter15_d_458_4153)">
<path fill-rule="evenodd" clip-rule="evenodd" d="M298.151 177.233C300.643 175.541 307.766 183.329 311.553 192.116C309.79 194.848 307.757 198.01 305.454 201.601C307.342 199.033 309.892 196.847 313.105 195.043C311.765 198.402 316.298 206.822 316.227 208.871C316.179 210.237 313.657 213.791 308.661 219.534C310.314 218.001 312.58 215.796 315.458 212.921L316.108 212.271C319.411 229.527 321.064 257.434 319.449 263.414C317.834 269.393 314.101 270.17 310.044 282.69C311.948 279.698 314.543 276.244 317.828 272.328C317.349 278.749 315.446 284.756 312.119 290.35C307.29 298.472 302.781 303.314 302.217 311.647C302.217 311.647 301.517 325.025 301.517 331.715C301.517 336.096 301.706 356 301.706 356L297.83 355.719C297.83 355.719 298.017 335.719 298.017 331.301C298.017 324.227 297.317 310.079 297.317 310.079C297.118 309.324 296.906 308.603 296.684 307.917C294.191 300.236 285.901 293.805 283.301 285.64C281.568 280.197 279.761 274.065 277.88 267.244C280.809 268.038 283.727 269.876 286.636 272.76C284.712 267.157 279.829 260.34 277 253.179C279.633 239.588 278.262 217.038 283.787 206.187C285.834 191.801 295.66 178.924 298.151 177.233Z" fill="url(#paint38_linear_458_4153)"/>
<mask id="mask1_458_4153" style="mask-type:alpha" maskUnits="userSpaceOnUse" x="277" y="177" width="44" height="179">
<path fill-rule="evenodd" clip-rule="evenodd" d="M298.151 177.233C300.643 175.541 307.766 183.329 311.553 192.116C309.79 194.848 307.757 198.01 305.454 201.601C307.342 199.033 309.892 196.847 313.105 195.043C311.765 198.402 316.298 206.822 316.227 208.871C316.179 210.237 313.657 213.791 308.661 219.534C310.314 218.001 312.58 215.796 315.458 212.921L316.108 212.271C319.411 229.527 321.064 257.434 319.449 263.414C317.834 269.393 314.101 270.17 310.044 282.69C311.948 279.698 314.543 276.244 317.828 272.328C317.349 278.749 315.446 284.756 312.119 290.35C307.29 298.472 302.781 303.314 302.217 311.647C302.217 311.647 301.517 325.025 301.517 331.715C301.517 336.096 301.706 356 301.706 356L297.83 355.719C297.83 355.719 298.017 335.719 298.017 331.301C298.017 324.227 297.317 310.079 297.317 310.079C297.118 309.324 296.906 308.603 296.684 307.917C294.191 300.236 285.901 293.805 283.301 285.64C281.568 280.197 279.761 274.065 277.88 267.244C280.809 268.038 283.727 269.876 286.636 272.76C284.712 267.157 279.829 260.34 277 253.179C279.633 239.588 278.262 217.038 283.787 206.187C285.834 191.801 295.66 178.924 298.151 177.233Z" fill="white"/>
</mask>
<g mask="url(#mask1_458_4153)">
<path fill-rule="evenodd" clip-rule="evenodd" d="M320.075 252.023C320.075 262.369 310.857 273.528 310.044 282.69C316.227 272.655 318.067 268.937 321 267.357C323.933 265.776 320.075 241.678 320.075 252.023Z" fill="url(#paint39_linear_458_4153)"/>
<path fill-rule="evenodd" clip-rule="evenodd" d="M286.636 272.76L289.03 275.83C289.03 275.83 287.269 269.391 285.197 266.5C283.125 263.609 278.02 255.286 277 253.179C275.98 251.071 275.856 256.974 275.856 256.974L286.636 272.76Z" fill="url(#paint40_linear_458_4153)"/>
<path fill-rule="evenodd" clip-rule="evenodd" d="M315.587 205.965C316.21 207.685 314.876 210.479 312.352 214.156C309.827 217.834 306.193 222.028 306.193 222.028L308.661 219.534L317.346 210.275L319.029 206.648C319.029 206.648 314.965 204.244 315.587 205.965Z" fill="url(#paint41_linear_458_4153)"/>
<path fill-rule="evenodd" clip-rule="evenodd" d="M306.194 200.703L303.521 203.957C303.521 203.957 308.251 196.509 309.032 194.115C309.814 191.721 311.171 190.133 310.102 186.788C309.032 183.443 314.729 191.984 314.729 191.984L308.551 197.73L306.194 200.703Z" fill="url(#paint42_linear_458_4153)"/>
<path fill-rule="evenodd" clip-rule="evenodd" d="M297 362.302C297 362.302 297.839 341.049 298 331.592C298.234 317.847 299 185.031 299 185.031C299 185.031 301.533 304.092 301.533 332.472C301.533 360.852 307.817 366.628 307.817 366.628L297 364.47L297 362.302Z" fill="#EAC893"/>
</g>
</g>
<g filter="url(#filter16_d_458_4153)">
<path fill-rule="evenodd" clip-rule="evenodd" d="M299.413 356.252C298.804 356.061 298.177 355.864 297.641 357.566C297.641 368.692 296 373.2 296 373.2C296 373.2 300.069 379.307 300.069 382.911C300.069 379.416 304.138 373.2 304.138 373.2C304.138 373.2 302.497 367.681 302.497 357.566C301.9 355.671 301.308 355.915 300.669 356.179C300.474 356.26 300.274 356.342 300.069 356.366C299.856 356.39 299.636 356.321 299.413 356.252ZM301.031 365.692C301.031 366.251 300.579 366.704 300.02 366.704C299.461 366.704 299.008 366.251 299.008 365.692C299.008 365.134 299.461 364.681 300.02 364.681C300.579 364.681 301.031 365.134 301.031 365.692Z" fill="url(#paint43_linear_458_4153)"/>
<mask id="mask2_458_4153" style="mask-type:alpha" maskUnits="userSpaceOnUse" x="296" y="356" width="9" height="27">
<path fill-rule="evenodd" clip-rule="evenodd" d="M299.413 356.252C298.804 356.061 298.177 355.864 297.641 357.566C297.641 368.692 296 373.2 296 373.2C296 373.2 300.069 379.307 300.069 382.911C300.069 379.416 304.138 373.2 304.138 373.2C304.138 373.2 302.497 367.681 302.497 357.566C301.9 355.671 301.308 355.915 300.669 356.179C300.474 356.26 300.274 356.342 300.069 356.366C299.856 356.39 299.636 356.321 299.413 356.252ZM301.031 365.692C301.031 366.251 300.579 366.704 300.02 366.704C299.461 366.704 299.008 366.251 299.008 365.692C299.008 365.134 299.461 364.681 300.02 364.681C300.579 364.681 301.031 365.134 301.031 365.692Z" fill="white"/>
</mask>
<g mask="url(#mask2_458_4153)">
<path fill-rule="evenodd" clip-rule="evenodd" d="M300.069 357.566H311.398V382.911H300.069V357.566Z" fill="url(#paint44_linear_458_4153)"/>
<rect opacity="0.6" x="294" y="355.543" width="12.138" height="4.046" fill="url(#paint45_linear_458_4153)"/>
</g>
<path fill-rule="evenodd" clip-rule="evenodd" d="M300.069 379.631C300.832 376.491 304.138 373.2 304.138 373.2C304.138 373.2 300.069 379.416 300.069 382.911C300.069 379.307 296 373.2 296 373.2C296 373.2 299.183 376.526 300.069 379.631Z" fill="url(#paint46_linear_458_4153)"/>
<mask id="mask3_458_4153" style="mask-type:alpha" maskUnits="userSpaceOnUse" x="296" y="373" width="9" height="10">
<path fill-rule="evenodd" clip-rule="evenodd" d="M300.069 379.631C300.832 376.491 304.138 373.2 304.138 373.2C304.138 373.2 300.069 379.416 300.069 382.911C300.069 379.307 296 373.2 296 373.2C296 373.2 299.183 376.526 300.069 379.631Z" fill="white"/>
</mask>
<g mask="url(#mask3_458_4153)">
</g>
</g>
<g filter="url(#filter17_d_458_4153)">
<rect x="295.917" y="354.133" width="7.7" height="4" rx="1.4" fill="url(#paint47_linear_458_4153)"/>
</g>
<path fill-rule="evenodd" clip-rule="evenodd" d="M296.16 355.175C296.16 354.72 296.529 354.351 296.985 354.351H302.419C302.874 354.351 303.244 354.72 303.244 355.175C303.244 355.631 302.874 356 302.419 356H296.985C296.529 356 296.16 355.631 296.16 355.175Z" fill="white"/>
</g>
<defs>
<filter id="filter0_f_458_4153" x="199.694" y="88.6942" width="55.841" height="55.8408" filterUnits="userSpaceOnUse" color-interpolation-filters="sRGB">
<feFlood flood-opacity="0" result="BackgroundImageFix"/>
<feBlend mode="normal" in="SourceGraphic" in2="BackgroundImageFix" result="shape"/>
<feGaussianBlur stdDeviation="10.1529" result="effect1_foregroundBlur_458_4153"/>
</filter>
<filter id="filter1_f_458_4153" x="191.308" y="388.308" width="8.46095" height="8.46071" filterUnits="userSpaceOnUse" color-interpolation-filters="sRGB">
<feFlood flood-opacity="0" result="BackgroundImageFix"/>
<feBlend mode="normal" in="SourceGraphic" in2="BackgroundImageFix" result="shape"/>
<feGaussianBlur stdDeviation="0.846073" result="effect1_foregroundBlur_458_4153"/>
</filter>
<filter id="filter2_f_458_4153" x="206" y="150" width="21.0767" height="21.0764" filterUnits="userSpaceOnUse" color-interpolation-filters="sRGB">
<feFlood flood-opacity="0" result="BackgroundImageFix"/>
<feBlend mode="normal" in="SourceGraphic" in2="BackgroundImageFix" result="shape"/>
<feGaussianBlur stdDeviation="4" result="effect1_foregroundBlur_458_4153"/>
</filter>
<filter id="filter3_f_458_4153" x="422" y="301" width="17.0767" height="17.0764" filterUnits="userSpaceOnUse" color-interpolation-filters="sRGB">
<feFlood flood-opacity="0" result="BackgroundImageFix"/>
<feBlend mode="normal" in="SourceGraphic" in2="BackgroundImageFix" result="shape"/>
<feGaussianBlur stdDeviation="3" result="effect1_foregroundBlur_458_4153"/>
</filter>
<filter id="filter4_f_458_4153" x="96" y="258.673" width="56.9214" height="56.9215" filterUnits="userSpaceOnUse" color-interpolation-filters="sRGB">
<feFlood flood-opacity="0" result="BackgroundImageFix"/>
<feBlend mode="normal" in="SourceGraphic" in2="BackgroundImageFix" result="shape"/>
<feGaussianBlur stdDeviation="10" result="effect1_foregroundBlur_458_4153"/>
</filter>
<filter id="filter5_f_458_4153" x="487.079" y="227.079" width="47.38" height="47.38" filterUnits="userSpaceOnUse" color-interpolation-filters="sRGB">
<feFlood flood-opacity="0" result="BackgroundImageFix"/>
<feBlend mode="normal" in="SourceGraphic" in2="BackgroundImageFix" result="shape"/>
<feGaussianBlur stdDeviation="8.46073" result="effect1_foregroundBlur_458_4153"/>
</filter>
<filter id="filter6_f_458_4153" x="207.079" y="448.079" width="47.38" height="47.38" filterUnits="userSpaceOnUse" color-interpolation-filters="sRGB">
<feFlood flood-opacity="0" result="BackgroundImageFix"/>
<feBlend mode="normal" in="SourceGraphic" in2="BackgroundImageFix" result="shape"/>
<feGaussianBlur stdDeviation="8.46073" result="effect1_foregroundBlur_458_4153"/>
</filter>
<filter id="filter7_dd_458_4153" x="-3.76735" y="47.6388" width="605.691" height="536.966" filterUnits="userSpaceOnUse" color-interpolation-filters="sRGB">
<feFlood flood-opacity="0" result="BackgroundImageFix"/>
<feColorMatrix in="SourceAlpha" type="matrix" values="0 0 0 0 0 0 0 0 0 0 0 0 0 0 0 0 0 0 127 0" result="hardAlpha"/>
<feOffset/>
<feGaussianBlur stdDeviation="15.306"/>
<feColorMatrix type="matrix" values="0 0 0 0 0.991667 0 0 0 0 0.801597 0 0 0 0 0.516493 0 0 0 1 0"/>
<feBlend mode="normal" in2="BackgroundImageFix" result="effect1_dropShadow_458_4153"/>
<feColorMatrix in="SourceAlpha" type="matrix" values="0 0 0 0 0 0 0 0 0 0 0 0 0 0 0 0 0 0 127 0" result="hardAlpha"/>
<feOffset dy="6.12241"/>
<feGaussianBlur stdDeviation="45.9181"/>
<feColorMatrix type="matrix" values="0 0 0 0 1 0 0 0 0 0.722667 0 0 0 0 0.466667 0 0 0 0.6 0"/>
<feBlend mode="normal" in2="effect1_dropShadow_458_4153" result="effect2_dropShadow_458_4153"/>
<feBlend mode="normal" in="SourceGraphic" in2="effect2_dropShadow_458_4153" result="shape"/>
</filter>
<filter id="filter8_d_458_4153" x="193.672" y="314.5" width="68.5" height="135.841" filterUnits="userSpaceOnUse" color-interpolation-filters="sRGB">
<feFlood flood-opacity="0" result="BackgroundImageFix"/>
<feColorMatrix in="SourceAlpha" type="matrix" values="0 0 0 0 0 0 0 0 0 0 0 0 0 0 0 0 0 0 127 0" result="hardAlpha"/>
<feOffset/>
<feGaussianBlur stdDeviation="4"/>
<feColorMatrix type="matrix" values="0 0 0 0 0.7 0 0 0 0 0.561568 0 0 0 0 0.32375 0 0 0 0.78 0"/>
<feBlend mode="normal" in2="BackgroundImageFix" result="effect1_dropShadow_458_4153"/>
<feBlend mode="normal" in="SourceGraphic" in2="effect1_dropShadow_458_4153" result="shape"/>
</filter>
<filter id="filter9_d_458_4153" x="336.672" y="314.5" width="68.5" height="135.841" filterUnits="userSpaceOnUse" color-interpolation-filters="sRGB">
<feFlood flood-opacity="0" result="BackgroundImageFix"/>
<feColorMatrix in="SourceAlpha" type="matrix" values="0 0 0 0 0 0 0 0 0 0 0 0 0 0 0 0 0 0 127 0" result="hardAlpha"/>
<feOffset/>
<feGaussianBlur stdDeviation="4"/>
<feColorMatrix type="matrix" values="0 0 0 0 0.7 0 0 0 0 0.561568 0 0 0 0 0.32375 0 0 0 0.78 0"/>
<feBlend mode="normal" in2="BackgroundImageFix" result="effect1_dropShadow_458_4153"/>
<feBlend mode="normal" in="SourceGraphic" in2="effect1_dropShadow_458_4153" result="shape"/>
</filter>
<filter id="filter10_d_458_4153" x="235.172" y="309" width="128" height="185.646" filterUnits="userSpaceOnUse" color-interpolation-filters="sRGB">
<feFlood flood-opacity="0" result="BackgroundImageFix"/>
<feColorMatrix in="SourceAlpha" type="matrix" values="0 0 0 0 0 0 0 0 0 0 0 0 0 0 0 0 0 0 127 0" result="hardAlpha"/>
<feOffset/>
<feGaussianBlur stdDeviation="4"/>
<feColorMatrix type="matrix" values="0 0 0 0 0.7 0 0 0 0 0.561568 0 0 0 0 0.32375 0 0 0 0.78 0"/>
<feBlend mode="normal" in2="BackgroundImageFix" result="effect1_dropShadow_458_4153"/>
<feBlend mode="normal" in="SourceGraphic" in2="effect1_dropShadow_458_4153" result="shape"/>
</filter>
<filter id="filter11_d_458_4153" x="168.172" y="133.353" width="262" height="299.8" filterUnits="userSpaceOnUse" color-interpolation-filters="sRGB">
<feFlood flood-opacity="0" result="BackgroundImageFix"/>
<feColorMatrix in="SourceAlpha" type="matrix" values="0 0 0 0 0 0 0 0 0 0 0 0 0 0 0 0 0 0 127 0" result="hardAlpha"/>
<feOffset dy="8"/>
<feGaussianBlur stdDeviation="3"/>
<feColorMatrix type="matrix" values="0 0 0 0 0.4375 0 0 0 0 0.287401 0 0 0 0 0.111198 0 0 0 0.6 0"/>
<feBlend mode="normal" in2="BackgroundImageFix" result="effect1_dropShadow_458_4153"/>
<feBlend mode="normal" in="SourceGraphic" in2="effect1_dropShadow_458_4153" result="shape"/>
</filter>
<filter id="filter12_f_458_4153" x="192.372" y="154.544" width="213.3" height="242.913" filterUnits="userSpaceOnUse" color-interpolation-filters="sRGB">
<feFlood flood-opacity="0" result="BackgroundImageFix"/>
<feBlend mode="normal" in="SourceGraphic" in2="BackgroundImageFix" result="shape"/>
<feGaussianBlur stdDeviation="0.15" result="effect1_foregroundBlur_458_4153"/>
</filter>
<filter id="filter13_i_458_4153" x="202.172" y="165.226" width="195" height="221.939" filterUnits="userSpaceOnUse" color-interpolation-filters="sRGB">
<feFlood flood-opacity="0" result="BackgroundImageFix"/>
<feBlend mode="normal" in="SourceGraphic" in2="BackgroundImageFix" result="shape"/>
<feColorMatrix in="SourceAlpha" type="matrix" values="0 0 0 0 0 0 0 0 0 0 0 0 0 0 0 0 0 0 127 0" result="hardAlpha"/>
<feOffset/>
<feGaussianBlur stdDeviation="6.72414"/>
<feComposite in2="hardAlpha" operator="arithmetic" k2="-1" k3="1"/>
<feColorMatrix type="matrix" values="0 0 0 0 0.458333 0 0 0 0 0.256743 0 0 0 0 0.0706597 0 0 0 1 0"/>
<feBlend mode="normal" in2="shape" result="effect1_innerShadow_458_4153"/>
</filter>
<filter id="filter14_d_458_4153" x="273" y="177" width="51.0747" height="213.911" filterUnits="userSpaceOnUse" color-interpolation-filters="sRGB">
<feFlood flood-opacity="0" result="BackgroundImageFix"/>
<feColorMatrix in="SourceAlpha" type="matrix" values="0 0 0 0 0 0 0 0 0 0 0 0 0 0 0 0 0 0 127 0" result="hardAlpha"/>
<feOffset dy="4"/>
<feGaussianBlur stdDeviation="2"/>
<feColorMatrix type="matrix" values="0 0 0 0 0.795833 0 0 0 0 0.632621 0 0 0 0 0.441024 0 0 0 0.47 0"/>
<feBlend mode="normal" in2="BackgroundImageFix" result="effect1_dropShadow_458_4153"/>
<feBlend mode="normal" in="SourceGraphic" in2="effect1_dropShadow_458_4153" result="shape"/>
</filter>
<filter id="filter15_d_458_4153" x="270.129" y="173.384" width="57.5405" height="193.466" filterUnits="userSpaceOnUse" color-interpolation-filters="sRGB">
<feFlood flood-opacity="0" result="BackgroundImageFix"/>
<feColorMatrix in="SourceAlpha" type="matrix" values="0 0 0 0 0 0 0 0 0 0 0 0 0 0 0 0 0 0 127 0" result="hardAlpha"/>
<feOffset dx="0.361644" dy="3.61644"/>
<feGaussianBlur stdDeviation="3.61644"/>
<feColorMatrix type="matrix" values="0 0 0 0 0.795833 0 0 0 0 0.519745 0 0 0 0 0.195642 0 0 0 0.42 0"/>
<feBlend mode="normal" in2="BackgroundImageFix" result="effect1_dropShadow_458_4153"/>
<feBlend mode="normal" in="SourceGraphic" in2="effect1_dropShadow_458_4153" result="shape"/>
</filter>
<filter id="filter16_d_458_4153" x="289.129" y="352.384" width="22.6039" height="41.3765" filterUnits="userSpaceOnUse" color-interpolation-filters="sRGB">
<feFlood flood-opacity="0" result="BackgroundImageFix"/>
<feColorMatrix in="SourceAlpha" type="matrix" values="0 0 0 0 0 0 0 0 0 0 0 0 0 0 0 0 0 0 127 0" result="hardAlpha"/>
<feOffset dx="0.361644" dy="3.61644"/>
<feGaussianBlur stdDeviation="3.61644"/>
<feColorMatrix type="matrix" values="0 0 0 0 0.795833 0 0 0 0 0.519745 0 0 0 0 0.195642 0 0 0 0.42 0"/>
<feBlend mode="normal" in2="BackgroundImageFix" result="effect1_dropShadow_458_4153"/>
<feBlend mode="normal" in="SourceGraphic" in2="effect1_dropShadow_458_4153" result="shape"/>
</filter>
<filter id="filter17_d_458_4153" x="289.046" y="350.516" width="22.1659" height="18.4658" filterUnits="userSpaceOnUse" color-interpolation-filters="sRGB">
<feFlood flood-opacity="0" result="BackgroundImageFix"/>
<feColorMatrix in="SourceAlpha" type="matrix" values="0 0 0 0 0 0 0 0 0 0 0 0 0 0 0 0 0 0 127 0" result="hardAlpha"/>
<feOffset dx="0.361644" dy="3.61644"/>
<feGaussianBlur stdDeviation="3.61644"/>
<feColorMatrix type="matrix" values="0 0 0 0 0.795833 0 0 0 0 0.519745 0 0 0 0 0.195642 0 0 0 0.42 0"/>
<feBlend mode="normal" in2="BackgroundImageFix" result="effect1_dropShadow_458_4153"/>
<feBlend mode="normal" in="SourceGraphic" in2="effect1_dropShadow_458_4153" result="shape"/>
</filter>
<linearGradient id="paint0_linear_458_4153" x1="536.452" y1="414.196" x2="347.631" y2="305.18" gradientUnits="userSpaceOnUse">
<stop stop-color="#FFF6D6" stop-opacity="0"/>
<stop offset="1" stop-color="#FFEFC5" stop-opacity="0.4"/>
</linearGradient>
<linearGradient id="paint1_linear_458_4153" x1="301.015" y1="552.101" x2="301.015" y2="334.069" gradientUnits="userSpaceOnUse">
<stop stop-color="#FFF6D6" stop-opacity="0"/>
<stop offset="1" stop-color="#FFEFC5" stop-opacity="0.4"/>
</linearGradient>
<linearGradient id="paint2_linear_458_4153" x1="299.517" y1="0" x2="299.517" y2="218.032" gradientUnits="userSpaceOnUse">
<stop stop-color="#FFF6D6" stop-opacity="0"/>
<stop offset="1" stop-color="#FFEFC5" stop-opacity="0.4"/>
</linearGradient>
<linearGradient id="paint3_linear_458_4153" x1="64.2583" y1="414.887" x2="253.079" y2="305.872" gradientUnits="userSpaceOnUse">
<stop stop-color="#FFF6D6" stop-opacity="0"/>
<stop offset="1" stop-color="#FFEFC5" stop-opacity="0.4"/>
</linearGradient>
<linearGradient id="paint4_linear_458_4153" x1="536.452" y1="138.048" x2="347.631" y2="247.064" gradientUnits="userSpaceOnUse">
<stop stop-color="#FFF6D6" stop-opacity="0"/>
<stop offset="1" stop-color="#FFEFC5" stop-opacity="0.4"/>
</linearGradient>
<linearGradient id="paint5_linear_458_4153" x1="64.2583" y1="137.356" x2="253.079" y2="246.372" gradientUnits="userSpaceOnUse">
<stop stop-color="#FFF6D6" stop-opacity="0"/>
<stop offset="1" stop-color="#FFEFC5" stop-opacity="0.4"/>
</linearGradient>
<linearGradient id="paint6_linear_458_4153" x1="139.664" y1="218.653" x2="112.03" y2="177.613" gradientUnits="userSpaceOnUse">
<stop stop-color="#D2A86B"/>
<stop offset="0.875" stop-color="#FFF5DE"/>
</linearGradient>
<linearGradient id="paint7_linear_458_4153" x1="96.4347" y1="169.159" x2="121.171" y2="216.062" gradientUnits="userSpaceOnUse">
<stop stop-color="#FFF5DE"/>
<stop offset="0.378992" stop-color="#F5E3C4"/>
<stop offset="0.480868" stop-color="#E6CA9E"/>
<stop offset="0.729174" stop-color="#D2A86B"/>
</linearGradient>
<linearGradient id="paint8_linear_458_4153" x1="160.056" y1="260.333" x2="132.422" y2="219.292" gradientUnits="userSpaceOnUse">
<stop stop-color="#E0C08E"/>
<stop offset="0.875" stop-color="#FFF5DE"/>
</linearGradient>
<linearGradient id="paint9_linear_458_4153" x1="115.055" y1="209.474" x2="170.672" y2="275.5" gradientUnits="userSpaceOnUse">
<stop stop-color="#FFF5DE"/>
<stop offset="0.378992" stop-color="#FFF5DE"/>
<stop offset="0.480868" stop-color="#EAD2A9"/>
<stop offset="0.729174" stop-color="#D2A86B"/>
</linearGradient>
<linearGradient id="paint10_linear_458_4153" x1="186.797" y1="302.952" x2="159.164" y2="261.911" gradientUnits="userSpaceOnUse">
<stop stop-color="#E0C08E"/>
<stop offset="0.875" stop-color="#FFF5DE"/>
</linearGradient>
<linearGradient id="paint11_linear_458_4153" x1="141.797" y1="252.093" x2="197.414" y2="318.119" gradientUnits="userSpaceOnUse">
<stop stop-color="#FFF5DE"/>
<stop offset="0.378992" stop-color="#FFF5DE"/>
<stop offset="0.480868" stop-color="#EAD2A9"/>
<stop offset="0.729174" stop-color="#D2A86B"/>
</linearGradient>
<linearGradient id="paint12_linear_458_4153" x1="202.172" y1="403.763" x2="255.046" y2="415.71" gradientUnits="userSpaceOnUse">
<stop stop-color="#8D664F"/>
<stop offset="0.208702" stop-color="#C49F7D"/>
<stop offset="0.648432" stop-color="#FFF1DC"/>
<stop offset="0.827985" stop-color="#B38368"/>
<stop offset="0.971703" stop-color="#8C5F4C"/>
</linearGradient>
<linearGradient id="paint13_linear_458_4153" x1="208.672" y1="402" x2="227.798" y2="396.298" gradientUnits="userSpaceOnUse">
<stop stop-color="#C7A383"/>
<stop offset="0.309893" stop-color="#D5B198"/>
<stop offset="0.523799" stop-color="#CBA68C"/>
<stop offset="0.77229" stop-color="#BB9478"/>
<stop offset="1" stop-color="#D7B49B"/>
</linearGradient>
<linearGradient id="paint14_linear_458_4153" x1="396.672" y1="403.763" x2="343.799" y2="415.71" gradientUnits="userSpaceOnUse">
<stop stop-color="#8D664F"/>
<stop offset="0.208702" stop-color="#C49F7D"/>
<stop offset="0.648432" stop-color="#FFF1DC"/>
<stop offset="0.827985" stop-color="#B38368"/>
<stop offset="0.971703" stop-color="#8C5F4C"/>
</linearGradient>
<linearGradient id="paint15_linear_458_4153" x1="390.173" y1="402" x2="371.047" y2="396.298" gradientUnits="userSpaceOnUse">
<stop stop-color="#C7A383"/>
<stop offset="0.309893" stop-color="#D5B198"/>
<stop offset="0.523799" stop-color="#CBA68C"/>
<stop offset="0.77229" stop-color="#BB9478"/>
<stop offset="1" stop-color="#D7B49B"/>
</linearGradient>
<linearGradient id="paint16_linear_458_4153" x1="458.492" y1="219.958" x2="486.126" y2="178.917" gradientUnits="userSpaceOnUse">
<stop stop-color="#D2A86B"/>
<stop offset="0.875" stop-color="#FFF5DE"/>
</linearGradient>
<linearGradient id="paint17_linear_458_4153" x1="501.722" y1="170.464" x2="476.985" y2="217.366" gradientUnits="userSpaceOnUse">
<stop stop-color="#FFF5DE"/>
<stop offset="0.378992" stop-color="#F5E3C4"/>
<stop offset="0.480868" stop-color="#E6CA9E"/>
<stop offset="0.729174" stop-color="#D2A86B"/>
</linearGradient>
<linearGradient id="paint18_linear_458_4153" x1="438.1" y1="261.637" x2="465.734" y2="220.597" gradientUnits="userSpaceOnUse">
<stop stop-color="#E0C08E"/>
<stop offset="0.875" stop-color="#FFF5DE"/>
</linearGradient>
<linearGradient id="paint19_linear_458_4153" x1="483.101" y1="210.778" x2="427.484" y2="276.804" gradientUnits="userSpaceOnUse">
<stop stop-color="#FFF5DE"/>
<stop offset="0.378992" stop-color="#FFF5DE"/>
<stop offset="0.480868" stop-color="#EAD2A9"/>
<stop offset="0.729174" stop-color="#D2A86B"/>
</linearGradient>
<linearGradient id="paint20_linear_458_4153" x1="411.359" y1="304.257" x2="438.993" y2="263.216" gradientUnits="userSpaceOnUse">
<stop stop-color="#E0C08E"/>
<stop offset="0.875" stop-color="#FFF5DE"/>
</linearGradient>
<linearGradient id="paint21_linear_458_4153" x1="456.36" y1="253.398" x2="400.743" y2="319.424" gradientUnits="userSpaceOnUse">
<stop stop-color="#FFF5DE"/>
<stop offset="0.378992" stop-color="#FFF5DE"/>
<stop offset="0.480868" stop-color="#EAD2A9"/>
<stop offset="0.729174" stop-color="#D2A86B"/>
</linearGradient>
<linearGradient id="paint22_linear_458_4153" x1="299.172" y1="392" x2="299.172" y2="486" gradientUnits="userSpaceOnUse">
<stop stop-color="#B58D70"/>
<stop offset="0.2286" stop-color="#B58D70"/>
<stop offset="0.47675" stop-color="#D8B59B"/>
<stop offset="0.88344" stop-color="#B58D70"/>
<stop offset="1" stop-color="#B58D70"/>
</linearGradient>
<linearGradient id="paint23_linear_458_4153" x1="244.172" y1="432.5" x2="350.545" y2="468.71" gradientUnits="userSpaceOnUse">
<stop stop-color="#8D664F"/>
<stop offset="0.208702" stop-color="#FFF5E6"/>
<stop offset="0.648432" stop-color="#ECD8BA"/>
<stop offset="0.780206" stop-color="#D0A568"/>
<stop offset="0.971703" stop-color="#8C5F4C"/>
</linearGradient>
<linearGradient id="paint24_linear_458_4153" x1="298.172" y1="374" x2="298.172" y2="484.646" gradientUnits="userSpaceOnUse">
<stop stop-color="#DDBFA9"/>
<stop offset="0.22229" stop-color="#DDBFA9"/>
<stop offset="0.669825" stop-color="#EBD4C4"/>
<stop offset="0.898796" stop-color="#DDBFA9"/>
<stop offset="1" stop-color="#DDBFA9"/>
</linearGradient>
<linearGradient id="paint25_linear_458_4153" x1="343.548" y1="445.339" x2="303.42" y2="414.246" gradientUnits="userSpaceOnUse">
<stop stop-color="#ECD8BA"/>
<stop offset="0.309893" stop-color="#EBD3AE"/>
<stop offset="0.523799" stop-color="#E2C69C"/>
<stop offset="0.77229" stop-color="#E3C8A0"/>
<stop offset="1" stop-color="#ECD8BA"/>
</linearGradient>
<linearGradient id="paint26_linear_458_4153" x1="298.67" y1="458" x2="298.67" y2="474.95" gradientUnits="userSpaceOnUse">
<stop stop-color="#FAECD8"/>
<stop offset="0.491891" stop-color="#F9EBD7"/>
<stop offset="1" stop-color="#ECD5B4"/>
</linearGradient>
<linearGradient id="paint27_linear_458_4153" x1="294.941" y1="458.434" x2="294.941" y2="471.962" gradientUnits="userSpaceOnUse">
<stop stop-color="#F9EBD7"/>
<stop offset="0.479167" stop-color="#FAEDD9"/>
<stop offset="1" stop-color="#F8E9D4"/>
</linearGradient>
<linearGradient id="paint28_linear_458_4153" x1="302.4" y1="458.434" x2="302.4" y2="471.962" gradientUnits="userSpaceOnUse">
<stop stop-color="#FAEDD8"/>
<stop offset="0.479167" stop-color="#FAECD8"/>
<stop offset="1" stop-color="#EAD4B2"/>
</linearGradient>
<linearGradient id="paint29_linear_458_4153" x1="297.617" y1="472.907" x2="286.341" y2="474.242" gradientUnits="userSpaceOnUse">
<stop stop-color="#E5CBA6"/>
<stop offset="0.309893" stop-color="#FAEDDA"/>
<stop offset="0.523799" stop-color="#F3E2C9"/>
<stop offset="0.613641" stop-color="#EFDCC0"/>
<stop offset="1" stop-color="#EFDCC0"/>
</linearGradient>
<linearGradient id="paint30_linear_458_4153" x1="246.672" y1="166" x2="359.172" y2="389.5" gradientUnits="userSpaceOnUse">
<stop stop-color="#FFF5DE"/>
<stop offset="1" stop-color="#CFA365"/>
</linearGradient>
<linearGradient id="paint31_linear_458_4153" x1="245.672" y1="184.5" x2="342.672" y2="363.5" gradientUnits="userSpaceOnUse">
<stop stop-color="#D2A86C"/>
<stop offset="1" stop-color="#F8E6C0"/>
</linearGradient>
<linearGradient id="paint32_linear_458_4153" x1="256.172" y1="178" x2="360.672" y2="366" gradientUnits="userSpaceOnUse">
<stop stop-color="#FFF6E7"/>
<stop offset="1" stop-color="#FFF8EC"/>
</linearGradient>
<radialGradient id="paint33_radial_458_4153" cx="0" cy="0" r="1" gradientUnits="userSpaceOnUse" gradientTransform="translate(299.672 276.195) rotate(90) scale(113.195 97.5)">
<stop stop-color="#FFE4BA"/>
<stop offset="1" stop-color="#DEA44D"/>
</radialGradient>
<linearGradient id="paint34_linear_458_4153" x1="299.672" y1="158.517" x2="299.672" y2="393.862" gradientUnits="userSpaceOnUse">
<stop stop-color="white"/>
<stop offset="1" stop-color="#F2EDED" stop-opacity="0"/>
</linearGradient>
<linearGradient id="paint35_linear_458_4153" x1="179.297" y1="179.81" x2="296.97" y2="383.625" gradientUnits="userSpaceOnUse">
<stop stop-color="white"/>
<stop offset="1" stop-color="#F2EDED" stop-opacity="0"/>
</linearGradient>
<linearGradient id="paint36_linear_458_4153" x1="411.28" y1="179.81" x2="293.608" y2="383.625" gradientUnits="userSpaceOnUse">
<stop stop-color="white"/>
<stop offset="1" stop-color="#F2EDED" stop-opacity="0"/>
</linearGradient>
<linearGradient id="paint37_linear_458_4153" x1="299.672" y1="317.655" x2="299.084" y2="381.533" gradientUnits="userSpaceOnUse">
<stop stop-color="white" stop-opacity="0"/>
<stop offset="1" stop-color="#FFF1E3"/>
</linearGradient>
<linearGradient id="paint38_linear_458_4153" x1="295.126" y1="132.13" x2="327.203" y2="134.476" gradientUnits="userSpaceOnUse">
<stop offset="0.168737" stop-color="#FDF2D9"/>
<stop offset="0.304755" stop-color="#FFF7E3"/>
<stop offset="0.451944" stop-color="#FFFCF4"/>
<stop offset="0.581036" stop-color="#FFF1D9"/>
<stop offset="0.705947" stop-color="#F3E0BF"/>
<stop offset="0.940592" stop-color="#FFF5DE"/>
</linearGradient>
<linearGradient id="paint39_linear_458_4153" x1="315.118" y1="241.12" x2="324.035" y2="242.103" gradientUnits="userSpaceOnUse">
<stop offset="0.168737" stop-color="#FDF2D9"/>
<stop offset="0.304755" stop-color="#FFF7E3"/>
<stop offset="0.451944" stop-color="#FFFCF4"/>
<stop offset="0.581036" stop-color="#FFF1D9"/>
<stop offset="0.705947" stop-color="#F3E0BF"/>
<stop offset="0.940592" stop-color="#FFF5DE"/>
</linearGradient>
<linearGradient id="paint40_linear_458_4153" x1="281.4" y1="246.807" x2="290.977" y2="248.46" gradientUnits="userSpaceOnUse">
<stop offset="0.168737" stop-color="#FDF2D9"/>
<stop offset="0.304755" stop-color="#FFF7E3"/>
<stop offset="0.451944" stop-color="#FFFCF4"/>
<stop offset="0.581036" stop-color="#FFF1D9"/>
<stop offset="0.705947" stop-color="#F3E0BF"/>
<stop offset="0.940592" stop-color="#FFF5DE"/>
</linearGradient>
<linearGradient id="paint41_linear_458_4153" x1="311.595" y1="201.041" x2="320.711" y2="203.16" gradientUnits="userSpaceOnUse">
<stop offset="0.168737" stop-color="#FDF2D9"/>
<stop offset="0.304755" stop-color="#FFF7E3"/>
<stop offset="0.451944" stop-color="#FFFCF4"/>
<stop offset="0.581036" stop-color="#FFF1D9"/>
<stop offset="0.705947" stop-color="#F3E0BF"/>
<stop offset="0.940592" stop-color="#FFF5DE"/>
</linearGradient>
<linearGradient id="paint42_linear_458_4153" x1="308.238" y1="181.307" x2="316.342" y2="182.831" gradientUnits="userSpaceOnUse">
<stop offset="0.168737" stop-color="#FDF2D9"/>
<stop offset="0.304755" stop-color="#FFF7E3"/>
<stop offset="0.451944" stop-color="#FFFCF4"/>
<stop offset="0.581036" stop-color="#FFF1D9"/>
<stop offset="0.705947" stop-color="#F3E0BF"/>
<stop offset="0.940592" stop-color="#FFF5DE"/>
</linearGradient>
<linearGradient id="paint43_linear_458_4153" x1="299.424" y1="349.254" x2="305.466" y2="349.81" gradientUnits="userSpaceOnUse">
<stop offset="0.168737" stop-color="#FDF2D9"/>
<stop offset="0.304755" stop-color="#FFF7E3"/>
<stop offset="0.451944" stop-color="#FFFCF4"/>
<stop offset="0.581036" stop-color="#FFF1D9"/>
<stop offset="0.705947" stop-color="#F3E0BF"/>
<stop offset="0.940592" stop-color="#FFF5DE"/>
</linearGradient>
<linearGradient id="paint44_linear_458_4153" x1="304.836" y1="351.212" x2="313.164" y2="352.344" gradientUnits="userSpaceOnUse">
<stop offset="0.168737" stop-color="#FDF2D9"/>
<stop offset="0.304755" stop-color="#FFF7E3"/>
<stop offset="0.451944" stop-color="#FFFCF4"/>
<stop offset="0.581036" stop-color="#FFF1D9"/>
<stop offset="0.705947" stop-color="#F3E0BF"/>
<stop offset="0.940592" stop-color="#FFF5DE"/>
</linearGradient>
<linearGradient id="paint45_linear_458_4153" x1="299.108" y1="354.529" x2="304.07" y2="359.053" gradientUnits="userSpaceOnUse">
<stop offset="0.168737" stop-color="#FDF2D9"/>
<stop offset="0.304755" stop-color="#FFF7E3"/>
<stop offset="0.451944" stop-color="#FFFCF4"/>
<stop offset="0.581036" stop-color="#FFF1D9"/>
<stop offset="0.705947" stop-color="#F3E0BF"/>
<stop offset="0.940592" stop-color="#FFF5DE"/>
</linearGradient>
<linearGradient id="paint46_linear_458_4153" x1="299.424" y1="370.766" x2="305.146" y2="372.224" gradientUnits="userSpaceOnUse">
<stop offset="0.168737" stop-color="#FDF2D9"/>
<stop offset="0.304755" stop-color="#FFF7E3"/>
<stop offset="0.451944" stop-color="#FFFCF4"/>
<stop offset="0.581036" stop-color="#FFF1D9"/>
<stop offset="0.705947" stop-color="#F3E0BF"/>
<stop offset="0.940592" stop-color="#FFF5DE"/>
</linearGradient>
<linearGradient id="paint47_linear_458_4153" x1="299.158" y1="353.13" x2="303.452" y2="355.643" gradientUnits="userSpaceOnUse">
<stop offset="0.168737" stop-color="#FDF2D9"/>
<stop offset="0.304755" stop-color="#FFF7E3"/>
<stop offset="0.451944" stop-color="#FFFCF4"/>
<stop offset="0.581036" stop-color="#FFF1D9"/>
<stop offset="0.705947" stop-color="#F3E0BF"/>
<stop offset="0.940592" stop-color="#FFF5DE"/>
</linearGradient>
</defs>
</svg>
