<svg width="128" height="128" viewBox="0 0 128 128" fill="none" xmlns="http://www.w3.org/2000/svg">
<path d="M41.267 73L48.8864 57.9318V57.804H40.0739V55.5455H51.6136V57.8807L44.0199 73H41.267ZM60.1236 73.2386C58.902 73.2386 57.8224 73.0284 56.8849 72.608C55.9531 72.1875 55.223 71.608 54.6946 70.8693C54.1662 70.1307 53.9048 69.2898 53.9105 68.3466C53.9048 67.608 54.0554 66.929 54.3622 66.3097C54.6747 65.6847 55.098 65.1648 55.6321 64.75C56.1662 64.3295 56.7628 64.0625 57.4219 63.9489V63.8466C56.5526 63.6364 55.8565 63.1705 55.3338 62.4489C54.8111 61.7273 54.5526 60.8977 54.5582 59.9602C54.5526 59.0682 54.7884 58.2727 55.2656 57.5739C55.7486 56.8693 56.4105 56.3153 57.2514 55.9119C58.0923 55.5085 59.0497 55.3068 60.1236 55.3068C61.1861 55.3068 62.1349 55.5114 62.9702 55.9205C63.8111 56.3239 64.473 56.8778 64.956 57.5824C65.4389 58.2812 65.6832 59.0739 65.6889 59.9602C65.6832 60.8977 65.4162 61.7273 64.8878 62.4489C64.3594 63.1705 63.6719 63.6364 62.8253 63.8466V63.9489C63.4787 64.0625 64.0668 64.3295 64.5895 64.75C65.1179 65.1648 65.5384 65.6847 65.8509 66.3097C66.169 66.929 66.331 67.608 66.3366 68.3466C66.331 69.2898 66.0639 70.1307 65.5355 70.8693C65.0071 71.608 64.2741 72.1875 63.3366 72.608C62.4048 73.0284 61.3338 73.2386 60.1236 73.2386ZM60.1236 71.0824C60.8452 71.0824 61.4702 70.9631 61.9986 70.7244C62.527 70.4801 62.9361 70.142 63.2259 69.7102C63.5156 69.2727 63.6634 68.7614 63.669 68.1761C63.6634 67.5682 63.5043 67.0312 63.1918 66.5653C62.8849 66.0994 62.4673 65.733 61.9389 65.4659C61.4105 65.1989 60.8054 65.0653 60.1236 65.0653C59.4361 65.0653 58.8253 65.1989 58.2912 65.4659C57.7571 65.733 57.3366 66.0994 57.0298 66.5653C56.723 67.0312 56.5724 67.5682 56.5781 68.1761C56.5724 68.7614 56.7116 69.2727 56.9957 69.7102C57.2855 70.142 57.6974 70.4801 58.2315 70.7244C58.7656 70.9631 59.3963 71.0824 60.1236 71.0824ZM60.1236 62.9602C60.7031 62.9602 61.2173 62.8437 61.6662 62.6108C62.1151 62.3778 62.4673 62.054 62.723 61.6392C62.9844 61.2244 63.1179 60.7386 63.1236 60.1818C63.1179 59.6364 62.9872 59.1591 62.7315 58.75C62.4815 58.3409 62.1321 58.0256 61.6832 57.804C61.2344 57.5767 60.7145 57.4631 60.1236 57.4631C59.5213 57.4631 58.9929 57.5767 58.5384 57.804C58.0895 58.0256 57.7401 58.3409 57.4901 58.75C57.2401 59.1591 57.1179 59.6364 57.1236 60.1818C57.1179 60.7386 57.2429 61.2244 57.4986 61.6392C57.7543 62.054 58.1065 62.3778 58.5554 62.6108C59.0099 62.8437 59.5327 62.9602 60.1236 62.9602ZM78.5007 69.7273V68.8068C78.5007 68.1477 78.6371 67.5455 78.9098 67C79.1882 66.4489 79.5916 66.0085 80.12 65.679C80.6541 65.3437 81.299 65.1761 82.0547 65.1761C82.8274 65.1761 83.4751 65.3409 83.9979 65.6705C84.5206 66 84.9155 66.4403 85.1825 66.9915C85.4553 67.5426 85.5916 68.1477 85.5916 68.8068V69.7273C85.5916 70.3864 85.4553 70.9915 85.1825 71.5426C84.9098 72.0881 84.5092 72.5284 83.9808 72.8636C83.4581 73.1932 82.8161 73.358 82.0547 73.358C81.2876 73.358 80.6399 73.1932 80.1115 72.8636C79.5831 72.5284 79.1825 72.0881 78.9098 71.5426C78.6371 70.9915 78.5007 70.3864 78.5007 69.7273ZM80.4865 68.8068V69.7273C80.4865 70.2159 80.603 70.6591 80.8359 71.0568C81.0689 71.4545 81.4751 71.6534 82.0547 71.6534C82.6286 71.6534 83.0291 71.4545 83.2564 71.0568C83.4837 70.6591 83.5973 70.2159 83.5973 69.7273V68.8068C83.5973 68.3182 83.4865 67.875 83.2649 67.4773C83.049 67.0795 82.6456 66.8807 82.0547 66.8807C81.4865 66.8807 81.0831 67.0795 80.8445 67.4773C80.6058 67.875 80.4865 68.3182 80.4865 68.8068ZM69.7223 59.7386V58.8182C69.7223 58.1591 69.8587 57.554 70.1314 57.0028C70.4098 56.4517 70.8132 56.0114 71.3416 55.6818C71.8757 55.3523 72.5206 55.1875 73.2763 55.1875C74.049 55.1875 74.6967 55.3523 75.2195 55.6818C75.7422 56.0114 76.1371 56.4517 76.4041 57.0028C76.6712 57.554 76.8047 58.1591 76.8047 58.8182V59.7386C76.8047 60.3977 76.6683 61.0028 76.3956 61.554C76.1286 62.0994 75.7308 62.5398 75.2024 62.875C74.6797 63.2045 74.0376 63.3693 73.2763 63.3693C72.5036 63.3693 71.853 63.2045 71.3246 62.875C70.8018 62.5398 70.4041 62.0994 70.1314 61.554C69.8587 61.0028 69.7223 60.3977 69.7223 59.7386ZM71.7166 58.8182V59.7386C71.7166 60.2273 71.8303 60.6705 72.0575 61.0682C72.2905 61.4659 72.6967 61.6648 73.2763 61.6648C73.8445 61.6648 74.2422 61.4659 74.4695 61.0682C74.7024 60.6705 74.8189 60.2273 74.8189 59.7386V58.8182C74.8189 58.3295 74.7081 57.8864 74.4865 57.4886C74.2649 57.0909 73.8615 56.892 73.2763 56.892C72.7081 56.892 72.3047 57.0909 72.0661 57.4886C71.8331 57.8864 71.7166 58.3295 71.7166 58.8182ZM70.532 73L82.532 55.5455H84.5689L72.5689 73H70.532Z" fill="#D9D9D9"/>
<path fill-rule="evenodd" clip-rule="evenodd" d="M64 13.6794C57.3918 13.6794 50.8483 14.981 44.7432 17.5098C38.638 20.0387 33.0907 23.7453 28.418 28.418C23.7453 33.0907 20.0387 38.638 17.5098 44.7431C14.981 50.8483 13.6794 57.3918 13.6794 64C13.6794 70.6082 14.981 77.1517 17.5098 83.2569C20.0387 89.362 23.7453 94.9094 28.418 99.5821C33.0907 104.255 38.638 107.961 44.7431 110.49C50.8483 113.019 57.3918 114.321 64 114.321C70.6082 114.321 77.1517 113.019 83.2569 110.49C89.3621 107.961 94.9094 104.255 99.5821 99.5821C104.255 94.9094 107.961 89.3621 110.49 83.2569C113.019 77.1517 114.321 70.6082 114.321 64C114.321 57.3918 113.019 50.8483 110.49 44.7432C107.961 38.638 104.255 33.0907 99.5821 28.418C94.9094 23.7453 89.3621 20.0387 83.2569 17.5098C77.1517 14.981 70.6082 13.6794 64 13.6794ZM128 64C128 55.5954 126.345 47.2731 123.128 39.5083C119.912 31.7434 115.198 24.6881 109.255 18.7452C103.312 12.8022 96.2566 8.08803 88.4918 4.87173C80.7269 1.65542 72.4046 1.25462e-05 64 1.14441e-05C55.5954 1.0342e-05 47.2731 1.65542 39.5083 4.87172C31.7434 8.08802 24.6881 12.8022 18.7452 18.7452C12.8022 24.6881 8.08803 31.7434 4.87173 39.5083C1.65543 47.2731 1.52588e-05 55.5954 1.52588e-05 64C1.52588e-05 72.4046 1.65542 80.7269 4.87172 88.4917C8.08802 96.2566 12.8022 103.312 18.7452 109.255C24.6881 115.198 31.7434 119.912 39.5083 123.128C47.2731 126.345 55.5954 128 64 128C72.4046 128 80.7269 126.345 88.4918 123.128C96.2566 119.912 103.312 115.198 109.255 109.255C115.198 103.312 119.912 96.2566 123.128 88.4917C126.345 80.7269 128 72.4046 128 64Z" fill="#555D67"/>
<path fill-rule="evenodd" clip-rule="evenodd" d="M6.50971 66.9893C10.232 66.3463 13.7708 68.8427 14.4138 72.565C16.0391 81.9746 20.3081 90.7275 26.7223 97.8014C33.1365 104.875 41.4311 109.978 50.6371 112.514C59.8432 115.05 69.5807 114.914 78.7124 112.122C87.8441 109.33 95.9929 103.998 102.207 96.7474C108.421 89.4972 112.444 80.6285 113.806 71.1772C115.168 61.7259 113.813 52.0822 109.899 43.3724C105.984 34.6627 99.6725 27.2464 91.7006 21.9899C83.7288 16.7334 74.4258 13.8537 64.8783 13.687C61.1014 13.6211 58.0931 10.5059 58.159 6.72902C58.225 2.95214 61.3402 -0.0561855 65.1171 0.00973993C77.26 0.221692 89.0919 3.88428 99.2309 10.5697C109.37 17.2552 117.397 26.6875 122.376 37.7649C127.354 48.8424 129.078 61.1077 127.346 73.1283C125.614 85.1488 120.497 96.4284 112.593 105.65C104.69 114.871 94.3259 121.653 82.7119 125.204C71.0978 128.754 58.7132 128.927 47.0045 125.702C35.2958 122.477 24.7464 115.987 16.5886 106.99C8.43072 97.9932 3.00113 86.8609 0.933994 74.8934C0.291038 71.171 2.78737 67.6322 6.50971 66.9893Z" fill="#31BAAE"/>
</svg>
