<svg width="26" height="21" viewBox="0 0 26 21" fill="none" xmlns="http://www.w3.org/2000/svg">
<path d="M7.33335 7.45833C6.35535 7.45833 5.56252 8.25116 5.56252 9.22916C5.56252 10.2072 6.35535 11 7.33335 11C8.31136 11 9.10419 10.2072 9.10419 9.22916C9.10419 8.25116 8.31136 7.45833 7.33335 7.45833Z" fill="#48484A"/>
<path d="M13 7.45833C12.022 7.45833 11.2292 8.25116 11.2292 9.22916C11.2292 10.2072 12.022 11 13 11C13.978 11 14.7709 10.2072 14.7709 9.22916C14.7709 8.25116 13.978 7.45833 13 7.45833Z" fill="#48484A"/>
<path d="M16.8959 9.22916C16.8959 8.25116 17.6887 7.45833 18.6667 7.45833C19.6447 7.45833 20.4375 8.25116 20.4375 9.22916C20.4375 10.2072 19.6447 11 18.6667 11C17.6887 11 16.8959 10.2072 16.8959 9.22916Z" fill="#48484A"/>
<path fill-rule="evenodd" clip-rule="evenodd" d="M18.8094 0.506447C14.9926 0.180954 11.1559 0.162064 7.33611 0.44996L7.06236 0.470592C3.41968 0.745139 0.604187 3.78082 0.604187 7.43383V19.5C0.604187 19.8738 0.80063 20.2201 1.12148 20.4119C1.44233 20.6038 1.84038 20.6129 2.16966 20.4359L7.70995 17.4585C7.96765 17.32 8.25566 17.2475 8.54823 17.2475H21.2648C22.8686 17.2475 24.243 16.1009 24.5305 14.523C25.1132 11.3253 25.1592 8.05284 24.6667 4.83997L24.5216 3.89318C24.2574 2.16945 22.8472 0.850793 21.1097 0.702615L18.8094 0.506447ZM7.49581 2.56895C11.2023 2.28959 14.9252 2.30792 18.6288 2.62376L20.9291 2.81993C21.6889 2.88473 22.3056 3.46137 22.4211 4.21514L22.5662 5.16194C23.023 8.14159 22.9803 11.1765 22.4399 14.1421C22.3365 14.7099 21.8419 15.1225 21.2648 15.1225H8.54823C7.90458 15.1225 7.27096 15.282 6.704 15.5867L2.72919 17.7228V7.43383C2.72919 4.89247 4.68789 2.78058 7.22207 2.58958L7.49581 2.56895Z" fill="#48484A"/>
</svg>
