<svg width="44" height="46" viewBox="0 0 44 46" fill="none" xmlns="http://www.w3.org/2000/svg">
<g filter="url(#filter0_d_207_144)">
<path d="M22 11.3125C19.066 11.3125 16.6875 13.691 16.6875 16.625C16.6875 19.559 19.066 21.9375 22 21.9375C24.934 21.9375 27.3125 19.559 27.3125 16.625C27.3125 13.691 24.934 11.3125 22 11.3125Z" fill="#409CFF"/>
<path d="M16.3333 24.7708C13.3993 24.7708 11.0208 27.1493 11.0208 30.0833V31.7667C11.0208 32.8338 11.7941 33.7436 12.8473 33.9156C18.909 34.9052 25.091 34.9052 31.1527 33.9156C32.2058 33.7436 32.9791 32.8338 32.9791 31.7667V30.0833C32.9791 27.1493 30.6007 24.7708 27.6666 24.7708H27.1837C26.9224 24.7708 26.6627 24.8122 26.4142 24.8933L25.1881 25.2937C23.1165 25.9701 20.8835 25.9701 18.8119 25.2937L17.5857 24.8933C17.3373 24.8122 17.0776 24.7708 16.8162 24.7708H16.3333Z" fill="#409CFF"/>
</g>
<defs>
<filter id="filter0_d_207_144" x="0.020813" y="0.3125" width="43.9583" height="45.3453" filterUnits="userSpaceOnUse" color-interpolation-filters="sRGB">
<feFlood flood-opacity="0" result="BackgroundImageFix"/>
<feColorMatrix in="SourceAlpha" type="matrix" values="0 0 0 0 0 0 0 0 0 0 0 0 0 0 0 0 0 0 127 0" result="hardAlpha"/>
<feOffset/>
<feGaussianBlur stdDeviation="5.5"/>
<feComposite in2="hardAlpha" operator="out"/>
<feColorMatrix type="matrix" values="0 0 0 0 0.25098 0 0 0 0 0.611765 0 0 0 0 1 0 0 0 0.25 0"/>
<feBlend mode="normal" in2="BackgroundImageFix" result="effect1_dropShadow_207_144"/>
<feBlend mode="normal" in="SourceGraphic" in2="effect1_dropShadow_207_144" result="shape"/>
</filter>
</defs>
</svg>
