<svg width="12" height="12" viewBox="0 0 12 12" fill="none" xmlns="http://www.w3.org/2000/svg">
<path d="M9.05781 0.522434C9.21567 0.358989 9.4045 0.22862 9.61329 0.138933C9.82207 0.0492468 10.0466 0.00203912 10.2738 6.46124e-05C10.5011 -0.00190989 10.7264 0.0413885 10.9367 0.127433C11.147 0.213478 11.3381 0.340546 11.4988 0.501223C11.6595 0.6619 11.7865 0.852967 11.8726 1.06328C11.9586 1.27359 12.0019 1.49893 11.9999 1.72615C11.998 1.95337 11.9508 2.17793 11.8611 2.38671C11.7714 2.5955 11.641 2.78433 11.4776 2.94219L10.799 3.62071L8.37929 1.20096L9.05781 0.522434ZM7.16941 2.41083L0 9.58025V12H2.41975L9.59002 4.83059L7.16856 2.41083H7.16941Z" fill="#409CFF"/>
</svg>
