<svg width="72" height="72" viewBox="0 0 72 72" fill="none" xmlns="http://www.w3.org/2000/svg">
<path d="M60 0H38.4V26.4C38.4 27.84 37.44 28.8 36 28.8C34.56 28.8 33.6 27.84 33.6 26.4V0H12C5.28 0 0 5.28 0 12V60C0 66.72 5.28 72 12 72H33.6V55.2C33.6 53.76 34.56 52.8 36 52.8C37.44 52.8 38.4 53.76 38.4 55.2V72H60C66.72 72 72 66.72 72 60V12C72 5.28 66.72 0 60 0ZM19.2 58.8C19.2 62.16 16.56 64.8 13.2 64.8C9.84 64.8 7.2 62.16 7.2 58.8V42C7.2 38.64 9.84 36 13.2 36C16.56 36 19.2 38.64 19.2 42V58.8ZM33.6 48C29.52 48 26.4 44.88 26.4 40.8C26.4 36.72 29.52 33.6 33.6 33.6C37.68 33.6 40.8 36.72 40.8 40.8C40.8 44.88 37.68 48 33.6 48ZM64.8 30C64.8 33.36 62.16 36 58.8 36C55.44 36 52.8 33.36 52.8 30V13.2C52.8 9.84 55.44 7.2 58.8 7.2C62.16 7.2 64.8 9.84 64.8 13.2V30Z" fill="#409CFF"/>
</svg>
