<svg width="72" height="62" viewBox="0 0 72 62" fill="none" xmlns="http://www.w3.org/2000/svg">
<path fill-rule="evenodd" clip-rule="evenodd" d="M35.9997 31.6513C33.7309 31.6513 31.8916 33.4763 31.8916 35.7275C31.8916 37.9787 33.7309 39.8037 35.9997 39.8037C38.2686 39.8037 40.1079 37.9787 40.1079 35.7275C40.1079 33.4763 38.2686 31.6513 35.9997 31.6513ZM26.9618 35.7275C26.9618 30.7748 31.0082 26.7599 35.9997 26.7599C40.9913 26.7599 45.0377 30.7748 45.0377 35.7275C45.0377 40.6802 40.9913 44.6952 35.9997 44.6952C31.0082 44.6952 26.9618 40.6802 26.9618 35.7275Z" fill="#409CFF"/>
<path fill-rule="evenodd" clip-rule="evenodd" d="M35.9998 18.6075C32.5872 18.6075 29.2512 19.6115 26.4138 21.4927C23.5763 23.3739 21.3648 26.0477 20.0588 29.176C18.7529 32.3042 18.4112 35.7465 19.0769 39.0675C19.7427 42.3884 21.386 45.4389 23.7991 47.8332C24.7617 48.7883 24.7617 50.3369 23.7991 51.292C22.8365 52.2471 21.2758 52.2471 20.3132 51.292C17.2107 48.2136 15.0978 44.2916 14.2419 40.0218C13.3859 35.7519 13.8252 31.3262 15.5043 27.3041C17.1833 23.282 20.0267 19.8443 23.6749 17.4256C27.3231 15.007 31.6121 13.716 35.9998 13.716C40.3874 13.716 44.6764 15.007 48.3246 17.4256C51.9728 19.8443 54.8162 23.282 56.4952 27.3041C58.1743 31.3262 58.6136 35.7519 57.7576 40.0218C56.9017 44.2916 54.7888 48.2136 51.6863 51.292C50.7237 52.2471 49.163 52.2471 48.2004 51.292C47.2378 50.3369 47.2378 48.7883 48.2004 47.8332C50.6135 45.4389 52.2568 42.3884 52.9226 39.0675C53.5883 35.7465 53.2466 32.3042 51.9407 29.176C50.6347 26.0477 48.4232 23.3739 45.5858 21.4927C42.7483 19.6115 39.4123 18.6075 35.9998 18.6075Z" fill="#409CFF"/>
<path fill-rule="evenodd" clip-rule="evenodd" d="M36 5.89144C30.0527 5.89144 24.2389 7.6413 19.2939 10.9197C14.3489 14.1982 10.4947 18.8579 8.21878 24.3098C5.94284 29.7616 5.34736 35.7607 6.50762 41.5483C7.66788 47.3359 10.5318 52.6522 14.7372 56.8249C15.6998 57.78 15.6998 59.3285 14.7372 60.2837C13.7746 61.2388 12.2139 61.2388 11.2513 60.2837C6.35644 55.4269 3.02301 49.2391 1.67253 42.5026C0.322051 35.7661 1.01516 28.7835 3.66423 22.4379C6.31329 16.0923 10.7993 10.6686 16.555 6.85265C22.3108 3.03674 29.0777 1 36 1C42.9223 0.999999 49.6892 3.03674 55.445 6.85265C61.2007 10.6686 65.6867 16.0923 68.3358 22.4379C70.9848 28.7835 71.6779 35.7661 70.3275 42.5026C68.977 49.2391 65.6436 55.4269 60.7487 60.2837C59.7861 61.2388 58.2254 61.2388 57.2628 60.2837C56.3002 59.3285 56.3002 57.78 57.2628 56.8249C61.4682 52.6522 64.3321 47.3359 65.4924 41.5483C66.6526 35.7607 66.0572 29.7616 63.7812 24.3098C61.5053 18.8579 57.6511 14.1982 52.7061 10.9197C47.7611 7.6413 41.9473 5.89144 36 5.89144Z" fill="#409CFF"/>
<path fill-rule="evenodd" clip-rule="evenodd" d="M35.9997 31.6513C33.7309 31.6513 31.8916 33.4763 31.8916 35.7275C31.8916 37.9787 33.7309 39.8037 35.9997 39.8037C38.2686 39.8037 40.1079 37.9787 40.1079 35.7275C40.1079 33.4763 38.2686 31.6513 35.9997 31.6513ZM26.9618 35.7275C26.9618 30.7748 31.0082 26.7599 35.9997 26.7599C40.9913 26.7599 45.0377 30.7748 45.0377 35.7275C45.0377 40.6802 40.9913 44.6952 35.9997 44.6952C31.0082 44.6952 26.9618 40.6802 26.9618 35.7275Z" stroke="#409CFF" stroke-linecap="round"/>
<path fill-rule="evenodd" clip-rule="evenodd" d="M35.9998 18.6075C32.5872 18.6075 29.2512 19.6115 26.4138 21.4927C23.5763 23.3739 21.3648 26.0477 20.0588 29.176C18.7529 32.3042 18.4112 35.7465 19.0769 39.0675C19.7427 42.3884 21.386 45.4389 23.7991 47.8332C24.7617 48.7883 24.7617 50.3369 23.7991 51.292C22.8365 52.2471 21.2758 52.2471 20.3132 51.292C17.2107 48.2136 15.0978 44.2916 14.2419 40.0218C13.3859 35.7519 13.8252 31.3262 15.5043 27.3041C17.1833 23.282 20.0267 19.8443 23.6749 17.4256C27.3231 15.007 31.6121 13.716 35.9998 13.716C40.3874 13.716 44.6764 15.007 48.3246 17.4256C51.9728 19.8443 54.8162 23.282 56.4952 27.3041C58.1743 31.3262 58.6136 35.7519 57.7576 40.0218C56.9017 44.2916 54.7888 48.2136 51.6863 51.292C50.7237 52.2471 49.163 52.2471 48.2004 51.292C47.2378 50.3369 47.2378 48.7883 48.2004 47.8332C50.6135 45.4389 52.2568 42.3884 52.9226 39.0675C53.5883 35.7465 53.2466 32.3042 51.9407 29.176C50.6347 26.0477 48.4232 23.3739 45.5858 21.4927C42.7483 19.6115 39.4123 18.6075 35.9998 18.6075Z" stroke="#409CFF" stroke-linecap="round"/>
<path fill-rule="evenodd" clip-rule="evenodd" d="M36 5.89144C30.0527 5.89144 24.2389 7.6413 19.2939 10.9197C14.3489 14.1982 10.4947 18.8579 8.21878 24.3098C5.94284 29.7616 5.34736 35.7607 6.50762 41.5483C7.66788 47.3359 10.5318 52.6522 14.7372 56.8249C15.6998 57.78 15.6998 59.3285 14.7372 60.2837C13.7746 61.2388 12.2139 61.2388 11.2513 60.2837C6.35644 55.4269 3.02301 49.2391 1.67253 42.5026C0.322051 35.7661 1.01516 28.7835 3.66423 22.4379C6.31329 16.0923 10.7993 10.6686 16.555 6.85265C22.3108 3.03674 29.0777 1 36 1C42.9223 0.999999 49.6892 3.03674 55.445 6.85265C61.2007 10.6686 65.6867 16.0923 68.3358 22.4379C70.9848 28.7835 71.6779 35.7661 70.3275 42.5026C68.977 49.2391 65.6436 55.4269 60.7487 60.2837C59.7861 61.2388 58.2254 61.2388 57.2628 60.2837C56.3002 59.3285 56.3002 57.78 57.2628 56.8249C61.4682 52.6522 64.3321 47.3359 65.4924 41.5483C66.6526 35.7607 66.0572 29.7616 63.7812 24.3098C61.5053 18.8579 57.6511 14.1982 52.7061 10.9197C47.7611 7.6413 41.9473 5.89144 36 5.89144Z" stroke="#409CFF" stroke-linecap="round"/>
</svg>
