<svg width="200" height="200" viewBox="0 0 140 140" fill="none" xmlns="http://www.w3.org/2000/svg">
<path d="M130.862 31.2579C128.941 26.063 125.052 21.8329 120.037 19.4817C115.022 17.1305 109.283 16.8472 104.061 18.6929C99.9869 20.1044 96.4508 22.7447 93.9401 26.25H75.2268C72.716 22.7447 69.18 20.1044 65.1059 18.6929C59.8837 16.8472 54.1448 17.1305 49.1297 19.4817C44.1147 21.8329 40.2262 26.063 38.3047 31.2579C29.1989 56.525 30.138 83.3058 40.8539 87.0479C48.2389 89.6233 58.523 80.9637 67.1884 67.0833H101.978C110.641 80.9637 120.937 89.6233 128.313 87.0479C139.043 83.3058 139.968 56.525 130.862 31.2579Z" fill="#66B0FF"/>
<path d="M110.833 40.8333C112.444 40.8333 113.75 39.5275 113.75 37.9167C113.75 36.3058 112.444 35 110.833 35C109.223 35 107.917 36.3058 107.917 37.9167C107.917 39.5275 109.223 40.8333 110.833 40.8333Z" fill="#66B0FF"/>
<path d="M67.0834 43.75H61.2501V37.9167C61.2501 37.1431 60.9428 36.4013 60.3958 35.8543C59.8488 35.3073 59.107 35 58.3334 35C57.5599 35 56.818 35.3073 56.271 35.8543C55.724 36.4013 55.4167 37.1431 55.4167 37.9167V43.75H49.5834C48.8099 43.75 48.068 44.0573 47.521 44.6043C46.974 45.1513 46.6667 45.8931 46.6667 46.6667C46.6667 47.4402 46.974 48.1821 47.521 48.7291C48.068 49.276 48.8099 49.5833 49.5834 49.5833H55.4167V55.4167C55.4167 56.1902 55.724 56.9321 56.271 57.4791C56.818 58.026 57.5599 58.3333 58.3334 58.3333C59.107 58.3333 59.8488 58.026 60.3958 57.4791C60.9428 56.9321 61.2501 56.1902 61.2501 55.4167V49.5833H67.0834C67.857 49.5833 68.5988 49.276 69.1458 48.7291C69.6928 48.1821 70.0001 47.4402 70.0001 46.6667C70.0001 45.8931 69.6928 45.1513 69.1458 44.6043C68.5988 44.0573 67.857 43.75 67.0834 43.75Z" fill="#66B0FF"/>
<path d="M102.083 49.5833C103.694 49.5833 105 48.2775 105 46.6667C105 45.0558 103.694 43.75 102.083 43.75C100.473 43.75 99.1667 45.0558 99.1667 46.6667C99.1667 48.2775 100.473 49.5833 102.083 49.5833Z" fill="#66B0FF"/>
<path d="M119.583 49.5833C121.194 49.5833 122.5 48.2775 122.5 46.6667C122.5 45.0558 121.194 43.75 119.583 43.75C117.973 43.75 116.667 45.0558 116.667 46.6667C116.667 48.2775 117.973 49.5833 119.583 49.5833Z" fill="#66B0FF"/>
<path d="M110.833 58.3333C112.444 58.3333 113.75 57.0275 113.75 55.4167C113.75 53.8058 112.444 52.5 110.833 52.5C109.223 52.5 107.917 53.8058 107.917 55.4167C107.917 57.0275 109.223 58.3333 110.833 58.3333Z" fill="#66B0FF"/>
<path d="M40.0926 27.5244C39.3715 28.7049 38.7724 29.9558 38.3047 31.2577C29.1989 56.5248 30.138 83.3086 40.8539 87.0507C45.6372 88.7161 51.6455 85.6536 57.6247 79.5286C38.8384 78.8432 37.3159 41.9619 40.0926 27.5244Z" fill="#66B0FF"/>
<path d="M130.862 31.2577C130.393 29.9563 129.794 28.7056 129.074 27.5244C131.851 41.9619 130.328 78.8577 111.542 79.5286C117.53 85.6536 123.529 88.7161 128.313 87.0507C139.043 83.3086 139.968 56.5248 130.862 31.2577Z" fill="#66B0FF"/>
<path d="M101.696 66.2579C99.774 61.063 95.8855 56.8329 90.8705 54.4817C85.8554 52.1305 80.1165 51.8472 74.8943 53.6929C70.8202 55.1044 67.2842 57.7447 64.7734 61.25H46.0601C43.5494 57.7447 40.0133 55.1044 35.9393 53.6929C30.717 51.8472 24.9781 52.1305 19.9631 54.4817C14.948 56.8329 11.0595 61.063 9.13801 66.2579C0.0321813 91.525 0.956765 118.306 11.6872 122.048C19.0722 124.623 29.3563 115.967 38.0218 102.083H72.8118C81.4743 115.967 91.7701 124.623 99.1463 122.048C109.877 118.306 110.801 91.525 101.696 66.2579Z" fill="#66B0FF"/>
<path d="M81.6667 75.8333C83.2775 75.8333 84.5833 74.5275 84.5833 72.9167C84.5833 71.3058 83.2775 70 81.6667 70C80.0558 70 78.75 71.3058 78.75 72.9167C78.75 74.5275 80.0558 75.8333 81.6667 75.8333Z" fill="#66B0FF"/>
<path d="M37.9167 78.75H32.0833V72.9167C32.0833 72.1431 31.776 71.4013 31.2291 70.8543C30.6821 70.3073 29.9402 70 29.1667 70C28.3931 70 27.6513 70.3073 27.1043 70.8543C26.5573 71.4013 26.25 72.1431 26.25 72.9167V78.75H20.4167C19.6431 78.75 18.9013 79.0573 18.3543 79.6043C17.8073 80.1513 17.5 80.8931 17.5 81.6667C17.5 82.4402 17.8073 83.1821 18.3543 83.7291C18.9013 84.276 19.6431 84.5833 20.4167 84.5833H26.25V90.4167C26.25 91.1902 26.5573 91.9321 27.1043 92.4791C27.6513 93.026 28.3931 93.3333 29.1667 93.3333C29.9402 93.3333 30.6821 93.026 31.2291 92.4791C31.776 91.9321 32.0833 91.1902 32.0833 90.4167V84.5833H37.9167C38.6902 84.5833 39.4321 84.276 39.9791 83.7291C40.526 83.1821 40.8333 82.4402 40.8333 81.6667C40.8333 80.8931 40.526 80.1513 39.9791 79.6043C39.4321 79.0573 38.6902 78.75 37.9167 78.75Z" fill="#66B0FF"/>
<path d="M72.9167 84.5833C74.5275 84.5833 75.8333 83.2775 75.8333 81.6667C75.8333 80.0558 74.5275 78.75 72.9167 78.75C71.3058 78.75 70 80.0558 70 81.6667C70 83.2775 71.3058 84.5833 72.9167 84.5833Z" fill="#66B0FF"/>
<path d="M90.4167 84.5833C92.0275 84.5833 93.3333 83.2775 93.3333 81.6667C93.3333 80.0558 92.0275 78.75 90.4167 78.75C88.8058 78.75 87.5 80.0558 87.5 81.6667C87.5 83.2775 88.8058 84.5833 90.4167 84.5833Z" fill="#66B0FF"/>
<path d="M81.6667 93.3333C83.2775 93.3333 84.5833 92.0275 84.5833 90.4167C84.5833 88.8058 83.2775 87.5 81.6667 87.5C80.0558 87.5 78.75 88.8058 78.75 90.4167C78.75 92.0275 80.0558 93.3333 81.6667 93.3333Z" fill="#66B0FF"/>
<path d="M10.9259 62.5215C10.2059 63.7037 9.60691 64.9554 9.13801 66.2577C0.0321813 91.5248 0.956765 118.306 11.6872 122.048C16.4705 123.716 22.4788 120.651 28.458 114.526C9.67176 113.843 8.14926 76.959 10.9259 62.5215Z" fill="#66B0FF"/>
<path d="M101.695 66.2577C101.227 64.9554 100.628 63.7037 99.9076 62.5215C102.684 76.959 101.162 113.855 82.3755 114.526C88.3634 120.651 94.363 123.716 99.1463 122.048C109.877 118.306 110.801 91.5248 101.695 66.2577Z" fill="#66B0FF"/>
<path d="M81.6667 72.9168C83.2775 72.9168 84.5833 71.611 84.5833 70.0002C84.5833 68.3893 83.2775 67.0835 81.6667 67.0835C80.0558 67.0835 78.75 68.3893 78.75 70.0002C78.75 71.611 80.0558 72.9168 81.6667 72.9168Z" fill="#2D2D2F"/>
<path d="M37.9167 75.8335H32.0833V70.0002C32.0833 69.2266 31.776 68.4847 31.2291 67.9378C30.6821 67.3908 29.9402 67.0835 29.1667 67.0835C28.3931 67.0835 27.6513 67.3908 27.1043 67.9378C26.5573 68.4847 26.25 69.2266 26.25 70.0002V75.8335H20.4167C19.6431 75.8335 18.9013 76.1408 18.3543 76.6878C17.8073 77.2347 17.5 77.9766 17.5 78.7502C17.5 79.5237 17.8073 80.2656 18.3543 80.8126C18.9013 81.3595 19.6431 81.6668 20.4167 81.6668H26.25V87.5002C26.25 88.2737 26.5573 89.0156 27.1043 89.5626C27.6513 90.1095 28.3931 90.4168 29.1667 90.4168C29.9402 90.4168 30.6821 90.1095 31.2291 89.5626C31.776 89.0156 32.0833 88.2737 32.0833 87.5002V81.6668H37.9167C38.6902 81.6668 39.4321 81.3595 39.9791 80.8126C40.526 80.2656 40.8333 79.5237 40.8333 78.7502C40.8333 77.9766 40.526 77.2347 39.9791 76.6878C39.4321 76.1408 38.6902 75.8335 37.9167 75.8335Z" fill="#2D2D2F"/>
<path d="M72.9167 81.6668C74.5275 81.6668 75.8333 80.361 75.8333 78.7502C75.8333 77.1393 74.5275 75.8335 72.9167 75.8335C71.3058 75.8335 70 77.1393 70 78.7502C70 80.361 71.3058 81.6668 72.9167 81.6668Z" fill="#2D2D2F"/>
<path d="M90.4167 81.6668C92.0275 81.6668 93.3333 80.361 93.3333 78.7502C93.3333 77.1393 92.0275 75.8335 90.4167 75.8335C88.8058 75.8335 87.5 77.1393 87.5 78.7502C87.5 80.361 88.8058 81.6668 90.4167 81.6668Z" fill="#2D2D2F"/>
<path d="M81.6667 90.4168C83.2775 90.4168 84.5833 89.111 84.5833 87.5002C84.5833 85.8893 83.2775 84.5835 81.6667 84.5835C80.0558 84.5835 78.75 85.8893 78.75 87.5002C78.75 89.111 80.0558 90.4168 81.6667 90.4168Z" fill="#2D2D2F"/>
<path d="M58.3333 84.5835H52.4999C51.7264 84.5835 50.9845 84.8908 50.4375 85.4378C49.8905 85.9847 49.5833 86.7266 49.5833 87.5002C49.5833 88.2737 49.8905 89.0156 50.4375 89.5626C50.9845 90.1095 51.7264 90.4168 52.4999 90.4168H58.3333C59.1068 90.4168 59.8487 90.1095 60.3956 89.5626C60.9426 89.0156 61.2499 88.2737 61.2499 87.5002C61.2499 86.7266 60.9426 85.9847 60.3956 85.4378C59.8487 84.8908 59.1068 84.5835 58.3333 84.5835Z" fill="#2D2D2F"/>
<path d="M133.615 30.2781C131.427 24.3634 127.002 19.5456 121.295 16.8638C115.587 14.182 109.054 13.8512 103.104 15.9427C98.9568 17.3798 95.289 19.9381 92.5078 23.3336H76.6586C73.878 19.9381 70.2099 17.3806 66.0624 15.9456C60.1125 13.854 53.5789 14.1848 47.8706 16.8665C42.1623 19.5482 37.7367 24.3661 35.5482 30.2811C33.3007 36.581 31.6161 43.0678 30.5141 49.6652C25.3469 49.3085 20.2033 50.6363 15.8545 53.4496C11.5057 56.2629 8.18604 60.4101 6.39322 65.2694C-0.708861 84.9744 -2.01553 106.397 3.20822 117.373C3.89289 119.056 4.91242 120.583 6.20496 121.86C7.49749 123.138 9.03608 124.139 10.7274 124.804C11.91 125.215 13.1536 125.422 14.4053 125.417C22.0441 125.417 31.147 118.125 39.6257 105H71.2074C81.1036 120.298 91.8428 127.674 100.106 124.804C101.797 124.139 103.336 123.138 104.628 121.86C105.921 120.583 106.94 119.056 107.625 117.373C111.484 109.273 111.772 95.4977 108.812 80.894C114.645 87.0656 120.449 90.411 125.58 90.411C126.835 90.4147 128.082 90.2046 129.267 89.7898C130.959 89.1271 132.5 88.1266 133.793 86.8495C135.087 85.5723 136.107 84.0452 136.792 82.361C142.012 71.3944 140.712 49.9773 133.615 30.2781ZM102.354 114.861C101.988 115.839 101.43 116.735 100.715 117.496C99.9995 118.257 99.1401 118.868 98.1866 119.295C92.6916 121.217 83.4836 113.674 75.2849 100.541C75.0231 100.121 74.6586 99.7741 74.2259 99.5338C73.7933 99.2934 73.3065 99.1672 72.8116 99.1669H38.0216C37.5261 99.1667 37.0388 99.2927 36.6055 99.5331C36.1723 99.7734 35.8074 100.12 35.5453 100.541C27.3495 113.666 18.1445 121.208 12.6466 119.295C11.693 118.868 10.8336 118.257 10.1182 117.496C9.40272 116.735 8.84544 115.839 8.47864 114.861C3.94031 105.339 5.37239 85.3127 11.8795 67.2469C13.1639 63.7617 15.4903 60.7566 18.5426 58.64C21.5948 56.5234 25.2248 55.398 28.9391 55.4169C30.9959 55.4171 33.038 55.7642 34.9795 56.4435C38.4858 57.6578 41.5289 59.9304 43.6886 62.9477C43.9588 63.3243 44.3149 63.631 44.7272 63.8425C45.1396 64.054 45.5964 64.1642 46.0599 64.164H64.7732C65.2367 64.1642 65.6935 64.054 66.1059 63.8425C66.5182 63.631 66.8743 63.3243 67.1445 62.9477C69.303 59.9292 72.3465 57.6562 75.8536 56.4435C80.35 54.8534 85.2911 55.0935 89.6121 57.1121C93.9331 59.1307 97.2879 62.7663 98.9536 67.2352C105.461 85.3127 106.893 105.339 102.354 114.861ZM131.521 79.8615C131.153 80.8408 130.593 81.7371 129.875 82.4982C129.157 83.2592 128.295 83.87 127.339 84.2948C121.919 86.214 112.793 78.7881 104.624 65.8148C104.559 65.6369 104.507 65.459 104.443 65.281C102.252 59.3701 97.8272 54.556 92.1216 51.8753C86.4161 49.1946 79.8859 48.8618 73.9374 50.9486C69.7875 52.3806 66.117 54.9373 63.3353 58.3335H47.4978C44.7175 54.9344 41.0482 52.3738 36.8986 50.9369C36.6828 50.861 36.4641 50.8144 36.2453 50.7473C37.2886 44.453 38.8923 38.2645 41.0374 32.2556C42.7037 27.7872 46.0587 24.1521 50.3794 22.1336C54.7002 20.115 59.641 19.8746 64.1374 21.464C67.6451 22.6741 70.6897 24.945 72.8495 27.9623C73.1209 28.3367 73.4775 28.6412 73.8898 28.8506C74.3021 29.0601 74.7583 29.1685 75.2207 29.1669H93.9457C94.4092 29.1671 94.866 29.0569 95.2784 28.8454C95.6908 28.6339 96.0468 28.3272 96.317 27.9506C98.4774 24.9334 101.522 22.6616 105.029 21.4494C109.526 19.8623 114.465 20.1039 118.786 22.1222C123.106 24.1404 126.461 27.774 128.129 32.2411C134.633 50.3127 136.057 70.3298 131.518 79.8498L131.521 79.8615Z" fill="#2D2D2F"/>
<path d="M110.833 37.9168C112.444 37.9168 113.75 36.611 113.75 35.0002C113.75 33.3893 112.444 32.0835 110.833 32.0835C109.223 32.0835 107.917 33.3893 107.917 35.0002C107.917 36.611 109.223 37.9168 110.833 37.9168Z" fill="#2D2D2F"/>
<path d="M67.0834 40.8335H61.2501V35.0002C61.2501 34.2266 60.9428 33.4847 60.3958 32.9378C59.8488 32.3908 59.107 32.0835 58.3334 32.0835C57.5599 32.0835 56.818 32.3908 56.271 32.9378C55.724 33.4847 55.4167 34.2266 55.4167 35.0002V40.8335H49.5834C48.8099 40.8335 48.068 41.1408 47.521 41.6878C46.974 42.2347 46.6667 42.9766 46.6667 43.7502C46.6667 44.5237 46.974 45.2656 47.521 45.8126C48.068 46.3595 48.8099 46.6668 49.5834 46.6668H55.4167V52.5002C55.4167 53.2737 55.724 54.0156 56.271 54.5626C56.818 55.1095 57.5599 55.4168 58.3334 55.4168C59.107 55.4168 59.8488 55.1095 60.3958 54.5626C60.9428 54.0156 61.2501 53.2737 61.2501 52.5002V46.6668H67.0834C67.857 46.6668 68.5988 46.3595 69.1458 45.8126C69.6928 45.2656 70.0001 44.5237 70.0001 43.7502C70.0001 42.9766 69.6928 42.2347 69.1458 41.6878C68.5988 41.1408 67.857 40.8335 67.0834 40.8335Z" fill="#2D2D2F"/>
<path d="M102.083 46.6668C103.694 46.6668 105 45.361 105 43.7502C105 42.1393 103.694 40.8335 102.083 40.8335C100.473 40.8335 99.1667 42.1393 99.1667 43.7502C99.1667 45.361 100.473 46.6668 102.083 46.6668Z" fill="#2D2D2F"/>
<path d="M119.583 46.6668C121.194 46.6668 122.5 45.361 122.5 43.7502C122.5 42.1393 121.194 40.8335 119.583 40.8335C117.973 40.8335 116.667 42.1393 116.667 43.7502C116.667 45.361 117.973 46.6668 119.583 46.6668Z" fill="#2D2D2F"/>
<path d="M110.833 55.4168C112.444 55.4168 113.75 54.111 113.75 52.5002C113.75 50.8893 112.444 49.5835 110.833 49.5835C109.223 49.5835 107.917 50.8893 107.917 52.5002C107.917 54.111 109.223 55.4168 110.833 55.4168Z" fill="#2D2D2F"/>
</svg>
