<svg width="200" height="200" viewBox="0 0 140 140" fill="none" xmlns="http://www.w3.org/2000/svg">
<path d="M37.8824 135.882H8.23532C6.1765 135.882 4.11768 133.823 4.11768 131.765V101.706C4.11768 99.2352 6.1765 97.5882 8.23532 97.5882H37.0589V131.765C37.0589 133 37.4706 134.647 37.8824 135.882ZM94.7059 82.3529V131.765C94.7059 133.823 92.6471 135.882 90.5883 135.882H49.4118C47.353 135.882 45.2941 133.823 45.2941 131.765V82.3529C45.2941 79.8823 47.353 78.2352 49.4118 78.2352H90.5883C92.6471 78.2352 94.7059 79.8823 94.7059 82.3529ZM135.882 107.059V131.765C135.882 133.823 133.824 135.882 131.765 135.882H102.118C102.529 134.647 102.941 133 102.941 131.765V102.941H131.765C133.824 102.941 135.882 104.588 135.882 107.059ZM103.353 32.9411L89.7647 46.1176L93.0589 65.0588C93.4706 66.7058 92.6471 68.3529 91.4118 69.1764C90.1765 69.9999 88.1177 69.9999 86.8824 69.5882L70 60.5293L53.1177 69.1764C51.8824 69.9999 50.2353 69.9999 49 68.7646C47.7647 67.9411 46.9412 66.2941 47.353 64.647L50.6471 45.7058L36.6471 32.9411C35.8236 32.1176 35.4118 30.4705 35.8236 28.8235C36.2353 27.1764 37.4706 26.3529 39.1177 25.9411L58.0589 23.0588L66.2942 6.17641C67.5294 3.29406 72.4706 3.29406 73.7059 6.17641L81.9412 23.0588L100.882 25.9411C102.529 26.3529 103.765 27.1764 104.176 28.8235C104.588 30.4705 104.177 32.1176 103.353 32.9411Z" fill="#66B0FF"/>
</svg>
