<svg width="30" height="30" viewBox="0 0 30 30" fill="none" xmlns="http://www.w3.org/2000/svg">
<circle cx="15" cy="15" r="15" fill="#3A3A3C"/>
<path d="M14.1668 8.125C12.4409 8.125 11.0418 9.52411 11.0418 11.25C11.0418 12.9759 12.4409 14.375 14.1668 14.375C15.8927 14.375 17.2918 12.9759 17.2918 11.25C17.2918 9.52411 15.8927 8.125 14.1668 8.125Z" fill="#D9D9D9"/>
<path d="M10.8335 16.0417C9.10761 16.0417 7.7085 17.4408 7.7085 19.1667V20.1569C7.7085 20.7846 8.1634 21.3198 8.78289 21.4209C12.3486 22.0031 15.9851 22.0031 19.5508 21.4209C20.1703 21.3198 20.6252 20.7846 20.6252 20.1569V19.1667C20.6252 17.4408 19.2261 16.0417 17.5002 16.0417H17.2161C17.0624 16.0417 16.9096 16.066 16.7634 16.1137L16.0422 16.3492C14.8236 16.7471 13.5101 16.7471 12.2915 16.3492L11.5702 16.1137C11.4241 16.066 11.2713 16.0417 11.1176 16.0417H10.8335Z" fill="#D9D9D9"/>
<path d="M21.2502 10.2083C21.5953 10.2083 21.8752 10.4882 21.8752 10.8333V12.2917H23.3335C23.6787 12.2917 23.9585 12.5715 23.9585 12.9167C23.9585 13.2618 23.6787 13.5417 23.3335 13.5417H21.8752V15C21.8752 15.3452 21.5953 15.625 21.2502 15.625C20.905 15.625 20.6252 15.3452 20.6252 15V13.5417H19.1668C18.8217 13.5417 18.5418 13.2618 18.5418 12.9167C18.5418 12.5715 18.8217 12.2917 19.1668 12.2917H20.6252V10.8333C20.6252 10.4882 20.905 10.2083 21.2502 10.2083Z" fill="#D9D9D9"/>
</svg>
