<svg width="18" height="18" viewBox="0 0 18 18" fill="none" xmlns="http://www.w3.org/2000/svg">
<path d="M7.5 2.8125C5.9467 2.8125 4.6875 4.0717 4.6875 5.625C4.6875 7.1783 5.9467 8.4375 7.5 8.4375C9.0533 8.4375 10.3125 7.1783 10.3125 5.625C10.3125 4.0717 9.0533 2.8125 7.5 2.8125Z" fill="#C6E1FF"/>
<path d="M4.5 9.9375C2.9467 9.9375 1.6875 11.1967 1.6875 12.75V13.6412C1.6875 14.2061 2.09691 14.6878 2.65445 14.7788C4.3125 15.0495 5.98756 15.1804 7.66205 15.1714C7.77914 15.1707 7.84994 15.0412 7.79267 14.9391C7.36745 14.1808 7.125 13.3062 7.125 12.375C7.125 11.7847 7.22243 11.2171 7.40208 10.6875C7.43584 10.588 7.36362 10.4822 7.25863 10.4775C6.76975 10.4558 6.28309 10.3681 5.81219 10.2143L5.16305 10.0023C5.03152 9.95938 4.89402 9.9375 4.75565 9.9375H4.5Z" fill="#C6E1FF"/>
<path d="M12.9375 11.25C12.9375 10.9393 12.6857 10.6875 12.375 10.6875C12.0643 10.6875 11.8125 10.9393 11.8125 11.25V12.5795C11.8125 12.7595 11.8986 12.9286 12.0442 13.0345L12.7942 13.5799C13.0454 13.7626 13.3972 13.7071 13.5799 13.4558C13.7626 13.2046 13.7071 12.8528 13.4558 12.6701L12.9375 12.2931V11.25Z" fill="#C6E1FF"/>
<path fill-rule="evenodd" clip-rule="evenodd" d="M12.375 16.5C14.6532 16.5 16.5 14.6532 16.5 12.375C16.5 10.0968 14.6532 8.25 12.375 8.25C10.0968 8.25 8.25 10.0968 8.25 12.375C8.25 14.6532 10.0968 16.5 12.375 16.5ZM12.375 15.375C14.0319 15.375 15.375 14.0319 15.375 12.375C15.375 10.7181 14.0319 9.375 12.375 9.375C10.7181 9.375 9.375 10.7181 9.375 12.375C9.375 14.0319 10.7181 15.375 12.375 15.375Z" fill="#C6E1FF"/>
</svg>
