<svg width="72" height="72" viewBox="0 0 72 72" fill="none" xmlns="http://www.w3.org/2000/svg">
<path fill-rule="evenodd" clip-rule="evenodd" d="M58.2534 12.5753C57.6731 12.5753 57.0821 13.1663 57.0821 13.7465V30.1438C57.0821 30.7241 57.6731 31.315 58.2534 31.315C58.8336 31.315 59.4246 30.7241 59.4246 30.1438V13.7465C59.4246 13.1663 58.8336 12.5753 58.2534 12.5753ZM52.3972 13.7465C52.3972 10.5789 55.0857 7.89038 58.2534 7.89038C61.4211 7.89038 64.1095 10.5789 64.1095 13.7465V30.1438C64.1095 33.3115 61.4211 36 58.2534 36C55.0857 36 52.3972 33.3115 52.3972 30.1438V13.7465Z" fill="#48484A"/>
<path fill-rule="evenodd" clip-rule="evenodd" d="M51.9041 13.7465C51.9041 10.3065 54.8133 7.39722 58.2534 7.39722C61.6934 7.39722 64.6027 10.3065 64.6027 13.7465V30.1438C64.6027 33.5838 61.6934 36.4931 58.2534 36.4931C54.8133 36.4931 51.9041 33.5838 51.9041 30.1438V13.7465ZM58.2534 8.38352C55.358 8.38352 52.8904 10.8512 52.8904 13.7465V30.1438C52.8904 33.0391 55.358 35.5068 58.2534 35.5068C61.1487 35.5068 63.6164 33.0391 63.6164 30.1438V13.7465C63.6164 10.8512 61.1487 8.38352 58.2534 8.38352ZM57.7989 13.292C57.646 13.4449 57.5753 13.6188 57.5753 13.7465V30.1438C57.5753 30.2715 57.646 30.4454 57.7989 30.5983C57.9517 30.7512 58.1257 30.8219 58.2534 30.8219C58.3811 30.8219 58.555 30.7512 58.7079 30.5983C58.8607 30.4454 58.9314 30.2715 58.9314 30.1438V13.7465C58.9314 13.6188 58.8607 13.4449 58.7079 13.292C58.555 13.1392 58.3811 13.0684 58.2534 13.0684C58.1257 13.0684 57.9517 13.1392 57.7989 13.292ZM57.1014 12.5946C57.3891 12.3069 57.8008 12.0821 58.2534 12.0821C58.7059 12.0821 59.1176 12.3069 59.4053 12.5946C59.693 12.8823 59.9178 13.294 59.9178 13.7465V30.1438C59.9178 30.5963 59.693 31.008 59.4053 31.2957C59.1176 31.5834 58.7059 31.8082 58.2534 31.8082C57.8008 31.8082 57.3891 31.5834 57.1014 31.2957C56.8137 31.008 56.589 30.5963 56.589 30.1438V13.7465C56.589 13.294 56.8137 12.8823 57.1014 12.5946Z" fill="#48484A"/>
<path fill-rule="evenodd" clip-rule="evenodd" d="M13.7468 40.6849C13.1665 40.6849 12.5756 41.2759 12.5756 41.8562V58.2534C12.5756 58.8337 13.1665 59.4247 13.7468 59.4247C14.3271 59.4247 14.918 58.8337 14.918 58.2534V41.8562C14.918 41.2759 14.3271 40.6849 13.7468 40.6849ZM7.89062 41.8562C7.89062 38.6885 10.5791 36 13.7468 36C16.9145 36 19.603 38.6885 19.603 41.8562V58.2534C19.603 61.4211 16.9145 64.1096 13.7468 64.1096C10.5791 64.1096 7.89062 61.4211 7.89062 58.2534V41.8562Z" fill="#48484A"/>
<path fill-rule="evenodd" clip-rule="evenodd" d="M7.39746 41.8562C7.39746 38.4161 10.3067 35.5068 13.7468 35.5068C17.1868 35.5068 20.0961 38.4161 20.0961 41.8562V58.2534C20.0961 61.6935 17.1868 64.6027 13.7468 64.6027C10.3067 64.6027 7.39746 61.6935 7.39746 58.2534V41.8562ZM13.7468 36.4931C10.8515 36.4931 8.38376 38.9608 8.38376 41.8562V58.2534C8.38376 61.1487 10.8515 63.6164 13.7468 63.6164C16.6421 63.6164 19.1098 61.1487 19.1098 58.2534V41.8562C19.1098 38.9608 16.6421 36.4931 13.7468 36.4931ZM13.2923 41.4016C13.1394 41.5545 13.0687 41.7284 13.0687 41.8562V58.2534C13.0687 58.3811 13.1394 58.5551 13.2923 58.7079C13.4451 58.8608 13.6191 58.9315 13.7468 58.9315C13.8745 58.9315 14.0484 58.8608 14.2013 58.7079C14.3541 58.5551 14.4249 58.3811 14.4249 58.2534V41.8562C14.4249 41.7284 14.3541 41.5545 14.2013 41.4016C14.0484 41.2488 13.8745 41.1781 13.7468 41.1781C13.6191 41.1781 13.4451 41.2488 13.2923 41.4016ZM12.5948 40.7042C12.8825 40.4165 13.2942 40.1918 13.7468 40.1918C14.1993 40.1918 14.611 40.4165 14.8987 40.7042C15.1864 40.9919 15.4112 41.4036 15.4112 41.8562V58.2534C15.4112 58.706 15.1864 59.1176 14.8987 59.4053C14.611 59.693 14.1993 59.9178 13.7468 59.9178C13.2942 59.9178 12.8825 59.693 12.5948 59.4053C12.3072 59.1176 12.0824 58.706 12.0824 58.2534V41.8562C12.0824 41.4036 12.3072 40.9919 12.5948 40.7042Z" fill="#48484A"/>
<path fill-rule="evenodd" clip-rule="evenodd" d="M33.6578 38.3424C32.3641 38.3424 31.3153 39.3912 31.3153 40.6849C31.3153 41.9786 32.3641 43.0273 33.6578 43.0273C34.9515 43.0273 36.0002 41.9786 36.0002 40.6849C36.0002 39.3912 34.9515 38.3424 33.6578 38.3424ZM26.6304 40.6849C26.6304 36.8037 29.7766 33.6575 33.6578 33.6575C37.5389 33.6575 40.6852 36.8037 40.6852 40.6849C40.6852 44.566 37.5389 47.7123 33.6578 47.7123C29.7766 47.7123 26.6304 44.566 26.6304 40.6849Z" fill="#48484A"/>
<path fill-rule="evenodd" clip-rule="evenodd" d="M26.1372 40.6849C26.1372 36.5314 29.5043 33.1643 33.6578 33.1643C37.8112 33.1643 41.1783 36.5314 41.1783 40.6849C41.1783 44.8383 37.8112 48.2054 33.6578 48.2054C29.5043 48.2054 26.1372 44.8383 26.1372 40.6849ZM33.6578 34.1506C30.049 34.1506 27.1235 37.0761 27.1235 40.6849C27.1235 44.2936 30.049 47.2191 33.6578 47.2191C37.2665 47.2191 40.192 44.2936 40.192 40.6849C40.192 37.0761 37.2665 34.1506 33.6578 34.1506ZM33.6578 38.8355C32.6364 38.8355 31.8084 39.6635 31.8084 40.6849C31.8084 41.7062 32.6364 42.5342 33.6578 42.5342C34.6791 42.5342 35.5071 41.7062 35.5071 40.6849C35.5071 39.6635 34.6791 38.8355 33.6578 38.8355ZM30.8221 40.6849C30.8221 39.1188 32.0917 37.8492 33.6578 37.8492C35.2238 37.8492 36.4934 39.1188 36.4934 40.6849C36.4934 42.2509 35.2238 43.5205 33.6578 43.5205C32.0917 43.5205 30.8221 42.2509 30.8221 40.6849Z" fill="#48484A"/>
<path fill-rule="evenodd" clip-rule="evenodd" d="M12.3288 5.22741C8.42844 5.22741 5.22741 8.42844 5.22741 12.3288V59.6712C5.22741 63.5716 8.42844 66.7726 12.3288 66.7726H59.6712C63.5716 66.7726 66.7726 63.5716 66.7726 59.6712V12.3288C66.7726 8.42844 63.5716 5.22741 59.6712 5.22741H12.3288ZM0.493164 12.3288C0.493164 5.81378 5.81378 0.493164 12.3288 0.493164H59.6712C66.1862 0.493164 71.5069 5.81378 71.5069 12.3288V59.6712C71.5069 66.1862 66.1862 71.5069 59.6712 71.5069H12.3288C5.81378 71.5069 0.493164 66.1862 0.493164 59.6712V12.3288Z" fill="#48484A"/>
<path fill-rule="evenodd" clip-rule="evenodd" d="M0 12.3288C0 5.54141 5.54141 0 12.3288 0H59.6712C66.4586 0 72 5.54141 72 12.3288V59.6712C72 66.4586 66.4586 72 59.6712 72H12.3288C5.54141 72 0 66.4586 0 59.6712V12.3288ZM12.3288 0.986301C6.08613 0.986301 0.986301 6.08613 0.986301 12.3288V59.6712C0.986301 65.9139 6.08613 71.0137 12.3288 71.0137H59.6712C65.9139 71.0137 71.0137 65.9139 71.0137 59.6712V12.3288C71.0137 6.08613 65.9139 0.986301 59.6712 0.986301H12.3288ZM12.3288 5.72055C8.70078 5.72055 5.72055 8.70078 5.72055 12.3288V59.6712C5.72055 63.2992 8.70078 66.2795 12.3288 66.2795H59.6712C63.2992 66.2795 66.2795 63.2992 66.2795 59.6712V12.3288C66.2795 8.70078 63.2992 5.72055 59.6712 5.72055H12.3288ZM4.73425 12.3288C4.73425 8.15606 8.15606 4.73425 12.3288 4.73425H59.6712C63.8439 4.73425 67.2658 8.15606 67.2658 12.3288V59.6712C67.2658 63.8439 63.8439 67.2658 59.6712 67.2658H12.3288C8.15606 67.2658 4.73425 63.8439 4.73425 59.6712V12.3288Z" fill="#48484A"/>
<path fill-rule="evenodd" clip-rule="evenodd" d="M36.0002 0.863037C37.2939 0.863037 38.3426 1.91179 38.3426 3.2055V36C38.3426 37.2937 37.2939 38.3425 36.0002 38.3425C34.7065 38.3425 33.6577 37.2937 33.6577 36V3.2055C33.6577 1.91179 34.7065 0.863037 36.0002 0.863037Z" fill="#48484A"/>
<path fill-rule="evenodd" clip-rule="evenodd" d="M33.1646 3.20549C33.1646 1.63942 34.4341 0.369873 36.0002 0.369873C37.5662 0.369873 38.8358 1.63942 38.8358 3.20549V36C38.8358 37.5661 37.5662 38.8356 36.0002 38.8356C34.4341 38.8356 33.1646 37.5661 33.1646 36V3.20549ZM36.0002 1.35617C34.9788 1.35617 34.1509 2.18414 34.1509 3.20549V36C34.1509 37.0214 34.9788 37.8493 36.0002 37.8493C37.0215 37.8493 37.8495 37.0214 37.8495 36V3.20549C37.8495 2.18414 37.0215 1.35617 36.0002 1.35617Z" fill="#48484A"/>
<path fill-rule="evenodd" clip-rule="evenodd" d="M36.0002 43.0273C37.2939 43.0273 38.3426 44.0761 38.3426 45.3698V68.7945C38.3426 70.0882 37.2939 71.1369 36.0002 71.1369C34.7065 71.1369 33.6577 70.0882 33.6577 68.7945V45.3698C33.6577 44.0761 34.7065 43.0273 36.0002 43.0273Z" fill="#48484A"/>
<path fill-rule="evenodd" clip-rule="evenodd" d="M33.1646 45.3698C33.1646 43.8037 34.4341 42.5342 36.0002 42.5342C37.5662 42.5342 38.8358 43.8037 38.8358 45.3698V68.7945C38.8358 70.3605 37.5662 71.6301 36.0002 71.6301C34.4341 71.6301 33.1646 70.3605 33.1646 68.7945V45.3698ZM36.0002 43.5205C34.9788 43.5205 34.1509 44.3484 34.1509 45.3698V68.7945C34.1509 69.8158 34.9788 70.6438 36.0002 70.6438C37.0215 70.6438 37.8495 69.8158 37.8495 68.7945V45.3698C37.8495 44.3484 37.0215 43.5205 36.0002 43.5205Z" fill="#48484A"/>
</svg>
