<svg width="72" height="72" viewBox="0 0 72 69" fill="none" xmlns="http://www.w3.org/2000/svg">
<path d="M38.1818 62.3226C36.3743 62.3226 34.9091 63.8174 34.9091 65.6613C34.9091 67.5052 36.3743 69 38.1818 69H64.3636C68.5811 69 72 65.5122 72 61.2097V7.79033C72 3.48785 68.5811 0 64.3636 0H38.1818C36.3743 0 34.9091 1.4948 34.9091 3.33871C34.9091 5.18263 36.3743 6.67742 38.1818 6.67742L64.3636 6.67742C64.9661 6.67742 65.4545 7.17569 65.4545 7.79033V61.2097C65.4545 61.8243 64.9661 62.3226 64.3636 62.3226H38.1818Z" fill="#48484A"/>
<path fill-rule="evenodd" clip-rule="evenodd" d="M49.1043 45.029C52.1168 45.029 54.5589 42.5377 54.5589 39.4645V29.4906C54.5589 26.4174 52.1168 23.9261 49.1043 23.9261L28.9766 23.9261C28.9482 23.5992 28.9184 23.2724 28.8873 22.9458L28.6515 20.4712C28.2918 16.6957 24.3619 14.4347 21.0088 16.0741C13.8776 19.5605 7.42189 24.3315 1.9521 30.1576L1.51923 30.6187C-0.506408 32.7763 -0.506408 36.1788 1.51922 38.3364L1.9521 38.7975C7.42189 44.6235 13.8776 49.3945 21.0088 52.881C24.3619 54.5204 28.2918 52.2593 28.6515 48.4839L28.8873 46.0093C28.9184 45.6827 28.9482 45.3559 28.9766 45.029H49.1043ZM25.9423 38.3516C24.78 38.3516 23.7524 38.9717 23.1713 39.9131C22.8883 40.3715 22.7111 40.9062 22.6759 41.4825C22.5967 42.7774 22.4956 44.0712 22.3725 45.3634L22.3041 46.0816C17.7831 43.7048 13.5847 40.7448 9.8111 37.2774C8.83209 36.3778 7.88168 35.4441 6.96164 34.4775C11.428 29.7853 16.6102 25.8669 22.3041 22.8735L22.3725 23.5917C22.4956 24.8839 22.5967 26.1778 22.6759 27.4726C22.7835 29.2324 24.2139 30.6035 25.9423 30.6035H48.0134V38.3516H25.9423Z" fill="#48484A"/>
</svg>
