<svg width="72" height="79" viewBox="0 0 72 79" fill="none" xmlns="http://www.w3.org/2000/svg">
<path fill-rule="evenodd" clip-rule="evenodd" d="M16.2581 20.2737C16.2581 9.62915 25.0968 1 36 1C46.9032 1 55.7419 9.62915 55.7419 20.2737C55.7419 30.9183 46.9032 39.5475 36 39.5475C25.0968 39.5475 16.2581 30.9183 16.2581 20.2737ZM36 7.8025C28.945 7.8025 23.2258 13.3861 23.2258 20.2737C23.2258 27.1614 28.945 32.745 36 32.745C43.055 32.745 48.7742 27.1614 48.7742 20.2737C48.7742 13.3861 43.055 7.8025 36 7.8025Z" fill="#48484A"/>
<path fill-rule="evenodd" clip-rule="evenodd" d="M17.4194 53.1525C11.6471 53.1525 6.96774 57.7209 6.96774 63.3562V68.7451C6.96774 68.8271 7.02865 68.8971 7.1116 68.9103C26.2439 71.9599 45.7561 71.9599 64.8884 68.9103C64.9714 68.8971 65.0323 68.8271 65.0323 68.7451V63.3562C65.0323 57.7209 60.3529 53.1525 54.5806 53.1525H52.9973C52.8748 53.1525 52.7532 53.1714 52.6368 53.2085L48.6163 54.4902C40.4184 57.1035 31.5816 57.1035 23.3837 54.4902L19.3632 53.2085C19.2468 53.1714 19.1252 53.1525 19.0027 53.1525H17.4194ZM0 63.3562C0 53.9639 7.79891 46.35 17.4194 46.35H19.0027C19.8597 46.35 20.7113 46.4823 21.526 46.742L25.5465 48.0237C32.339 50.189 39.661 50.189 46.4535 48.0237L50.474 46.742C51.2886 46.4823 52.1403 46.35 52.9973 46.35H54.5806C64.2011 46.35 72 53.9639 72 63.3562V68.7451C72 72.161 69.4643 75.0735 66.0111 75.6239C46.1353 78.792 25.8647 78.792 5.98888 75.6239C2.53572 75.0735 0 72.161 0 68.7451V63.3562Z" fill="#48484A"/>
</svg>
