<svg width="72" height="60" viewBox="0 0 72 60" fill="none" xmlns="http://www.w3.org/2000/svg">
<path fill-rule="evenodd" clip-rule="evenodd" d="M19.8643 0.598505C31.1356 -0.251782 42.4568 -0.195992 53.7192 0.765336L60.5068 1.34471C65.6339 1.78235 69.7949 5.67693 70.5745 10.7679L71.0027 13.5642C72.4559 23.0533 72.3201 32.7183 70.6009 42.1627C69.7526 46.8227 65.6969 50.2093 60.9645 50.2093H23.441C22.5777 50.2093 21.7278 50.4234 20.9674 50.8324L4.61933 59.6261C3.6477 60.1488 2.47316 60.1219 1.52641 59.5554C0.579657 58.9888 0 57.966 0 56.8619V21.2251C0 10.436 8.30784 1.4703 19.0565 0.659441L19.8643 0.598505ZM19.8562 21.2974C16.9703 21.2974 14.6309 23.639 14.6309 26.5275C14.6309 29.416 16.9703 31.7576 19.8562 31.7576C22.742 31.7576 25.0815 29.416 25.0815 26.5275C25.0815 23.639 22.742 21.2974 19.8562 21.2974ZM36.5771 21.2974C33.6913 21.2974 31.3518 23.639 31.3518 26.5275C31.3518 29.416 33.6913 31.7576 36.5771 31.7576C39.463 31.7576 41.8024 29.416 41.8024 26.5275C41.8024 23.639 39.463 21.2974 36.5771 21.2974ZM48.0728 26.5275C48.0728 23.639 50.4122 21.2974 53.2981 21.2974C56.184 21.2974 58.5234 23.639 58.5234 26.5275C58.5234 29.416 56.184 31.7576 53.2981 31.7576C50.4122 31.7576 48.0728 29.416 48.0728 26.5275Z" fill="#409CFF"/>
</svg>
