<svg width="18" height="15" viewBox="0 0 18 15" fill="none" xmlns="http://www.w3.org/2000/svg">
<path fill-rule="evenodd" clip-rule="evenodd" d="M5.00194 0.552956C7.69826 0.349736 10.4065 0.36307 13.1007 0.592829L14.7245 0.731301C15.951 0.835897 16.9464 1.76671 17.1329 2.98346L17.2353 3.65179C17.5829 5.9197 17.5505 8.22966 17.1392 10.4869C16.9362 11.6006 15.9661 12.41 14.834 12.41H5.85756C5.65104 12.41 5.44774 12.4612 5.26583 12.559L1.35504 14.6607C1.12261 14.7856 0.841631 14.7792 0.615148 14.6438C0.388666 14.5084 0.25 14.2639 0.25 14V5.48275C0.25 2.90415 2.23741 0.761318 4.80871 0.56752L5.00194 0.552956ZM5 5.50005C4.30964 5.50005 3.75 6.05969 3.75 6.75005C3.75 7.4404 4.30964 8.00005 5 8.00005C5.69036 8.00005 6.25 7.4404 6.25 6.75005C6.25 6.05969 5.69036 5.50005 5 5.50005ZM9 5.50005C8.30964 5.50005 7.75 6.05969 7.75 6.75005C7.75 7.4404 8.30964 8.00005 9 8.00005C9.69036 8.00005 10.25 7.4404 10.25 6.75005C10.25 6.05969 9.69036 5.50005 9 5.50005ZM11.75 6.75005C11.75 6.05969 12.3096 5.50005 13 5.50005C13.6904 5.50005 14.25 6.05969 14.25 6.75005C14.25 7.4404 13.6904 8.00005 13 8.00005C12.3096 8.00005 11.75 7.4404 11.75 6.75005Z" fill="#409CFF"/>
</svg>
