<svg width="24" height="24" viewBox="0 0 24 24" fill="none" xmlns="http://www.w3.org/2000/svg">
<path fill-rule="evenodd" clip-rule="evenodd" d="M12 11.6495C11.3096 11.6495 10.75 12.2091 10.75 12.8995C10.75 13.5898 11.3096 14.1495 12 14.1495C12.6904 14.1495 13.25 13.5898 13.25 12.8995C13.25 12.2091 12.6904 11.6495 12 11.6495ZM9.25 12.8995C9.25 11.3807 10.4812 10.1495 12 10.1495C13.5188 10.1495 14.75 11.3807 14.75 12.8995C14.75 14.4183 13.5188 15.6495 12 15.6495C10.4812 15.6495 9.25 14.4183 9.25 12.8995Z" fill="#409CFF"/>
<path fill-rule="evenodd" clip-rule="evenodd" d="M12 7.64948C10.9617 7.64948 9.94662 7.95738 9.08326 8.53426C8.2199 9.11114 7.547 9.93108 7.14964 10.8904C6.75228 11.8497 6.64831 12.9053 6.85088 13.9237C7.05345 14.9421 7.55347 15.8776 8.28769 16.6118C8.58059 16.9047 8.58059 17.3796 8.28769 17.6724C7.9948 17.9653 7.51993 17.9653 7.22703 17.6724C6.28303 16.7284 5.64015 15.5257 5.3797 14.2163C5.11925 12.907 5.25292 11.5498 5.76382 10.3164C6.27471 9.08296 7.13987 8.02876 8.2499 7.28706C9.35994 6.54536 10.665 6.14948 12 6.14948C13.335 6.14948 14.6401 6.54536 15.7501 7.28706C16.8601 8.02876 17.7253 9.08296 18.2362 10.3164C18.7471 11.5498 18.8808 12.907 18.6203 14.2163C18.3599 15.5257 17.717 16.7284 16.773 17.6724C16.4801 17.9653 16.0052 17.9653 15.7123 17.6724C15.4194 17.3796 15.4194 16.9047 15.7123 16.6118C16.4465 15.8776 16.9466 14.9421 17.1491 13.9237C17.3517 12.9053 17.2477 11.8497 16.8504 10.8904C16.453 9.93108 15.7801 9.11114 14.9167 8.53426C14.0534 7.95738 13.0384 7.64948 12 7.64948Z" fill="#409CFF"/>
<path fill-rule="evenodd" clip-rule="evenodd" d="M12.0001 3.75C10.1905 3.75 8.42152 4.28661 6.9169 5.29197C5.41227 6.29733 4.23956 7.72628 3.54705 9.39813C2.85455 11.07 2.67336 12.9096 3.0264 14.6845C3.37943 16.4593 4.25083 18.0896 5.53041 19.3692C5.82331 19.662 5.82331 20.1369 5.53041 20.4298C5.23752 20.7227 4.76265 20.7227 4.46975 20.4298C2.9804 18.9405 1.96613 17.0429 1.55522 14.9771C1.14431 12.9113 1.3552 10.77 2.16123 8.82411C2.96727 6.87817 4.33224 5.21494 6.08354 4.04476C7.83484 2.87458 9.89381 2.25 12.0001 2.25C14.1063 2.25 16.1653 2.87458 17.9166 4.04476C19.6679 5.21494 21.0329 6.87817 21.8389 8.82411C22.645 10.77 22.8559 12.9113 22.4449 14.9771C22.034 17.0429 21.0198 18.9405 19.5304 20.4298C19.2375 20.7227 18.7626 20.7227 18.4697 20.4298C18.1768 20.1369 18.1768 19.662 18.4697 19.3692C19.7493 18.0896 20.6207 16.4593 20.9738 14.6845C21.3268 12.9096 21.1456 11.07 20.4531 9.39813C19.7606 7.72628 18.5879 6.29733 17.0833 5.29197C15.5786 4.28661 13.8097 3.75 12.0001 3.75Z" fill="#409CFF"/>
<path d="M9.08326 8.53426L8.80547 8.11853L9.08326 8.53426ZM12 7.64948V7.14948V7.64948ZM7.14964 10.8904L7.61158 11.0817L7.14964 10.8904ZM6.85088 13.9237L6.36049 14.0212L6.85088 13.9237ZM8.28769 16.6118L7.93414 16.9653L7.93414 16.9653L8.28769 16.6118ZM8.28769 17.6724L7.93414 17.3189L7.93414 17.3189L8.28769 17.6724ZM7.22703 17.6724L7.58059 17.3189L7.58059 17.3189L7.22703 17.6724ZM5.3797 14.2163L5.8701 14.1188L5.3797 14.2163ZM5.76382 10.3164L5.30188 10.125L5.76382 10.3164ZM8.2499 7.28706L8.52769 7.70279L8.2499 7.28706ZM12 6.14948V5.64948V6.14948ZM15.7501 7.28706L15.4723 7.70279L15.7501 7.28706ZM18.2362 10.3164L17.7742 10.5077H17.7743L18.2362 10.3164ZM18.6203 14.2163L19.1107 14.3139L18.6203 14.2163ZM16.773 17.6724L16.4194 17.3189L16.4194 17.3189L16.773 17.6724ZM15.7123 17.6724L16.0659 17.3189L16.0659 17.3189L15.7123 17.6724ZM15.7123 16.6118L16.0659 16.9653L16.0659 16.9653L15.7123 16.6118ZM17.1491 13.9237L16.6587 13.8262V13.8262L17.1491 13.9237ZM16.8504 10.8904L17.3123 10.699L16.8504 10.8904ZM14.9167 8.53426L15.1945 8.11853L14.9167 8.53426ZM6.9169 5.29197L7.19468 5.7077L6.9169 5.29197ZM3.54705 9.39813L4.00899 9.58947L3.54705 9.39813ZM3.0264 14.6845L2.536 14.782L3.0264 14.6845ZM5.53041 19.3692L5.88397 19.0156L5.88397 19.0156L5.53041 19.3692ZM5.53041 20.4298L5.88397 20.7834L5.88397 20.7834L5.53041 20.4298ZM4.46975 20.4298L4.1162 20.7834H4.1162L4.46975 20.4298ZM1.55522 14.9771L2.04561 14.8796L1.55522 14.9771ZM2.16123 8.82411L1.69929 8.63276L2.16123 8.82411ZM6.08354 4.04476L6.36132 4.4605L6.08354 4.04476ZM17.9166 4.04476L17.6388 4.4605V4.4605L17.9166 4.04476ZM22.4449 14.9771L21.9545 14.8796V14.8796L22.4449 14.9771ZM19.5304 20.4298L19.884 20.7834H19.884L19.5304 20.4298ZM18.4697 20.4298L18.1162 20.7834L18.1162 20.7834L18.4697 20.4298ZM18.4697 19.3692L18.1162 19.0156V19.0156L18.4697 19.3692ZM20.9738 14.6845L21.4642 14.782V14.782L20.9738 14.6845ZM20.4531 9.39813L20.915 9.20679V9.20679L20.4531 9.39813ZM17.0833 5.29197L17.361 4.87623L17.0833 5.29197ZM11.25 12.8995C11.25 12.4853 11.5858 12.1495 12 12.1495V11.1495C11.0335 11.1495 10.25 11.933 10.25 12.8995H11.25ZM12 13.6495C11.5858 13.6495 11.25 13.3137 11.25 12.8995H10.25C10.25 13.866 11.0335 14.6495 12 14.6495V13.6495ZM12.75 12.8995C12.75 13.3137 12.4142 13.6495 12 13.6495V14.6495C12.9665 14.6495 13.75 13.866 13.75 12.8995H12.75ZM12 12.1495C12.4142 12.1495 12.75 12.4853 12.75 12.8995H13.75C13.75 11.933 12.9665 11.1495 12 11.1495V12.1495ZM12 9.64948C10.2051 9.64948 8.75 11.1045 8.75 12.8995H9.75C9.75 11.6568 10.7574 10.6495 12 10.6495V9.64948ZM15.25 12.8995C15.25 11.1045 13.7949 9.64948 12 9.64948V10.6495C13.2426 10.6495 14.25 11.6568 14.25 12.8995H15.25ZM12 16.1495C13.7949 16.1495 15.25 14.6944 15.25 12.8995H14.25C14.25 14.1421 13.2426 15.1495 12 15.1495V16.1495ZM8.75 12.8995C8.75 14.6944 10.2051 16.1495 12 16.1495V15.1495C10.7574 15.1495 9.75 14.1421 9.75 12.8995H8.75ZM9.36104 8.94999C10.1422 8.42806 11.0605 8.14948 12 8.14948V7.14948C10.8628 7.14948 9.75106 7.48671 8.80547 8.11853L9.36104 8.94999ZM7.61158 11.0817C7.97109 10.2138 8.57991 9.47193 9.36104 8.94999L8.80547 8.11853C7.85989 8.75034 7.1229 9.64837 6.6877 10.699L7.61158 11.0817ZM7.34127 13.8262C7.15799 12.9047 7.25206 11.9497 7.61158 11.0817L6.6877 10.699C6.25249 11.7497 6.13862 12.9059 6.36049 14.0212L7.34127 13.8262ZM8.64125 16.2582C7.97695 15.5939 7.52455 14.7476 7.34127 13.8262L6.36049 14.0212C6.58235 15.1366 7.12999 16.1612 7.93414 16.9653L8.64125 16.2582ZM8.64124 18.026C9.1294 17.5378 9.1294 16.7464 8.64124 16.2582L7.93414 16.9653C8.03177 17.063 8.03177 17.2213 7.93414 17.3189L8.64124 18.026ZM6.87348 18.026C7.36163 18.5142 8.15309 18.5142 8.64125 18.026L7.93414 17.3189C7.83651 17.4165 7.67822 17.4165 7.58059 17.3189L6.87348 18.026ZM4.88931 14.3139C5.16905 15.7202 5.85955 17.0121 6.87348 18.026L7.58059 17.3189C6.70651 16.4448 6.11125 15.3312 5.8701 14.1188L4.88931 14.3139ZM5.30188 10.125C4.75314 11.4498 4.60957 12.9075 4.88931 14.3139L5.8701 14.1188C5.62894 12.9064 5.75271 11.6497 6.22576 10.5077L5.30188 10.125ZM7.97212 6.87132C6.77986 7.66796 5.85061 8.80026 5.30188 10.125L6.22576 10.5077C6.6988 9.36567 7.49988 8.38955 8.52769 7.70279L7.97212 6.87132ZM12 5.64948C10.5661 5.64948 9.16437 6.07468 7.97212 6.87132L8.52769 7.70279C9.5555 7.01603 10.7639 6.64948 12 6.64948V5.64948ZM16.0279 6.87132C14.8356 6.07468 13.4339 5.64948 12 5.64948V6.64948C13.2361 6.64948 14.4445 7.01603 15.4723 7.70279L16.0279 6.87132ZM18.6981 10.125C18.1494 8.80026 17.2201 7.66796 16.0279 6.87132L15.4723 7.70279C16.5001 8.38955 17.3012 9.36567 17.7742 10.5077L18.6981 10.125ZM19.1107 14.3139C19.3904 12.9075 19.2469 11.4498 18.6981 10.125L17.7743 10.5077C18.2473 11.6497 18.3711 12.9064 18.1299 14.1188L19.1107 14.3139ZM17.1265 18.026C18.1405 17.0121 18.831 15.7202 19.1107 14.3139L18.1299 14.1188C17.8888 15.3312 17.2935 16.4448 16.4194 17.3189L17.1265 18.026ZM15.3588 18.026C15.8469 18.5142 16.6384 18.5142 17.1265 18.026L16.4194 17.3189C16.3218 17.4165 16.1635 17.4165 16.0659 17.3189L15.3588 18.026ZM15.3588 16.2582C14.8706 16.7464 14.8706 17.5378 15.3588 18.026L16.0659 17.3189C15.9682 17.2213 15.9682 17.063 16.0659 16.9653L15.3588 16.2582ZM16.6587 13.8262C16.4755 14.7476 16.0231 15.5939 15.3588 16.2582L16.0659 16.9653C16.87 16.1612 17.4177 15.1366 17.6395 14.0212L16.6587 13.8262ZM16.3884 11.0817C16.7479 11.9497 16.842 12.9047 16.6587 13.8262L17.6395 14.0212C17.8614 12.9059 17.7475 11.7497 17.3123 10.699L16.3884 11.0817ZM14.639 8.94999C15.4201 9.47193 16.0289 10.2138 16.3884 11.0817L17.3123 10.699C16.8771 9.64837 16.1401 8.75034 15.1945 8.11853L14.639 8.94999ZM12 8.14948C12.9395 8.14948 13.8578 8.42806 14.639 8.94999L15.1945 8.11853C14.2489 7.48671 13.1372 7.14948 12 7.14948V8.14948ZM7.19468 5.7077C8.61708 4.75728 10.2894 4.25 12.0001 4.25V3.25C10.0916 3.25 8.22596 3.81593 6.63911 4.87623L7.19468 5.7077ZM4.00899 9.58947C4.66365 8.00899 5.77228 6.65812 7.19468 5.7077L6.63911 4.87623C5.05226 5.93653 3.81546 7.44357 3.08511 9.20679L4.00899 9.58947ZM3.51679 14.5869C3.18305 12.9091 3.35433 11.17 4.00899 9.58947L3.08511 9.20679C2.35477 10.97 2.16368 12.9102 2.536 14.782L3.51679 14.5869ZM5.88397 19.0156C4.67431 17.8059 3.85053 16.2648 3.51679 14.5869L2.536 14.782C2.90833 16.6538 3.82735 18.3732 5.17686 19.7227L5.88397 19.0156ZM5.88397 20.7834C6.37212 20.2952 6.37212 19.5038 5.88397 19.0156L5.17686 19.7227C5.27449 19.8203 5.27449 19.9786 5.17686 20.0763L5.88397 20.7834ZM4.1162 20.7834C4.60435 21.2715 5.39581 21.2715 5.88397 20.7834L5.17686 20.0763C5.07923 20.1739 4.92094 20.1739 4.82331 20.0763L4.1162 20.7834ZM1.06482 15.0746C1.49503 17.2374 2.55692 19.2241 4.1162 20.7834L4.82331 20.0763C3.40387 18.6568 2.43723 16.8484 2.04561 14.8796L1.06482 15.0746ZM1.69929 8.63276C0.855416 10.6701 0.63462 12.9119 1.06482 15.0746L2.04561 14.8796C1.65399 12.9107 1.85498 10.87 2.62317 9.01545L1.69929 8.63276ZM5.80575 3.62903C3.97223 4.85415 2.54317 6.59546 1.69929 8.63276L2.62317 9.01545C3.39136 7.16087 4.69225 5.57574 6.36132 4.4605L5.80575 3.62903ZM12.0001 1.75C9.79492 1.75 7.63928 2.40391 5.80575 3.62903L6.36132 4.4605C8.0304 3.34526 9.9927 2.75 12.0001 2.75V1.75ZM18.1944 3.62903C16.3609 2.40391 14.2052 1.75 12.0001 1.75V2.75C14.0075 2.75 15.9698 3.34526 17.6388 4.4605L18.1944 3.62903ZM22.3009 8.63276C21.457 6.59546 20.0279 4.85415 18.1944 3.62903L17.6388 4.4605C19.3079 5.57574 20.6088 7.16087 21.377 9.01545L22.3009 8.63276ZM22.9353 15.0746C23.3655 12.9119 23.1447 10.6701 22.3009 8.63276L21.377 9.01545C22.1452 10.87 22.3462 12.9107 21.9545 14.8796L22.9353 15.0746ZM19.884 20.7834C21.4432 19.2241 22.5051 17.2374 22.9353 15.0746L21.9545 14.8796C21.5629 16.8484 20.5963 18.6568 19.1768 20.0763L19.884 20.7834ZM18.1162 20.7834C18.6043 21.2715 19.3958 21.2715 19.884 20.7834L19.1769 20.0763C19.0792 20.1739 18.9209 20.1739 18.8233 20.0763L18.1162 20.7834ZM18.1162 19.0156C17.628 19.5038 17.628 20.2952 18.1162 20.7834L18.8233 20.0763C18.7257 19.9786 18.7257 19.8203 18.8233 19.7227L18.1162 19.0156ZM20.4834 14.5869C20.1496 16.2648 19.3258 17.8059 18.1162 19.0156L18.8233 19.7227C20.1728 18.3732 21.0918 16.6538 21.4642 14.782L20.4834 14.5869ZM19.9912 9.58947C20.6458 11.17 20.8171 12.9091 20.4834 14.5869L21.4642 14.782C21.8365 12.9102 21.6454 10.97 20.915 9.20679L19.9912 9.58947ZM16.8055 5.7077C18.2279 6.65812 19.3365 8.00899 19.9912 9.58947L20.915 9.20679C20.1847 7.44358 18.9479 5.93653 17.361 4.87623L16.8055 5.7077ZM12.0001 4.25C13.7108 4.25 15.3831 4.75728 16.8055 5.7077L17.361 4.87623C15.7742 3.81593 13.9086 3.25 12.0001 3.25V4.25Z" fill="#409CFF"/>
</svg>
