<svg width="72" height="79" viewBox="0 0 72 79" fill="none" xmlns="http://www.w3.org/2000/svg">
<path d="M36 2C26.3796 2 18.5806 9.74309 18.5806 19.2947C18.5806 28.8463 26.3796 36.5894 36 36.5894C45.6204 36.5894 53.4194 28.8463 53.4194 19.2947C53.4194 9.74309 45.6204 2 36 2Z" fill="#409CFF"/>
<path d="M17.4194 45.8132C7.79891 45.8132 0 53.5563 0 63.1079V68.5881C0 72.062 2.53572 75.0239 5.98888 75.5836C25.8647 78.8055 46.1353 78.8055 66.0111 75.5836C69.4643 75.0239 72 72.062 72 68.5881V63.1079C72 53.5563 64.2011 45.8132 54.5806 45.8132H52.9973C52.1403 45.8132 51.2886 45.9477 50.474 46.2118L46.4535 47.5153C39.661 49.7174 32.339 49.7174 25.5465 47.5153L21.526 46.2118C20.7113 45.9477 19.8597 45.8132 19.0027 45.8132H17.4194Z" fill="#409CFF"/>
</svg>
