<svg width="600" height="600" viewBox="0 0 600 600" fill="none" xmlns="http://www.w3.org/2000/svg">
<g clip-path="url(#clip0_1208_11251)">
<path d="M362.075 304.163L555.711 404.839L517.194 471.552L333.188 354.197L362.075 304.163Z" fill="url(#paint0_linear_1208_11251)"/>
<path d="M329.903 358.069L339.532 576.101H262.499L272.128 358.069H329.903Z" fill="url(#paint1_linear_1208_11251)"/>
<path d="M270.629 242.032L261 24L338.033 24L328.404 242.032H270.629Z" fill="url(#paint2_linear_1208_11251)"/>
<path d="M267.523 354.889L83.5166 472.244L44.9999 405.531L238.636 304.854L267.523 354.889Z" fill="url(#paint3_linear_1208_11251)"/>
<path d="M362.075 296.081L555.711 195.405L517.194 128.692L333.188 246.047L362.075 296.081Z" fill="url(#paint4_linear_1208_11251)"/>
<path d="M267.523 245.355L83.5166 128L44.9999 194.713L238.636 295.39L267.523 245.355Z" fill="url(#paint5_linear_1208_11251)"/>
<g opacity="0.3" filter="url(#filter0_f_1208_11251)">
<path d="M235.229 140.615C235.229 144.82 231.82 148.229 227.615 148.229C223.409 148.229 220 144.82 220 140.615C220 136.409 223.409 133 227.615 133C231.82 133 235.229 136.409 235.229 140.615Z" fill="#FFEBC4"/>
</g>
<g filter="url(#filter1_f_1208_11251)">
<path d="M198.076 416.538C198.076 417.94 196.94 419.076 195.538 419.076C194.136 419.076 193 417.94 193 416.538C193 415.136 194.136 414 195.538 414C196.94 414 198.076 415.136 198.076 416.538Z" fill="#FFEBC4"/>
</g>
<g opacity="0.3" filter="url(#filter2_f_1208_11251)">
<path d="M219.076 184.538C219.076 185.94 217.94 187.076 216.538 187.076C215.136 187.076 214 185.94 214 184.538C214 183.136 215.136 182 216.538 182C217.94 182 219.076 183.136 219.076 184.538Z" fill="#FFEBC4"/>
</g>
<g filter="url(#filter3_f_1208_11251)">
<path d="M433.076 333.538C433.076 334.94 431.94 336.076 430.538 336.076C429.136 336.076 428 334.94 428 333.538C428 332.136 429.136 331 430.538 331C431.94 331 433.076 332.136 433.076 333.538Z" fill="#FFEBC4"/>
</g>
<g filter="url(#filter4_f_1208_11251)">
<path d="M132.921 311.134C132.921 315.807 129.133 319.595 124.461 319.595C119.788 319.595 116 315.807 116 311.134C116 306.461 119.788 302.673 124.461 302.673C129.133 302.673 132.921 306.461 132.921 311.134Z" fill="#FFDDAA"/>
</g>
<g opacity="0.6" filter="url(#filter5_f_1208_11251)">
<path d="M517.537 274.769C517.537 278.507 514.507 281.537 510.769 281.537C507.03 281.537 504 278.507 504 274.769C504 271.03 507.03 268 510.769 268C514.507 268 517.537 271.03 517.537 274.769Z" fill="#FFDDAA"/>
</g>
<g opacity="0.8" filter="url(#filter6_f_1208_11251)">
<path d="M237.537 495.769C237.537 499.507 234.507 502.537 230.769 502.537C227.03 502.537 224 499.507 224 495.769C224 492.03 227.03 489 230.769 489C234.507 489 237.537 492.03 237.537 495.769Z" fill="#FFDDAA"/>
</g>
<g filter="url(#filter7_dd_1208_11251)">
<path d="M196.445 253.738L204.358 213.209L89.0347 190.695C84.0895 216.026 99.0299 234.72 113.58 237.561L196.445 253.738Z" fill="url(#paint6_linear_1208_11251)"/>
<path fill-rule="evenodd" clip-rule="evenodd" d="M196.179 255.874L204.531 213.093L89.9004 190.714L89.6806 191.84C84.6356 217.683 99.8557 237.069 115.132 240.051L196.179 255.874ZM194.367 253.182L115.571 237.8C101.958 235.142 87.533 217.643 91.7246 193.408L201.839 214.905L194.367 253.182Z" fill="url(#paint7_linear_1208_11251)"/>
<path d="M197.208 291.585L205.12 251.056L109.427 232.375C104.482 257.705 119.422 276.4 133.972 279.24L197.208 291.585Z" fill="url(#paint8_linear_1208_11251)"/>
<path fill-rule="evenodd" clip-rule="evenodd" d="M198.114 292.931L206.466 250.15L108.521 231.029L108.301 232.155C103.256 257.997 118.476 277.384 133.752 280.366L198.114 292.931ZM196.302 290.24L134.192 278.114C120.579 275.457 106.154 257.958 110.345 233.723L203.775 251.962L196.302 290.24Z" fill="url(#paint9_linear_1208_11251)"/>
<path d="M223.949 334.205L231.861 293.676L136.168 274.994C131.223 300.325 146.163 319.019 160.713 321.859L223.949 334.205Z" fill="url(#paint10_linear_1208_11251)"/>
<path fill-rule="evenodd" clip-rule="evenodd" d="M224.855 335.55L233.207 292.77L135.262 273.648L135.042 274.774C129.997 300.617 145.218 320.003 160.494 322.985L224.855 335.55ZM223.043 332.859L160.933 320.734C147.32 318.076 132.895 300.577 137.086 276.342L230.516 294.582L223.043 332.859Z" fill="url(#paint11_linear_1208_11251)"/>
<g filter="url(#filter8_d_1208_11251)">
<path d="M202.173 435.716V347H253.673V465.5L203.74 438.352C202.774 437.827 202.173 436.816 202.173 435.716Z" fill="#ECD8BA"/>
</g>
<g filter="url(#filter9_d_1208_11251)">
<path fill-rule="evenodd" clip-rule="evenodd" d="M201.673 346.5H254.173V466.341L203.501 438.791C202.374 438.179 201.673 436.999 201.673 435.716V346.5ZM202.673 347.5V435.716C202.673 436.632 203.174 437.475 203.979 437.913L253.173 464.659V347.5H202.673Z" fill="url(#paint12_linear_1208_11251)"/>
</g>
<path fill-rule="evenodd" clip-rule="evenodd" d="M207.842 433.139V392H207.173V433.697L207.453 433.743C208.378 433.897 209.406 434.444 210.246 435.244C211.085 436.043 211.706 437.066 211.86 438.144L211.886 438.323L238.953 451V405.726H238.284V449.948L212.493 437.868C212.273 436.676 211.581 435.592 210.707 434.76C209.87 433.962 208.84 433.372 207.842 433.139Z" fill="url(#paint13_linear_1208_11251)"/>
<path fill-rule="evenodd" clip-rule="evenodd" d="M238.247 447.5C238.968 446.28 239.009 444.55 238.953 443.432L238.285 443.466C238.341 444.578 238.282 446.126 237.671 447.159C237.375 447.66 236.955 448.028 236.352 448.18C235.738 448.334 234.89 448.274 233.723 447.82L233.48 448.444C234.722 448.927 235.719 449.029 236.515 448.829C237.322 448.626 237.877 448.125 238.247 447.5Z" fill="#D4B195"/>
<g filter="url(#filter10_d_1208_11251)">
<path d="M396.673 435.716V347H345.173V465.5L395.106 438.352C396.072 437.827 396.673 436.816 396.673 435.716Z" fill="#ECD8BA"/>
</g>
<g filter="url(#filter11_d_1208_11251)">
<path fill-rule="evenodd" clip-rule="evenodd" d="M397.173 346.5H344.673V466.341L395.345 438.791C396.471 438.179 397.173 436.999 397.173 435.716V346.5ZM396.173 347.5V435.716C396.173 436.632 395.672 437.475 394.867 437.913L345.673 464.659V347.5H396.173Z" fill="url(#paint14_linear_1208_11251)"/>
</g>
<path fill-rule="evenodd" clip-rule="evenodd" d="M391.004 433.139V392H391.673V433.697L391.393 433.743C390.468 433.897 389.44 434.444 388.6 435.244C387.761 436.043 387.14 437.066 386.986 438.144L386.96 438.323L359.893 451V405.726H360.562V449.948L386.353 437.868C386.573 436.676 387.265 435.592 388.138 434.76C388.976 433.962 390.006 433.372 391.004 433.139Z" fill="url(#paint15_linear_1208_11251)"/>
<path fill-rule="evenodd" clip-rule="evenodd" d="M360.599 447.5C359.878 446.28 359.836 444.55 359.892 443.432L360.561 443.466C360.505 444.578 360.564 446.126 361.175 447.159C361.471 447.66 361.89 448.028 362.494 448.18C363.108 448.334 363.956 448.274 365.123 447.82L365.365 448.444C364.124 448.927 363.127 449.029 362.331 448.829C361.524 448.626 360.969 448.125 360.599 447.5Z" fill="#D4B195"/>
<path d="M401.712 255.043L393.8 214.514L509.123 192C514.068 217.33 499.127 236.025 484.577 238.865L401.712 255.043Z" fill="url(#paint16_linear_1208_11251)"/>
<path fill-rule="evenodd" clip-rule="evenodd" d="M401.979 257.178L393.627 214.398L508.257 192.019L508.477 193.145C513.522 218.987 498.301 238.374 483.025 241.356L401.979 257.178ZM403.791 254.487L482.586 239.104C496.199 236.447 510.624 218.947 506.433 194.713L396.318 216.21L403.791 254.487Z" fill="url(#paint17_linear_1208_11251)"/>
<path d="M400.949 292.89L393.037 252.361L488.73 233.679C493.676 259.01 478.735 277.704 464.185 280.545L400.949 292.89Z" fill="url(#paint18_linear_1208_11251)"/>
<path fill-rule="evenodd" clip-rule="evenodd" d="M400.043 294.236L391.691 251.455L489.636 232.334L489.856 233.46C494.901 259.302 479.681 278.688 464.405 281.671L400.043 294.236ZM401.855 291.545L463.965 279.419C477.579 276.761 492.004 259.262 487.812 235.027L394.382 253.267L401.855 291.545Z" fill="url(#paint19_linear_1208_11251)"/>
<path d="M374.208 335.509L366.296 294.98L461.989 276.299C466.934 301.629 451.994 320.324 437.444 323.164L374.208 335.509Z" fill="url(#paint20_linear_1208_11251)"/>
<path fill-rule="evenodd" clip-rule="evenodd" d="M373.302 336.855L364.95 294.074L462.895 274.953L463.115 276.079C468.16 301.921 452.94 321.308 437.664 324.29L373.302 336.855ZM375.114 334.164L437.224 322.038C450.837 319.381 465.262 301.881 461.071 277.647L367.641 295.886L375.114 334.164Z" fill="url(#paint21_linear_1208_11251)"/>
<g filter="url(#filter12_d_1208_11251)">
<path d="M244.173 342H354.173V481.686L299.784 509.333C298.961 509.752 297.986 509.75 297.164 509.329L244.173 482.166V342Z" fill="url(#paint22_linear_1208_11251)"/>
</g>
<g filter="url(#filter13_d_1208_11251)">
<path fill-rule="evenodd" clip-rule="evenodd" d="M243.173 341H355.173V482.299L300.238 510.225C299.128 510.789 297.815 510.787 296.708 510.219L243.173 482.777V341ZM245.173 343V481.555L297.62 508.439C298.157 508.714 298.793 508.715 299.331 508.442L353.173 481.072V343H245.173Z" fill="url(#paint23_linear_1208_11251)"/>
</g>
<path fill-rule="evenodd" clip-rule="evenodd" d="M315.173 500.511L299.784 508.333C298.961 508.752 297.986 508.75 297.164 508.329L281.173 500.132V398H315.173V500.511Z" fill="url(#paint24_linear_1208_11251)"/>
<path fill-rule="evenodd" clip-rule="evenodd" d="M250.173 417H251.766V479.52L298.778 503.821L346.579 479.517V417H348.173V480.084L298.771 505L250.173 480.081V417Z" fill="url(#paint25_linear_1208_11251)"/>
<path fill-rule="evenodd" clip-rule="evenodd" d="M299.105 482V500.143H298.235V482H299.105Z" fill="url(#paint26_linear_1208_11251)"/>
<path fill-rule="evenodd" clip-rule="evenodd" d="M296.066 493.704C294.336 495.7 292.228 496.144 290.776 495.902L290.919 495.044C292.076 495.237 293.879 494.899 295.409 493.135C296.945 491.364 298.236 488.114 298.236 482.434H299.106C299.106 488.229 297.79 491.716 296.066 493.704Z" fill="url(#paint27_linear_1208_11251)"/>
<path fill-rule="evenodd" clip-rule="evenodd" d="M301.276 493.704C303.006 495.7 305.114 496.144 306.565 495.902L306.423 495.044C305.266 495.237 303.462 494.899 301.933 493.135C300.397 491.364 299.105 488.114 299.105 482.434H298.236C298.236 488.229 299.552 491.716 301.276 493.704Z" fill="url(#paint28_linear_1208_11251)"/>
<path fill-rule="evenodd" clip-rule="evenodd" d="M298.488 500.538L288.673 495.039L290.846 495.039L298.67 499.666L306.492 495H308.411L298.849 500.539C298.734 500.591 298.602 500.591 298.488 500.538Z" fill="url(#paint29_linear_1208_11251)"/>
<g filter="url(#filter14_d_1208_11251)">
<path d="M291.049 159.419L183.049 218.17C177.578 221.146 174.173 226.875 174.173 233.103L174.173 367.402C174.173 373.629 177.578 379.359 183.049 382.335L291.049 441.086C296.114 443.841 302.231 443.841 307.296 441.086L415.296 382.335C420.767 379.359 424.173 373.629 424.173 367.402L424.173 233.103C424.173 226.875 420.767 221.146 415.296 218.17L307.296 159.419C302.231 156.664 296.114 156.664 291.049 159.419Z" fill="url(#paint30_linear_1208_11251)"/>
<path d="M290.93 181.403L202.016 229.771C196.566 232.736 193.173 238.444 193.173 244.648L193.173 355.352C193.173 361.556 196.566 367.264 202.016 370.229L290.93 418.597C295.976 421.343 302.07 421.343 307.116 418.597L396.03 370.229C401.48 367.264 404.873 361.556 404.873 355.352L404.873 244.648C404.873 238.444 401.48 232.736 396.03 229.771L307.116 181.403C302.07 178.657 295.976 178.657 290.93 181.403Z" fill="url(#paint31_linear_1208_11251)"/>
<g filter="url(#filter15_f_1208_11251)">
<path fill-rule="evenodd" clip-rule="evenodd" d="M306.877 181.842C301.98 179.178 296.066 179.178 291.169 181.842L202.255 230.21C196.965 233.087 193.673 238.627 193.673 244.648L193.673 355.352C193.673 361.373 196.965 366.913 202.255 369.79L291.169 418.158C296.066 420.822 301.98 420.822 306.877 418.158L395.791 369.79C401.081 366.913 404.373 361.373 404.373 355.352L404.373 244.648C404.373 238.627 401.081 233.087 395.791 230.21L306.877 181.842ZM290.691 180.963C295.886 178.137 302.16 178.137 307.355 180.963L396.269 229.332C401.88 232.384 405.373 238.26 405.373 244.648L405.373 355.352C405.373 361.74 401.88 367.616 396.269 370.668L307.355 419.037C302.16 421.863 295.886 421.863 290.691 419.037L201.777 370.668C196.166 367.616 192.673 361.74 192.673 355.352L192.673 244.648C192.673 238.26 196.166 232.384 201.777 229.332L290.691 180.963Z" fill="url(#paint32_linear_1208_11251)"/>
</g>
<g opacity="0.5">
<mask id="mask0_1208_11251" style="mask-type:alpha" maskUnits="userSpaceOnUse" x="202" y="189" width="196" height="223">
<path d="M291.98 191.181L210.59 235.417C205.402 238.236 202.173 243.667 202.173 249.571L202.173 350.819C202.173 356.723 205.402 362.154 210.59 364.973L291.98 409.209C296.777 411.816 302.569 411.816 307.366 409.209L388.756 364.973C393.943 362.154 397.173 356.723 397.173 350.819L397.173 249.571C397.173 243.667 393.943 238.236 388.756 235.417L307.366 191.181C302.569 188.574 296.777 188.574 291.98 191.181Z" fill="#A6D3DE"/>
</mask>
<g mask="url(#mask0_1208_11251)">
<path d="M291.98 191.181L210.59 235.417C205.402 238.236 202.173 243.667 202.173 249.571L202.173 350.819C202.173 356.723 205.402 362.154 210.59 364.973L291.98 409.209C296.777 411.816 302.569 411.816 307.366 409.209L388.756 364.973C393.943 362.154 397.173 356.723 397.173 350.819L397.173 249.571C397.173 243.667 393.943 238.236 388.756 235.417L307.366 191.181C302.569 188.574 296.777 188.574 291.98 191.181Z" fill="url(#paint33_radial_1208_11251)"/>
<path opacity="0.5" d="M283.373 417.862L279.5 182.517H319.845L315.972 417.862H283.373Z" fill="url(#paint34_linear_1208_11251)"/>
<path opacity="0.5" d="M282.855 415.775L161.828 213.896L196.768 193.724L311.086 399.475L282.855 415.775Z" fill="url(#paint35_linear_1208_11251)"/>
<path opacity="0.5" d="M279.492 399.475L393.811 193.724L428.75 213.896L307.724 415.774L279.492 399.475Z" fill="url(#paint36_linear_1208_11251)"/>
<path d="M202.173 286.741H397.173V413.379H202.173V286.741Z" fill="url(#paint37_linear_1208_11251)"/>
<g filter="url(#filter16_i_1208_11251)">
<path d="M291.98 191.181L210.59 235.417C205.402 238.236 202.173 243.667 202.173 249.571L202.173 350.819C202.173 356.723 205.402 362.154 210.59 364.973L291.98 409.209C296.777 411.816 302.569 411.816 307.366 409.209L388.756 364.973C393.943 362.154 397.173 356.723 397.173 350.819L397.173 249.571C397.173 243.667 393.943 238.236 388.756 235.417L307.366 191.181C302.569 188.574 296.777 188.574 291.98 191.181Z" fill="#6052B4" fill-opacity="0.01"/>
</g>
</g>
</g>
</g>
</g>
<g filter="url(#filter17_d_1208_11251)">
<g filter="url(#filter18_d_1208_11251)">
<path fill-rule="evenodd" clip-rule="evenodd" d="M298.151 201.233C300.643 199.541 307.766 207.329 311.553 216.116C309.79 218.848 307.757 222.01 305.454 225.601C307.342 223.033 309.892 220.847 313.105 219.043C311.765 222.402 316.298 230.822 316.227 232.871C316.179 234.237 313.657 237.791 308.661 243.534C310.314 242.001 312.58 239.796 315.458 236.921L316.108 236.271C319.411 253.527 321.064 281.434 319.449 287.414C317.834 293.393 314.101 294.17 310.044 306.69C311.948 303.698 314.543 300.244 317.828 296.328C317.349 302.749 315.446 308.756 312.119 314.35C307.29 322.472 302.781 327.314 302.217 335.647C302.217 335.647 301.517 349.025 301.517 355.715C301.517 360.096 301.706 380 301.706 380L297.83 379.719C297.83 379.719 298.017 359.719 298.017 355.301C298.017 348.227 297.317 334.079 297.317 334.079C297.118 333.324 296.906 332.603 296.684 331.917C294.191 324.236 285.901 317.805 283.301 309.64C281.568 304.197 279.761 298.065 277.88 291.244C280.809 292.038 283.727 293.876 286.636 296.76C284.712 291.157 279.829 284.34 277 277.179C279.633 263.588 278.262 241.038 283.787 230.187C285.834 215.801 295.66 202.924 298.151 201.233Z" fill="url(#paint38_linear_1208_11251)"/>
<mask id="mask1_1208_11251" style="mask-type:alpha" maskUnits="userSpaceOnUse" x="277" y="201" width="44" height="179">
<path fill-rule="evenodd" clip-rule="evenodd" d="M298.151 201.233C300.643 199.541 307.766 207.329 311.553 216.116C309.79 218.848 307.757 222.01 305.454 225.601C307.342 223.033 309.892 220.847 313.105 219.043C311.765 222.402 316.298 230.822 316.227 232.871C316.179 234.237 313.657 237.791 308.661 243.534C310.314 242.001 312.58 239.796 315.458 236.921L316.108 236.271C319.411 253.527 321.064 281.434 319.449 287.414C317.834 293.393 314.101 294.17 310.044 306.69C311.948 303.698 314.543 300.244 317.828 296.328C317.349 302.749 315.446 308.756 312.119 314.35C307.29 322.472 302.781 327.314 302.217 335.647C302.217 335.647 301.517 349.025 301.517 355.715C301.517 360.096 301.706 380 301.706 380L297.83 379.719C297.83 379.719 298.017 359.719 298.017 355.301C298.017 348.227 297.317 334.079 297.317 334.079C297.118 333.324 296.906 332.603 296.684 331.917C294.191 324.236 285.901 317.805 283.301 309.64C281.568 304.197 279.761 298.065 277.88 291.244C280.809 292.038 283.727 293.876 286.636 296.76C284.712 291.157 279.829 284.34 277 277.179C279.633 263.588 278.262 241.038 283.787 230.187C285.834 215.801 295.66 202.924 298.151 201.233Z" fill="white"/>
</mask>
<g mask="url(#mask1_1208_11251)">
<path fill-rule="evenodd" clip-rule="evenodd" d="M320.075 276.023C320.075 286.369 310.858 297.528 310.045 306.69C316.228 296.655 318.067 292.937 321 291.357C323.934 289.776 320.075 265.678 320.075 276.023Z" fill="url(#paint39_linear_1208_11251)"/>
<path fill-rule="evenodd" clip-rule="evenodd" d="M286.635 296.76L289.029 299.83C289.029 299.83 287.269 293.391 285.196 290.5C283.124 287.609 278.019 279.286 277 277.179C275.98 275.071 275.855 280.974 275.855 280.974L286.635 296.76Z" fill="url(#paint40_linear_1208_11251)"/>
<path fill-rule="evenodd" clip-rule="evenodd" d="M315.587 229.965C316.21 231.685 314.876 234.479 312.352 238.156C309.827 241.834 306.193 246.028 306.193 246.028L308.661 243.534L317.346 234.275L319.029 230.648C319.029 230.648 314.965 228.244 315.587 229.965Z" fill="url(#paint41_linear_1208_11251)"/>
<path fill-rule="evenodd" clip-rule="evenodd" d="M306.194 224.703L303.521 227.957C303.521 227.957 308.251 220.509 309.032 218.115C309.814 215.72 311.171 214.133 310.102 210.788C309.032 207.443 314.729 215.984 314.729 215.984L308.551 221.73L306.194 224.703Z" fill="url(#paint42_linear_1208_11251)"/>
<path fill-rule="evenodd" clip-rule="evenodd" d="M297 386.302C297 386.302 297.839 365.049 298 355.592C298.234 341.847 299 209.031 299 209.031C299 209.031 301.533 328.092 301.533 356.472C301.533 384.852 307.817 390.628 307.817 390.628L297 388.47L297 386.302Z" fill="#EAC893"/>
</g>
</g>
<g filter="url(#filter19_d_1208_11251)">
<path fill-rule="evenodd" clip-rule="evenodd" d="M299.413 380.252C298.804 380.061 298.177 379.864 297.641 381.566C297.641 392.692 296 397.2 296 397.2C296 397.2 300.069 403.307 300.069 406.911C300.069 403.416 304.138 397.2 304.138 397.2C304.138 397.2 302.497 391.681 302.497 381.566C301.9 379.671 301.308 379.915 300.669 380.179C300.474 380.26 300.274 380.342 300.069 380.366C299.856 380.39 299.636 380.321 299.413 380.252ZM301.031 389.692C301.031 390.251 300.579 390.704 300.02 390.704C299.461 390.704 299.008 390.251 299.008 389.692C299.008 389.134 299.461 388.681 300.02 388.681C300.579 388.681 301.031 389.134 301.031 389.692Z" fill="url(#paint43_linear_1208_11251)"/>
<mask id="mask2_1208_11251" style="mask-type:alpha" maskUnits="userSpaceOnUse" x="296" y="380" width="9" height="27">
<path fill-rule="evenodd" clip-rule="evenodd" d="M299.413 380.252C298.804 380.061 298.177 379.864 297.641 381.566C297.641 392.692 296 397.2 296 397.2C296 397.2 300.069 403.307 300.069 406.911C300.069 403.416 304.138 397.2 304.138 397.2C304.138 397.2 302.497 391.681 302.497 381.566C301.9 379.671 301.308 379.915 300.669 380.179C300.474 380.26 300.274 380.342 300.069 380.366C299.856 380.39 299.636 380.321 299.413 380.252ZM301.031 389.692C301.031 390.251 300.579 390.704 300.02 390.704C299.461 390.704 299.008 390.251 299.008 389.692C299.008 389.134 299.461 388.681 300.02 388.681C300.579 388.681 301.031 389.134 301.031 389.692Z" fill="white"/>
</mask>
<g mask="url(#mask2_1208_11251)">
<path fill-rule="evenodd" clip-rule="evenodd" d="M300.069 381.566H311.398V406.911H300.069V381.566Z" fill="url(#paint44_linear_1208_11251)"/>
<path opacity="0.6" d="M294 379.543H306.138V383.589H294V379.543Z" fill="url(#paint45_linear_1208_11251)"/>
</g>
<path fill-rule="evenodd" clip-rule="evenodd" d="M300.069 403.631C300.832 400.491 304.138 397.2 304.138 397.2C304.138 397.2 300.069 403.416 300.069 406.911C300.069 403.307 296 397.2 296 397.2C296 397.2 299.183 400.526 300.069 403.631Z" fill="url(#paint46_linear_1208_11251)"/>
<mask id="mask3_1208_11251" style="mask-type:alpha" maskUnits="userSpaceOnUse" x="296" y="397" width="9" height="10">
<path fill-rule="evenodd" clip-rule="evenodd" d="M300.069 403.631C300.832 400.491 304.138 397.2 304.138 397.2C304.138 397.2 300.069 403.416 300.069 406.911C300.069 403.307 296 397.2 296 397.2C296 397.2 299.183 400.526 300.069 403.631Z" fill="white"/>
</mask>
<g mask="url(#mask3_1208_11251)">
</g>
</g>
<g filter="url(#filter20_d_1208_11251)">
<path d="M295.917 379.533C295.917 378.759 296.544 378.133 297.317 378.133H302.217C302.99 378.133 303.617 378.759 303.617 379.533V380.733C303.617 381.506 302.99 382.133 302.217 382.133H297.317C296.544 382.133 295.917 381.506 295.917 380.733V379.533Z" fill="url(#paint47_linear_1208_11251)"/>
</g>
<path fill-rule="evenodd" clip-rule="evenodd" d="M296.16 379.175C296.16 378.72 296.529 378.351 296.985 378.351H302.419C302.874 378.351 303.244 378.72 303.244 379.175C303.244 379.631 302.874 380 302.419 380H296.985C296.529 380 296.16 379.631 296.16 379.175Z" fill="white"/>
</g>
</g>
<defs>
<filter id="filter0_f_1208_11251" x="199.694" y="112.694" width="55.841" height="55.8409" filterUnits="userSpaceOnUse" color-interpolation-filters="sRGB">
<feFlood flood-opacity="0" result="BackgroundImageFix"/>
<feBlend mode="normal" in="SourceGraphic" in2="BackgroundImageFix" result="shape"/>
<feGaussianBlur stdDeviation="10.1529" result="effect1_foregroundBlur_1208_11251"/>
</filter>
<filter id="filter1_f_1208_11251" x="191.308" y="412.308" width="8.46046" height="8.46071" filterUnits="userSpaceOnUse" color-interpolation-filters="sRGB">
<feFlood flood-opacity="0" result="BackgroundImageFix"/>
<feBlend mode="normal" in="SourceGraphic" in2="BackgroundImageFix" result="shape"/>
<feGaussianBlur stdDeviation="0.846073" result="effect1_foregroundBlur_1208_11251"/>
</filter>
<filter id="filter2_f_1208_11251" x="206" y="174" width="21.0762" height="21.0764" filterUnits="userSpaceOnUse" color-interpolation-filters="sRGB">
<feFlood flood-opacity="0" result="BackgroundImageFix"/>
<feBlend mode="normal" in="SourceGraphic" in2="BackgroundImageFix" result="shape"/>
<feGaussianBlur stdDeviation="4" result="effect1_foregroundBlur_1208_11251"/>
</filter>
<filter id="filter3_f_1208_11251" x="422" y="325" width="17.0762" height="17.0764" filterUnits="userSpaceOnUse" color-interpolation-filters="sRGB">
<feFlood flood-opacity="0" result="BackgroundImageFix"/>
<feBlend mode="normal" in="SourceGraphic" in2="BackgroundImageFix" result="shape"/>
<feGaussianBlur stdDeviation="3" result="effect1_foregroundBlur_1208_11251"/>
</filter>
<filter id="filter4_f_1208_11251" x="96" y="282.673" width="56.9219" height="56.9215" filterUnits="userSpaceOnUse" color-interpolation-filters="sRGB">
<feFlood flood-opacity="0" result="BackgroundImageFix"/>
<feBlend mode="normal" in="SourceGraphic" in2="BackgroundImageFix" result="shape"/>
<feGaussianBlur stdDeviation="10" result="effect1_foregroundBlur_1208_11251"/>
</filter>
<filter id="filter5_f_1208_11251" x="487.079" y="251.079" width="47.38" height="47.38" filterUnits="userSpaceOnUse" color-interpolation-filters="sRGB">
<feFlood flood-opacity="0" result="BackgroundImageFix"/>
<feBlend mode="normal" in="SourceGraphic" in2="BackgroundImageFix" result="shape"/>
<feGaussianBlur stdDeviation="8.46073" result="effect1_foregroundBlur_1208_11251"/>
</filter>
<filter id="filter6_f_1208_11251" x="207.079" y="472.079" width="47.38" height="47.38" filterUnits="userSpaceOnUse" color-interpolation-filters="sRGB">
<feFlood flood-opacity="0" result="BackgroundImageFix"/>
<feBlend mode="normal" in="SourceGraphic" in2="BackgroundImageFix" result="shape"/>
<feGaussianBlur stdDeviation="8.46073" result="effect1_foregroundBlur_1208_11251"/>
</filter>
<filter id="filter7_dd_1208_11251" x="-3.76686" y="71.6388" width="605.691" height="536.966" filterUnits="userSpaceOnUse" color-interpolation-filters="sRGB">
<feFlood flood-opacity="0" result="BackgroundImageFix"/>
<feColorMatrix in="SourceAlpha" type="matrix" values="0 0 0 0 0 0 0 0 0 0 0 0 0 0 0 0 0 0 127 0" result="hardAlpha"/>
<feOffset/>
<feGaussianBlur stdDeviation="15.306"/>
<feColorMatrix type="matrix" values="0 0 0 0 0.991667 0 0 0 0 0.801597 0 0 0 0 0.516493 0 0 0 1 0"/>
<feBlend mode="normal" in2="BackgroundImageFix" result="effect1_dropShadow_1208_11251"/>
<feColorMatrix in="SourceAlpha" type="matrix" values="0 0 0 0 0 0 0 0 0 0 0 0 0 0 0 0 0 0 127 0" result="hardAlpha"/>
<feOffset dy="6.12241"/>
<feGaussianBlur stdDeviation="45.9181"/>
<feColorMatrix type="matrix" values="0 0 0 0 1 0 0 0 0 0.722667 0 0 0 0 0.466667 0 0 0 0.6 0"/>
<feBlend mode="normal" in2="effect1_dropShadow_1208_11251" result="effect2_dropShadow_1208_11251"/>
<feBlend mode="normal" in="SourceGraphic" in2="effect2_dropShadow_1208_11251" result="shape"/>
</filter>
<filter id="filter8_d_1208_11251" x="194.173" y="339" width="67.5" height="134.5" filterUnits="userSpaceOnUse" color-interpolation-filters="sRGB">
<feFlood flood-opacity="0" result="BackgroundImageFix"/>
<feColorMatrix in="SourceAlpha" type="matrix" values="0 0 0 0 0 0 0 0 0 0 0 0 0 0 0 0 0 0 127 0" result="hardAlpha"/>
<feOffset/>
<feGaussianBlur stdDeviation="4"/>
<feColorMatrix type="matrix" values="0 0 0 0 0.7 0 0 0 0 0.561568 0 0 0 0 0.32375 0 0 0 0.78 0"/>
<feBlend mode="normal" in2="BackgroundImageFix" result="effect1_dropShadow_1208_11251"/>
<feBlend mode="normal" in="SourceGraphic" in2="effect1_dropShadow_1208_11251" result="shape"/>
</filter>
<filter id="filter9_d_1208_11251" x="193.673" y="338.5" width="68.5" height="135.841" filterUnits="userSpaceOnUse" color-interpolation-filters="sRGB">
<feFlood flood-opacity="0" result="BackgroundImageFix"/>
<feColorMatrix in="SourceAlpha" type="matrix" values="0 0 0 0 0 0 0 0 0 0 0 0 0 0 0 0 0 0 127 0" result="hardAlpha"/>
<feOffset/>
<feGaussianBlur stdDeviation="4"/>
<feColorMatrix type="matrix" values="0 0 0 0 0.7 0 0 0 0 0.561568 0 0 0 0 0.32375 0 0 0 0.78 0"/>
<feBlend mode="normal" in2="BackgroundImageFix" result="effect1_dropShadow_1208_11251"/>
<feBlend mode="normal" in="SourceGraphic" in2="effect1_dropShadow_1208_11251" result="shape"/>
</filter>
<filter id="filter10_d_1208_11251" x="337.173" y="339" width="67.5" height="134.5" filterUnits="userSpaceOnUse" color-interpolation-filters="sRGB">
<feFlood flood-opacity="0" result="BackgroundImageFix"/>
<feColorMatrix in="SourceAlpha" type="matrix" values="0 0 0 0 0 0 0 0 0 0 0 0 0 0 0 0 0 0 127 0" result="hardAlpha"/>
<feOffset/>
<feGaussianBlur stdDeviation="4"/>
<feColorMatrix type="matrix" values="0 0 0 0 0.7 0 0 0 0 0.561568 0 0 0 0 0.32375 0 0 0 0.78 0"/>
<feBlend mode="normal" in2="BackgroundImageFix" result="effect1_dropShadow_1208_11251"/>
<feBlend mode="normal" in="SourceGraphic" in2="effect1_dropShadow_1208_11251" result="shape"/>
</filter>
<filter id="filter11_d_1208_11251" x="336.673" y="338.5" width="68.5" height="135.841" filterUnits="userSpaceOnUse" color-interpolation-filters="sRGB">
<feFlood flood-opacity="0" result="BackgroundImageFix"/>
<feColorMatrix in="SourceAlpha" type="matrix" values="0 0 0 0 0 0 0 0 0 0 0 0 0 0 0 0 0 0 127 0" result="hardAlpha"/>
<feOffset/>
<feGaussianBlur stdDeviation="4"/>
<feColorMatrix type="matrix" values="0 0 0 0 0.7 0 0 0 0 0.561568 0 0 0 0 0.32375 0 0 0 0.78 0"/>
<feBlend mode="normal" in2="BackgroundImageFix" result="effect1_dropShadow_1208_11251"/>
<feBlend mode="normal" in="SourceGraphic" in2="effect1_dropShadow_1208_11251" result="shape"/>
</filter>
<filter id="filter12_d_1208_11251" x="236.173" y="334" width="126" height="183.646" filterUnits="userSpaceOnUse" color-interpolation-filters="sRGB">
<feFlood flood-opacity="0" result="BackgroundImageFix"/>
<feColorMatrix in="SourceAlpha" type="matrix" values="0 0 0 0 0 0 0 0 0 0 0 0 0 0 0 0 0 0 127 0" result="hardAlpha"/>
<feOffset/>
<feGaussianBlur stdDeviation="4"/>
<feColorMatrix type="matrix" values="0 0 0 0 0.7 0 0 0 0 0.561568 0 0 0 0 0.32375 0 0 0 0.78 0"/>
<feBlend mode="normal" in2="BackgroundImageFix" result="effect1_dropShadow_1208_11251"/>
<feBlend mode="normal" in="SourceGraphic" in2="effect1_dropShadow_1208_11251" result="shape"/>
</filter>
<filter id="filter13_d_1208_11251" x="235.173" y="333" width="128" height="185.646" filterUnits="userSpaceOnUse" color-interpolation-filters="sRGB">
<feFlood flood-opacity="0" result="BackgroundImageFix"/>
<feColorMatrix in="SourceAlpha" type="matrix" values="0 0 0 0 0 0 0 0 0 0 0 0 0 0 0 0 0 0 127 0" result="hardAlpha"/>
<feOffset/>
<feGaussianBlur stdDeviation="4"/>
<feColorMatrix type="matrix" values="0 0 0 0 0.7 0 0 0 0 0.561568 0 0 0 0 0.32375 0 0 0 0.78 0"/>
<feBlend mode="normal" in2="BackgroundImageFix" result="effect1_dropShadow_1208_11251"/>
<feBlend mode="normal" in="SourceGraphic" in2="effect1_dropShadow_1208_11251" result="shape"/>
</filter>
<filter id="filter14_d_1208_11251" x="168.173" y="157.353" width="262" height="299.8" filterUnits="userSpaceOnUse" color-interpolation-filters="sRGB">
<feFlood flood-opacity="0" result="BackgroundImageFix"/>
<feColorMatrix in="SourceAlpha" type="matrix" values="0 0 0 0 0 0 0 0 0 0 0 0 0 0 0 0 0 0 127 0" result="hardAlpha"/>
<feOffset dy="8"/>
<feGaussianBlur stdDeviation="3"/>
<feColorMatrix type="matrix" values="0 0 0 0 0.4375 0 0 0 0 0.287401 0 0 0 0 0.111198 0 0 0 0.6 0"/>
<feBlend mode="normal" in2="BackgroundImageFix" result="effect1_dropShadow_1208_11251"/>
<feBlend mode="normal" in="SourceGraphic" in2="effect1_dropShadow_1208_11251" result="shape"/>
</filter>
<filter id="filter15_f_1208_11251" x="192.373" y="178.544" width="213.3" height="242.913" filterUnits="userSpaceOnUse" color-interpolation-filters="sRGB">
<feFlood flood-opacity="0" result="BackgroundImageFix"/>
<feBlend mode="normal" in="SourceGraphic" in2="BackgroundImageFix" result="shape"/>
<feGaussianBlur stdDeviation="0.15" result="effect1_foregroundBlur_1208_11251"/>
</filter>
<filter id="filter16_i_1208_11251" x="202.173" y="189.226" width="195" height="221.939" filterUnits="userSpaceOnUse" color-interpolation-filters="sRGB">
<feFlood flood-opacity="0" result="BackgroundImageFix"/>
<feBlend mode="normal" in="SourceGraphic" in2="BackgroundImageFix" result="shape"/>
<feColorMatrix in="SourceAlpha" type="matrix" values="0 0 0 0 0 0 0 0 0 0 0 0 0 0 0 0 0 0 127 0" result="hardAlpha"/>
<feOffset/>
<feGaussianBlur stdDeviation="6.72414"/>
<feComposite in2="hardAlpha" operator="arithmetic" k2="-1" k3="1"/>
<feColorMatrix type="matrix" values="0 0 0 0 0.458333 0 0 0 0 0.256743 0 0 0 0 0.0706597 0 0 0 1 0"/>
<feBlend mode="normal" in2="shape" result="effect1_innerShadow_1208_11251"/>
</filter>
<filter id="filter17_d_1208_11251" x="273" y="201" width="51.0752" height="213.911" filterUnits="userSpaceOnUse" color-interpolation-filters="sRGB">
<feFlood flood-opacity="0" result="BackgroundImageFix"/>
<feColorMatrix in="SourceAlpha" type="matrix" values="0 0 0 0 0 0 0 0 0 0 0 0 0 0 0 0 0 0 127 0" result="hardAlpha"/>
<feOffset dy="4"/>
<feGaussianBlur stdDeviation="2"/>
<feColorMatrix type="matrix" values="0 0 0 0 0.795833 0 0 0 0 0.632621 0 0 0 0 0.441024 0 0 0 0.47 0"/>
<feBlend mode="normal" in2="BackgroundImageFix" result="effect1_dropShadow_1208_11251"/>
<feBlend mode="normal" in="SourceGraphic" in2="effect1_dropShadow_1208_11251" result="shape"/>
</filter>
<filter id="filter18_d_1208_11251" x="270.129" y="197.384" width="57.5409" height="193.466" filterUnits="userSpaceOnUse" color-interpolation-filters="sRGB">
<feFlood flood-opacity="0" result="BackgroundImageFix"/>
<feColorMatrix in="SourceAlpha" type="matrix" values="0 0 0 0 0 0 0 0 0 0 0 0 0 0 0 0 0 0 127 0" result="hardAlpha"/>
<feOffset dx="0.361644" dy="3.61644"/>
<feGaussianBlur stdDeviation="3.61644"/>
<feColorMatrix type="matrix" values="0 0 0 0 0.795833 0 0 0 0 0.519745 0 0 0 0 0.195642 0 0 0 0.42 0"/>
<feBlend mode="normal" in2="BackgroundImageFix" result="effect1_dropShadow_1208_11251"/>
<feBlend mode="normal" in="SourceGraphic" in2="effect1_dropShadow_1208_11251" result="shape"/>
</filter>
<filter id="filter19_d_1208_11251" x="289.129" y="376.384" width="22.6034" height="41.3765" filterUnits="userSpaceOnUse" color-interpolation-filters="sRGB">
<feFlood flood-opacity="0" result="BackgroundImageFix"/>
<feColorMatrix in="SourceAlpha" type="matrix" values="0 0 0 0 0 0 0 0 0 0 0 0 0 0 0 0 0 0 127 0" result="hardAlpha"/>
<feOffset dx="0.361644" dy="3.61644"/>
<feGaussianBlur stdDeviation="3.61644"/>
<feColorMatrix type="matrix" values="0 0 0 0 0.795833 0 0 0 0 0.519745 0 0 0 0 0.195642 0 0 0 0.42 0"/>
<feBlend mode="normal" in2="BackgroundImageFix" result="effect1_dropShadow_1208_11251"/>
<feBlend mode="normal" in="SourceGraphic" in2="effect1_dropShadow_1208_11251" result="shape"/>
</filter>
<filter id="filter20_d_1208_11251" x="289.046" y="374.516" width="22.1659" height="18.4658" filterUnits="userSpaceOnUse" color-interpolation-filters="sRGB">
<feFlood flood-opacity="0" result="BackgroundImageFix"/>
<feColorMatrix in="SourceAlpha" type="matrix" values="0 0 0 0 0 0 0 0 0 0 0 0 0 0 0 0 0 0 127 0" result="hardAlpha"/>
<feOffset dx="0.361644" dy="3.61644"/>
<feGaussianBlur stdDeviation="3.61644"/>
<feColorMatrix type="matrix" values="0 0 0 0 0.795833 0 0 0 0 0.519745 0 0 0 0 0.195642 0 0 0 0.42 0"/>
<feBlend mode="normal" in2="BackgroundImageFix" result="effect1_dropShadow_1208_11251"/>
<feBlend mode="normal" in="SourceGraphic" in2="effect1_dropShadow_1208_11251" result="shape"/>
</filter>
<linearGradient id="paint0_linear_1208_11251" x1="536.453" y1="438.196" x2="347.631" y2="329.18" gradientUnits="userSpaceOnUse">
<stop stop-color="#FFF6D6" stop-opacity="0"/>
<stop offset="1" stop-color="#FFEFC5" stop-opacity="0.4"/>
</linearGradient>
<linearGradient id="paint1_linear_1208_11251" x1="301.016" y1="576.101" x2="301.016" y2="358.069" gradientUnits="userSpaceOnUse">
<stop stop-color="#FFF6D6" stop-opacity="0"/>
<stop offset="1" stop-color="#FFEFC5" stop-opacity="0.4"/>
</linearGradient>
<linearGradient id="paint2_linear_1208_11251" x1="299.517" y1="24" x2="299.517" y2="242.032" gradientUnits="userSpaceOnUse">
<stop stop-color="#FFF6D6" stop-opacity="0"/>
<stop offset="1" stop-color="#FFEFC5" stop-opacity="0.4"/>
</linearGradient>
<linearGradient id="paint3_linear_1208_11251" x1="64.2583" y1="438.887" x2="253.079" y2="329.872" gradientUnits="userSpaceOnUse">
<stop stop-color="#FFF6D6" stop-opacity="0"/>
<stop offset="1" stop-color="#FFEFC5" stop-opacity="0.4"/>
</linearGradient>
<linearGradient id="paint4_linear_1208_11251" x1="536.453" y1="162.048" x2="347.631" y2="271.064" gradientUnits="userSpaceOnUse">
<stop stop-color="#FFF6D6" stop-opacity="0"/>
<stop offset="1" stop-color="#FFEFC5" stop-opacity="0.4"/>
</linearGradient>
<linearGradient id="paint5_linear_1208_11251" x1="64.2583" y1="161.356" x2="253.079" y2="270.372" gradientUnits="userSpaceOnUse">
<stop stop-color="#FFF6D6" stop-opacity="0"/>
<stop offset="1" stop-color="#FFEFC5" stop-opacity="0.4"/>
</linearGradient>
<linearGradient id="paint6_linear_1208_11251" x1="139.664" y1="242.653" x2="112.031" y2="201.613" gradientUnits="userSpaceOnUse">
<stop stop-color="#D2A86B"/>
<stop offset="0.875" stop-color="#FFF5DE"/>
</linearGradient>
<linearGradient id="paint7_linear_1208_11251" x1="96.4355" y1="193.159" x2="121.172" y2="240.062" gradientUnits="userSpaceOnUse">
<stop stop-color="#FFF5DE"/>
<stop offset="0.378992" stop-color="#F5E3C4"/>
<stop offset="0.480868" stop-color="#E6CA9E"/>
<stop offset="0.729174" stop-color="#D2A86B"/>
</linearGradient>
<linearGradient id="paint8_linear_1208_11251" x1="160.056" y1="284.333" x2="132.423" y2="243.292" gradientUnits="userSpaceOnUse">
<stop stop-color="#E0C08E"/>
<stop offset="0.875" stop-color="#FFF5DE"/>
</linearGradient>
<linearGradient id="paint9_linear_1208_11251" x1="115.056" y1="233.474" x2="170.673" y2="299.5" gradientUnits="userSpaceOnUse">
<stop stop-color="#FFF5DE"/>
<stop offset="0.378992" stop-color="#FFF5DE"/>
<stop offset="0.480868" stop-color="#EAD2A9"/>
<stop offset="0.729174" stop-color="#D2A86B"/>
</linearGradient>
<linearGradient id="paint10_linear_1208_11251" x1="186.798" y1="326.952" x2="159.164" y2="285.911" gradientUnits="userSpaceOnUse">
<stop stop-color="#E0C08E"/>
<stop offset="0.875" stop-color="#FFF5DE"/>
</linearGradient>
<linearGradient id="paint11_linear_1208_11251" x1="141.797" y1="276.093" x2="197.414" y2="342.119" gradientUnits="userSpaceOnUse">
<stop stop-color="#FFF5DE"/>
<stop offset="0.378992" stop-color="#FFF5DE"/>
<stop offset="0.480868" stop-color="#EAD2A9"/>
<stop offset="0.729174" stop-color="#D2A86B"/>
</linearGradient>
<linearGradient id="paint12_linear_1208_11251" x1="202.173" y1="427.763" x2="255.046" y2="439.71" gradientUnits="userSpaceOnUse">
<stop stop-color="#8D664F"/>
<stop offset="0.208702" stop-color="#C49F7D"/>
<stop offset="0.648432" stop-color="#FFF1DC"/>
<stop offset="0.827985" stop-color="#B38368"/>
<stop offset="0.971703" stop-color="#8C5F4C"/>
</linearGradient>
<linearGradient id="paint13_linear_1208_11251" x1="208.673" y1="426" x2="227.799" y2="420.298" gradientUnits="userSpaceOnUse">
<stop stop-color="#C7A383"/>
<stop offset="0.309893" stop-color="#D5B198"/>
<stop offset="0.523799" stop-color="#CBA68C"/>
<stop offset="0.77229" stop-color="#BB9478"/>
<stop offset="1" stop-color="#D7B49B"/>
</linearGradient>
<linearGradient id="paint14_linear_1208_11251" x1="396.673" y1="427.763" x2="343.799" y2="439.71" gradientUnits="userSpaceOnUse">
<stop stop-color="#8D664F"/>
<stop offset="0.208702" stop-color="#C49F7D"/>
<stop offset="0.648432" stop-color="#FFF1DC"/>
<stop offset="0.827985" stop-color="#B38368"/>
<stop offset="0.971703" stop-color="#8C5F4C"/>
</linearGradient>
<linearGradient id="paint15_linear_1208_11251" x1="390.173" y1="426" x2="371.047" y2="420.298" gradientUnits="userSpaceOnUse">
<stop stop-color="#C7A383"/>
<stop offset="0.309893" stop-color="#D5B198"/>
<stop offset="0.523799" stop-color="#CBA68C"/>
<stop offset="0.77229" stop-color="#BB9478"/>
<stop offset="1" stop-color="#D7B49B"/>
</linearGradient>
<linearGradient id="paint16_linear_1208_11251" x1="458.493" y1="243.958" x2="486.127" y2="202.917" gradientUnits="userSpaceOnUse">
<stop stop-color="#D2A86B"/>
<stop offset="0.875" stop-color="#FFF5DE"/>
</linearGradient>
<linearGradient id="paint17_linear_1208_11251" x1="501.722" y1="194.464" x2="476.986" y2="241.366" gradientUnits="userSpaceOnUse">
<stop stop-color="#FFF5DE"/>
<stop offset="0.378992" stop-color="#F5E3C4"/>
<stop offset="0.480868" stop-color="#E6CA9E"/>
<stop offset="0.729174" stop-color="#D2A86B"/>
</linearGradient>
<linearGradient id="paint18_linear_1208_11251" x1="438.101" y1="285.637" x2="465.734" y2="244.597" gradientUnits="userSpaceOnUse">
<stop stop-color="#E0C08E"/>
<stop offset="0.875" stop-color="#FFF5DE"/>
</linearGradient>
<linearGradient id="paint19_linear_1208_11251" x1="483.101" y1="234.778" x2="427.484" y2="300.804" gradientUnits="userSpaceOnUse">
<stop stop-color="#FFF5DE"/>
<stop offset="0.378992" stop-color="#FFF5DE"/>
<stop offset="0.480868" stop-color="#EAD2A9"/>
<stop offset="0.729174" stop-color="#D2A86B"/>
</linearGradient>
<linearGradient id="paint20_linear_1208_11251" x1="411.36" y1="328.256" x2="438.993" y2="287.216" gradientUnits="userSpaceOnUse">
<stop stop-color="#E0C08E"/>
<stop offset="0.875" stop-color="#FFF5DE"/>
</linearGradient>
<linearGradient id="paint21_linear_1208_11251" x1="456.36" y1="277.398" x2="400.743" y2="343.423" gradientUnits="userSpaceOnUse">
<stop stop-color="#FFF5DE"/>
<stop offset="0.378992" stop-color="#FFF5DE"/>
<stop offset="0.480868" stop-color="#EAD2A9"/>
<stop offset="0.729174" stop-color="#D2A86B"/>
</linearGradient>
<linearGradient id="paint22_linear_1208_11251" x1="299.173" y1="416" x2="299.173" y2="510" gradientUnits="userSpaceOnUse">
<stop stop-color="#B58D70"/>
<stop offset="0.2286" stop-color="#B58D70"/>
<stop offset="0.47675" stop-color="#D8B59B"/>
<stop offset="0.88344" stop-color="#B58D70"/>
<stop offset="1" stop-color="#B58D70"/>
</linearGradient>
<linearGradient id="paint23_linear_1208_11251" x1="244.173" y1="456.5" x2="350.546" y2="492.71" gradientUnits="userSpaceOnUse">
<stop stop-color="#8D664F"/>
<stop offset="0.208702" stop-color="#FFF5E6"/>
<stop offset="0.648432" stop-color="#ECD8BA"/>
<stop offset="0.780206" stop-color="#D0A568"/>
<stop offset="0.971703" stop-color="#8C5F4C"/>
</linearGradient>
<linearGradient id="paint24_linear_1208_11251" x1="298.173" y1="398" x2="298.173" y2="508.646" gradientUnits="userSpaceOnUse">
<stop stop-color="#DDBFA9"/>
<stop offset="0.22229" stop-color="#DDBFA9"/>
<stop offset="0.669825" stop-color="#EBD4C4"/>
<stop offset="0.898796" stop-color="#DDBFA9"/>
<stop offset="1" stop-color="#DDBFA9"/>
</linearGradient>
<linearGradient id="paint25_linear_1208_11251" x1="343.548" y1="469.339" x2="303.42" y2="438.246" gradientUnits="userSpaceOnUse">
<stop stop-color="#ECD8BA"/>
<stop offset="0.309893" stop-color="#EBD3AE"/>
<stop offset="0.523799" stop-color="#E2C69C"/>
<stop offset="0.77229" stop-color="#E3C8A0"/>
<stop offset="1" stop-color="#ECD8BA"/>
</linearGradient>
<linearGradient id="paint26_linear_1208_11251" x1="298.67" y1="482" x2="298.67" y2="498.95" gradientUnits="userSpaceOnUse">
<stop stop-color="#FAECD8"/>
<stop offset="0.491891" stop-color="#F9EBD7"/>
<stop offset="1" stop-color="#ECD5B4"/>
</linearGradient>
<linearGradient id="paint27_linear_1208_11251" x1="294.941" y1="482.434" x2="294.941" y2="495.962" gradientUnits="userSpaceOnUse">
<stop stop-color="#F9EBD7"/>
<stop offset="0.479167" stop-color="#FAEDD9"/>
<stop offset="1" stop-color="#F8E9D4"/>
</linearGradient>
<linearGradient id="paint28_linear_1208_11251" x1="302.401" y1="482.434" x2="302.401" y2="495.962" gradientUnits="userSpaceOnUse">
<stop stop-color="#FAEDD8"/>
<stop offset="0.479167" stop-color="#FAECD8"/>
<stop offset="1" stop-color="#EAD4B2"/>
</linearGradient>
<linearGradient id="paint29_linear_1208_11251" x1="297.617" y1="496.907" x2="286.341" y2="498.242" gradientUnits="userSpaceOnUse">
<stop stop-color="#E5CBA6"/>
<stop offset="0.309893" stop-color="#FAEDDA"/>
<stop offset="0.523799" stop-color="#F3E2C9"/>
<stop offset="0.613641" stop-color="#EFDCC0"/>
<stop offset="1" stop-color="#EFDCC0"/>
</linearGradient>
<linearGradient id="paint30_linear_1208_11251" x1="246.673" y1="190" x2="359.173" y2="413.5" gradientUnits="userSpaceOnUse">
<stop stop-color="#FFF5DE"/>
<stop offset="1" stop-color="#CFA365"/>
</linearGradient>
<linearGradient id="paint31_linear_1208_11251" x1="245.673" y1="208.5" x2="342.673" y2="387.5" gradientUnits="userSpaceOnUse">
<stop stop-color="#D2A86C"/>
<stop offset="1" stop-color="#F8E6C0"/>
</linearGradient>
<linearGradient id="paint32_linear_1208_11251" x1="256.173" y1="202" x2="360.673" y2="390" gradientUnits="userSpaceOnUse">
<stop stop-color="#FFF6E7"/>
<stop offset="1" stop-color="#FFF8EC"/>
</linearGradient>
<radialGradient id="paint33_radial_1208_11251" cx="0" cy="0" r="1" gradientUnits="userSpaceOnUse" gradientTransform="translate(299.673 300.195) rotate(90) scale(113.195 97.5)">
<stop stop-color="#FFE4BA"/>
<stop offset="1" stop-color="#DEA44D"/>
</radialGradient>
<linearGradient id="paint34_linear_1208_11251" x1="299.672" y1="182.517" x2="299.672" y2="417.862" gradientUnits="userSpaceOnUse">
<stop stop-color="white"/>
<stop offset="1" stop-color="#F2EDED" stop-opacity="0"/>
</linearGradient>
<linearGradient id="paint35_linear_1208_11251" x1="179.298" y1="203.81" x2="296.97" y2="407.625" gradientUnits="userSpaceOnUse">
<stop stop-color="white"/>
<stop offset="1" stop-color="#F2EDED" stop-opacity="0"/>
</linearGradient>
<linearGradient id="paint36_linear_1208_11251" x1="411.28" y1="203.81" x2="293.608" y2="407.625" gradientUnits="userSpaceOnUse">
<stop stop-color="white"/>
<stop offset="1" stop-color="#F2EDED" stop-opacity="0"/>
</linearGradient>
<linearGradient id="paint37_linear_1208_11251" x1="299.673" y1="341.655" x2="299.085" y2="405.533" gradientUnits="userSpaceOnUse">
<stop stop-color="white" stop-opacity="0"/>
<stop offset="1" stop-color="#FFF1E3"/>
</linearGradient>
<linearGradient id="paint38_linear_1208_11251" x1="295.126" y1="156.13" x2="327.203" y2="158.476" gradientUnits="userSpaceOnUse">
<stop offset="0.168737" stop-color="#FDF2D9"/>
<stop offset="0.304755" stop-color="#FFF7E3"/>
<stop offset="0.451944" stop-color="#FFFCF4"/>
<stop offset="0.581036" stop-color="#FFF1D9"/>
<stop offset="0.705947" stop-color="#F3E0BF"/>
<stop offset="0.940592" stop-color="#FFF5DE"/>
</linearGradient>
<linearGradient id="paint39_linear_1208_11251" x1="315.118" y1="265.12" x2="324.036" y2="266.103" gradientUnits="userSpaceOnUse">
<stop offset="0.168737" stop-color="#FDF2D9"/>
<stop offset="0.304755" stop-color="#FFF7E3"/>
<stop offset="0.451944" stop-color="#FFFCF4"/>
<stop offset="0.581036" stop-color="#FFF1D9"/>
<stop offset="0.705947" stop-color="#F3E0BF"/>
<stop offset="0.940592" stop-color="#FFF5DE"/>
</linearGradient>
<linearGradient id="paint40_linear_1208_11251" x1="281.399" y1="270.807" x2="290.977" y2="272.46" gradientUnits="userSpaceOnUse">
<stop offset="0.168737" stop-color="#FDF2D9"/>
<stop offset="0.304755" stop-color="#FFF7E3"/>
<stop offset="0.451944" stop-color="#FFFCF4"/>
<stop offset="0.581036" stop-color="#FFF1D9"/>
<stop offset="0.705947" stop-color="#F3E0BF"/>
<stop offset="0.940592" stop-color="#FFF5DE"/>
</linearGradient>
<linearGradient id="paint41_linear_1208_11251" x1="311.595" y1="225.041" x2="320.711" y2="227.16" gradientUnits="userSpaceOnUse">
<stop offset="0.168737" stop-color="#FDF2D9"/>
<stop offset="0.304755" stop-color="#FFF7E3"/>
<stop offset="0.451944" stop-color="#FFFCF4"/>
<stop offset="0.581036" stop-color="#FFF1D9"/>
<stop offset="0.705947" stop-color="#F3E0BF"/>
<stop offset="0.940592" stop-color="#FFF5DE"/>
</linearGradient>
<linearGradient id="paint42_linear_1208_11251" x1="308.238" y1="205.307" x2="316.342" y2="206.831" gradientUnits="userSpaceOnUse">
<stop offset="0.168737" stop-color="#FDF2D9"/>
<stop offset="0.304755" stop-color="#FFF7E3"/>
<stop offset="0.451944" stop-color="#FFFCF4"/>
<stop offset="0.581036" stop-color="#FFF1D9"/>
<stop offset="0.705947" stop-color="#F3E0BF"/>
<stop offset="0.940592" stop-color="#FFF5DE"/>
</linearGradient>
<linearGradient id="paint43_linear_1208_11251" x1="299.424" y1="373.254" x2="305.466" y2="373.81" gradientUnits="userSpaceOnUse">
<stop offset="0.168737" stop-color="#FDF2D9"/>
<stop offset="0.304755" stop-color="#FFF7E3"/>
<stop offset="0.451944" stop-color="#FFFCF4"/>
<stop offset="0.581036" stop-color="#FFF1D9"/>
<stop offset="0.705947" stop-color="#F3E0BF"/>
<stop offset="0.940592" stop-color="#FFF5DE"/>
</linearGradient>
<linearGradient id="paint44_linear_1208_11251" x1="304.836" y1="375.212" x2="313.164" y2="376.344" gradientUnits="userSpaceOnUse">
<stop offset="0.168737" stop-color="#FDF2D9"/>
<stop offset="0.304755" stop-color="#FFF7E3"/>
<stop offset="0.451944" stop-color="#FFFCF4"/>
<stop offset="0.581036" stop-color="#FFF1D9"/>
<stop offset="0.705947" stop-color="#F3E0BF"/>
<stop offset="0.940592" stop-color="#FFF5DE"/>
</linearGradient>
<linearGradient id="paint45_linear_1208_11251" x1="299.108" y1="378.529" x2="304.07" y2="383.053" gradientUnits="userSpaceOnUse">
<stop offset="0.168737" stop-color="#FDF2D9"/>
<stop offset="0.304755" stop-color="#FFF7E3"/>
<stop offset="0.451944" stop-color="#FFFCF4"/>
<stop offset="0.581036" stop-color="#FFF1D9"/>
<stop offset="0.705947" stop-color="#F3E0BF"/>
<stop offset="0.940592" stop-color="#FFF5DE"/>
</linearGradient>
<linearGradient id="paint46_linear_1208_11251" x1="299.424" y1="394.766" x2="305.146" y2="396.224" gradientUnits="userSpaceOnUse">
<stop offset="0.168737" stop-color="#FDF2D9"/>
<stop offset="0.304755" stop-color="#FFF7E3"/>
<stop offset="0.451944" stop-color="#FFFCF4"/>
<stop offset="0.581036" stop-color="#FFF1D9"/>
<stop offset="0.705947" stop-color="#F3E0BF"/>
<stop offset="0.940592" stop-color="#FFF5DE"/>
</linearGradient>
<linearGradient id="paint47_linear_1208_11251" x1="299.157" y1="377.13" x2="303.452" y2="379.643" gradientUnits="userSpaceOnUse">
<stop offset="0.168737" stop-color="#FDF2D9"/>
<stop offset="0.304755" stop-color="#FFF7E3"/>
<stop offset="0.451944" stop-color="#FFFCF4"/>
<stop offset="0.581036" stop-color="#FFF1D9"/>
<stop offset="0.705947" stop-color="#F3E0BF"/>
<stop offset="0.940592" stop-color="#FFF5DE"/>
</linearGradient>
<clipPath id="clip0_1208_11251">
<rect width="600" height="600" fill="white"/>
</clipPath>
</defs>
</svg>
