<svg width="16" height="14" viewBox="0 0 16 14" fill="none" xmlns="http://www.w3.org/2000/svg">
<path d="M6.42166 0.8125C4.85642 0.8125 3.58753 2.0717 3.58753 3.625C3.58753 5.1783 4.85642 6.4375 6.42166 6.4375C7.98691 6.4375 9.2558 5.1783 9.2558 3.625C9.2558 2.0717 7.98691 0.8125 6.42166 0.8125Z" fill="#409CFF"/>
<path d="M3.39859 7.9375C1.83334 7.9375 0.564453 9.1967 0.564453 10.75V11.6412C0.564453 12.2061 0.977015 12.6878 1.53885 12.7788C4.77265 13.3028 8.07068 13.3028 11.3045 12.7788C11.8663 12.6878 12.2789 12.2061 12.2789 11.6412V10.75C12.2789 9.1967 11.01 7.9375 9.44474 7.9375H9.18712C9.04769 7.9375 8.90913 7.95938 8.77659 8.00233L8.12246 8.21429C7.01731 8.5724 5.82602 8.5724 4.72087 8.21429L4.06674 8.00233C3.9342 7.95938 3.79564 7.9375 3.65621 7.9375H3.39859Z" fill="#409CFF"/>
<path d="M12.8457 2.6875C13.1588 2.6875 13.4125 2.93934 13.4125 3.25V4.5625H14.7351C15.0482 4.5625 15.302 4.81434 15.302 5.125C15.302 5.43566 15.0482 5.6875 14.7351 5.6875H13.4125V7C13.4125 7.31066 13.1588 7.5625 12.8457 7.5625C12.5327 7.5625 12.2789 7.31066 12.2789 7V5.6875H10.9563C10.6432 5.6875 10.3895 5.43566 10.3895 5.125C10.3895 4.81434 10.6432 4.5625 10.9563 4.5625H12.2789V3.25C12.2789 2.93934 12.5327 2.6875 12.8457 2.6875Z" fill="#409CFF"/>
</svg>
