<svg width="24" height="24" viewBox="0 0 24 24" fill="none" xmlns="http://www.w3.org/2000/svg">
<g id="arcade-game-pong-gaming-svgrepo-com 1">
<path id="Vector" d="M20.25 4.875V10.125C20.25 10.725 19.725 11.25 19.125 11.25C18.525 11.25 18 10.725 18 10.125V4.875C18 4.275 18.525 3.75 19.125 3.75C19.725 3.75 20.25 4.275 20.25 4.875Z" stroke="black" stroke-width="1.5" stroke-miterlimit="10" stroke-linecap="round" stroke-linejoin="round"/>
<path id="Vector_2" d="M6 13.875V19.125C6 19.725 5.475 20.25 4.875 20.25C4.275 20.25 3.75 19.725 3.75 19.125V13.875C3.75 13.275 4.275 12.75 4.875 12.75C5.475 12.75 6 13.275 6 13.875Z" stroke="black" stroke-width="1.5" stroke-miterlimit="10" stroke-linecap="round" stroke-linejoin="round"/>
<path id="Vector_3" d="M11.25 15C12.0784 15 12.75 14.3284 12.75 13.5C12.75 12.6716 12.0784 12 11.25 12C10.4216 12 9.75 12.6716 9.75 13.5C9.75 14.3284 10.4216 15 11.25 15Z" stroke="black" stroke-width="1.5" stroke-miterlimit="10" stroke-linecap="round" stroke-linejoin="round"/>
<path id="Vector_4" d="M19.5 22.5H4.5C2.85 22.5 1.5 21.15 1.5 19.5V4.5C1.5 2.85 2.85 1.5 4.5 1.5H19.5C21.15 1.5 22.5 2.85 22.5 4.5V19.5C22.5 21.15 21.15 22.5 19.5 22.5Z" stroke="black" stroke-width="1.5" stroke-miterlimit="10" stroke-linecap="round" stroke-linejoin="round"/>
<path id="Vector_5" d="M12 12V1.5" stroke="black" stroke-width="1.5" stroke-miterlimit="10" stroke-linecap="round" stroke-linejoin="round"/>
<path id="Vector_6" d="M12 22.5V15" stroke="black" stroke-width="1.5" stroke-miterlimit="10" stroke-linecap="round" stroke-linejoin="round"/>
</g>
</svg>
