<svg width="24" height="24" viewBox="0 0 24 24" fill="none" xmlns="http://www.w3.org/2000/svg">
<g id="arcade-game-pong-gaming-svgrepo-com(1) 1">
<path id="Vector" d="M19.5 0.75H12.75V9C12.75 9.45 12.45 9.75 12 9.75C11.55 9.75 11.25 9.45 11.25 9V0.75H4.5C2.4 0.75 0.75 2.4 0.75 4.5V19.5C0.75 21.6 2.4 23.25 4.5 23.25H11.25V18C11.25 17.55 11.55 17.25 12 17.25C12.45 17.25 12.75 17.55 12.75 18V23.25H19.5C21.6 23.25 23.25 21.6 23.25 19.5V4.5C23.25 2.4 21.6 0.75 19.5 0.75ZM6.75 19.125C6.75 20.175 5.925 21 4.875 21C3.825 21 3 20.175 3 19.125V13.875C3 12.825 3.825 12 4.875 12C5.925 12 6.75 12.825 6.75 13.875V19.125ZM11.25 15.75C9.975 15.75 9 14.775 9 13.5C9 12.225 9.975 11.25 11.25 11.25C12.525 11.25 13.5 12.225 13.5 13.5C13.5 14.775 12.525 15.75 11.25 15.75ZM21 10.125C21 11.175 20.175 12 19.125 12C18.075 12 17.25 11.175 17.25 10.125V4.875C17.25 3.825 18.075 3 19.125 3C20.175 3 21 3.825 21 4.875V10.125Z" fill="black"/>
</g>
</svg>
