<svg width="20" height="20" viewBox="0 0 20 20" fill="none" xmlns="http://www.w3.org/2000/svg">
<path fill-rule="evenodd" clip-rule="evenodd" d="M4.34074 0.31221C8.07157 -0.10407 11.9284 -0.10407 15.6593 0.31221C17.7413 0.544516 19.421 2.18214 19.6654 4.26888C20.1115 8.07665 20.1115 11.9234 19.6654 15.7311C19.421 17.8179 17.7413 19.4555 15.6593 19.6878C11.9284 20.1041 8.07157 20.1041 4.34073 19.6878C2.25873 19.4555 0.579045 17.8179 0.334574 15.7311C-0.111525 11.9233 -0.111524 8.07665 0.334574 4.26888C0.579045 2.18214 2.25873 0.544516 4.34074 0.31221ZM10 3.941C10.5035 3.941 10.9117 4.3485 10.9117 4.85119V9.0898H15.1575C15.661 9.0898 16.0692 9.49731 16.0692 9.99999C16.0692 10.5027 15.661 10.9102 15.1575 10.9102H10.9117V15.1488C10.9117 15.6515 10.5035 16.059 10 16.059C9.4965 16.059 9.08831 15.6515 9.08831 15.1488V10.9102H4.84264C4.33912 10.9102 3.93093 10.5027 3.93093 9.99999C3.93093 9.49731 4.33912 9.0898 4.84264 9.0898H9.08831V4.85119C9.08831 4.3485 9.4965 3.941 10 3.941Z" fill="#409CFF"/>
</svg>
