<svg width="20" height="20" viewBox="0 0 20 20" fill="none" xmlns="http://www.w3.org/2000/svg">
<path fill-rule="evenodd" clip-rule="evenodd" d="M6.66845 3.7941C8.91538 3.62475 11.1723 3.63586 13.4174 3.82733L14.7705 3.94272C15.7926 4.02988 16.6221 4.80556 16.7776 5.81952L16.8629 6.37646C17.1526 8.26638 17.1255 10.1914 16.7828 12.0724C16.6137 13.0005 15.8052 13.675 14.8618 13.675H7.38146C7.20936 13.675 7.03995 13.7176 6.88835 13.7991L3.62936 15.5505C3.43567 15.6546 3.20152 15.6493 3.01279 15.5364C2.82405 15.4236 2.7085 15.2199 2.7085 15V7.90226C2.7085 5.75343 4.36467 3.96773 6.50742 3.80624L6.66845 3.7941ZM6.66683 7.91667C6.09153 7.91667 5.62516 8.38304 5.62516 8.95834C5.62516 9.53364 6.09153 10 6.66683 10C7.24213 10 7.7085 9.53364 7.7085 8.95834C7.7085 8.38304 7.24213 7.91667 6.66683 7.91667ZM10.0002 7.91667C9.42487 7.91667 8.9585 8.38304 8.9585 8.95834C8.9585 9.53364 9.42487 10 10.0002 10C10.5755 10 11.0418 9.53364 11.0418 8.95834C11.0418 8.38304 10.5755 7.91667 10.0002 7.91667ZM12.2918 8.95834C12.2918 8.38304 12.7582 7.91667 13.3335 7.91667C13.9088 7.91667 14.3752 8.38304 14.3752 8.95834C14.3752 9.53364 13.9088 10 13.3335 10C12.7582 10 12.2918 9.53364 12.2918 8.95834Z" fill="#D9D9D9"/>
</svg>
