<svg width="24" height="24" viewBox="0 0 24 24" fill="none" xmlns="http://www.w3.org/2000/svg">
<g id="Component 1">
<path id="Vector" d="M16.0771 4.69658C16.2876 4.47865 16.5393 4.30483 16.8177 4.18524C17.0961 4.06566 17.3955 4.00272 17.6985 4.00009C18.0014 3.99745 18.3019 4.05518 18.5823 4.16991C18.8627 4.28464 19.1175 4.45406 19.3317 4.6683C19.5459 4.88253 19.7154 5.13729 19.8301 5.4177C19.9448 5.69812 20.0025 5.99857 19.9999 6.30154C19.9973 6.6045 19.9343 6.90391 19.8148 7.18228C19.6952 7.46066 19.5213 7.71244 19.3034 7.92292L18.3987 8.82761L15.1724 5.60128L16.0771 4.69658ZM13.5592 7.21444L4 16.7737V20H7.22634L16.7867 10.4408L13.5581 7.21444H13.5592Z" fill="black"/>
</g>
</svg>
