<svg width="24" height="24" viewBox="0 0 24 24" fill="none" xmlns="http://www.w3.org/2000/svg">
<path fill-rule="evenodd" clip-rule="evenodd" d="M12 0.8125C12.5178 0.8125 12.9375 1.23223 12.9375 1.75V3.92112C14.7268 3.94569 16.5153 4.04058 18.299 4.2058L18.7135 4.2442C21.5444 4.50643 23.7243 6.85725 23.7724 9.69987L23.7875 10.5917C23.8463 14.0602 23.5667 17.5262 22.9527 20.9405C22.6733 22.4943 21.3212 23.625 19.7424 23.625H19.4661C18.0455 23.625 16.7583 22.7878 16.1824 21.4892L14.8566 18.5001C13.7579 16.0227 10.2421 16.0227 9.14336 18.5001L7.81761 21.4892C7.24164 22.7878 5.95447 23.625 4.53386 23.625H4.25755C2.67879 23.625 1.32666 22.4943 1.04723 20.9405C0.433238 17.5262 0.153649 14.0602 0.212435 10.5917L0.22755 9.69988C0.275728 6.85725 2.45562 4.50643 5.28653 4.2442L5.70103 4.2058C7.48469 4.04058 9.27323 3.94569 11.0625 3.92112V1.75C11.0625 1.23223 11.4822 0.8125 12 0.8125ZM18.25 8C18.25 7.30964 17.6903 6.75 17 6.75C16.3096 6.75 15.75 7.30964 15.75 8V8.3125C15.75 9.00286 16.3096 9.5625 17 9.5625C17.6903 9.5625 18.25 9.00286 18.25 8.3125V8ZM6.99999 7.0625C7.51776 7.0625 7.93749 7.48223 7.93749 8V9.5625H9.49999C10.0178 9.5625 10.4375 9.98223 10.4375 10.5C10.4375 11.0178 10.0178 11.4375 9.49999 11.4375H7.93749V13C7.93749 13.5178 7.51776 13.9375 6.99999 13.9375C6.48222 13.9375 6.06249 13.5178 6.06249 13V11.4375H4.49999C3.98222 11.4375 3.56249 11.0178 3.56249 10.5C3.56249 9.98223 3.98222 9.5625 4.49999 9.5625L6.06249 9.5625V8C6.06249 7.48223 6.48222 7.0625 6.99999 7.0625ZM17 11.4375C17.6903 11.4375 18.25 11.9971 18.25 12.6875V13C18.25 13.6904 17.6903 14.25 17 14.25C16.3096 14.25 15.75 13.6904 15.75 13V12.6875C15.75 11.9971 16.3096 11.4375 17 11.4375ZM19.5 11.75C20.1903 11.75 20.75 11.1904 20.75 10.5C20.75 9.80964 20.1903 9.25 19.5 9.25H19.1875C18.4971 9.25 17.9375 9.80964 17.9375 10.5C17.9375 11.1904 18.4971 11.75 19.1875 11.75H19.5ZM16.0625 10.5C16.0625 11.1904 15.5028 11.75 14.8125 11.75H14.5C13.8096 11.75 13.25 11.1904 13.25 10.5C13.25 9.80964 13.8096 9.25 14.5 9.25H14.8125C15.5028 9.25 16.0625 9.80964 16.0625 10.5Z" fill="#D9D9D9"/>
</svg>
