<svg width="10" height="10" viewBox="0 0 10 10" fill="none" xmlns="http://www.w3.org/2000/svg">
<path d="M9.7437 1.49378C10.0854 1.15206 10.0854 0.598015 9.7437 0.256292C9.40198 -0.0854308 8.84793 -0.0854308 8.50621 0.256292L5 3.76251L1.49379 0.256293C1.15207 -0.08543 0.598026 -0.0854304 0.256303 0.256293C-0.0854198 0.598016 -0.0854196 1.15206 0.256303 1.49378L3.76251 4.99999L0.256292 8.50622C-0.0854305 8.84794 -0.0854308 9.40198 0.256292 9.74371C0.598015 10.0854 1.15206 10.0854 1.49378 9.74371L5 6.23748L8.50622 9.74371C8.84794 10.0854 9.40199 10.0854 9.74371 9.74371C10.0854 9.40199 10.0854 8.84794 9.74371 8.50622L6.23749 4.99999L9.7437 1.49378Z" fill="#3A3A3C"/>
</svg>
