<svg width="24" height="24" viewBox="0 0 24 24" fill="none" xmlns="http://www.w3.org/2000/svg">
<g id="Outline/Communication/Envelope">
<path id="Icon" fill-rule="evenodd" clip-rule="evenodd" d="M2.80379 8.3533C2.52364 10.9562 2.53613 13.9582 2.92595 16.5505C3.14165 17.9849 4.31232 19.0845 5.75739 19.2102L7.26762 19.3414C10.4167 19.6152 13.5835 19.6152 16.7326 19.3414L18.2428 19.2102C19.6879 19.0845 20.8585 17.9849 21.0742 16.5505C21.4641 13.9582 21.4766 10.9564 21.1964 8.35345C21.1602 8.05169 21.1195 7.75034 21.0742 7.44949C20.8585 6.0151 19.6879 4.91545 18.2428 4.78983L16.7326 4.65855C13.5835 4.38481 10.4167 4.38481 7.26762 4.65855L5.75739 4.78983C4.31232 4.91545 3.14165 6.0151 2.92595 7.44949C2.88072 7.75028 2.84 8.05159 2.80379 8.3533ZM7.39752 6.15292C10.4601 5.88669 13.5401 5.88669 16.6027 6.15292L18.1129 6.2842C18.8672 6.34977 19.4783 6.92379 19.5909 7.67254C19.6026 7.7503 19.614 7.82809 19.6251 7.90592L14.064 10.9954C12.7805 11.7085 11.2197 11.7085 9.93608 10.9954L4.37514 7.90596C4.3862 7.82812 4.39758 7.75031 4.40928 7.67254C4.52187 6.92379 5.13296 6.34977 5.88729 6.2842L7.39752 6.15292ZM19.8086 9.51989C20.0026 11.7876 19.93 14.0725 19.5909 16.3274C19.4783 17.0762 18.8672 17.6502 18.1129 17.7158L16.6027 17.8471C13.5401 18.1133 10.4601 18.1133 7.39753 17.8471L5.88729 17.7158C5.13296 17.6502 4.52187 17.0762 4.40928 16.3274C4.07019 14.0725 3.99763 11.7877 4.19159 9.51992L9.20762 12.3066C10.9442 13.2714 13.0559 13.2714 14.7925 12.3066L19.8086 9.51989Z" fill="black"/>
</g>
</svg>
