<svg width="24" height="24" viewBox="0 0 24 24" fill="none" xmlns="http://www.w3.org/2000/svg">
<g id="Outline/Devices/Gamepad">
<g id="Icon">
<path d="M7.99989 7.25C8.41411 7.25 8.74989 7.58579 8.74989 8V9.25H9.99989C10.4141 9.25 10.7499 9.58579 10.7499 10C10.7499 10.4142 10.4141 10.75 9.99989 10.75H8.74989V12C8.74989 12.4142 8.41411 12.75 7.99989 12.75C7.58568 12.75 7.24989 12.4142 7.24989 12V10.75H5.99989C5.58568 10.75 5.24989 10.4142 5.24989 10C5.24989 9.58579 5.58568 9.25 5.99989 9.25H7.24989V8C7.24989 7.58579 7.58568 7.25 7.99989 7.25Z" fill="black"/>
<path d="M16.9999 11.75C16.9999 11.1977 16.5522 10.75 15.9999 10.75C15.4476 10.75 14.9999 11.1977 14.9999 11.75V12C14.9999 12.5523 15.4476 13 15.9999 13C16.5522 13 16.9999 12.5523 16.9999 12V11.75Z" fill="black"/>
<path d="M15.9999 7C16.5522 7 16.9999 7.44772 16.9999 8V8.25C16.9999 8.80228 16.5522 9.25 15.9999 9.25C15.4476 9.25 14.9999 8.80228 14.9999 8.25V8C14.9999 7.44772 15.4476 7 15.9999 7Z" fill="black"/>
<path d="M18.9999 10C18.9999 10.5523 18.5522 11 17.9999 11H17.7499C17.1976 11 16.7499 10.5523 16.7499 10C16.7499 9.44771 17.1976 9 17.7499 9H17.9999C18.5522 9 18.9999 9.44772 18.9999 10Z" fill="black"/>
<path d="M14.2499 11C14.8022 11 15.2499 10.5523 15.2499 10C15.2499 9.44772 14.8022 9 14.2499 9H13.9999C13.4476 9 12.9999 9.44771 12.9999 10C12.9999 10.5523 13.4476 11 13.9999 11H14.2499Z" fill="black"/>
<path fill-rule="evenodd" clip-rule="evenodd" d="M12.7499 3C12.7499 2.58579 12.4141 2.25 11.9999 2.25C11.5857 2.25 11.2499 2.58579 11.2499 3V4.48688C9.81079 4.50654 8.37227 4.58282 6.93767 4.71571L6.60607 4.74642C4.21436 4.96797 2.37268 6.95407 2.33198 9.35566L2.31989 10.0691C2.27258 12.8602 2.49756 15.6492 2.99164 18.3967C3.2366 19.7588 4.42193 20.75 5.80594 20.75H6.02699C7.26235 20.75 8.38166 20.022 8.88252 18.8927L9.94312 16.5014C10.7342 14.7177 13.2656 14.7177 14.0567 16.5014L15.1173 18.8927C15.6181 20.022 16.7374 20.75 17.9728 20.75H18.1939C19.5779 20.75 20.7632 19.7588 21.0082 18.3967C21.5022 15.6492 21.7272 12.8602 21.6799 10.0691L21.6678 9.35566C21.6271 6.95406 19.7854 4.96797 17.3937 4.74643L17.0621 4.71571C15.6275 4.58282 14.189 4.50654 12.7499 4.48688V3ZM7.07602 6.20931C10.3516 5.9059 13.6482 5.9059 16.9238 6.20931L17.2554 6.24003C18.8852 6.39101 20.1403 7.74447 20.168 9.38108L20.1801 10.0945C20.2258 12.7881 20.0086 15.4797 19.5318 18.1312C19.4154 18.7788 18.8518 19.25 18.1939 19.25H17.9728C17.3306 19.25 16.7488 18.8716 16.4885 18.2846L15.4279 15.8933C14.1093 12.9205 9.89046 12.9205 8.57194 15.8933L7.51134 18.2846C7.25098 18.8716 6.66914 19.25 6.02699 19.25H5.80594C5.14795 19.25 4.58441 18.7788 4.46795 18.1312C3.99114 15.4797 3.77402 12.7881 3.81967 10.0945L3.83176 9.38108C3.8595 7.74447 5.11455 6.39101 6.74442 6.24003L7.07602 6.20931Z" fill="black"/>
</g>
</g>
</svg>
