<svg width="34" height="34" viewBox="0 0 34 34" fill="none" xmlns="http://www.w3.org/2000/svg">
<path d="M28.6875 6.90625V14.3438C28.6875 15.1938 27.9438 15.9375 27.0938 15.9375C26.2437 15.9375 25.5 15.1938 25.5 14.3438V6.90625C25.5 6.05625 26.2437 5.3125 27.0938 5.3125C27.9438 5.3125 28.6875 6.05625 28.6875 6.90625Z" stroke="#48484A" stroke-width="2" stroke-miterlimit="10" stroke-linecap="round" stroke-linejoin="round"/>
<path d="M8.5 19.6562V27.0938C8.5 27.9438 7.75625 28.6875 6.90625 28.6875C6.05625 28.6875 5.3125 27.9438 5.3125 27.0938V19.6562C5.3125 18.8062 6.05625 18.0625 6.90625 18.0625C7.75625 18.0625 8.5 18.8062 8.5 19.6562Z" stroke="#48484A" stroke-width="2" stroke-miterlimit="10" stroke-linecap="round" stroke-linejoin="round"/>
<path d="M15.9375 21.25C17.1111 21.25 18.0625 20.2986 18.0625 19.125C18.0625 17.9514 17.1111 17 15.9375 17C14.7639 17 13.8125 17.9514 13.8125 19.125C13.8125 20.2986 14.7639 21.25 15.9375 21.25Z" stroke="#48484A" stroke-width="2" stroke-miterlimit="10" stroke-linecap="round" stroke-linejoin="round"/>
<path d="M27.625 31.875H6.375C4.0375 31.875 2.125 29.9625 2.125 27.625V6.375C2.125 4.0375 4.0375 2.125 6.375 2.125H27.625C29.9625 2.125 31.875 4.0375 31.875 6.375V27.625C31.875 29.9625 29.9625 31.875 27.625 31.875Z" stroke="#48484A" stroke-width="2" stroke-miterlimit="10" stroke-linecap="round" stroke-linejoin="round"/>
<path d="M17 17V2.125" stroke="#48484A" stroke-width="2" stroke-miterlimit="10" stroke-linecap="round" stroke-linejoin="round"/>
<path d="M17 31.875V21.25" stroke="#48484A" stroke-width="2" stroke-miterlimit="10" stroke-linecap="round" stroke-linejoin="round"/>
</svg>
