<svg width="313" height="292" viewBox="0 0 313 292" fill="none" xmlns="http://www.w3.org/2000/svg">
<path d="M175.853 130.577L235 161.33L223.235 181.708L167.029 145.861L175.853 130.577Z" fill="url(#paint0_linear_161_71)"/>
<path d="M166.025 147.044L168.967 213.643H145.436L148.378 147.044H166.025Z" fill="url(#paint1_linear_161_71)"/>
<path d="M147.92 111.599L144.979 45H168.509L165.568 111.599H147.92Z" fill="url(#paint2_linear_161_71)"/>
<path d="M146.971 146.072L90.7652 181.919L79 161.541L138.147 130.789L146.971 146.072Z" fill="url(#paint3_linear_161_71)"/>
<path d="M175.853 128.109L235 97.3566L223.235 76.9788L167.029 112.826L175.853 128.109Z" fill="url(#paint4_linear_161_71)"/>
<path d="M146.971 112.614L90.7652 76.7675L79 97.1453L138.147 127.898L146.971 112.614Z" fill="url(#paint5_linear_161_71)"/>
<g opacity="0.3" filter="url(#filter0_f_161_71)">
<path d="M137.107 80.6207C137.107 81.9052 136.065 82.9466 134.781 82.9466C133.496 82.9466 132.455 81.9052 132.455 80.6207C132.455 79.3361 133.496 78.2947 134.781 78.2947C136.065 78.2947 137.107 79.3361 137.107 80.6207Z" fill="#FFEBC4"/>
</g>
<g filter="url(#filter1_f_161_71)">
<path d="M125.758 164.903C125.758 165.331 125.411 165.679 124.983 165.679C124.555 165.679 124.208 165.331 124.208 164.903C124.208 164.475 124.555 164.128 124.983 164.128C125.411 164.128 125.758 164.475 125.758 164.903Z" fill="#FFEBC4"/>
</g>
<g opacity="0.3" filter="url(#filter2_f_161_71)">
<path d="M132.173 94.0374C132.173 94.4656 131.826 94.8127 131.398 94.8127C130.969 94.8127 130.622 94.4656 130.622 94.0374C130.622 93.6092 130.969 93.2621 131.398 93.2621C131.826 93.2621 132.173 93.6092 132.173 94.0374Z" fill="#FFEBC4"/>
</g>
<g filter="url(#filter3_f_161_71)">
<path d="M197.54 139.55C197.54 139.979 197.193 140.326 196.765 140.326C196.337 140.326 195.99 139.979 195.99 139.55C195.99 139.122 196.337 138.775 196.765 138.775C197.193 138.775 197.54 139.122 197.54 139.55Z" fill="#FFEBC4"/>
</g>
<g filter="url(#filter4_f_161_71)">
<path d="M105.856 132.707C105.856 134.134 104.699 135.291 103.272 135.291C101.844 135.291 100.687 134.134 100.687 132.707C100.687 131.28 101.844 130.122 103.272 130.122C104.699 130.122 105.856 131.28 105.856 132.707Z" fill="#FFDDAA"/>
</g>
<g opacity="0.6" filter="url(#filter5_f_161_71)">
<path d="M223.34 121.599C223.34 122.741 222.414 123.666 221.272 123.666C220.13 123.666 219.205 122.741 219.205 121.599C219.205 120.457 220.13 119.531 221.272 119.531C222.414 119.531 223.34 120.457 223.34 121.599Z" fill="#FFDDAA"/>
</g>
<g opacity="0.8" filter="url(#filter6_f_161_71)">
<path d="M137.812 189.105C137.812 190.247 136.886 191.172 135.744 191.172C134.602 191.172 133.677 190.247 133.677 189.105C133.677 187.963 134.602 187.037 135.744 187.037C136.886 187.037 137.812 187.963 137.812 189.105Z" fill="#FFDDAA"/>
</g>
<g filter="url(#filter7_dd_161_71)">
<path d="M125.26 115.175L127.677 102.795L92.4509 95.9181C90.9404 103.655 95.504 109.366 99.9484 110.233L125.26 115.175Z" fill="url(#paint6_linear_161_71)"/>
<path fill-rule="evenodd" clip-rule="evenodd" d="M125.178 115.827L127.729 102.76L92.715 95.9239L92.6478 96.2678C91.1068 104.162 95.7559 110.083 100.422 110.994L125.178 115.827ZM124.625 115.005L100.556 110.306C96.3981 109.495 91.9918 104.149 93.2722 96.7467L126.907 103.313L124.625 115.005Z" fill="url(#paint7_linear_161_71)"/>
<path d="M125.493 126.736L127.91 114.356L98.6797 108.649C97.1692 116.387 101.733 122.097 106.177 122.965L125.493 126.736Z" fill="url(#paint8_linear_161_71)"/>
<path fill-rule="evenodd" clip-rule="evenodd" d="M125.77 127.147L128.321 114.079L98.4028 108.238L98.3356 108.582C96.7946 116.476 101.444 122.398 106.11 123.309L125.77 127.147ZM125.216 126.325L106.244 122.621C102.086 121.809 97.6796 116.464 98.96 109.061L127.499 114.633L125.216 126.325Z" fill="url(#paint9_linear_161_71)"/>
<path d="M133.661 139.754L136.078 127.374L106.848 121.668C105.337 129.405 109.901 135.115 114.345 135.983L133.661 139.754Z" fill="url(#paint10_linear_161_71)"/>
<path fill-rule="evenodd" clip-rule="evenodd" d="M133.938 140.165L136.489 127.097L106.571 121.257L106.504 121.601C104.963 129.494 109.612 135.416 114.278 136.327L133.938 140.165ZM133.384 139.343L114.412 135.639C110.254 134.827 105.848 129.482 107.128 122.079L135.667 127.651L133.384 139.343Z" fill="url(#paint11_linear_161_71)"/>
<g filter="url(#filter8_d_161_71)">
<path d="M127.009 170.761V143.662H142.74V179.859L127.488 171.566C127.193 171.406 127.009 171.097 127.009 170.761Z" fill="#ECD8BA"/>
</g>
<g filter="url(#filter9_d_161_71)">
<path fill-rule="evenodd" clip-rule="evenodd" d="M126.857 143.51H142.893V180.116L127.415 171.701C127.071 171.513 126.857 171.153 126.857 170.761V143.51ZM127.162 143.815V170.761C127.162 171.041 127.315 171.299 127.561 171.432L142.588 179.602V143.815H127.162Z" fill="url(#paint12_linear_161_71)"/>
</g>
<path fill-rule="evenodd" clip-rule="evenodd" d="M128.741 169.974V157.408H128.537V170.144L128.622 170.159C128.905 170.206 129.219 170.373 129.475 170.617C129.732 170.861 129.921 171.174 129.968 171.503L129.976 171.558L138.244 175.43V161.601H138.04V175.108L130.162 171.419C130.094 171.054 129.883 170.723 129.616 170.469C129.36 170.226 129.046 170.045 128.741 169.974Z" fill="url(#paint13_linear_161_71)"/>
<path fill-rule="evenodd" clip-rule="evenodd" d="M138.028 174.361C138.249 173.988 138.261 173.46 138.244 173.118L138.04 173.128C138.057 173.468 138.039 173.941 137.852 174.257C137.762 174.41 137.634 174.522 137.45 174.568C137.262 174.616 137.003 174.597 136.646 174.459L136.572 174.649C136.952 174.797 137.256 174.828 137.499 174.767C137.746 174.705 137.915 174.552 138.028 174.361Z" fill="#D4B195"/>
<g filter="url(#filter10_d_161_71)">
<path d="M186.421 170.761V143.662H170.69V179.859L185.942 171.566C186.237 171.406 186.421 171.097 186.421 170.761Z" fill="#ECD8BA"/>
</g>
<g filter="url(#filter11_d_161_71)">
<path fill-rule="evenodd" clip-rule="evenodd" d="M186.573 143.51H170.537V180.116L186.015 171.701C186.359 171.513 186.573 171.153 186.573 170.761V143.51ZM186.268 143.815V170.761C186.268 171.041 186.115 171.299 185.869 171.432L170.842 179.602V143.815H186.268Z" fill="url(#paint14_linear_161_71)"/>
</g>
<path fill-rule="evenodd" clip-rule="evenodd" d="M184.689 169.974V157.408H184.893V170.144L184.808 170.159C184.525 170.206 184.211 170.373 183.955 170.617C183.698 170.861 183.509 171.174 183.462 171.503L183.454 171.558L175.186 175.43V161.601H175.39V175.108L183.268 171.419C183.336 171.054 183.547 170.723 183.814 170.469C184.07 170.226 184.384 170.045 184.689 169.974Z" fill="url(#paint15_linear_161_71)"/>
<path fill-rule="evenodd" clip-rule="evenodd" d="M175.402 174.361C175.182 173.988 175.169 173.46 175.186 173.118L175.39 173.128C175.373 173.468 175.391 173.941 175.578 174.257C175.668 174.41 175.796 174.522 175.981 174.568C176.168 174.616 176.427 174.597 176.784 174.459L176.858 174.649C176.479 174.797 176.174 174.828 175.931 174.767C175.685 174.705 175.515 174.552 175.402 174.361Z" fill="#D4B195"/>
<path d="M187.96 115.573L185.543 103.194L220.769 96.3166C222.28 104.054 217.716 109.764 213.272 110.632L187.96 115.573Z" fill="url(#paint16_linear_161_71)"/>
<path fill-rule="evenodd" clip-rule="evenodd" d="M188.041 116.226L185.49 103.158L220.505 96.3224L220.572 96.6663C222.113 104.56 217.464 110.482 212.798 111.393L188.041 116.226ZM188.595 115.404L212.663 110.705C216.822 109.893 221.228 104.548 219.947 97.1452L186.312 103.712L188.595 115.404Z" fill="url(#paint17_linear_161_71)"/>
<path d="M187.727 127.134L185.31 114.754L214.54 109.048C216.051 116.785 211.487 122.496 207.043 123.363L187.727 127.134Z" fill="url(#paint18_linear_161_71)"/>
<path fill-rule="evenodd" clip-rule="evenodd" d="M187.45 127.545L184.899 114.478L214.817 108.637L214.884 108.981C216.425 116.875 211.776 122.796 207.11 123.707L187.45 127.545ZM188.004 126.723L206.976 123.019C211.134 122.208 215.54 116.862 214.26 109.46L185.721 115.031L188.004 126.723Z" fill="url(#paint19_linear_161_71)"/>
<path d="M179.559 140.153L177.142 127.773L206.372 122.066C207.883 129.804 203.319 135.514 198.875 136.382L179.559 140.153Z" fill="url(#paint20_linear_161_71)"/>
<path fill-rule="evenodd" clip-rule="evenodd" d="M179.282 140.564L176.731 127.496L206.648 121.655L206.716 121.999C208.257 129.893 203.608 135.815 198.941 136.725L179.282 140.564ZM179.835 139.741L198.807 136.038C202.965 135.226 207.372 129.881 206.091 122.478L177.553 128.049L179.835 139.741Z" fill="url(#paint21_linear_161_71)"/>
<g filter="url(#filter12_d_161_71)">
<path d="M139.839 142.135H173.439V184.803L156.825 193.248C156.574 193.376 156.276 193.376 156.025 193.247L139.839 184.95V142.135Z" fill="url(#paint22_linear_161_71)"/>
</g>
<g filter="url(#filter13_d_161_71)">
<path fill-rule="evenodd" clip-rule="evenodd" d="M139.533 141.83H173.744V184.99L156.964 193.52C156.625 193.693 156.224 193.692 155.886 193.519L139.533 185.136V141.83ZM140.144 142.441V184.763L156.164 192.975C156.328 193.059 156.523 193.059 156.687 192.976L173.133 184.616V142.441H140.144Z" fill="url(#paint23_linear_161_71)"/>
</g>
<path fill-rule="evenodd" clip-rule="evenodd" d="M161.526 190.553L156.825 192.943C156.574 193.071 156.276 193.07 156.025 192.941L151.14 190.437V159.241H161.526V190.553Z" fill="url(#paint24_linear_161_71)"/>
<path fill-rule="evenodd" clip-rule="evenodd" d="M141.671 165.044H142.158V184.141L156.518 191.564L171.119 184.141V165.044H171.606V184.314L156.516 191.924L141.671 184.313V165.044Z" fill="url(#paint25_linear_161_71)"/>
<path fill-rule="evenodd" clip-rule="evenodd" d="M156.618 184.899V190.441H156.352V184.899H156.618Z" fill="url(#paint26_linear_161_71)"/>
<path fill-rule="evenodd" clip-rule="evenodd" d="M155.69 188.474C155.161 189.084 154.517 189.219 154.074 189.145L154.118 188.884C154.471 188.942 155.022 188.839 155.489 188.3C155.958 187.759 156.353 186.767 156.353 185.032H156.618C156.618 186.802 156.216 187.867 155.69 188.474Z" fill="url(#paint27_linear_161_71)"/>
<path fill-rule="evenodd" clip-rule="evenodd" d="M157.281 188.474C157.81 189.084 158.454 189.219 158.897 189.145L158.853 188.884C158.5 188.942 157.949 188.839 157.482 188.3C157.013 187.759 156.618 186.767 156.618 185.032H156.353C156.353 186.802 156.755 187.867 157.281 188.474Z" fill="url(#paint28_linear_161_71)"/>
<path fill-rule="evenodd" clip-rule="evenodd" d="M156.429 190.562L153.431 188.882L154.095 188.882L156.485 190.295L158.874 188.87H159.46L156.54 190.562C156.505 190.578 156.464 190.578 156.429 190.562Z" fill="url(#paint29_linear_161_71)"/>
<g filter="url(#filter14_d_161_71)">
<path d="M154.157 86.3646L121.168 104.31C119.497 105.219 118.457 106.97 118.457 108.872L118.457 149.894C118.457 151.796 119.497 153.547 121.168 154.456L154.157 172.401C155.705 173.243 157.573 173.243 159.12 172.401L192.11 154.456C193.781 153.547 194.821 151.796 194.821 149.894L194.821 108.872C194.821 106.97 193.781 105.219 192.11 104.31L159.12 86.3646C157.573 85.5229 155.705 85.5229 154.157 86.3646Z" fill="url(#paint30_linear_161_71)"/>
<path d="M154.121 93.0796L126.962 107.854C125.297 108.76 124.26 110.503 124.26 112.398L124.26 146.213C124.26 148.109 125.297 149.852 126.962 150.758L154.121 165.532C155.662 166.371 157.524 166.371 159.065 165.532L186.224 150.758C187.889 149.852 188.926 148.109 188.926 146.213L188.926 112.398C188.926 110.503 187.889 108.76 186.224 107.854L159.065 93.0796C157.524 92.2411 155.662 92.2411 154.121 93.0796Z" fill="url(#paint31_linear_161_71)"/>
<g filter="url(#filter15_f_161_71)">
<path fill-rule="evenodd" clip-rule="evenodd" d="M158.992 93.2137C157.496 92.4 155.69 92.4 154.194 93.2137L127.034 107.988C125.419 108.867 124.413 110.559 124.413 112.398L124.413 146.214C124.413 148.053 125.419 149.745 127.034 150.624L154.194 165.398C155.69 166.212 157.496 166.212 158.992 165.398L186.151 150.624C187.767 149.745 188.773 148.053 188.773 146.214L188.773 112.398C188.773 110.559 187.767 108.867 186.151 107.988L158.992 93.2137ZM154.048 92.9454C155.635 92.0822 157.551 92.0822 159.138 92.9454L186.297 107.72C188.011 108.652 189.078 110.447 189.078 112.398L189.078 146.214C189.078 148.165 188.011 149.96 186.297 150.892L159.138 165.666C157.551 166.53 155.635 166.53 154.048 165.666L126.888 150.892C125.174 149.96 124.107 148.165 124.107 146.214L124.107 112.398C124.107 110.447 125.174 108.652 126.888 107.72L154.048 92.9454Z" fill="url(#paint32_linear_161_71)"/>
</g>
<g opacity="0.5">
<mask id="mask0_161_71" style="mask-type:alpha" maskUnits="userSpaceOnUse" x="127" y="95" width="60" height="69">
<path d="M154.442 96.0665L129.58 109.579C127.996 110.44 127.009 112.099 127.009 113.902L127.009 144.829C127.009 146.632 127.996 148.291 129.58 149.152L154.442 162.665C155.907 163.461 157.676 163.461 159.141 162.665L184.002 149.152C185.587 148.291 186.573 146.632 186.573 144.829L186.573 113.902C186.573 112.099 185.587 110.44 184.002 109.579L159.141 96.0665C157.676 95.2701 155.907 95.2701 154.442 96.0665Z" fill="#A6D3DE"/>
</mask>
<g mask="url(#mask0_161_71)">
<path d="M154.442 96.0665L129.58 109.579C127.996 110.44 127.009 112.099 127.009 113.902L127.009 144.829C127.009 146.632 127.996 148.291 129.58 149.152L154.442 162.665C155.907 163.461 157.676 163.461 159.141 162.665L184.002 149.152C185.587 148.291 186.573 146.632 186.573 144.829L186.573 113.902C186.573 112.099 185.587 110.44 184.002 109.579L159.141 96.0665C157.676 95.2701 155.907 95.2701 154.442 96.0665Z" fill="url(#paint33_radial_161_71)"/>
<path opacity="0.5" d="M151.813 165.308L150.63 93.42H162.953L161.77 165.308H151.813Z" fill="url(#paint34_linear_161_71)"/>
<path opacity="0.5" d="M151.654 164.67L114.686 103.005L125.358 96.8432L160.278 159.691L151.654 164.67Z" fill="url(#paint35_linear_161_71)"/>
<path opacity="0.5" d="M150.627 159.691L185.546 96.8433L196.219 103.005L159.251 164.67L150.627 159.691Z" fill="url(#paint36_linear_161_71)"/>
<path d="M127.009 125.256H186.573V163.938H127.009V125.256Z" fill="url(#paint37_linear_161_71)"/>
<g filter="url(#filter16_i_161_71)">
<path d="M154.442 96.0665L129.58 109.579C127.996 110.44 127.009 112.099 127.009 113.902L127.009 144.829C127.009 146.632 127.996 148.291 129.58 149.152L154.442 162.665C155.907 163.461 157.676 163.461 159.141 162.665L184.002 149.152C185.587 148.291 186.573 146.632 186.573 144.829L186.573 113.902C186.573 112.099 185.587 110.44 184.002 109.579L159.141 96.0665C157.676 95.2701 155.907 95.2701 154.442 96.0665Z" fill="#6052B4" fill-opacity="0.01"/>
</g>
</g>
</g>
</g>
</g>
<g filter="url(#filter17_d_161_71)">
<g filter="url(#filter18_d_161_71)">
<path fill-rule="evenodd" clip-rule="evenodd" d="M156.327 99.1369C157.088 98.6202 159.264 100.999 160.42 103.683C159.882 104.518 159.261 105.484 158.558 106.58C159.134 105.796 159.913 105.128 160.895 104.577C160.485 105.603 161.87 108.175 161.848 108.801C161.833 109.218 161.063 110.304 159.537 112.058C160.042 111.59 160.734 110.916 161.613 110.038L161.812 109.84C162.821 115.11 163.326 123.635 162.832 125.461C162.339 127.288 161.199 127.525 159.96 131.349C160.541 130.436 161.334 129.381 162.337 128.184C162.191 130.146 161.609 131.981 160.593 133.689C159.118 136.17 157.741 137.649 157.569 140.194C157.569 140.194 157.355 144.281 157.355 146.324C157.355 147.663 157.413 153.742 157.413 153.742L156.229 153.657C156.229 153.657 156.286 147.547 156.286 146.198C156.286 144.037 156.072 139.716 156.072 139.716C156.011 139.485 155.947 139.265 155.879 139.055C155.117 136.709 152.585 134.745 151.791 132.251C151.261 130.588 150.709 128.715 150.135 126.631C151.029 126.874 151.921 127.435 152.809 128.316C152.222 126.605 150.73 124.523 149.866 122.335C150.67 118.184 150.251 111.296 151.939 107.981C152.564 103.587 155.566 99.6535 156.327 99.1369Z" fill="url(#paint38_linear_161_71)"/>
<mask id="mask1_161_71" style="mask-type:alpha" maskUnits="userSpaceOnUse" x="149" y="99" width="15" height="55">
<path fill-rule="evenodd" clip-rule="evenodd" d="M156.327 99.1369C157.088 98.6202 159.264 100.999 160.42 103.683C159.882 104.518 159.261 105.484 158.558 106.58C159.134 105.796 159.913 105.128 160.895 104.577C160.485 105.603 161.87 108.175 161.848 108.801C161.833 109.218 161.063 110.304 159.537 112.058C160.042 111.59 160.734 110.916 161.613 110.038L161.812 109.84C162.821 115.11 163.326 123.635 162.832 125.461C162.339 127.288 161.199 127.525 159.96 131.349C160.541 130.436 161.334 129.381 162.337 128.184C162.191 130.146 161.609 131.981 160.593 133.689C159.118 136.17 157.741 137.649 157.569 140.194C157.569 140.194 157.355 144.281 157.355 146.324C157.355 147.663 157.413 153.742 157.413 153.742L156.229 153.657C156.229 153.657 156.286 147.547 156.286 146.198C156.286 144.037 156.072 139.716 156.072 139.716C156.011 139.485 155.947 139.265 155.879 139.055C155.117 136.709 152.585 134.745 151.791 132.251C151.261 130.588 150.709 128.715 150.135 126.631C151.029 126.874 151.921 127.435 152.809 128.316C152.222 126.605 150.73 124.523 149.866 122.335C150.67 118.184 150.251 111.296 151.939 107.981C152.564 103.587 155.566 99.6535 156.327 99.1369Z" fill="white"/>
</mask>
<g mask="url(#mask1_161_71)">
<path fill-rule="evenodd" clip-rule="evenodd" d="M163.024 121.982C163.024 125.142 160.208 128.551 159.96 131.349C161.848 128.284 162.41 127.148 163.306 126.666C164.202 126.183 163.024 118.822 163.024 121.982Z" fill="url(#paint39_linear_161_71)"/>
<path fill-rule="evenodd" clip-rule="evenodd" d="M152.809 128.316L153.54 129.254C153.54 129.254 153.003 127.287 152.37 126.404C151.737 125.521 150.177 122.979 149.866 122.335C149.554 121.691 149.516 123.494 149.516 123.494L152.809 128.316Z" fill="url(#paint40_linear_161_71)"/>
<path fill-rule="evenodd" clip-rule="evenodd" d="M161.653 107.913C161.843 108.439 161.435 109.292 160.664 110.415C159.893 111.539 158.783 112.82 158.783 112.82L159.537 112.058L162.19 109.23L162.704 108.122C162.704 108.122 161.462 107.388 161.653 107.913Z" fill="url(#paint41_linear_161_71)"/>
<path fill-rule="evenodd" clip-rule="evenodd" d="M158.783 106.306L157.967 107.3C157.967 107.3 159.412 105.025 159.65 104.294C159.889 103.562 160.304 103.077 159.977 102.056C159.65 101.034 161.39 103.643 161.39 103.643L159.503 105.398L158.783 106.306Z" fill="url(#paint42_linear_161_71)"/>
<path fill-rule="evenodd" clip-rule="evenodd" d="M155.975 155.667C155.975 155.667 156.231 149.176 156.28 146.287C156.352 142.088 156.586 101.519 156.586 101.519C156.586 101.519 157.36 137.887 157.36 146.556C157.36 155.224 159.279 156.989 159.279 156.989L155.975 156.33L155.975 155.667Z" fill="#EAC893"/>
</g>
</g>
<g filter="url(#filter19_d_161_71)">
<path fill-rule="evenodd" clip-rule="evenodd" d="M156.712 153.819C156.526 153.761 156.335 153.701 156.171 154.221C156.171 157.619 155.67 158.996 155.67 158.996C155.67 158.996 156.913 160.862 156.913 161.962C156.913 160.895 158.155 158.996 158.155 158.996C158.155 158.996 157.654 157.31 157.654 154.221C157.472 153.642 157.291 153.717 157.096 153.797C157.036 153.822 156.975 153.847 156.913 153.854C156.847 153.862 156.78 153.841 156.712 153.819ZM157.206 156.703C157.206 156.874 157.068 157.012 156.898 157.012C156.727 157.012 156.589 156.874 156.589 156.703C156.589 156.532 156.727 156.394 156.898 156.394C157.068 156.394 157.206 156.532 157.206 156.703Z" fill="url(#paint43_linear_161_71)"/>
<mask id="mask2_161_71" style="mask-type:alpha" maskUnits="userSpaceOnUse" x="155" y="153" width="4" height="9">
<path fill-rule="evenodd" clip-rule="evenodd" d="M156.712 153.819C156.526 153.761 156.335 153.701 156.171 154.221C156.171 157.619 155.67 158.996 155.67 158.996C155.67 158.996 156.913 160.862 156.913 161.962C156.913 160.895 158.155 158.996 158.155 158.996C158.155 158.996 157.654 157.31 157.654 154.221C157.472 153.642 157.291 153.717 157.096 153.797C157.036 153.822 156.975 153.847 156.913 153.854C156.847 153.862 156.78 153.841 156.712 153.819ZM157.206 156.703C157.206 156.874 157.068 157.012 156.898 157.012C156.727 157.012 156.589 156.874 156.589 156.703C156.589 156.532 156.727 156.394 156.898 156.394C157.068 156.394 157.206 156.532 157.206 156.703Z" fill="white"/>
</mask>
<g mask="url(#mask2_161_71)">
<path fill-rule="evenodd" clip-rule="evenodd" d="M156.912 154.221H160.373V161.962H156.912V154.221Z" fill="url(#paint44_linear_161_71)"/>
<path opacity="0.6" d="M155.059 153.603H158.766V154.839H155.059V153.603Z" fill="url(#paint45_linear_161_71)"/>
</g>
<path fill-rule="evenodd" clip-rule="evenodd" d="M156.913 160.961C157.146 160.001 158.155 158.996 158.155 158.996C158.155 158.996 156.913 160.895 156.913 161.963C156.913 160.862 155.67 158.996 155.67 158.996C155.67 158.996 156.642 160.012 156.913 160.961Z" fill="url(#paint46_linear_161_71)"/>
<mask id="mask3_161_71" style="mask-type:alpha" maskUnits="userSpaceOnUse" x="155" y="158" width="4" height="4">
<path fill-rule="evenodd" clip-rule="evenodd" d="M156.913 160.961C157.146 160.001 158.155 158.996 158.155 158.996C158.155 158.996 156.913 160.895 156.913 161.963C156.913 160.862 155.67 158.996 155.67 158.996C155.67 158.996 156.642 160.012 156.913 160.961Z" fill="white"/>
</mask>
<g mask="url(#mask3_161_71)">
</g>
</g>
<g filter="url(#filter20_d_161_71)">
<path d="M155.644 153.6C155.644 153.363 155.836 153.172 156.072 153.172H157.569C157.805 153.172 157.996 153.363 157.996 153.6V153.966C157.996 154.202 157.805 154.394 157.569 154.394H156.072C155.836 154.394 155.644 154.202 155.644 153.966V153.6Z" fill="url(#paint47_linear_161_71)"/>
</g>
<path fill-rule="evenodd" clip-rule="evenodd" d="M155.718 153.491C155.718 153.351 155.831 153.239 155.97 153.239H157.63C157.769 153.239 157.882 153.351 157.882 153.491C157.882 153.63 157.769 153.742 157.63 153.742H155.97C155.831 153.742 155.718 153.63 155.718 153.491Z" fill="white"/>
</g>
<defs>
<filter id="filter0_f_161_71" x="112.149" y="57.989" width="45.2634" height="45.2634" filterUnits="userSpaceOnUse" color-interpolation-filters="sRGB">
<feFlood flood-opacity="0" result="BackgroundImageFix"/>
<feBlend mode="normal" in="SourceGraphic" in2="BackgroundImageFix" result="shape"/>
<feGaussianBlur stdDeviation="10.1529" result="effect1_foregroundBlur_161_71"/>
</filter>
<filter id="filter1_f_161_71" x="122.515" y="162.436" width="4.93492" height="4.93492" filterUnits="userSpaceOnUse" color-interpolation-filters="sRGB">
<feFlood flood-opacity="0" result="BackgroundImageFix"/>
<feBlend mode="normal" in="SourceGraphic" in2="BackgroundImageFix" result="shape"/>
<feGaussianBlur stdDeviation="0.846073" result="effect1_foregroundBlur_161_71"/>
</filter>
<filter id="filter2_f_161_71" x="122.622" y="85.2621" width="17.5506" height="17.5506" filterUnits="userSpaceOnUse" color-interpolation-filters="sRGB">
<feFlood flood-opacity="0" result="BackgroundImageFix"/>
<feBlend mode="normal" in="SourceGraphic" in2="BackgroundImageFix" result="shape"/>
<feGaussianBlur stdDeviation="4" result="effect1_foregroundBlur_161_71"/>
</filter>
<filter id="filter3_f_161_71" x="189.99" y="132.775" width="13.5506" height="13.5506" filterUnits="userSpaceOnUse" color-interpolation-filters="sRGB">
<feFlood flood-opacity="0" result="BackgroundImageFix"/>
<feBlend mode="normal" in="SourceGraphic" in2="BackgroundImageFix" result="shape"/>
<feGaussianBlur stdDeviation="3" result="effect1_foregroundBlur_161_71"/>
</filter>
<filter id="filter4_f_161_71" x="80.6874" y="110.122" width="45.1688" height="45.1688" filterUnits="userSpaceOnUse" color-interpolation-filters="sRGB">
<feFlood flood-opacity="0" result="BackgroundImageFix"/>
<feBlend mode="normal" in="SourceGraphic" in2="BackgroundImageFix" result="shape"/>
<feGaussianBlur stdDeviation="10" result="effect1_foregroundBlur_161_71"/>
</filter>
<filter id="filter5_f_161_71" x="202.283" y="102.61" width="37.9779" height="37.9779" filterUnits="userSpaceOnUse" color-interpolation-filters="sRGB">
<feFlood flood-opacity="0" result="BackgroundImageFix"/>
<feBlend mode="normal" in="SourceGraphic" in2="BackgroundImageFix" result="shape"/>
<feGaussianBlur stdDeviation="8.46073" result="effect1_foregroundBlur_161_71"/>
</filter>
<filter id="filter6_f_161_71" x="116.755" y="170.116" width="37.9779" height="37.9779" filterUnits="userSpaceOnUse" color-interpolation-filters="sRGB">
<feFlood flood-opacity="0" result="BackgroundImageFix"/>
<feBlend mode="normal" in="SourceGraphic" in2="BackgroundImageFix" result="shape"/>
<feGaussianBlur stdDeviation="8.46073" result="effect1_foregroundBlur_161_71"/>
</filter>
<filter id="filter7_dd_161_71" x="0.319748" y="0.0195537" width="312.58" height="291.588" filterUnits="userSpaceOnUse" color-interpolation-filters="sRGB">
<feFlood flood-opacity="0" result="BackgroundImageFix"/>
<feColorMatrix in="SourceAlpha" type="matrix" values="0 0 0 0 0 0 0 0 0 0 0 0 0 0 0 0 0 0 127 0" result="hardAlpha"/>
<feOffset/>
<feGaussianBlur stdDeviation="15.306"/>
<feColorMatrix type="matrix" values="0 0 0 0 0.991667 0 0 0 0 0.801597 0 0 0 0 0.516493 0 0 0 1 0"/>
<feBlend mode="normal" in2="BackgroundImageFix" result="effect1_dropShadow_161_71"/>
<feColorMatrix in="SourceAlpha" type="matrix" values="0 0 0 0 0 0 0 0 0 0 0 0 0 0 0 0 0 0 127 0" result="hardAlpha"/>
<feOffset dy="6.12241"/>
<feGaussianBlur stdDeviation="45.9181"/>
<feColorMatrix type="matrix" values="0 0 0 0 1 0 0 0 0 0.722667 0 0 0 0 0.466667 0 0 0 0.6 0"/>
<feBlend mode="normal" in2="effect1_dropShadow_161_71" result="effect2_dropShadow_161_71"/>
<feBlend mode="normal" in="SourceGraphic" in2="effect2_dropShadow_161_71" result="shape"/>
</filter>
<filter id="filter8_d_161_71" x="119.009" y="135.662" width="31.731" height="52.1966" filterUnits="userSpaceOnUse" color-interpolation-filters="sRGB">
<feFlood flood-opacity="0" result="BackgroundImageFix"/>
<feColorMatrix in="SourceAlpha" type="matrix" values="0 0 0 0 0 0 0 0 0 0 0 0 0 0 0 0 0 0 127 0" result="hardAlpha"/>
<feOffset/>
<feGaussianBlur stdDeviation="4"/>
<feColorMatrix type="matrix" values="0 0 0 0 0.7 0 0 0 0 0.561568 0 0 0 0 0.32375 0 0 0 0.78 0"/>
<feBlend mode="normal" in2="BackgroundImageFix" result="effect1_dropShadow_161_71"/>
<feBlend mode="normal" in="SourceGraphic" in2="effect1_dropShadow_161_71" result="shape"/>
</filter>
<filter id="filter9_d_161_71" x="118.857" y="135.51" width="32.0365" height="52.6062" filterUnits="userSpaceOnUse" color-interpolation-filters="sRGB">
<feFlood flood-opacity="0" result="BackgroundImageFix"/>
<feColorMatrix in="SourceAlpha" type="matrix" values="0 0 0 0 0 0 0 0 0 0 0 0 0 0 0 0 0 0 127 0" result="hardAlpha"/>
<feOffset/>
<feGaussianBlur stdDeviation="4"/>
<feColorMatrix type="matrix" values="0 0 0 0 0.7 0 0 0 0 0.561568 0 0 0 0 0.32375 0 0 0 0.78 0"/>
<feBlend mode="normal" in2="BackgroundImageFix" result="effect1_dropShadow_161_71"/>
<feBlend mode="normal" in="SourceGraphic" in2="effect1_dropShadow_161_71" result="shape"/>
</filter>
<filter id="filter10_d_161_71" x="162.69" y="135.662" width="31.731" height="52.1966" filterUnits="userSpaceOnUse" color-interpolation-filters="sRGB">
<feFlood flood-opacity="0" result="BackgroundImageFix"/>
<feColorMatrix in="SourceAlpha" type="matrix" values="0 0 0 0 0 0 0 0 0 0 0 0 0 0 0 0 0 0 127 0" result="hardAlpha"/>
<feOffset/>
<feGaussianBlur stdDeviation="4"/>
<feColorMatrix type="matrix" values="0 0 0 0 0.7 0 0 0 0 0.561568 0 0 0 0 0.32375 0 0 0 0.78 0"/>
<feBlend mode="normal" in2="BackgroundImageFix" result="effect1_dropShadow_161_71"/>
<feBlend mode="normal" in="SourceGraphic" in2="effect1_dropShadow_161_71" result="shape"/>
</filter>
<filter id="filter11_d_161_71" x="162.537" y="135.51" width="32.0365" height="52.6062" filterUnits="userSpaceOnUse" color-interpolation-filters="sRGB">
<feFlood flood-opacity="0" result="BackgroundImageFix"/>
<feColorMatrix in="SourceAlpha" type="matrix" values="0 0 0 0 0 0 0 0 0 0 0 0 0 0 0 0 0 0 127 0" result="hardAlpha"/>
<feOffset/>
<feGaussianBlur stdDeviation="4"/>
<feColorMatrix type="matrix" values="0 0 0 0 0.7 0 0 0 0 0.561568 0 0 0 0 0.32375 0 0 0 0.78 0"/>
<feBlend mode="normal" in2="BackgroundImageFix" result="effect1_dropShadow_161_71"/>
<feBlend mode="normal" in="SourceGraphic" in2="effect1_dropShadow_161_71" result="shape"/>
</filter>
<filter id="filter12_d_161_71" x="131.839" y="134.135" width="49.6002" height="67.2086" filterUnits="userSpaceOnUse" color-interpolation-filters="sRGB">
<feFlood flood-opacity="0" result="BackgroundImageFix"/>
<feColorMatrix in="SourceAlpha" type="matrix" values="0 0 0 0 0 0 0 0 0 0 0 0 0 0 0 0 0 0 127 0" result="hardAlpha"/>
<feOffset/>
<feGaussianBlur stdDeviation="4"/>
<feColorMatrix type="matrix" values="0 0 0 0 0.7 0 0 0 0 0.561568 0 0 0 0 0.32375 0 0 0 0.78 0"/>
<feBlend mode="normal" in2="BackgroundImageFix" result="effect1_dropShadow_161_71"/>
<feBlend mode="normal" in="SourceGraphic" in2="effect1_dropShadow_161_71" result="shape"/>
</filter>
<filter id="filter13_d_161_71" x="131.533" y="133.83" width="50.2111" height="67.8195" filterUnits="userSpaceOnUse" color-interpolation-filters="sRGB">
<feFlood flood-opacity="0" result="BackgroundImageFix"/>
<feColorMatrix in="SourceAlpha" type="matrix" values="0 0 0 0 0 0 0 0 0 0 0 0 0 0 0 0 0 0 127 0" result="hardAlpha"/>
<feOffset/>
<feGaussianBlur stdDeviation="4"/>
<feColorMatrix type="matrix" values="0 0 0 0 0.7 0 0 0 0 0.561568 0 0 0 0 0.32375 0 0 0 0.78 0"/>
<feBlend mode="normal" in2="BackgroundImageFix" result="effect1_dropShadow_161_71"/>
<feBlend mode="normal" in="SourceGraphic" in2="effect1_dropShadow_161_71" result="shape"/>
</filter>
<filter id="filter14_d_161_71" x="112.457" y="85.7333" width="88.3641" height="101.299" filterUnits="userSpaceOnUse" color-interpolation-filters="sRGB">
<feFlood flood-opacity="0" result="BackgroundImageFix"/>
<feColorMatrix in="SourceAlpha" type="matrix" values="0 0 0 0 0 0 0 0 0 0 0 0 0 0 0 0 0 0 127 0" result="hardAlpha"/>
<feOffset dy="8"/>
<feGaussianBlur stdDeviation="3"/>
<feColorMatrix type="matrix" values="0 0 0 0 0.4375 0 0 0 0 0.287401 0 0 0 0 0.111198 0 0 0 0.6 0"/>
<feBlend mode="normal" in2="BackgroundImageFix" result="effect1_dropShadow_161_71"/>
<feBlend mode="normal" in="SourceGraphic" in2="effect1_dropShadow_161_71" result="shape"/>
</filter>
<filter id="filter15_f_161_71" x="123.807" y="91.998" width="65.5706" height="74.6159" filterUnits="userSpaceOnUse" color-interpolation-filters="sRGB">
<feFlood flood-opacity="0" result="BackgroundImageFix"/>
<feBlend mode="normal" in="SourceGraphic" in2="BackgroundImageFix" result="shape"/>
<feGaussianBlur stdDeviation="0.15" result="effect1_foregroundBlur_161_71"/>
</filter>
<filter id="filter16_i_161_71" x="127.009" y="95.4692" width="59.564" height="67.7927" filterUnits="userSpaceOnUse" color-interpolation-filters="sRGB">
<feFlood flood-opacity="0" result="BackgroundImageFix"/>
<feBlend mode="normal" in="SourceGraphic" in2="BackgroundImageFix" result="shape"/>
<feColorMatrix in="SourceAlpha" type="matrix" values="0 0 0 0 0 0 0 0 0 0 0 0 0 0 0 0 0 0 127 0" result="hardAlpha"/>
<feOffset/>
<feGaussianBlur stdDeviation="6.72414"/>
<feComposite in2="hardAlpha" operator="arithmetic" k2="-1" k3="1"/>
<feColorMatrix type="matrix" values="0 0 0 0 0.458333 0 0 0 0 0.256743 0 0 0 0 0.0706597 0 0 0 1 0"/>
<feBlend mode="normal" in2="shape" result="effect1_innerShadow_161_71"/>
</filter>
<filter id="filter17_d_161_71" x="145.866" y="99.0658" width="21.1575" height="70.8967" filterUnits="userSpaceOnUse" color-interpolation-filters="sRGB">
<feFlood flood-opacity="0" result="BackgroundImageFix"/>
<feColorMatrix in="SourceAlpha" type="matrix" values="0 0 0 0 0 0 0 0 0 0 0 0 0 0 0 0 0 0 127 0" result="hardAlpha"/>
<feOffset dy="4"/>
<feGaussianBlur stdDeviation="2"/>
<feColorMatrix type="matrix" values="0 0 0 0 0.795833 0 0 0 0 0.632621 0 0 0 0 0.441024 0 0 0 0.47 0"/>
<feBlend mode="normal" in2="BackgroundImageFix" result="effect1_dropShadow_161_71"/>
<feBlend mode="normal" in="SourceGraphic" in2="effect1_dropShadow_161_71" result="shape"/>
</filter>
<filter id="filter18_d_161_71" x="142.995" y="95.4493" width="27.6233" height="69.1424" filterUnits="userSpaceOnUse" color-interpolation-filters="sRGB">
<feFlood flood-opacity="0" result="BackgroundImageFix"/>
<feColorMatrix in="SourceAlpha" type="matrix" values="0 0 0 0 0 0 0 0 0 0 0 0 0 0 0 0 0 0 127 0" result="hardAlpha"/>
<feOffset dx="0.361644" dy="3.61644"/>
<feGaussianBlur stdDeviation="3.61644"/>
<feColorMatrix type="matrix" values="0 0 0 0 0.795833 0 0 0 0 0.519745 0 0 0 0 0.195642 0 0 0 0.42 0"/>
<feBlend mode="normal" in2="BackgroundImageFix" result="effect1_dropShadow_161_71"/>
<feBlend mode="normal" in="SourceGraphic" in2="effect1_dropShadow_161_71" result="shape"/>
</filter>
<filter id="filter19_d_161_71" x="148.798" y="150.126" width="16.9516" height="22.6858" filterUnits="userSpaceOnUse" color-interpolation-filters="sRGB">
<feFlood flood-opacity="0" result="BackgroundImageFix"/>
<feColorMatrix in="SourceAlpha" type="matrix" values="0 0 0 0 0 0 0 0 0 0 0 0 0 0 0 0 0 0 127 0" result="hardAlpha"/>
<feOffset dx="0.361644" dy="3.61644"/>
<feGaussianBlur stdDeviation="3.61644"/>
<feColorMatrix type="matrix" values="0 0 0 0 0.795833 0 0 0 0 0.519745 0 0 0 0 0.195642 0 0 0 0.42 0"/>
<feBlend mode="normal" in2="BackgroundImageFix" result="effect1_dropShadow_161_71"/>
<feBlend mode="normal" in="SourceGraphic" in2="effect1_dropShadow_161_71" result="shape"/>
</filter>
<filter id="filter20_d_161_71" x="148.773" y="149.556" width="16.8178" height="15.6876" filterUnits="userSpaceOnUse" color-interpolation-filters="sRGB">
<feFlood flood-opacity="0" result="BackgroundImageFix"/>
<feColorMatrix in="SourceAlpha" type="matrix" values="0 0 0 0 0 0 0 0 0 0 0 0 0 0 0 0 0 0 127 0" result="hardAlpha"/>
<feOffset dx="0.361644" dy="3.61644"/>
<feGaussianBlur stdDeviation="3.61644"/>
<feColorMatrix type="matrix" values="0 0 0 0 0.795833 0 0 0 0 0.519745 0 0 0 0 0.195642 0 0 0 0.42 0"/>
<feBlend mode="normal" in2="BackgroundImageFix" result="effect1_dropShadow_161_71"/>
<feBlend mode="normal" in="SourceGraphic" in2="effect1_dropShadow_161_71" result="shape"/>
</filter>
<linearGradient id="paint0_linear_161_71" x1="229.117" y1="171.519" x2="171.441" y2="138.219" gradientUnits="userSpaceOnUse">
<stop stop-color="#FFF6D6" stop-opacity="0"/>
<stop offset="1" stop-color="#FFEFC5" stop-opacity="0.4"/>
</linearGradient>
<linearGradient id="paint1_linear_161_71" x1="157.202" y1="213.643" x2="157.202" y2="147.044" gradientUnits="userSpaceOnUse">
<stop stop-color="#FFF6D6" stop-opacity="0"/>
<stop offset="1" stop-color="#FFEFC5" stop-opacity="0.4"/>
</linearGradient>
<linearGradient id="paint2_linear_161_71" x1="156.744" y1="45" x2="156.744" y2="111.599" gradientUnits="userSpaceOnUse">
<stop stop-color="#FFF6D6" stop-opacity="0"/>
<stop offset="1" stop-color="#FFEFC5" stop-opacity="0.4"/>
</linearGradient>
<linearGradient id="paint3_linear_161_71" x1="84.8826" y1="171.73" x2="142.559" y2="138.43" gradientUnits="userSpaceOnUse">
<stop stop-color="#FFF6D6" stop-opacity="0"/>
<stop offset="1" stop-color="#FFEFC5" stop-opacity="0.4"/>
</linearGradient>
<linearGradient id="paint4_linear_161_71" x1="229.117" y1="87.1677" x2="171.441" y2="120.467" gradientUnits="userSpaceOnUse">
<stop stop-color="#FFF6D6" stop-opacity="0"/>
<stop offset="1" stop-color="#FFEFC5" stop-opacity="0.4"/>
</linearGradient>
<linearGradient id="paint5_linear_161_71" x1="84.8826" y1="86.9564" x2="142.559" y2="120.256" gradientUnits="userSpaceOnUse">
<stop stop-color="#FFF6D6" stop-opacity="0"/>
<stop offset="1" stop-color="#FFEFC5" stop-opacity="0.4"/>
</linearGradient>
<linearGradient id="paint6_linear_161_71" x1="107.916" y1="111.789" x2="99.4752" y2="99.2529" gradientUnits="userSpaceOnUse">
<stop stop-color="#D2A86B"/>
<stop offset="0.875" stop-color="#FFF5DE"/>
</linearGradient>
<linearGradient id="paint7_linear_161_71" x1="94.7111" y1="96.6706" x2="102.267" y2="110.997" gradientUnits="userSpaceOnUse">
<stop stop-color="#FFF5DE"/>
<stop offset="0.378992" stop-color="#F5E3C4"/>
<stop offset="0.480868" stop-color="#E6CA9E"/>
<stop offset="0.729174" stop-color="#D2A86B"/>
</linearGradient>
<linearGradient id="paint8_linear_161_71" x1="114.145" y1="124.52" x2="105.704" y2="111.984" gradientUnits="userSpaceOnUse">
<stop stop-color="#E0C08E"/>
<stop offset="0.875" stop-color="#FFF5DE"/>
</linearGradient>
<linearGradient id="paint9_linear_161_71" x1="100.399" y1="108.985" x2="117.388" y2="129.153" gradientUnits="userSpaceOnUse">
<stop stop-color="#FFF5DE"/>
<stop offset="0.378992" stop-color="#FFF5DE"/>
<stop offset="0.480868" stop-color="#EAD2A9"/>
<stop offset="0.729174" stop-color="#D2A86B"/>
</linearGradient>
<linearGradient id="paint10_linear_161_71" x1="122.313" y1="137.539" x2="113.872" y2="125.002" gradientUnits="userSpaceOnUse">
<stop stop-color="#E0C08E"/>
<stop offset="0.875" stop-color="#FFF5DE"/>
</linearGradient>
<linearGradient id="paint11_linear_161_71" x1="108.567" y1="122.003" x2="125.556" y2="142.171" gradientUnits="userSpaceOnUse">
<stop stop-color="#FFF5DE"/>
<stop offset="0.378992" stop-color="#FFF5DE"/>
<stop offset="0.480868" stop-color="#EAD2A9"/>
<stop offset="0.729174" stop-color="#D2A86B"/>
</linearGradient>
<linearGradient id="paint12_linear_161_71" x1="127.009" y1="168.332" x2="143.16" y2="171.981" gradientUnits="userSpaceOnUse">
<stop stop-color="#8D664F"/>
<stop offset="0.208702" stop-color="#C49F7D"/>
<stop offset="0.648432" stop-color="#FFF1DC"/>
<stop offset="0.827985" stop-color="#B38368"/>
<stop offset="0.971703" stop-color="#8C5F4C"/>
</linearGradient>
<linearGradient id="paint13_linear_161_71" x1="128.995" y1="167.793" x2="134.837" y2="166.052" gradientUnits="userSpaceOnUse">
<stop stop-color="#C7A383"/>
<stop offset="0.309893" stop-color="#D5B198"/>
<stop offset="0.523799" stop-color="#CBA68C"/>
<stop offset="0.77229" stop-color="#BB9478"/>
<stop offset="1" stop-color="#D7B49B"/>
</linearGradient>
<linearGradient id="paint14_linear_161_71" x1="186.421" y1="168.332" x2="170.27" y2="171.981" gradientUnits="userSpaceOnUse">
<stop stop-color="#8D664F"/>
<stop offset="0.208702" stop-color="#C49F7D"/>
<stop offset="0.648432" stop-color="#FFF1DC"/>
<stop offset="0.827985" stop-color="#B38368"/>
<stop offset="0.971703" stop-color="#8C5F4C"/>
</linearGradient>
<linearGradient id="paint15_linear_161_71" x1="184.435" y1="167.793" x2="178.593" y2="166.052" gradientUnits="userSpaceOnUse">
<stop stop-color="#C7A383"/>
<stop offset="0.309893" stop-color="#D5B198"/>
<stop offset="0.523799" stop-color="#CBA68C"/>
<stop offset="0.77229" stop-color="#BB9478"/>
<stop offset="1" stop-color="#D7B49B"/>
</linearGradient>
<linearGradient id="paint16_linear_161_71" x1="205.304" y1="112.187" x2="213.745" y2="99.6514" gradientUnits="userSpaceOnUse">
<stop stop-color="#D2A86B"/>
<stop offset="0.875" stop-color="#FFF5DE"/>
</linearGradient>
<linearGradient id="paint17_linear_161_71" x1="218.508" y1="97.0691" x2="210.953" y2="111.396" gradientUnits="userSpaceOnUse">
<stop stop-color="#FFF5DE"/>
<stop offset="0.378992" stop-color="#F5E3C4"/>
<stop offset="0.480868" stop-color="#E6CA9E"/>
<stop offset="0.729174" stop-color="#D2A86B"/>
</linearGradient>
<linearGradient id="paint18_linear_161_71" x1="199.075" y1="124.919" x2="207.516" y2="112.383" gradientUnits="userSpaceOnUse">
<stop stop-color="#E0C08E"/>
<stop offset="0.875" stop-color="#FFF5DE"/>
</linearGradient>
<linearGradient id="paint19_linear_161_71" x1="212.821" y1="109.384" x2="195.832" y2="129.552" gradientUnits="userSpaceOnUse">
<stop stop-color="#FFF5DE"/>
<stop offset="0.378992" stop-color="#FFF5DE"/>
<stop offset="0.480868" stop-color="#EAD2A9"/>
<stop offset="0.729174" stop-color="#D2A86B"/>
</linearGradient>
<linearGradient id="paint20_linear_161_71" x1="190.907" y1="137.937" x2="199.348" y2="125.401" gradientUnits="userSpaceOnUse">
<stop stop-color="#E0C08E"/>
<stop offset="0.875" stop-color="#FFF5DE"/>
</linearGradient>
<linearGradient id="paint21_linear_161_71" x1="204.652" y1="122.402" x2="187.664" y2="142.57" gradientUnits="userSpaceOnUse">
<stop stop-color="#FFF5DE"/>
<stop offset="0.378992" stop-color="#FFF5DE"/>
<stop offset="0.480868" stop-color="#EAD2A9"/>
<stop offset="0.729174" stop-color="#D2A86B"/>
</linearGradient>
<linearGradient id="paint22_linear_161_71" x1="156.639" y1="164.739" x2="156.639" y2="193.452" gradientUnits="userSpaceOnUse">
<stop stop-color="#B58D70"/>
<stop offset="0.2286" stop-color="#B58D70"/>
<stop offset="0.47675" stop-color="#D8B59B"/>
<stop offset="0.88344" stop-color="#B58D70"/>
<stop offset="1" stop-color="#B58D70"/>
</linearGradient>
<linearGradient id="paint23_linear_161_71" x1="139.839" y1="177.11" x2="172.331" y2="188.17" gradientUnits="userSpaceOnUse">
<stop stop-color="#8D664F"/>
<stop offset="0.208702" stop-color="#FFF5E6"/>
<stop offset="0.648432" stop-color="#ECD8BA"/>
<stop offset="0.780206" stop-color="#D0A568"/>
<stop offset="0.971703" stop-color="#8C5F4C"/>
</linearGradient>
<linearGradient id="paint24_linear_161_71" x1="156.333" y1="159.241" x2="156.333" y2="193.038" gradientUnits="userSpaceOnUse">
<stop stop-color="#DDBFA9"/>
<stop offset="0.22229" stop-color="#DDBFA9"/>
<stop offset="0.669825" stop-color="#EBD4C4"/>
<stop offset="0.898796" stop-color="#DDBFA9"/>
<stop offset="1" stop-color="#DDBFA9"/>
</linearGradient>
<linearGradient id="paint25_linear_161_71" x1="170.193" y1="181.032" x2="157.936" y2="171.534" gradientUnits="userSpaceOnUse">
<stop stop-color="#ECD8BA"/>
<stop offset="0.309893" stop-color="#EBD3AE"/>
<stop offset="0.523799" stop-color="#E2C69C"/>
<stop offset="0.77229" stop-color="#E3C8A0"/>
<stop offset="1" stop-color="#ECD8BA"/>
</linearGradient>
<linearGradient id="paint26_linear_161_71" x1="156.485" y1="184.899" x2="156.485" y2="190.077" gradientUnits="userSpaceOnUse">
<stop stop-color="#FAECD8"/>
<stop offset="0.491891" stop-color="#F9EBD7"/>
<stop offset="1" stop-color="#ECD5B4"/>
</linearGradient>
<linearGradient id="paint27_linear_161_71" x1="155.346" y1="185.032" x2="155.346" y2="189.164" gradientUnits="userSpaceOnUse">
<stop stop-color="#F9EBD7"/>
<stop offset="0.479167" stop-color="#FAEDD9"/>
<stop offset="1" stop-color="#F8E9D4"/>
</linearGradient>
<linearGradient id="paint28_linear_161_71" x1="157.625" y1="185.032" x2="157.625" y2="189.164" gradientUnits="userSpaceOnUse">
<stop stop-color="#FAEDD8"/>
<stop offset="0.479167" stop-color="#FAECD8"/>
<stop offset="1" stop-color="#EAD4B2"/>
</linearGradient>
<linearGradient id="paint29_linear_161_71" x1="156.163" y1="189.452" x2="152.719" y2="189.86" gradientUnits="userSpaceOnUse">
<stop stop-color="#E5CBA6"/>
<stop offset="0.309893" stop-color="#FAEDDA"/>
<stop offset="0.523799" stop-color="#F3E2C9"/>
<stop offset="0.613641" stop-color="#EFDCC0"/>
<stop offset="1" stop-color="#EFDCC0"/>
</linearGradient>
<linearGradient id="paint30_linear_161_71" x1="140.602" y1="95.7057" x2="174.966" y2="163.975" gradientUnits="userSpaceOnUse">
<stop stop-color="#FFF5DE"/>
<stop offset="1" stop-color="#CFA365"/>
</linearGradient>
<linearGradient id="paint31_linear_161_71" x1="140.297" y1="101.357" x2="169.926" y2="156.033" gradientUnits="userSpaceOnUse">
<stop stop-color="#D2A86C"/>
<stop offset="1" stop-color="#F8E6C0"/>
</linearGradient>
<linearGradient id="paint32_linear_161_71" x1="143.504" y1="99.3712" x2="175.424" y2="156.797" gradientUnits="userSpaceOnUse">
<stop stop-color="#FFF6E7"/>
<stop offset="1" stop-color="#FFF8EC"/>
</linearGradient>
<radialGradient id="paint33_radial_161_71" cx="0" cy="0" r="1" gradientUnits="userSpaceOnUse" gradientTransform="translate(156.791 129.366) rotate(90) scale(34.5762 29.782)">
<stop stop-color="#FFE4BA"/>
<stop offset="1" stop-color="#DEA44D"/>
</radialGradient>
<linearGradient id="paint34_linear_161_71" x1="156.791" y1="93.42" x2="156.791" y2="165.308" gradientUnits="userSpaceOnUse">
<stop stop-color="white"/>
<stop offset="1" stop-color="#F2EDED" stop-opacity="0"/>
</linearGradient>
<linearGradient id="paint35_linear_161_71" x1="120.022" y1="99.9241" x2="155.966" y2="162.181" gradientUnits="userSpaceOnUse">
<stop stop-color="white"/>
<stop offset="1" stop-color="#F2EDED" stop-opacity="0"/>
</linearGradient>
<linearGradient id="paint36_linear_161_71" x1="190.883" y1="99.9242" x2="154.939" y2="162.181" gradientUnits="userSpaceOnUse">
<stop stop-color="white"/>
<stop offset="1" stop-color="#F2EDED" stop-opacity="0"/>
</linearGradient>
<linearGradient id="paint37_linear_161_71" x1="156.791" y1="142.03" x2="156.612" y2="161.542" gradientUnits="userSpaceOnUse">
<stop stop-color="white" stop-opacity="0"/>
<stop offset="1" stop-color="#FFF1E3"/>
</linearGradient>
<linearGradient id="paint38_linear_161_71" x1="155.403" y1="85.36" x2="165.201" y2="86.0766" gradientUnits="userSpaceOnUse">
<stop offset="0.168737" stop-color="#FDF2D9"/>
<stop offset="0.304755" stop-color="#FFF7E3"/>
<stop offset="0.451944" stop-color="#FFFCF4"/>
<stop offset="0.581036" stop-color="#FFF1D9"/>
<stop offset="0.705947" stop-color="#F3E0BF"/>
<stop offset="0.940592" stop-color="#FFF5DE"/>
</linearGradient>
<linearGradient id="paint39_linear_161_71" x1="161.509" y1="118.651" x2="164.233" y2="118.952" gradientUnits="userSpaceOnUse">
<stop offset="0.168737" stop-color="#FDF2D9"/>
<stop offset="0.304755" stop-color="#FFF7E3"/>
<stop offset="0.451944" stop-color="#FFFCF4"/>
<stop offset="0.581036" stop-color="#FFF1D9"/>
<stop offset="0.705947" stop-color="#F3E0BF"/>
<stop offset="0.940592" stop-color="#FFF5DE"/>
</linearGradient>
<linearGradient id="paint40_linear_161_71" x1="151.21" y1="120.389" x2="154.135" y2="120.894" gradientUnits="userSpaceOnUse">
<stop offset="0.168737" stop-color="#FDF2D9"/>
<stop offset="0.304755" stop-color="#FFF7E3"/>
<stop offset="0.451944" stop-color="#FFFCF4"/>
<stop offset="0.581036" stop-color="#FFF1D9"/>
<stop offset="0.705947" stop-color="#F3E0BF"/>
<stop offset="0.940592" stop-color="#FFF5DE"/>
</linearGradient>
<linearGradient id="paint41_linear_161_71" x1="160.433" y1="106.409" x2="163.218" y2="107.056" gradientUnits="userSpaceOnUse">
<stop offset="0.168737" stop-color="#FDF2D9"/>
<stop offset="0.304755" stop-color="#FFF7E3"/>
<stop offset="0.451944" stop-color="#FFFCF4"/>
<stop offset="0.581036" stop-color="#FFF1D9"/>
<stop offset="0.705947" stop-color="#F3E0BF"/>
<stop offset="0.940592" stop-color="#FFF5DE"/>
</linearGradient>
<linearGradient id="paint42_linear_161_71" x1="159.408" y1="100.381" x2="161.883" y2="100.847" gradientUnits="userSpaceOnUse">
<stop offset="0.168737" stop-color="#FDF2D9"/>
<stop offset="0.304755" stop-color="#FFF7E3"/>
<stop offset="0.451944" stop-color="#FFFCF4"/>
<stop offset="0.581036" stop-color="#FFF1D9"/>
<stop offset="0.705947" stop-color="#F3E0BF"/>
<stop offset="0.940592" stop-color="#FFF5DE"/>
</linearGradient>
<linearGradient id="paint43_linear_161_71" x1="156.716" y1="151.682" x2="158.561" y2="151.852" gradientUnits="userSpaceOnUse">
<stop offset="0.168737" stop-color="#FDF2D9"/>
<stop offset="0.304755" stop-color="#FFF7E3"/>
<stop offset="0.451944" stop-color="#FFFCF4"/>
<stop offset="0.581036" stop-color="#FFF1D9"/>
<stop offset="0.705947" stop-color="#F3E0BF"/>
<stop offset="0.940592" stop-color="#FFF5DE"/>
</linearGradient>
<linearGradient id="paint44_linear_161_71" x1="158.369" y1="152.28" x2="160.912" y2="152.626" gradientUnits="userSpaceOnUse">
<stop offset="0.168737" stop-color="#FDF2D9"/>
<stop offset="0.304755" stop-color="#FFF7E3"/>
<stop offset="0.451944" stop-color="#FFFCF4"/>
<stop offset="0.581036" stop-color="#FFF1D9"/>
<stop offset="0.705947" stop-color="#F3E0BF"/>
<stop offset="0.940592" stop-color="#FFF5DE"/>
</linearGradient>
<linearGradient id="paint45_linear_161_71" x1="156.619" y1="153.293" x2="158.135" y2="154.675" gradientUnits="userSpaceOnUse">
<stop offset="0.168737" stop-color="#FDF2D9"/>
<stop offset="0.304755" stop-color="#FFF7E3"/>
<stop offset="0.451944" stop-color="#FFFCF4"/>
<stop offset="0.581036" stop-color="#FFF1D9"/>
<stop offset="0.705947" stop-color="#F3E0BF"/>
<stop offset="0.940592" stop-color="#FFF5DE"/>
</linearGradient>
<linearGradient id="paint46_linear_161_71" x1="156.716" y1="158.253" x2="158.463" y2="158.698" gradientUnits="userSpaceOnUse">
<stop offset="0.168737" stop-color="#FDF2D9"/>
<stop offset="0.304755" stop-color="#FFF7E3"/>
<stop offset="0.451944" stop-color="#FFFCF4"/>
<stop offset="0.581036" stop-color="#FFF1D9"/>
<stop offset="0.705947" stop-color="#F3E0BF"/>
<stop offset="0.940592" stop-color="#FFF5DE"/>
</linearGradient>
<linearGradient id="paint47_linear_161_71" x1="156.634" y1="152.866" x2="157.946" y2="153.633" gradientUnits="userSpaceOnUse">
<stop offset="0.168737" stop-color="#FDF2D9"/>
<stop offset="0.304755" stop-color="#FFF7E3"/>
<stop offset="0.451944" stop-color="#FFFCF4"/>
<stop offset="0.581036" stop-color="#FFF1D9"/>
<stop offset="0.705947" stop-color="#F3E0BF"/>
<stop offset="0.940592" stop-color="#FFF5DE"/>
</linearGradient>
</defs>
</svg>
