<svg width="24" height="22" viewBox="0 0 24 22" fill="none" xmlns="http://www.w3.org/2000/svg">
<path d="M13 19.8542C12.4132 19.8542 11.9375 20.3299 11.9375 20.9167C11.9375 21.5035 12.4132 21.9792 13 21.9792H21.5C22.8692 21.9792 23.9792 20.8692 23.9792 19.5V2.50001C23.9792 1.13081 22.8692 0.0208435 21.5 0.0208435H13C12.4132 0.0208435 11.9375 0.496543 11.9375 1.08334C11.9375 1.67015 12.4132 2.14584 13 2.14584L21.5 2.14584C21.6956 2.14584 21.8542 2.30441 21.8542 2.50001L21.8542 19.5C21.8542 19.6956 21.6956 19.8542 21.5 19.8542H13Z" fill="#48484A"/>
<path fill-rule="evenodd" clip-rule="evenodd" d="M16.546 14.3507C17.5241 14.3507 18.3169 13.5579 18.3169 12.5799V9.40584C18.3169 8.42784 17.5241 7.63501 16.546 7.63501L10.0115 7.63501C10.0023 7.53099 9.99262 7.42699 9.98251 7.32303L9.90597 6.53553C9.7892 5.33404 8.51335 4.6145 7.42475 5.1362C5.10959 6.24573 3.01372 7.76404 1.23794 9.61811L1.09741 9.76484C0.43978 10.4515 0.43978 11.5343 1.09741 12.2209L1.23794 12.3676C3.01372 14.2217 5.10959 15.74 7.42475 16.8495C8.51334 17.3712 9.7892 16.6517 9.90597 15.4502L9.98251 14.6627C9.99262 14.5587 10.0023 14.4548 10.0115 14.3507H16.546ZM9.02642 12.2257C8.64907 12.2257 8.31547 12.4231 8.1268 12.7226C8.03493 12.8685 7.97742 13.0387 7.96598 13.2221C7.94028 13.6342 7.90745 14.0459 7.86748 14.4571L7.84527 14.6857C6.37753 13.9293 5.0145 12.9873 3.78939 11.8839C3.47155 11.5976 3.163 11.3005 2.8643 10.9929C4.31432 9.49962 5.99675 8.25266 7.84526 7.30002L7.86748 7.52859C7.90745 7.93982 7.94028 8.35157 7.96598 8.76365C8.00091 9.32368 8.4653 9.76001 9.02642 9.76001H16.1919V12.2257H9.02642Z" fill="#48484A"/>
</svg>
