<svg width="6" height="30" viewBox="0 0 4 18" fill="none" xmlns="http://www.w3.org/2000/svg">
		<path d="M2 0.250031C2.9665 0.250031 3.75 1.03353 3.75 2.00003C3.75 2.96653 2.9665 3.75003 2 3.75003C1.0335 3.75003 0.250001 2.96653 0.250001 2.00003C0.250001 1.03353 1.0335 0.25003 2 0.250031Z" fill="#D9D9D9" />
		<path d="M2 7.25003C2.9665 7.25003 3.75 8.03353 3.75 9.00003C3.75 9.96653 2.9665 10.75 2 10.75C1.0335 10.75 0.25 9.96653 0.25 9.00003C0.25 8.03353 1.0335 7.25003 2 7.25003Z" fill="#D9D9D9" />
		<path d="M2 14.25C2.9665 14.25 3.75 15.0335 3.75 16C3.75 16.9665 2.9665 17.75 2 17.75C1.0335 17.75 0.25 16.9665 0.25 16C0.25 15.0335 1.0335 14.25 2 14.25Z" fill="#D9D9D9" />
</svg>