<svg width="20" height="20" viewBox="0 0 20 20" fill="none" xmlns="http://www.w3.org/2000/svg">
<path d="M4.17528 10C4.17528 9.51678 4.56703 9.12503 5.05028 9.12503H9.125V5.05028C9.125 4.56703 9.51675 4.17528 10 4.17528C10.4832 4.17528 10.875 4.56703 10.875 5.05028V9.12503H14.9498C15.433 9.12503 15.8248 9.51678 15.8248 10C15.8248 10.4833 15.433 10.875 14.9498 10.875H10.875V14.9498C10.875 15.433 10.4832 15.8248 10 15.8248C9.51675 15.8248 9.125 15.433 9.125 14.9498V10.875H5.05028C4.56703 10.875 4.17528 10.4833 4.17528 10Z" fill="#758293"/>
<path fill-rule="evenodd" clip-rule="evenodd" d="M4.53619 0.396915C8.13833 -0.00567746 11.8616 -0.00567746 15.4638 0.396915C17.5946 0.635061 19.3153 2.31348 19.5659 4.4566C19.9967 8.13967 19.9967 11.8604 19.5659 15.5435C19.3153 17.6866 17.5946 19.365 15.4638 19.6032C11.8616 20.0058 8.13834 20.0058 4.53619 19.6032C2.40541 19.365 0.684696 17.6866 0.434039 15.5435C0.00326965 11.8604 0.00326972 8.13967 0.434039 4.4566C0.684696 2.31348 2.40541 0.635061 4.53619 0.396915ZM15.2694 2.13609C11.7964 1.74793 8.20353 1.74793 4.73057 2.13609C3.3954 2.28531 2.32667 3.3391 2.17219 4.65989C1.75722 8.2079 1.75722 11.7922 2.17219 15.3402C2.32667 16.661 3.3954 17.7148 4.73057 17.864C8.20353 18.2521 11.7964 18.2521 15.2694 17.864C16.6046 17.7148 17.6733 16.661 17.8278 15.3402C18.2427 11.7922 18.2427 8.2079 17.8278 4.65989C17.6733 3.3391 16.6046 2.28531 15.2694 2.13609Z" fill="#758293"/>
</svg>
