<svg width="76" height="76" viewBox="0 0 28 28" fill="none" xmlns="http://www.w3.org/2000/svg">
<path fill-rule="evenodd" clip-rule="evenodd" d="M15.1666 3.50004C15.1666 2.85571 14.6442 2.33337 13.9999 2.33337C13.3556 2.33337 12.8332 2.85571 12.8332 3.50004V4.37504H12.1829C9.58698 4.37504 7.43845 6.39339 7.27641 8.98424L7.01857 13.1066C6.92027 14.6783 6.3926 16.193 5.49303 17.4855C4.68023 18.6534 5.40382 20.2665 6.81657 20.436L10.7916 20.913V22.1667C10.7916 23.9386 12.228 25.375 13.9999 25.375C15.7718 25.375 17.2082 23.9386 17.2082 22.1667V20.913L21.1832 20.436C22.5959 20.2665 23.3195 18.6534 22.5067 17.4855C21.6072 16.193 21.0795 14.6783 20.9812 13.1066L20.7234 8.98424C20.5613 6.39339 18.4128 4.37504 15.8169 4.37504H15.1666V3.50004ZM12.1829 6.12504C10.5111 6.12504 9.12736 7.42491 9.02299 9.09348L8.76516 13.2158C8.64686 15.1072 8.0119 16.9298 6.92941 18.4852C6.87066 18.5696 6.92296 18.6862 7.02508 18.6985L11.3857 19.2217C13.1223 19.4301 14.8775 19.4301 16.6141 19.2217L20.9747 18.6985C21.0768 18.6862 21.1291 18.5696 21.0704 18.4852C19.9879 16.9298 19.3529 15.1072 19.2346 13.2158L18.9768 9.09348C18.8724 7.42491 17.4887 6.12504 15.8169 6.12504H12.1829ZM13.9999 23.625C13.1945 23.625 12.5416 22.9721 12.5416 22.1667V21.2917H15.4582V22.1667C15.4582 22.9721 14.8053 23.625 13.9999 23.625Z" fill="#FCFDFF"/>
</svg>
