<svg width="18" height="24" viewBox="0 0 18 24" fill="none" xmlns="http://www.w3.org/2000/svg">
<path fill-rule="evenodd" clip-rule="evenodd" d="M10.0137 1.16667C10.0137 0.522334 9.49139 0 8.84706 0C8.20272 0 7.68039 0.522334 7.68039 1.16667V2.04167H7.03007C4.43415 2.04167 2.28562 4.06001 2.12357 6.65087L1.86574 10.7732C1.76743 12.345 1.23976 13.8596 0.340194 15.1522C-0.472602 16.3201 0.250989 17.9331 1.66374 18.1026L5.63872 18.5796V19.8333C5.63872 21.6052 7.07514 23.0417 8.84706 23.0417C10.619 23.0417 12.0554 21.6052 12.0554 19.8333V18.5796L16.0304 18.1026C17.4431 17.9331 18.1667 16.3201 17.3539 15.1522C16.4543 13.8596 15.9267 12.345 15.8284 10.7732L15.5705 6.65087C15.4085 4.06001 13.2599 2.04167 10.664 2.04167H10.0137V1.16667ZM7.03007 3.79167C5.35823 3.79167 3.97452 5.09153 3.87016 6.76011L3.61233 10.8825C3.49403 12.7738 2.85907 14.5964 1.77658 16.1518C1.71783 16.2362 1.77013 16.3528 1.87224 16.3651L6.23285 16.8884C7.96942 17.0967 9.72468 17.0967 11.4613 16.8884L15.8219 16.3651C15.924 16.3528 15.9763 16.2362 15.9175 16.1518C14.835 14.5964 14.2001 12.7738 14.0818 10.8825L13.8239 6.76011C13.7196 5.09153 12.3359 3.79167 10.664 3.79167H7.03007ZM8.84706 21.2917C8.04164 21.2917 7.38872 20.6387 7.38872 19.8333V18.9583H10.3054V19.8333C10.3054 20.6387 9.65247 21.2917 8.84706 21.2917Z" fill="#FCFDFF"/>
</svg>
