<svg width="28" height="28" viewBox="0 0 28 28" fill="none" xmlns="http://www.w3.org/2000/svg">
<path fill-rule="evenodd" clip-rule="evenodd" d="M15.1667 3.49998C15.1667 2.85565 14.6443 2.33331 14 2.33331C13.3557 2.33331 12.8333 2.85565 12.8333 3.49998V4.37498H12.183C9.58711 4.37498 7.43858 6.39333 7.27653 8.98418L7.01869 13.1065C6.92039 14.6783 6.39272 16.1929 5.49315 17.4855C4.68035 18.6534 5.40394 20.2664 6.81669 20.4359L10.7917 20.9129V22.1666C10.7917 23.9386 12.2281 25.375 14 25.375C15.7719 25.375 17.2083 23.9386 17.2083 22.1666V20.9129L21.1833 20.4359C22.5961 20.2664 23.3197 18.6534 22.5069 17.4855C21.6073 16.1929 21.0796 14.6783 20.9813 13.1065L20.7235 8.98418C20.5614 6.39333 18.4129 4.37498 15.817 4.37498H15.1667V3.49998ZM12.183 6.12498C10.5112 6.12498 9.12748 7.42485 9.02312 9.09342L8.76528 13.2158C8.64699 15.1071 8.01202 16.9297 6.92953 18.4851C6.87079 18.5695 6.92308 18.6861 7.0252 18.6984L11.3858 19.2217C13.1224 19.4301 14.8776 19.4301 16.6142 19.2217L20.9748 18.6984C21.0769 18.6861 21.1292 18.5696 21.0705 18.4851C19.988 16.9297 19.353 15.1071 19.2347 13.2158L18.9769 9.09342C18.8725 7.42485 17.4888 6.12498 15.817 6.12498H12.183ZM14 23.625C13.1946 23.625 12.5417 22.9721 12.5417 22.1666V21.2916H15.4583V22.1666C15.4583 22.9721 14.8054 23.625 14 23.625Z" fill="#FCFDFF"/>
<circle cx="19.8334" cy="8.16667" r="4.66667" fill="#EF476F"/>
</svg>
