<svg width="4" height="20" viewBox="0 0 4 20" fill="none" xmlns="http://www.w3.org/2000/svg">
<path d="M2 0.625C3.03553 0.625 3.875 1.46447 3.875 2.5C3.875 3.53553 3.03553 4.375 2 4.375C0.964467 4.375 0.125001 3.53553 0.125001 2.5C0.125001 1.46447 0.964467 0.625 2 0.625Z" fill="#D9D9D9"/>
<path d="M2 8.125C3.03553 8.125 3.875 8.96447 3.875 10C3.875 11.0355 3.03553 11.875 2 11.875C0.964466 11.875 0.125 11.0355 0.125 10C0.125 8.96447 0.964467 8.125 2 8.125Z" fill="#D9D9D9"/>
<path d="M2 15.625C3.03553 15.625 3.875 16.4645 3.875 17.5C3.875 18.5355 3.03553 19.375 2 19.375C0.964466 19.375 0.125 18.5355 0.125 17.5C0.125 16.4645 0.964466 15.625 2 15.625Z" fill="#D9D9D9"/>
</svg>
