<svg width="76" height="76" viewBox="0 0 18 18" fill="none" xmlns="http://www.w3.org/2000/svg">
<path fill-rule="evenodd" clip-rule="evenodd" d="M11.3851 12.4457C8.73482 14.5684 4.85538 14.4013 2.3986 11.9445C-0.23744 9.3085 -0.23744 5.03464 2.3986 2.3986C5.03464 -0.23744 9.3085 -0.23744 11.9445 2.3986C14.4013 4.85538 14.5684 8.73481 12.4457 11.3851L17.6014 16.5407C17.8943 16.8336 17.8943 17.3085 17.6014 17.6014C17.3085 17.8943 16.8336 17.8943 16.5407 17.6014L11.3851 12.4457ZM3.45926 10.8839C1.40901 8.83363 1.40901 5.50951 3.45926 3.45926C5.50951 1.40901 8.83363 1.40901 10.8839 3.45926C12.9326 5.50801 12.9341 8.82875 10.8884 10.8794C10.8869 10.8809 10.8854 10.8823 10.8839 10.8839C10.8824 10.8854 10.8809 10.8869 10.8794 10.8884C8.82876 12.9341 5.50801 12.9326 3.45926 10.8839Z" fill="#C6E1FF" fill-opacity="0.5"/>
</svg>
