<svg width="24" height="24" viewBox="0 0 24 24" fill="none" xmlns="http://www.w3.org/2000/svg">
<g id="Outline/Interface/Search">
<path id="Icon" fill-rule="evenodd" clip-rule="evenodd" d="M14.3851 15.4457C11.7349 17.5684 7.85544 17.4013 5.39866 14.9445C2.76262 12.3085 2.76262 8.03464 5.39866 5.3986C8.0347 2.76256 12.3086 2.76256 14.9446 5.3986C17.4014 7.85538 17.5685 11.7348 15.4458 14.3851L20.6014 19.5407C20.8943 19.8336 20.8943 20.3085 20.6014 20.6014C20.3085 20.8943 19.8337 20.8943 19.5408 20.6014L14.3851 15.4457ZM6.45932 13.8839C4.40907 11.8336 4.40907 8.50951 6.45932 6.45926C8.50957 4.40901 11.8337 4.40901 13.8839 6.45926C15.9327 8.50801 15.9342 11.8287 13.8885 13.8794C13.8869 13.8809 13.8854 13.8823 13.8839 13.8839C13.8824 13.8854 13.8809 13.8869 13.8794 13.8884C11.8288 15.9341 8.50807 15.9326 6.45932 13.8839Z" fill="#C6E1FF50"/>
</g>
</svg>
