<svg width="72" height="72" viewBox="0 0 72 72" fill="none" xmlns="http://www.w3.org/2000/svg">
<path fill-rule="evenodd" clip-rule="evenodd" d="M36.4161 13.7243C39.5737 11.093 44.3918 12.9943 44.9016 17.0728C46.4728 29.642 46.4728 42.3579 44.9016 54.9272C44.3918 59.0056 39.5737 60.9069 36.4161 58.2756L23.394 47.4238C23.2592 47.3115 23.0893 47.25 22.9138 47.25H12C9.1005 47.25 6.75 44.8995 6.75 42V30C6.75 27.1005 9.1005 24.75 12 24.75H22.9138C23.0893 24.75 23.2592 24.6885 23.394 24.5761L36.4161 13.7243ZM40.4364 17.631C40.3679 17.0833 39.721 16.828 39.297 17.1813L26.2748 28.0331C25.3313 28.8194 24.142 29.25 22.9138 29.25H12C11.5858 29.25 11.25 29.5858 11.25 30V42C11.25 42.4142 11.5858 42.75 12 42.75H22.9138C24.142 42.75 25.3313 43.1806 26.2748 43.9668L39.297 54.8186C39.721 55.1719 40.3679 54.9166 40.4364 54.369C41.9612 42.1704 41.9612 29.8295 40.4364 17.631Z" fill="#409CFF"/>
<path d="M51.6057 29.1057C52.4844 28.227 53.909 28.227 54.7877 29.1057L58.5 32.818L62.2123 29.1057C63.091 28.227 64.5156 28.227 65.3943 29.1057C66.273 29.9844 66.273 31.409 65.3943 32.2877L61.682 36L65.3943 39.7123C66.273 40.591 66.273 42.0156 65.3943 42.8943C64.5156 43.7729 63.091 43.7729 62.2123 42.8943L58.5 39.1819L54.7877 42.8943C53.909 43.7729 52.4844 43.7729 51.6057 42.8943C50.727 42.0156 50.727 40.591 51.6057 39.7123L55.318 36L51.6057 32.2877C50.727 31.409 50.727 29.9844 51.6057 29.1057Z" fill="#409CFF"/>
</svg>
