<svg width="72" height="72" viewBox="0 0 72 72" fill="none" xmlns="http://www.w3.org/2000/svg">
<path fill-rule="evenodd" clip-rule="evenodd" d="M36.4162 13.7243C39.5737 11.093 44.3918 12.9943 44.9016 17.0728C46.4728 29.642 46.4728 42.3579 44.9016 54.9272C44.3918 59.0056 39.5737 60.9069 36.4161 58.2756L23.394 47.4238C23.2592 47.3115 23.0893 47.25 22.9139 47.25H12C9.10051 47.25 6.75 44.8995 6.75 42V30C6.75 27.1005 9.10051 24.75 12 24.75H22.9139C23.0893 24.75 23.2592 24.6885 23.394 24.5761L36.4162 13.7243ZM40.4364 17.631C40.3679 17.0833 39.721 16.828 39.297 17.1813L26.2748 28.0331C25.3313 28.8194 24.142 29.25 22.9139 29.25H12C11.5858 29.25 11.25 29.5858 11.25 30V42C11.25 42.4142 11.5858 42.75 12 42.75H22.9139C24.142 42.75 25.3313 43.1806 26.2748 43.9668L39.297 54.8186C39.721 55.1719 40.3679 54.9166 40.4364 54.369C41.9612 42.1704 41.9612 29.8295 40.4364 17.631Z" fill="#D9D9D9"/>
<path d="M59.7245 17.8373C60.9043 17.4471 62.177 18.0872 62.5672 19.267C64.3085 24.5319 65.25 30.1582 65.25 36C65.25 41.8418 64.3085 47.4681 62.5672 52.733C62.177 53.9128 60.9043 54.5529 59.7245 54.1627C58.5447 53.7725 57.9046 52.4998 58.2948 51.32C59.8872 46.5052 60.75 41.3556 60.75 36C60.75 30.6444 59.8872 25.4948 58.2948 20.68C57.9046 19.5002 58.5447 18.2275 59.7245 17.8373Z" fill="#D9D9D9"/>
<path d="M54.0969 23.8431C53.6683 22.6767 52.3753 22.0785 51.2089 22.5071C50.0425 22.9356 49.4444 24.2286 49.8729 25.395C51.0865 28.6978 51.75 32.2689 51.75 36C51.75 39.0948 51.2935 42.079 50.4457 44.8909C50.3984 45.0476 50.35 45.2038 50.3003 45.3594C50.1665 45.7786 50.024 46.1938 49.8729 46.605C49.4444 47.7714 50.0425 49.0643 51.2089 49.4929C52.3753 49.9215 53.6683 49.3233 54.0969 48.1569C54.2702 47.6851 54.4338 47.2086 54.5873 46.7275C54.6443 46.5489 54.6999 46.3697 54.7541 46.1899C55.7275 42.9613 56.25 39.5396 56.25 36C56.25 31.7316 55.4903 27.6356 54.0969 23.8431Z" fill="#D9D9D9"/>
</svg>
